<?xml version="1.0" encoding="UTF-8" standalone="no"?>
<!-- Created with Inkscape (http://www.inkscape.org/) -->

<svg
   xmlns:dc="http://purl.org/dc/elements/1.1/"
   xmlns:cc="http://creativecommons.org/ns#"
   xmlns:rdf="http://www.w3.org/1999/02/22-rdf-syntax-ns#"
   xmlns:svg="http://www.w3.org/2000/svg"
   xmlns="http://www.w3.org/2000/svg"
   xmlns:sodipodi="http://sodipodi.sourceforge.net/DTD/sodipodi-0.dtd"
   xmlns:inkscape="http://www.inkscape.org/namespaces/inkscape"
   width="500"
   height="500"
   viewBox="0 0 132.29166 132.29167"
   version="1.1"
   id="svg885"
   inkscape:version="0.92.5 (2060ec1f9f, 2020-04-08)"
   sodipodi:docname="back2.svg">
  <defs
     id="defs879" />
  <sodipodi:namedview
     id="base"
     pagecolor="#ffffff"
     bordercolor="#666666"
     borderopacity="1.0"
     inkscape:pageopacity="0.0"
     inkscape:pageshadow="2"
     inkscape:zoom="0.98994949"
     inkscape:cx="32.01611"
     inkscape:cy="256.58693"
     inkscape:document-units="mm"
     inkscape:current-layer="layer1"
     showgrid="false"
     units="px"
     inkscape:window-width="1848"
     inkscape:window-height="1016"
     inkscape:window-x="72"
     inkscape:window-y="27"
     inkscape:window-maximized="1"
     inkscape:lockguides="true" />
  <metadata
     id="metadata882">
    <rdf:RDF>
      <cc:Work
         rdf:about="">
        <dc:format>image/svg+xml</dc:format>
        <dc:type
           rdf:resource="http://purl.org/dc/dcmitype/StillImage" />
        <dc:title />
      </cc:Work>
    </rdf:RDF>
  </metadata>
  <g
     inkscape:label="Layer 1"
     inkscape:groupmode="layer"
     id="layer1"
     transform="translate(0,-164.70832)">
    <ellipse
       style="opacity:0.26199999;vector-effect:none;fill:#754f75;fill-opacity:1;stroke:none;stroke-width:1.17161381;stroke-linecap:round;stroke-linejoin:round;stroke-miterlimit:4;stroke-dasharray:none;stroke-dashoffset:0;stroke-opacity:1"
       id="path1534"
       cx="85.47683"
       cy="282.5824"
       rx="42.783207"
       ry="9.6148434" />
    <ellipse
       style="opacity:0.26199999;vector-effect:none;fill:#754f75;fill-opacity:1;stroke:none;stroke-width:0.76952147;stroke-linecap:round;stroke-linejoin:round;stroke-miterlimit:4;stroke-dasharray:none;stroke-dashoffset:0;stroke-opacity:1"
       id="path1534-9"
       cx="71.481262"
       cy="282.92374"
       rx="28.100214"
       ry="6.3150744" />
    <circle
       style="opacity:1;vector-effect:none;fill:#9957af;fill-opacity:1;stroke:none;stroke-width:1.14031112;stroke-linecap:round;stroke-linejoin:round;stroke-miterlimit:4;stroke-dasharray:none;stroke-dashoffset:0;stroke-opacity:1"
       id="path1449"
       cx="62.440365"
       cy="229.14644"
       r="58.030418" />
    <circle
       style="opacity:1;vector-effect:none;fill:#82326f;fill-opacity:1;stroke:none;stroke-width:1.11348021;stroke-linecap:round;stroke-linejoin:round;stroke-miterlimit:4;stroke-dasharray:none;stroke-dashoffset:0;stroke-opacity:1"
       id="path1449-3"
       cx="62.440365"
       cy="229.14644"
       r="56.665001" />
    <ellipse
       style="opacity:1;vector-effect:none;fill:#613e6d;fill-opacity:1;stroke:none;stroke-width:0.73709202;stroke-linecap:round;stroke-linejoin:round;stroke-miterlimit:4;stroke-dasharray:none;stroke-dashoffset:0;stroke-opacity:1"
       id="path1449-3-3"
       cx="62.440365"
       cy="229.14644"
       rx="37.386955"
       ry="37.634663" />
    <ellipse
       style="opacity:1;vector-effect:none;fill:#000000;fill-opacity:1;stroke:none;stroke-width:0.68278807;stroke-linecap:round;stroke-linejoin:round;stroke-miterlimit:4;stroke-dasharray:none;stroke-dashoffset:0;stroke-opacity:1"
       id="path1449-3-3-0"
       cx="62.440365"
       cy="229.14644"
       rx="34.632538"
       ry="34.861996" />
    <path
       style="fill:#c12688;fill-opacity:1;stroke:none;stroke-width:0.45056611px;stroke-linecap:butt;stroke-linejoin:miter;stroke-opacity:1"
       d="m 12.488691,207.29972 c 0,0 4.63182,-14.18778 20.139969,-23.89489 15.916805,-9.96289 28.901421,-9.44417 28.901421,-9.44417 0,0 -17.19509,5.47451 -27.763568,12.2888 -12.174689,7.84993 -21.277822,21.05026 -21.277822,21.05026 z"
       id="path1496"
       inkscape:connector-curvature="0"
       sodipodi:nodetypes="cscsc" />
    <path
       style="fill:#c12688;fill-opacity:1;stroke:none;stroke-width:0.45056611px;stroke-linecap:butt;stroke-linejoin:miter;stroke-opacity:1"
       d="m 67.352956,283.81496 c 0,0 17.255122,-2.81772 32.22176,-16.62391 14.524494,-13.39832 17.526094,-33.44637 17.526094,-33.44637 0,0 -1.76699,20.12708 -14.40203,32.98788 -12.992154,15.8522 -35.345824,17.0824 -35.345824,17.0824 z"
       id="path1502"
       inkscape:connector-curvature="0"
       sodipodi:nodetypes="csccc" />
    <path
       style="fill:#441b4d;fill-opacity:1;stroke:none;stroke-width:0.45056611px;stroke-linecap:butt;stroke-linejoin:miter;stroke-opacity:1"
       d="m 8.2786413,226.30183 c 0,0 -3.8706954,17.27867 12.9715057,38.11802 15.585378,19.28423 42.555639,20.36753 42.555639,20.36753 0,0 -26.120163,-7.65598 -38.800732,-23.78109 C 11.394135,243.69812 8.2786413,226.30183 8.2786413,226.30183 Z"
       id="path1498"
       inkscape:connector-curvature="0"
       sodipodi:nodetypes="cscsc" />
    <path
       style="fill:#441b4d;fill-opacity:1;stroke:none;stroke-width:0.45056611px;stroke-linecap:butt;stroke-linejoin:miter;stroke-opacity:1"
       d="m 73.116067,267.96472 c 0,0 11.784257,-3.57061 18.997624,-12.45183 7.849509,-9.66445 9.275819,-19.11899 9.275819,-19.11899 0,0 0.14172,12.08179 -5.761552,19.93446 -9.438692,12.55555 -22.511891,11.63636 -22.511891,11.63636 z"
       id="path1500"
       inkscape:connector-curvature="0"
       sodipodi:nodetypes="cscsc" />
    <path
       style="fill:#c12688;fill-opacity:1;stroke:none;stroke-width:0.45056611px;stroke-linecap:butt;stroke-linejoin:miter;stroke-opacity:1"
       d="m 23.779191,215.00115 c 0,0 5.493113,-13.36137 14.646353,-19.4062 11.50994,-7.6012 25.578374,-7.27865 25.578374,-7.27865 0,0 -17.670875,-3.82775 -29.698611,7.64808 C 22.85,206.89404 23.779191,215.00115 23.779191,215.00115 Z"
       id="path1504"
       inkscape:connector-curvature="0"
       sodipodi:nodetypes="cscsc" />
    <path
       style="opacity:0.497;fill:#c8afcd;fill-opacity:1;stroke:none;stroke-width:0.45056611px;stroke-linecap:butt;stroke-linejoin:miter;stroke-opacity:1"
       d="m 42.197929,195.81003 c 0,0 -0.911998,-3.11088 -0.667794,-7.16951 0.33609,-5.58578 5.799581,-15.02436 5.799581,-15.02436 0,0 -4.37482,1.25605 -9.143445,3.35116 -3.291257,1.44602 -7.102216,4.00624 -7.102216,4.00624 0,0 -1.464498,6.18081 0.309093,11.15227 2.649144,7.42568 5.971412,7.412 5.971412,7.412 0,0 1.370906,-1.24739 2.294992,-1.8171 0.751826,-0.46349 2.538377,-1.9107 2.538377,-1.9107 z"
       id="path1506"
       inkscape:connector-curvature="0"
       sodipodi:nodetypes="cscscscsc" />
    <path
       style="opacity:0.497;fill:#c8afcd;fill-opacity:1;stroke:none;stroke-width:0.45056611px;stroke-linecap:butt;stroke-linejoin:miter;stroke-opacity:1"
       d="m 50.891173,176.17949 c 0,0 -3.658319,4.35542 -3.822427,7.79051 -0.397974,8.33035 1.842794,8.73349 1.842794,8.73349 0,0 -0.387944,-5.34475 0.359263,-8.4066 0.850987,-3.4871 5.204601,-9.02768 5.204601,-9.02768 0,0 -1.434702,0.21092 -2.133471,0.39825 -0.495332,0.13283 -1.45076,0.51203 -1.45076,0.51203 z"
       id="path1516"
       inkscape:connector-curvature="0"
       sodipodi:nodetypes="cscscsc" />
    <path
       style="fill:#fefcff;fill-opacity:1;stroke:none;stroke-width:0.45056611px;stroke-linecap:butt;stroke-linejoin:miter;stroke-opacity:1"
       d="m 33.538939,183.34795 c 0,0 -0.502859,5.0238 0.170679,7.39603 0.696468,2.453 3.868696,6.59953 3.868696,6.59953 0,0 -1.764731,-4.77663 -2.048134,-7.28225 -0.305152,-2.69793 0.398247,-8.13563 0.398247,-8.13563 0,0 -1.091522,0.47873 -1.592992,0.79649 -0.285209,0.18073 -0.796496,0.62583 -0.796496,0.62583 z"
       id="path1520"
       inkscape:connector-curvature="0"
       sodipodi:nodetypes="cscscsc" />
    <path
       style="opacity:0.63999999;fill:#5a224c;fill-opacity:1;stroke:none;stroke-width:0.45056611px;stroke-linecap:butt;stroke-linejoin:miter;stroke-opacity:1"
       d="m 89.726638,259.71673 c 0,0 2.682741,1.85039 4.487731,5.62484 1.382366,2.89069 2.190857,8.46556 2.190857,8.46556 0,0 -4.06807,3.08156 -6.315075,4.26694 -2.417053,1.27505 -7.225356,3.58422 -7.225356,3.58422 0,0 2.520062,-6.5867 2.929475,-10.87054 0.378096,-3.95617 -0.01537,-7.59158 -0.01537,-7.59158 0,0 1.622249,-1.28757 2.361648,-1.83813 0.610225,-0.45439 1.586087,-1.64131 1.586087,-1.64131 z"
       id="path1522"
       inkscape:connector-curvature="0"
       sodipodi:nodetypes="cscscscscc" />
    <path
       style="fill:#754f75;fill-opacity:1;stroke:none;stroke-width:0.45056611px;stroke-linecap:butt;stroke-linejoin:miter;stroke-opacity:1"
       d="m 13.309686,228.67581 c 0,0 2.045867,3.10432 4.539264,4.64325 2.073254,1.27962 5.217524,2.4962 5.217524,2.4962 0,0 2.540774,13.61731 13.430992,23.57426 9.562964,8.74343 26.383782,10.14148 26.383782,10.14148 0,0 -0.678616,0.97006 -0.746067,3.92271 -0.06342,2.77637 2.024111,6.39355 2.024111,6.39355 0,0 -21.211989,-4.85956 -34.275209,-17.70082 C 15.351548,247.86082 13.309686,228.67581 13.309686,228.67581 Z"
       id="path1530"
       inkscape:connector-curvature="0"
       sodipodi:nodetypes="cscscscsc" />
    <path
       style="fill:#754f75;fill-opacity:1;stroke:none;stroke-width:0.45056611px;stroke-linecap:butt;stroke-linejoin:miter;stroke-opacity:1"
       d="m 73.534163,190.94683 c 0,0 11.252812,2.76648 21.312141,15.41951 6.685546,8.40935 6.872166,19.26746 6.872166,19.26746 0,0 4.45556,-0.77274 7.42271,-0.77274 3.46168,0 5.22405,2.20559 5.22405,2.20559 0,0 -0.26503,-18.96655 -14.16065,-34.27522 -13.086311,-14.41705 -32.183293,-14.48248 -32.183293,-14.48248 0,0 3.489668,3.49909 4.214274,5.99127 0.812703,2.79519 1.298602,6.64661 1.298602,6.64661 z"
       id="path1532"
       inkscape:connector-curvature="0"
       sodipodi:nodetypes="cscscscsc" />
    <path
       style="fill:#1c1353;fill-opacity:1;stroke:none;stroke-width:0.26458332px;stroke-linecap:butt;stroke-linejoin:miter;stroke-opacity:1"
       d="m 35.613663,247.28786 c 0,0 10.921188,-16.61824 36.682742,-13.76439 13.043829,1.44499 19.310224,10.35669 19.310224,10.35669 0,0 -9.153873,17.22781 -26.860587,17.97388 -20.43704,0.86111 -29.132379,-14.56618 -29.132379,-14.56618 z"
       id="path2442"
       inkscape:connector-curvature="0"
       sodipodi:nodetypes="cscsc" />
    <path
       style="fill:#b676c3;fill-opacity:1;stroke:none;stroke-width:0.26458332px;stroke-linecap:butt;stroke-linejoin:miter;stroke-opacity:1"
       d="m 62.181004,257.51069 h 2.765491 l 24.985615,-41.97453 -0.459603,-3.19387 -27.599613,42.7632 z"
       id="path2444"
       inkscape:connector-curvature="0"
       sodipodi:nodetypes="cccccc" />
    <path
       style="fill:#d7abe0;fill-opacity:1;stroke:none;stroke-width:0.65895617px;stroke-linecap:butt;stroke-linejoin:miter;stroke-opacity:1"
       d="m 62.181005,257.51069 -26.07796,-45.1684 h 53.369462 z"
       id="path2347"
       inkscape:connector-curvature="0" />
    <path
       style="fill:#ece7ed;fill-opacity:1;stroke:none;stroke-width:0.52110004px;stroke-linecap:butt;stroke-linejoin:miter;stroke-opacity:1"
       d="M 62.307943,252.78599 40.098093,214.42116 H 85.477456 Z"
       id="path2347-4"
       inkscape:connector-curvature="0"
       sodipodi:nodetypes="cccc" />
    <g
       aria-label="It is"
       transform="scale(0.98413002,1.0161259)"
       style="font-style:normal;font-variant:normal;font-weight:normal;font-stretch:normal;font-size:5.46636724px;line-height:1.25;font-family:Montserrat;-inkscape-font-specification:Montserrat;text-align:center;letter-spacing:0px;word-spacing:0px;text-anchor:middle;fill:#d7abe0;fill-opacity:1;stroke:none;stroke-width:0.13665919"
       id="text2448-7">
      <path
         d="m 59.793403,215.74607 h 0.546637 v 3.82646 h -0.546637 z"
         style="text-align:center;text-anchor:middle;fill:#d7abe0;fill-opacity:1;stroke-width:0.13665919"
         id="path902" />
      <path
         d="m 63.040423,219.40307 q -0.114794,0.0984 -0.284251,0.15306 -0.169458,0.0492 -0.349848,0.0492 -0.437309,0 -0.677829,-0.23505 -0.240521,-0.23505 -0.240521,-0.67236 v -1.59072 h -0.491973 v -0.43184 h 0.491973 v -0.6341 h 0.524772 v 0.6341 h 0.830887 v 0.43184 h -0.830887 v 1.56885 q 0,0.23505 0.114793,0.36078 0.12026,0.12573 0.338915,0.12573 0.24052,0 0.409978,-0.13666 z"
         style="text-align:center;text-anchor:middle;fill:#d7abe0;fill-opacity:1;stroke-width:0.13665919"
         id="path904" />
      <path
         d="m 65.144967,216.67535 h 0.524771 v 2.89718 h -0.524771 z m 0.262385,-0.55757 q -0.153058,0 -0.256919,-0.0984 -0.09839,-0.0984 -0.09839,-0.24052 0,-0.14213 0.09839,-0.24052 0.103861,-0.10386 0.256919,-0.10386 0.153059,0 0.251453,0.0984 0.103861,0.0929 0.103861,0.23505 0,0.1476 -0.103861,0.25146 -0.09839,0.0984 -0.251453,0.0984 z"
         style="text-align:center;text-anchor:middle;fill:#d7abe0;fill-opacity:1;stroke-width:0.13665919"
         id="path906" />
      <path
         d="m 67.500967,219.60532 q -0.355314,0 -0.683296,-0.0929 -0.327982,-0.0984 -0.513838,-0.24598 l 0.218655,-0.41545 q 0.191322,0.13666 0.464641,0.21866 0.273318,0.082 0.552103,0.082 0.688762,0 0.688762,-0.39357 0,-0.1312 -0.09293,-0.20773 -0.09293,-0.0765 -0.235054,-0.10932 -0.136659,-0.0383 -0.393578,-0.082 -0.349848,-0.0547 -0.573969,-0.12572 -0.218655,-0.0711 -0.377179,-0.24053 -0.158525,-0.16945 -0.158525,-0.47557 0,-0.39358 0.327982,-0.62863 0.327982,-0.24052 0.880085,-0.24052 0.289718,0 0.579435,0.0711 0.289718,0.0711 0.475574,0.19132 l -0.224121,0.41545 q -0.355314,-0.22959 -0.836354,-0.22959 -0.333449,0 -0.508372,0.10933 -0.174924,0.10933 -0.174924,0.28972 0,0.14212 0.09839,0.22412 0.09839,0.082 0.24052,0.12026 0.147592,0.0383 0.409977,0.0875 0.349848,0.0601 0.563036,0.13119 0.218655,0.0656 0.371713,0.22959 0.153058,0.16399 0.153058,0.45917 0,0.39358 -0.338914,0.62864 -0.333449,0.22958 -0.912884,0.22958 z"
         style="text-align:center;text-anchor:middle;fill:#d7abe0;fill-opacity:1;stroke-width:0.13665919"
         id="path908" />
    </g>
    <g
       aria-label="It is"
       transform="scale(0.98413002,1.0161259)"
       style="font-style:normal;font-variant:normal;font-weight:normal;font-stretch:normal;font-size:5.46636724px;line-height:1.25;font-family:Montserrat;-inkscape-font-specification:Montserrat;text-align:center;letter-spacing:0px;word-spacing:0px;text-anchor:middle;fill:#441b4d;fill-opacity:1;stroke:none;stroke-width:0.13665919"
       id="text2448">
      <path
         d="m 59.255707,215.74607 h 0.546636 v 3.82646 h -0.546636 z"
         style="text-align:center;text-anchor:middle;fill:#441b4d;fill-opacity:1;stroke-width:0.13665919"
         id="path893" />
      <path
         d="m 62.502726,219.40307 q -0.114794,0.0984 -0.284251,0.15306 -0.169458,0.0492 -0.349848,0.0492 -0.437309,0 -0.677829,-0.23505 -0.24052,-0.23505 -0.24052,-0.67236 v -1.59072 h -0.491974 v -0.43184 h 0.491974 v -0.6341 h 0.524771 v 0.6341 h 0.830888 v 0.43184 h -0.830888 v 1.56885 q 0,0.23505 0.114794,0.36078 0.12026,0.12573 0.338914,0.12573 0.24052,0 0.409978,-0.13666 z"
         style="text-align:center;text-anchor:middle;fill:#441b4d;fill-opacity:1;stroke-width:0.13665919"
         id="path895" />
      <path
         d="m 64.60727,216.67535 h 0.524771 v 2.89718 H 64.60727 Z m 0.262386,-0.55757 q -0.153059,0 -0.25692,-0.0984 -0.09839,-0.0984 -0.09839,-0.24052 0,-0.14213 0.09839,-0.24052 0.103861,-0.10386 0.25692,-0.10386 0.153058,0 0.251453,0.0984 0.10386,0.0929 0.10386,0.23505 0,0.1476 -0.10386,0.25146 -0.0984,0.0984 -0.251453,0.0984 z"
         style="text-align:center;text-anchor:middle;fill:#441b4d;fill-opacity:1;stroke-width:0.13665919"
         id="path897" />
      <path
         d="m 66.96327,219.60532 q -0.355313,0 -0.683295,-0.0929 -0.327983,-0.0984 -0.513839,-0.24598 l 0.218655,-0.41545 q 0.191323,0.13666 0.464641,0.21866 0.273318,0.082 0.552103,0.082 0.688762,0 0.688762,-0.39357 0,-0.1312 -0.09293,-0.20773 -0.09293,-0.0765 -0.235054,-0.10932 -0.136659,-0.0383 -0.393578,-0.082 -0.349848,-0.0547 -0.573969,-0.12572 -0.218654,-0.0711 -0.377179,-0.24053 -0.158525,-0.16945 -0.158525,-0.47557 0,-0.39358 0.327982,-0.62863 0.327982,-0.24052 0.880085,-0.24052 0.289718,0 0.579435,0.0711 0.289718,0.0711 0.475574,0.19132 l -0.224121,0.41545 q -0.355314,-0.22959 -0.836354,-0.22959 -0.333448,0 -0.508372,0.10933 -0.174924,0.10933 -0.174924,0.28972 0,0.14212 0.09839,0.22412 0.09839,0.082 0.24052,0.12026 0.147592,0.0383 0.409977,0.0875 0.349848,0.0601 0.563036,0.13119 0.218655,0.0656 0.371713,0.22959 0.153059,0.16399 0.153059,0.45917 0,0.39358 -0.338915,0.62864 -0.333449,0.22958 -0.912884,0.22958 z"
         style="text-align:center;text-anchor:middle;fill:#441b4d;fill-opacity:1;stroke-width:0.13665919"
         id="path899" />
    </g>
    <g
       aria-label="decidedly"
       transform="scale(0.98413002,1.0161259)"
       style="font-style:normal;font-variant:normal;font-weight:normal;font-stretch:normal;font-size:5.46636724px;line-height:1.25;font-family:Montserrat;-inkscape-font-specification:Montserrat;text-align:center;letter-spacing:0px;word-spacing:0px;text-anchor:middle;fill:#d7abe0;fill-opacity:1;stroke:none;stroke-width:0.13665919"
       id="text2448-3-6">
      <path
         d="m 53.74488,220.9466 v 4.05604 h -0.502906 v -0.45918 q -0.174924,0.24053 -0.442776,0.36625 -0.267852,0.12573 -0.590367,0.12573 -0.42091,0 -0.754359,-0.18586 -0.333448,-0.18585 -0.524771,-0.5193 -0.185857,-0.33892 -0.185857,-0.77623 0,-0.43731 0.185857,-0.77076 0.191323,-0.33344 0.524771,-0.5193 0.333449,-0.18586 0.754359,-0.18586 0.311583,0 0.573968,0.12026 0.262386,0.1148 0.43731,0.34438 v -1.59617 z m -1.492318,3.62966 q 0.273318,0 0.497439,-0.12572 0.224121,-0.1312 0.349848,-0.36078 0.125726,-0.23506 0.125726,-0.53571 0,-0.30065 -0.125726,-0.53024 -0.125727,-0.23505 -0.349848,-0.36078 -0.224121,-0.12572 -0.497439,-0.12572 -0.278785,0 -0.502906,0.12572 -0.218655,0.12573 -0.349848,0.36078 -0.125726,0.22959 -0.125726,0.53024 0,0.30065 0.125726,0.53571 0.131193,0.22958 0.349848,0.36078 0.224121,0.12572 0.502906,0.12572 z"
         style="text-align:center;text-anchor:middle;fill:#d7abe0;fill-opacity:1;stroke-width:0.13665919"
         id="path874" />
      <path
         d="m 57.358144,223.57045 q 0,0.0601 -0.01093,0.15853 h -2.350538 q 0.0492,0.38264 0.333448,0.6177 0.289718,0.22958 0.716094,0.22958 0.519305,0 0.836354,-0.34984 l 0.289718,0.33891 q -0.196789,0.22959 -0.491973,0.34985 -0.289718,0.12026 -0.650498,0.12026 -0.459175,0 -0.814489,-0.18586 -0.355313,-0.19132 -0.552103,-0.53024 -0.191323,-0.33891 -0.191323,-0.76529 0,-0.42091 0.185857,-0.75982 0.191323,-0.33892 0.519305,-0.52477 0.333448,-0.19133 0.748892,-0.19133 0.415444,0 0.73796,0.19133 0.327982,0.18585 0.508372,0.52477 0.185856,0.33891 0.185856,0.77622 z m -1.432188,-1.04954 q -0.377179,0 -0.634098,0.22959 -0.251453,0.22958 -0.295184,0.6013 h 1.858565 q -0.04373,-0.36625 -0.300651,-0.59584 -0.251452,-0.23505 -0.628632,-0.23505 z"
         style="text-align:center;text-anchor:middle;fill:#d7abe0;fill-opacity:1;stroke-width:0.13665919"
         id="path876" />
      <path
         d="m 59.347899,225.03544 q -0.442775,0 -0.792623,-0.19132 -0.344381,-0.19133 -0.54117,-0.52478 -0.19679,-0.33891 -0.19679,-0.76529 0,-0.42637 0.19679,-0.75982 0.196789,-0.33892 0.54117,-0.52477 0.349848,-0.19133 0.792623,-0.19133 0.393579,0 0.699695,0.15853 0.311583,0.15852 0.481041,0.45917 l -0.399045,0.25692 q -0.136659,-0.20772 -0.338915,-0.31158 -0.202256,-0.10386 -0.448242,-0.10386 -0.284251,0 -0.513839,0.12572 -0.224121,0.12573 -0.355314,0.36078 -0.125726,0.22959 -0.125726,0.53024 0,0.30612 0.125726,0.54117 0.131193,0.22959 0.355314,0.35532 0.229588,0.12572 0.513839,0.12572 0.245986,0 0.448242,-0.10386 0.202256,-0.10386 0.338915,-0.31158 l 0.399045,0.25145 q -0.169458,0.30065 -0.481041,0.46464 -0.306116,0.15853 -0.699695,0.15853 z"
         style="text-align:center;text-anchor:middle;fill:#d7abe0;fill-opacity:1;stroke-width:0.13665919"
         id="path878" />
      <path
         d="m 61.20646,222.10547 h 0.524771 v 2.89717 H 61.20646 Z m 0.262385,-0.55757 q -0.153058,0 -0.256919,-0.0984 -0.09839,-0.0984 -0.09839,-0.24052 0,-0.14212 0.09839,-0.24052 0.103861,-0.10386 0.256919,-0.10386 0.153058,0 0.251453,0.0984 0.103861,0.0929 0.103861,0.23506 0,0.14759 -0.103861,0.25145 -0.09839,0.0984 -0.251453,0.0984 z"
         style="text-align:center;text-anchor:middle;fill:#d7abe0;fill-opacity:1;stroke-width:0.13665919"
         id="path880" />
      <path
         d="m 65.464756,220.9466 v 4.05604 h -0.502905 v -0.45918 q -0.174924,0.24053 -0.442776,0.36625 -0.267852,0.12573 -0.590368,0.12573 -0.42091,0 -0.754359,-0.18586 -0.333448,-0.18585 -0.524771,-0.5193 -0.185856,-0.33892 -0.185856,-0.77623 0,-0.43731 0.185856,-0.77076 0.191323,-0.33344 0.524771,-0.5193 0.333449,-0.18586 0.754359,-0.18586 0.311583,0 0.573969,0.12026 0.262385,0.1148 0.437309,0.34438 v -1.59617 z m -1.492318,3.62966 q 0.273318,0 0.497439,-0.12572 0.224122,-0.1312 0.349848,-0.36078 0.125726,-0.23506 0.125726,-0.53571 0,-0.30065 -0.125726,-0.53024 -0.125726,-0.23505 -0.349848,-0.36078 -0.224121,-0.12572 -0.497439,-0.12572 -0.278785,0 -0.502906,0.12572 -0.218654,0.12573 -0.349847,0.36078 -0.125727,0.22959 -0.125727,0.53024 0,0.30065 0.125727,0.53571 0.131193,0.22958 0.349847,0.36078 0.224121,0.12572 0.502906,0.12572 z"
         style="text-align:center;text-anchor:middle;fill:#d7abe0;fill-opacity:1;stroke-width:0.13665919"
         id="path882" />
      <path
         d="m 69.07802,223.57045 q 0,0.0601 -0.01093,0.15853 H 66.71655 q 0.0492,0.38264 0.333448,0.6177 0.289718,0.22958 0.716094,0.22958 0.519305,0 0.836355,-0.34984 l 0.289717,0.33891 q -0.196789,0.22959 -0.491973,0.34985 -0.289718,0.12026 -0.650498,0.12026 -0.459175,0 -0.814489,-0.18586 -0.355313,-0.19132 -0.552103,-0.53024 -0.191322,-0.33891 -0.191322,-0.76529 0,-0.42091 0.185856,-0.75982 0.191323,-0.33892 0.519305,-0.52477 0.333448,-0.19133 0.748892,-0.19133 0.415444,0 0.73796,0.19133 0.327982,0.18585 0.508372,0.52477 0.185856,0.33891 0.185856,0.77622 z m -1.432188,-1.04954 q -0.377179,0 -0.634098,0.22959 -0.251453,0.22958 -0.295184,0.6013 h 1.858565 q -0.04373,-0.36625 -0.300651,-0.59584 -0.251452,-0.23505 -0.628632,-0.23505 z"
         style="text-align:center;text-anchor:middle;fill:#d7abe0;fill-opacity:1;stroke-width:0.13665919"
         id="path884" />
      <path
         d="m 72.538228,220.9466 v 4.05604 h -0.502905 v -0.45918 q -0.174924,0.24053 -0.442776,0.36625 -0.267852,0.12573 -0.590368,0.12573 -0.42091,0 -0.754359,-0.18586 -0.333448,-0.18585 -0.524771,-0.5193 -0.185856,-0.33892 -0.185856,-0.77623 0,-0.43731 0.185856,-0.77076 0.191323,-0.33344 0.524771,-0.5193 0.333449,-0.18586 0.754359,-0.18586 0.311583,0 0.573969,0.12026 0.262385,0.1148 0.437309,0.34438 v -1.59617 z m -1.492318,3.62966 q 0.273318,0 0.497439,-0.12572 0.224122,-0.1312 0.349848,-0.36078 0.125726,-0.23506 0.125726,-0.53571 0,-0.30065 -0.125726,-0.53024 -0.125726,-0.23505 -0.349848,-0.36078 -0.224121,-0.12572 -0.497439,-0.12572 -0.278785,0 -0.502906,0.12572 -0.218654,0.12573 -0.349847,0.36078 -0.125727,0.22959 -0.125727,0.53024 0,0.30065 0.125727,0.53571 0.131193,0.22958 0.349847,0.36078 0.224121,0.12572 0.502906,0.12572 z"
         style="text-align:center;text-anchor:middle;fill:#d7abe0;fill-opacity:1;stroke-width:0.13665919"
         id="path886" />
      <path
         d="m 73.533103,220.9466 h 0.524771 v 4.05604 h -0.524771 z"
         style="text-align:center;text-anchor:middle;fill:#d7abe0;fill-opacity:1;stroke-width:0.13665919"
         id="path888" />
      <path
         d="m 77.621941,222.10547 -1.404856,3.18689 q -0.185857,0.44277 -0.43731,0.62316 -0.245986,0.18039 -0.595834,0.18039 -0.213188,0 -0.415444,-0.0711 -0.196789,-0.0656 -0.327982,-0.19679 l 0.224121,-0.39358 q 0.224121,0.21319 0.519305,0.21319 0.191323,0 0.317049,-0.10386 0.131193,-0.0984 0.235054,-0.34438 l 0.09293,-0.20226 -1.27913,-2.8917 h 0.546636 l 1.011278,2.31773 1.000345,-2.31773 z"
         style="text-align:center;text-anchor:middle;fill:#d7abe0;fill-opacity:1;stroke-width:0.13665919"
         id="path890" />
    </g>
    <g
       aria-label="decidedly"
       transform="scale(0.98413002,1.0161259)"
       style="font-style:normal;font-variant:normal;font-weight:normal;font-stretch:normal;font-size:5.46636724px;line-height:1.25;font-family:Montserrat;-inkscape-font-specification:Montserrat;text-align:center;letter-spacing:0px;word-spacing:0px;text-anchor:middle;fill:#441b4d;fill-opacity:1;stroke:none;stroke-width:0.13665919"
       id="text2448-3">
      <path
         d="m 53.207183,220.9466 v 4.05604 h -0.502906 v -0.45918 q -0.174923,0.24053 -0.442775,0.36625 -0.267852,0.12573 -0.590368,0.12573 -0.42091,0 -0.754359,-0.18586 -0.333448,-0.18585 -0.524771,-0.5193 -0.185856,-0.33892 -0.185856,-0.77623 0,-0.43731 0.185856,-0.77076 0.191323,-0.33344 0.524771,-0.5193 0.333449,-0.18586 0.754359,-0.18586 0.311583,0 0.573969,0.12026 0.262385,0.1148 0.437309,0.34438 v -1.59617 z m -1.492318,3.62966 q 0.273318,0 0.497439,-0.12572 0.224121,-0.1312 0.349848,-0.36078 0.125726,-0.23506 0.125726,-0.53571 0,-0.30065 -0.125726,-0.53024 -0.125727,-0.23505 -0.349848,-0.36078 -0.224121,-0.12572 -0.497439,-0.12572 -0.278785,0 -0.502906,0.12572 -0.218655,0.12573 -0.349847,0.36078 -0.125727,0.22959 -0.125727,0.53024 0,0.30065 0.125727,0.53571 0.131192,0.22958 0.349847,0.36078 0.224121,0.12572 0.502906,0.12572 z"
         style="text-align:center;text-anchor:middle;fill:#441b4d;fill-opacity:1;stroke-width:0.13665919"
         id="path855" />
      <path
         d="m 56.820448,223.57045 q 0,0.0601 -0.01093,0.15853 h -2.350538 q 0.0492,0.38264 0.333448,0.6177 0.289718,0.22958 0.716094,0.22958 0.519305,0 0.836355,-0.34984 l 0.289717,0.33891 q -0.196789,0.22959 -0.491973,0.34985 -0.289717,0.12026 -0.650498,0.12026 -0.459175,0 -0.814488,-0.18586 -0.355314,-0.19132 -0.552103,-0.53024 -0.191323,-0.33891 -0.191323,-0.76529 0,-0.42091 0.185856,-0.75982 0.191323,-0.33892 0.519305,-0.52477 0.333448,-0.19133 0.748892,-0.19133 0.415444,0 0.73796,0.19133 0.327982,0.18585 0.508372,0.52477 0.185857,0.33891 0.185857,0.77622 z m -1.432189,-1.04954 q -0.377179,0 -0.634098,0.22959 -0.251453,0.22958 -0.295184,0.6013 h 1.858565 q -0.04373,-0.36625 -0.30065,-0.59584 -0.251453,-0.23505 -0.628633,-0.23505 z"
         style="text-align:center;text-anchor:middle;fill:#441b4d;fill-opacity:1;stroke-width:0.13665919"
         id="path857" />
      <path
         d="m 58.810202,225.03544 q -0.442775,0 -0.792623,-0.19132 -0.344381,-0.19133 -0.54117,-0.52478 -0.196789,-0.33891 -0.196789,-0.76529 0,-0.42637 0.196789,-0.75982 0.196789,-0.33892 0.54117,-0.52477 0.349848,-0.19133 0.792623,-0.19133 0.393579,0 0.699695,0.15853 0.311583,0.15852 0.481041,0.45917 l -0.399045,0.25692 q -0.136659,-0.20772 -0.338915,-0.31158 -0.202255,-0.10386 -0.448242,-0.10386 -0.284251,0 -0.513838,0.12572 -0.224122,0.12573 -0.355314,0.36078 -0.125727,0.22959 -0.125727,0.53024 0,0.30612 0.125727,0.54117 0.131192,0.22959 0.355314,0.35532 0.229587,0.12572 0.513838,0.12572 0.245987,0 0.448242,-0.10386 0.202256,-0.10386 0.338915,-0.31158 l 0.399045,0.25145 q -0.169458,0.30065 -0.481041,0.46464 -0.306116,0.15853 -0.699695,0.15853 z"
         style="text-align:center;text-anchor:middle;fill:#441b4d;fill-opacity:1;stroke-width:0.13665919"
         id="path859" />
      <path
         d="m 60.668763,222.10547 h 0.524771 v 2.89717 h -0.524771 z m 0.262385,-0.55757 q -0.153058,0 -0.256919,-0.0984 -0.09839,-0.0984 -0.09839,-0.24052 0,-0.14212 0.09839,-0.24052 0.103861,-0.10386 0.256919,-0.10386 0.153059,0 0.251453,0.0984 0.103861,0.0929 0.103861,0.23506 0,0.14759 -0.103861,0.25145 -0.09839,0.0984 -0.251453,0.0984 z"
         style="text-align:center;text-anchor:middle;fill:#441b4d;fill-opacity:1;stroke-width:0.13665919"
         id="path861" />
      <path
         d="m 64.927059,220.9466 v 4.05604 h -0.502905 v -0.45918 q -0.174924,0.24053 -0.442776,0.36625 -0.267852,0.12573 -0.590368,0.12573 -0.42091,0 -0.754358,-0.18586 -0.333449,-0.18585 -0.524772,-0.5193 -0.185856,-0.33892 -0.185856,-0.77623 0,-0.43731 0.185856,-0.77076 0.191323,-0.33344 0.524772,-0.5193 0.333448,-0.18586 0.754358,-0.18586 0.311583,0 0.573969,0.12026 0.262385,0.1148 0.437309,0.34438 v -1.59617 z m -1.492318,3.62966 q 0.273319,0 0.49744,-0.12572 0.224121,-0.1312 0.349847,-0.36078 0.125727,-0.23506 0.125727,-0.53571 0,-0.30065 -0.125727,-0.53024 -0.125726,-0.23505 -0.349847,-0.36078 -0.224121,-0.12572 -0.49744,-0.12572 -0.278785,0 -0.502906,0.12572 -0.218654,0.12573 -0.349847,0.36078 -0.125727,0.22959 -0.125727,0.53024 0,0.30065 0.125727,0.53571 0.131193,0.22958 0.349847,0.36078 0.224121,0.12572 0.502906,0.12572 z"
         style="text-align:center;text-anchor:middle;fill:#441b4d;fill-opacity:1;stroke-width:0.13665919"
         id="path863" />
      <path
         d="m 68.540324,223.57045 q 0,0.0601 -0.01093,0.15853 h -2.350538 q 0.0492,0.38264 0.333448,0.6177 0.289718,0.22958 0.716094,0.22958 0.519305,0 0.836355,-0.34984 l 0.289717,0.33891 q -0.196789,0.22959 -0.491973,0.34985 -0.289717,0.12026 -0.650498,0.12026 -0.459174,0 -0.814488,-0.18586 -0.355314,-0.19132 -0.552103,-0.53024 -0.191323,-0.33891 -0.191323,-0.76529 0,-0.42091 0.185856,-0.75982 0.191323,-0.33892 0.519305,-0.52477 0.333448,-0.19133 0.748892,-0.19133 0.415444,0 0.73796,0.19133 0.327982,0.18585 0.508372,0.52477 0.185857,0.33891 0.185857,0.77622 z m -1.432189,-1.04954 q -0.377179,0 -0.634098,0.22959 -0.251453,0.22958 -0.295184,0.6013 h 1.858565 q -0.04373,-0.36625 -0.30065,-0.59584 -0.251453,-0.23505 -0.628633,-0.23505 z"
         style="text-align:center;text-anchor:middle;fill:#441b4d;fill-opacity:1;stroke-width:0.13665919"
         id="path865" />
      <path
         d="m 72.000531,220.9466 v 4.05604 h -0.502905 v -0.45918 q -0.174924,0.24053 -0.442776,0.36625 -0.267852,0.12573 -0.590368,0.12573 -0.42091,0 -0.754358,-0.18586 -0.333449,-0.18585 -0.524772,-0.5193 -0.185856,-0.33892 -0.185856,-0.77623 0,-0.43731 0.185856,-0.77076 0.191323,-0.33344 0.524772,-0.5193 0.333448,-0.18586 0.754358,-0.18586 0.311583,0 0.573969,0.12026 0.262385,0.1148 0.437309,0.34438 v -1.59617 z m -1.492318,3.62966 q 0.273319,0 0.49744,-0.12572 0.224121,-0.1312 0.349847,-0.36078 0.125727,-0.23506 0.125727,-0.53571 0,-0.30065 -0.125727,-0.53024 -0.125726,-0.23505 -0.349847,-0.36078 -0.224121,-0.12572 -0.49744,-0.12572 -0.278784,0 -0.502906,0.12572 -0.218654,0.12573 -0.349847,0.36078 -0.125727,0.22959 -0.125727,0.53024 0,0.30065 0.125727,0.53571 0.131193,0.22958 0.349847,0.36078 0.224122,0.12572 0.502906,0.12572 z"
         style="text-align:center;text-anchor:middle;fill:#441b4d;fill-opacity:1;stroke-width:0.13665919"
         id="path867" />
      <path
         d="m 72.995406,220.9466 h 0.524771 v 4.05604 h -0.524771 z"
         style="text-align:center;text-anchor:middle;fill:#441b4d;fill-opacity:1;stroke-width:0.13665919"
         id="path869" />
      <path
         d="m 77.084244,222.10547 -1.404856,3.18689 q -0.185857,0.44277 -0.43731,0.62316 -0.245986,0.18039 -0.595834,0.18039 -0.213188,0 -0.415444,-0.0711 -0.196789,-0.0656 -0.327982,-0.19679 l 0.224121,-0.39358 q 0.224121,0.21319 0.519305,0.21319 0.191323,0 0.31705,-0.10386 0.131192,-0.0984 0.235053,-0.34438 l 0.09293,-0.20226 -1.27913,-2.8917 h 0.546636 l 1.011278,2.31773 1.000346,-2.31773 z"
         style="text-align:center;text-anchor:middle;fill:#441b4d;fill-opacity:1;stroke-width:0.13665919"
         id="path871" />
    </g>
    <g
       aria-label="so"
       transform="scale(0.98413002,1.0161259)"
       style="font-style:normal;font-variant:normal;font-weight:normal;font-stretch:normal;font-size:5.46636724px;line-height:1.25;font-family:Montserrat;-inkscape-font-specification:Montserrat;text-align:center;letter-spacing:0px;word-spacing:0px;text-anchor:middle;fill:#d7abe0;fill-opacity:1;stroke:none;stroke-width:0.13665919"
       id="text2448-3-8-3">
      <path
         d="m 62.288798,229.4374 q -0.355314,0 -0.683296,-0.0929 -0.327982,-0.0984 -0.513839,-0.24598 l 0.218655,-0.41545 q 0.191323,0.13666 0.464641,0.21866 0.273319,0.082 0.552103,0.082 0.688763,0 0.688763,-0.39358 0,-0.13119 -0.09293,-0.20772 -0.09293,-0.0765 -0.235053,-0.10933 -0.13666,-0.0383 -0.393579,-0.082 -0.349847,-0.0547 -0.573968,-0.12573 -0.218655,-0.0711 -0.37718,-0.24052 -0.158524,-0.16946 -0.158524,-0.47557 0,-0.39358 0.327982,-0.62863 0.327982,-0.24052 0.880085,-0.24052 0.289717,0 0.579435,0.0711 0.289717,0.0711 0.475574,0.19132 l -0.224121,0.41545 q -0.355314,-0.22959 -0.836355,-0.22959 -0.333448,0 -0.508372,0.10933 -0.174924,0.10932 -0.174924,0.28971 0,0.14213 0.09839,0.22412 0.0984,0.082 0.24052,0.12026 0.147592,0.0383 0.409978,0.0875 0.349847,0.0601 0.563036,0.13119 0.218654,0.0656 0.371713,0.22959 0.153058,0.16399 0.153058,0.45917 0,0.39358 -0.338915,0.62863 -0.333448,0.22959 -0.912883,0.22959 z"
         style="text-align:center;text-anchor:middle;fill:#d7abe0;fill-opacity:1;stroke-width:0.13665919"
         id="path850" />
      <path
         d="m 65.437422,229.4374 q -0.431843,0 -0.776224,-0.19132 -0.344381,-0.19133 -0.54117,-0.52477 -0.191323,-0.33892 -0.191323,-0.7653 0,-0.42637 0.191323,-0.75982 0.196789,-0.33892 0.54117,-0.52477 0.344381,-0.19132 0.776224,-0.19132 0.431843,0 0.770758,0.19132 0.344381,0.18585 0.535704,0.52477 0.196789,0.33345 0.196789,0.75982 0,0.42638 -0.196789,0.7653 -0.191323,0.33344 -0.535704,0.52477 -0.338915,0.19132 -0.770758,0.19132 z m 0,-0.45917 q 0.278785,0 0.49744,-0.12573 0.224121,-0.13119 0.349847,-0.36078 0.125727,-0.23506 0.125727,-0.53571 0,-0.30065 -0.125727,-0.53023 -0.125726,-0.23506 -0.349847,-0.36078 -0.218655,-0.12573 -0.49744,-0.12573 -0.278784,0 -0.502906,0.12573 -0.218654,0.12572 -0.349847,0.36078 -0.125726,0.22958 -0.125726,0.53023 0,0.30065 0.125726,0.53571 0.131193,0.22959 0.349847,0.36078 0.224122,0.12573 0.502906,0.12573 z"
         style="text-align:center;text-anchor:middle;fill:#d7abe0;fill-opacity:1;stroke-width:0.13665919"
         id="path852" />
    </g>
    <g
       aria-label="so"
       transform="scale(0.98413002,1.0161259)"
       style="font-style:normal;font-variant:normal;font-weight:normal;font-stretch:normal;font-size:5.46636724px;line-height:1.25;font-family:Montserrat;-inkscape-font-specification:Montserrat;text-align:center;letter-spacing:0px;word-spacing:0px;text-anchor:middle;fill:#441b4d;fill-opacity:1;stroke:none;stroke-width:0.13665919"
       id="text2448-3-8">
      <path
         d="m 61.751101,229.4374 q -0.355314,0 -0.683296,-0.0929 -0.327982,-0.0984 -0.513839,-0.24598 l 0.218655,-0.41545 q 0.191323,0.13666 0.464641,0.21866 0.273319,0.082 0.552103,0.082 0.688763,0 0.688763,-0.39358 0,-0.13119 -0.09293,-0.20772 -0.09293,-0.0765 -0.235054,-0.10933 -0.136659,-0.0383 -0.393579,-0.082 -0.349847,-0.0547 -0.573968,-0.12573 -0.218655,-0.0711 -0.37718,-0.24052 -0.158524,-0.16946 -0.158524,-0.47557 0,-0.39358 0.327982,-0.62863 0.327982,-0.24052 0.880085,-0.24052 0.289717,0 0.579435,0.0711 0.289717,0.0711 0.475574,0.19132 l -0.224121,0.41545 q -0.355314,-0.22959 -0.836354,-0.22959 -0.333449,0 -0.508373,0.10933 -0.174923,0.10932 -0.174923,0.28971 0,0.14213 0.09839,0.22412 0.09839,0.082 0.24052,0.12026 0.147592,0.0383 0.409978,0.0875 0.349847,0.0601 0.563036,0.13119 0.218654,0.0656 0.371713,0.22959 0.153058,0.16399 0.153058,0.45917 0,0.39358 -0.338915,0.62863 -0.333448,0.22959 -0.912883,0.22959 z"
         style="text-align:center;text-anchor:middle;fill:#441b4d;fill-opacity:1;stroke-width:0.13665919"
         id="path845" />
      <path
         d="m 64.899725,229.4374 q -0.431843,0 -0.776224,-0.19132 -0.344381,-0.19133 -0.54117,-0.52477 -0.191323,-0.33892 -0.191323,-0.7653 0,-0.42637 0.191323,-0.75982 0.196789,-0.33892 0.54117,-0.52477 0.344381,-0.19132 0.776224,-0.19132 0.431843,0 0.770758,0.19132 0.344381,0.18585 0.535704,0.52477 0.196789,0.33345 0.196789,0.75982 0,0.42638 -0.196789,0.7653 -0.191323,0.33344 -0.535704,0.52477 -0.338915,0.19132 -0.770758,0.19132 z m 0,-0.45917 q 0.278785,0 0.49744,-0.12573 0.224121,-0.13119 0.349847,-0.36078 0.125727,-0.23506 0.125727,-0.53571 0,-0.30065 -0.125727,-0.53023 -0.125726,-0.23506 -0.349847,-0.36078 -0.218655,-0.12573 -0.49744,-0.12573 -0.278784,0 -0.502905,0.12573 -0.218655,0.12572 -0.349848,0.36078 -0.125726,0.22958 -0.125726,0.53023 0,0.30065 0.125726,0.53571 0.131193,0.22959 0.349848,0.36078 0.224121,0.12573 0.502905,0.12573 z"
         style="text-align:center;text-anchor:middle;fill:#441b4d;fill-opacity:1;stroke-width:0.13665919"
         id="path847" />
    </g>
  </g>
</svg>
