<?xml version="1.0" encoding="UTF-8" standalone="no"?>
<!-- Created with Inkscape (http://www.inkscape.org/) -->

<svg
   xmlns:dc="http://purl.org/dc/elements/1.1/"
   xmlns:cc="http://creativecommons.org/ns#"
   xmlns:rdf="http://www.w3.org/1999/02/22-rdf-syntax-ns#"
   xmlns:svg="http://www.w3.org/2000/svg"
   xmlns="http://www.w3.org/2000/svg"
   xmlns:sodipodi="http://sodipodi.sourceforge.net/DTD/sodipodi-0.dtd"
   xmlns:inkscape="http://www.inkscape.org/namespaces/inkscape"
   width="500"
   height="500"
   viewBox="0 0 132.29166 132.29167"
   version="1.1"
   id="svg885"
   inkscape:version="0.92.5 (2060ec1f9f, 2020-04-08)"
   sodipodi:docname="back12.svg">
  <defs
     id="defs879" />
  <sodipodi:namedview
     id="base"
     pagecolor="#ffffff"
     bordercolor="#666666"
     borderopacity="1.0"
     inkscape:pageopacity="0.0"
     inkscape:pageshadow="2"
     inkscape:zoom="1.979899"
     inkscape:cx="41.355766"
     inkscape:cy="273.92909"
     inkscape:document-units="mm"
     inkscape:current-layer="layer1"
     showgrid="false"
     units="px"
     inkscape:window-width="1848"
     inkscape:window-height="1016"
     inkscape:window-x="72"
     inkscape:window-y="27"
     inkscape:window-maximized="1"
     inkscape:lockguides="true" />
  <metadata
     id="metadata882">
    <rdf:RDF>
      <cc:Work
         rdf:about="">
        <dc:format>image/svg+xml</dc:format>
        <dc:type
           rdf:resource="http://purl.org/dc/dcmitype/StillImage" />
        <dc:title />
      </cc:Work>
    </rdf:RDF>
  </metadata>
  <g
     inkscape:label="Layer 1"
     inkscape:groupmode="layer"
     id="layer1"
     transform="translate(0,-164.70832)">
    <ellipse
       style="opacity:0.26199999;vector-effect:none;fill:#754f75;fill-opacity:1;stroke:none;stroke-width:1.17161381;stroke-linecap:round;stroke-linejoin:round;stroke-miterlimit:4;stroke-dasharray:none;stroke-dashoffset:0;stroke-opacity:1"
       id="path1534"
       cx="85.47683"
       cy="282.5824"
       rx="42.783207"
       ry="9.6148434" />
    <ellipse
       style="opacity:0.26199999;vector-effect:none;fill:#754f75;fill-opacity:1;stroke:none;stroke-width:0.76952147;stroke-linecap:round;stroke-linejoin:round;stroke-miterlimit:4;stroke-dasharray:none;stroke-dashoffset:0;stroke-opacity:1"
       id="path1534-9"
       cx="71.481262"
       cy="282.92374"
       rx="28.100214"
       ry="6.3150744" />
    <circle
       style="opacity:1;vector-effect:none;fill:#9957af;fill-opacity:1;stroke:none;stroke-width:1.14031112;stroke-linecap:round;stroke-linejoin:round;stroke-miterlimit:4;stroke-dasharray:none;stroke-dashoffset:0;stroke-opacity:1"
       id="path1449"
       cx="62.440365"
       cy="229.14644"
       r="58.030418" />
    <circle
       style="opacity:1;vector-effect:none;fill:#82326f;fill-opacity:1;stroke:none;stroke-width:1.11348021;stroke-linecap:round;stroke-linejoin:round;stroke-miterlimit:4;stroke-dasharray:none;stroke-dashoffset:0;stroke-opacity:1"
       id="path1449-3"
       cx="62.440365"
       cy="229.14644"
       r="56.665001" />
    <ellipse
       style="opacity:1;vector-effect:none;fill:#613e6d;fill-opacity:1;stroke:none;stroke-width:0.73709202;stroke-linecap:round;stroke-linejoin:round;stroke-miterlimit:4;stroke-dasharray:none;stroke-dashoffset:0;stroke-opacity:1"
       id="path1449-3-3"
       cx="62.440365"
       cy="229.14644"
       rx="37.386955"
       ry="37.634663" />
    <ellipse
       style="opacity:1;vector-effect:none;fill:#000000;fill-opacity:1;stroke:none;stroke-width:0.68278807;stroke-linecap:round;stroke-linejoin:round;stroke-miterlimit:4;stroke-dasharray:none;stroke-dashoffset:0;stroke-opacity:1"
       id="path1449-3-3-0"
       cx="62.440365"
       cy="229.14644"
       rx="34.632538"
       ry="34.861996" />
    <path
       style="fill:#c12688;fill-opacity:1;stroke:none;stroke-width:0.45056611px;stroke-linecap:butt;stroke-linejoin:miter;stroke-opacity:1"
       d="m 12.488691,207.29972 c 0,0 4.63182,-14.18778 20.139969,-23.89489 15.916805,-9.96289 28.901421,-9.44417 28.901421,-9.44417 0,0 -17.19509,5.47451 -27.763568,12.2888 -12.174689,7.84993 -21.277822,21.05026 -21.277822,21.05026 z"
       id="path1496"
       inkscape:connector-curvature="0"
       sodipodi:nodetypes="cscsc" />
    <path
       style="fill:#c12688;fill-opacity:1;stroke:none;stroke-width:0.45056611px;stroke-linecap:butt;stroke-linejoin:miter;stroke-opacity:1"
       d="m 67.352956,283.81496 c 0,0 17.255122,-2.81772 32.22176,-16.62391 14.524494,-13.39832 17.526094,-33.44637 17.526094,-33.44637 0,0 -1.76699,20.12708 -14.40203,32.98788 -12.992154,15.8522 -35.345824,17.0824 -35.345824,17.0824 z"
       id="path1502"
       inkscape:connector-curvature="0"
       sodipodi:nodetypes="csccc" />
    <path
       style="fill:#441b4d;fill-opacity:1;stroke:none;stroke-width:0.45056611px;stroke-linecap:butt;stroke-linejoin:miter;stroke-opacity:1"
       d="m 8.2786413,226.30183 c 0,0 -3.8706954,17.27867 12.9715057,38.11802 15.585378,19.28423 42.555639,20.36753 42.555639,20.36753 0,0 -26.120163,-7.65598 -38.800732,-23.78109 C 11.394135,243.69812 8.2786413,226.30183 8.2786413,226.30183 Z"
       id="path1498"
       inkscape:connector-curvature="0"
       sodipodi:nodetypes="cscsc" />
    <path
       style="fill:#441b4d;fill-opacity:1;stroke:none;stroke-width:0.45056611px;stroke-linecap:butt;stroke-linejoin:miter;stroke-opacity:1"
       d="m 73.116067,267.96472 c 0,0 11.784257,-3.57061 18.997624,-12.45183 7.849509,-9.66445 9.275819,-19.11899 9.275819,-19.11899 0,0 0.14172,12.08179 -5.761552,19.93446 -9.438692,12.55555 -22.511891,11.63636 -22.511891,11.63636 z"
       id="path1500"
       inkscape:connector-curvature="0"
       sodipodi:nodetypes="cscsc" />
    <path
       style="fill:#c12688;fill-opacity:1;stroke:none;stroke-width:0.45056611px;stroke-linecap:butt;stroke-linejoin:miter;stroke-opacity:1"
       d="m 23.779191,215.00115 c 0,0 5.493113,-13.36137 14.646353,-19.4062 11.50994,-7.6012 25.578374,-7.27865 25.578374,-7.27865 0,0 -17.670875,-3.82775 -29.698611,7.64808 C 22.85,206.89404 23.779191,215.00115 23.779191,215.00115 Z"
       id="path1504"
       inkscape:connector-curvature="0"
       sodipodi:nodetypes="cscsc" />
    <path
       style="opacity:0.497;fill:#c8afcd;fill-opacity:1;stroke:none;stroke-width:0.45056611px;stroke-linecap:butt;stroke-linejoin:miter;stroke-opacity:1"
       d="m 42.197929,195.81003 c 0,0 -0.911998,-3.11088 -0.667794,-7.16951 0.33609,-5.58578 5.799581,-15.02436 5.799581,-15.02436 0,0 -4.37482,1.25605 -9.143445,3.35116 -3.291257,1.44602 -7.102216,4.00624 -7.102216,4.00624 0,0 -1.464498,6.18081 0.309093,11.15227 2.649144,7.42568 5.971412,7.412 5.971412,7.412 0,0 1.370906,-1.24739 2.294992,-1.8171 0.751826,-0.46349 2.538377,-1.9107 2.538377,-1.9107 z"
       id="path1506"
       inkscape:connector-curvature="0"
       sodipodi:nodetypes="cscscscsc" />
    <path
       style="opacity:0.497;fill:#c8afcd;fill-opacity:1;stroke:none;stroke-width:0.45056611px;stroke-linecap:butt;stroke-linejoin:miter;stroke-opacity:1"
       d="m 50.891173,176.17949 c 0,0 -3.658319,4.35542 -3.822427,7.79051 -0.397974,8.33035 1.842794,8.73349 1.842794,8.73349 0,0 -0.387944,-5.34475 0.359263,-8.4066 0.850987,-3.4871 5.204601,-9.02768 5.204601,-9.02768 0,0 -1.434702,0.21092 -2.133471,0.39825 -0.495332,0.13283 -1.45076,0.51203 -1.45076,0.51203 z"
       id="path1516"
       inkscape:connector-curvature="0"
       sodipodi:nodetypes="cscscsc" />
    <path
       style="fill:#fefcff;fill-opacity:1;stroke:none;stroke-width:0.45056611px;stroke-linecap:butt;stroke-linejoin:miter;stroke-opacity:1"
       d="m 33.538939,183.34795 c 0,0 -0.502859,5.0238 0.170679,7.39603 0.696468,2.453 3.868696,6.59953 3.868696,6.59953 0,0 -1.764731,-4.77663 -2.048134,-7.28225 -0.305152,-2.69793 0.398247,-8.13563 0.398247,-8.13563 0,0 -1.091522,0.47873 -1.592992,0.79649 -0.285209,0.18073 -0.796496,0.62583 -0.796496,0.62583 z"
       id="path1520"
       inkscape:connector-curvature="0"
       sodipodi:nodetypes="cscscsc" />
    <path
       style="opacity:0.63999999;fill:#5a224c;fill-opacity:1;stroke:none;stroke-width:0.45056611px;stroke-linecap:butt;stroke-linejoin:miter;stroke-opacity:1"
       d="m 89.726638,259.71673 c 0,0 2.682741,1.85039 4.487731,5.62484 1.382366,2.89069 2.190857,8.46556 2.190857,8.46556 0,0 -4.06807,3.08156 -6.315075,4.26694 -2.417053,1.27505 -7.225356,3.58422 -7.225356,3.58422 0,0 2.520062,-6.5867 2.929475,-10.87054 0.378096,-3.95617 -0.01537,-7.59158 -0.01537,-7.59158 0,0 1.622249,-1.28757 2.361648,-1.83813 0.610225,-0.45439 1.586087,-1.64131 1.586087,-1.64131 z"
       id="path1522"
       inkscape:connector-curvature="0"
       sodipodi:nodetypes="cscscscscc" />
    <path
       style="fill:#754f75;fill-opacity:1;stroke:none;stroke-width:0.45056611px;stroke-linecap:butt;stroke-linejoin:miter;stroke-opacity:1"
       d="m 13.309686,228.67581 c 0,0 2.045867,3.10432 4.539264,4.64325 2.073254,1.27962 5.217524,2.4962 5.217524,2.4962 0,0 2.540774,13.61731 13.430992,23.57426 9.562964,8.74343 26.383782,10.14148 26.383782,10.14148 0,0 -0.678616,0.97006 -0.746067,3.92271 -0.06342,2.77637 2.024111,6.39355 2.024111,6.39355 0,0 -21.211989,-4.85956 -34.275209,-17.70082 C 15.351548,247.86082 13.309686,228.67581 13.309686,228.67581 Z"
       id="path1530"
       inkscape:connector-curvature="0"
       sodipodi:nodetypes="cscscscsc" />
    <path
       style="fill:#754f75;fill-opacity:1;stroke:none;stroke-width:0.45056611px;stroke-linecap:butt;stroke-linejoin:miter;stroke-opacity:1"
       d="m 73.534163,190.94683 c 0,0 11.252812,2.76648 21.312141,15.41951 6.685546,8.40935 6.872166,19.26746 6.872166,19.26746 0,0 4.45556,-0.77274 7.42271,-0.77274 3.46168,0 5.22405,2.20559 5.22405,2.20559 0,0 -0.26503,-18.96655 -14.16065,-34.27522 -13.086311,-14.41705 -32.183293,-14.48248 -32.183293,-14.48248 0,0 3.489668,3.49909 4.214274,5.99127 0.812703,2.79519 1.298602,6.64661 1.298602,6.64661 z"
       id="path1532"
       inkscape:connector-curvature="0"
       sodipodi:nodetypes="cscscscsc" />
    <path
       style="fill:#1c1353;fill-opacity:1;stroke:none;stroke-width:0.26458332px;stroke-linecap:butt;stroke-linejoin:miter;stroke-opacity:1"
       d="m 35.613663,247.28786 c 0,0 10.921188,-16.61824 36.682742,-13.76439 13.043829,1.44499 19.310224,10.35669 19.310224,10.35669 0,0 -9.153873,17.22781 -26.860587,17.97388 -20.43704,0.86111 -29.132379,-14.56618 -29.132379,-14.56618 z"
       id="path2442"
       inkscape:connector-curvature="0"
       sodipodi:nodetypes="cscsc" />
    <path
       style="fill:#b676c3;fill-opacity:1;stroke:none;stroke-width:0.26458332px;stroke-linecap:butt;stroke-linejoin:miter;stroke-opacity:1"
       d="m 62.181004,257.51069 h 2.765491 l 24.985615,-41.97453 -0.459603,-3.19387 -27.599613,42.7632 z"
       id="path2444"
       inkscape:connector-curvature="0"
       sodipodi:nodetypes="cccccc" />
    <path
       style="fill:#d7abe0;fill-opacity:1;stroke:none;stroke-width:0.65895617px;stroke-linecap:butt;stroke-linejoin:miter;stroke-opacity:1"
       d="m 62.181005,257.51069 -26.07796,-45.1684 h 53.369462 z"
       id="path2347"
       inkscape:connector-curvature="0" />
    <path
       style="fill:#ece7ed;fill-opacity:1;stroke:none;stroke-width:0.52110004px;stroke-linecap:butt;stroke-linejoin:miter;stroke-opacity:1"
       d="M 62.307943,252.78599 40.098093,214.42116 H 85.477456 Z"
       id="path2347-4"
       inkscape:connector-curvature="0"
       sodipodi:nodetypes="cccc" />
    <g
       aria-label="Ask again"
       transform="scale(0.98413002,1.0161259)"
       style="font-style:normal;font-variant:normal;font-weight:normal;font-stretch:normal;font-size:6.05956221px;line-height:1.25;font-family:Montserrat;-inkscape-font-specification:Montserrat;text-align:center;letter-spacing:0px;word-spacing:0px;text-anchor:middle;fill:#d7abe0;fill-opacity:1;stroke:none;stroke-width:0.15148905"
       id="text2448-5">
      <path
         d="m 52.369848,219.70561 h -2.254157 l -0.466587,1.06043 h -0.624135 l 1.920882,-4.2417 h 0.599896 l 1.926941,4.2417 h -0.636254 z m -0.212085,-0.48476 -0.914994,-2.07843 -0.914994,2.07843 z"
         style="text-align:center;text-anchor:middle;fill:#d7abe0;fill-opacity:1;stroke-width:0.15148905"
         id="path880" />
      <path
         d="m 54.908788,220.80239 q -0.393871,0 -0.757445,-0.10301 -0.363574,-0.10907 -0.569599,-0.27268 l 0.242383,-0.46053 q 0.212084,0.15149 0.515063,0.24239 0.302978,0.0909 0.612015,0.0909 0.763505,0 0.763505,-0.43629 0,-0.14543 -0.103012,-0.23026 -0.103013,-0.0848 -0.260562,-0.12119 -0.151489,-0.0424 -0.436288,-0.0909 -0.387812,-0.0606 -0.636254,-0.13937 -0.242383,-0.0788 -0.41811,-0.26662 -0.175727,-0.18784 -0.175727,-0.52718 0,-0.43629 0.363574,-0.69685 0.363573,-0.26662 0.975589,-0.26662 0.321157,0 0.642314,0.0788 0.321156,0.0788 0.527182,0.21208 l -0.248442,0.46053 q -0.393872,-0.2545 -0.927113,-0.2545 -0.369634,0 -0.56354,0.12119 -0.193906,0.12119 -0.193906,0.32115 0,0.15755 0.109072,0.24845 0.109072,0.0909 0.266621,0.13331 0.163608,0.0424 0.454467,0.097 0.387812,0.0666 0.624135,0.14543 0.242383,0.0727 0.41205,0.2545 0.169668,0.18179 0.169668,0.509 0,0.43629 -0.375693,0.69685 -0.369633,0.2545 -1.011947,0.2545 z"
         style="text-align:center;text-anchor:middle;fill:#d7abe0;fill-opacity:1;stroke-width:0.15148905"
         id="path882" />
      <path
         d="m 58.271842,219.26933 -0.666552,0.61807 v 0.87864 h -0.581718 v -4.4962 h 0.581718 v 2.88435 l 1.751214,-1.59972 h 0.702909 l -1.351283,1.32704 1.484593,1.88453 h -0.715028 z"
         style="text-align:center;text-anchor:middle;fill:#d7abe0;fill-opacity:1;stroke-width:0.15148905"
         id="path884" />
      <path
         d="m 63.55577,217.52417 q 0.666552,0 1.018006,0.32722 0.357515,0.32721 0.357515,0.97559 v 1.93906 H 64.37987 v -0.42417 q -0.145429,0.2242 -0.418109,0.34539 -0.266621,0.11513 -0.636254,0.11513 -0.539301,0 -0.866518,-0.26056 -0.321157,-0.26056 -0.321157,-0.68473 0,-0.42417 0.309038,-0.67867 0.309038,-0.26056 0.981649,-0.26056 h 0.921054 v -0.11513 q 0,-0.37569 -0.218145,-0.57566 -0.218144,-0.19997 -0.642313,-0.19997 -0.2848,0 -0.55748,0.097 -0.27268,0.0909 -0.460527,0.24844 l -0.242382,-0.43629 q 0.248442,-0.19996 0.593837,-0.30298 0.345395,-0.10907 0.733207,-0.10907 z m -0.13331,2.82982 q 0.333276,0 0.575658,-0.14543 0.242383,-0.15149 0.351455,-0.42417 v -0.44841 h -0.896816 q -0.739266,0 -0.739266,0.49688 0,0.24239 0.187846,0.38176 0.187847,0.13937 0.521123,0.13937 z"
         style="text-align:center;text-anchor:middle;fill:#d7abe0;fill-opacity:1;stroke-width:0.15148905"
         id="path886" />
      <path
         d="m 69.100257,217.55447 v 2.77528 q 0,0.84228 -0.41811,1.24221 -0.418109,0.40599 -1.248269,0.40599 -0.454468,0 -0.866518,-0.12725 -0.41205,-0.12119 -0.666552,-0.35146 l 0.27874,-0.4484 q 0.224204,0.1939 0.55142,0.30297 0.333276,0.11514 0.684731,0.11514 0.563539,0 0.83016,-0.26662 0.27268,-0.26663 0.27268,-0.81199 v -0.2545 q -0.206025,0.24844 -0.509003,0.3757 -0.296919,0.12119 -0.648373,0.12119 -0.460527,0 -0.83622,-0.19391 -0.369633,-0.19996 -0.581718,-0.55142 -0.212084,-0.35751 -0.212084,-0.81198 0,-0.45447 0.212084,-0.80592 0.212085,-0.35752 0.581718,-0.55142 0.375693,-0.19391 0.83622,-0.19391 0.363574,0 0.672611,0.13331 0.315097,0.13331 0.515063,0.39387 v -0.49688 z m -1.672439,2.56925 q 0.315097,0 0.563539,-0.13331 0.254502,-0.13331 0.393872,-0.36963 0.145429,-0.24238 0.145429,-0.54536 0,-0.46659 -0.309037,-0.75139 -0.309038,-0.29086 -0.793803,-0.29086 -0.490825,0 -0.799862,0.29086 -0.309038,0.2848 -0.309038,0.75139 0,0.30298 0.13937,0.54536 0.14543,0.23632 0.393872,0.36963 0.254501,0.13331 0.575658,0.13331 z"
         style="text-align:center;text-anchor:middle;fill:#d7abe0;fill-opacity:1;stroke-width:0.15148905"
         id="path888" />
      <path
         d="m 71.378644,217.52417 q 0.666552,0 1.018007,0.32722 0.357514,0.32721 0.357514,0.97559 v 1.93906 h -0.55142 v -0.42417 q -0.14543,0.2242 -0.41811,0.34539 -0.266621,0.11513 -0.636254,0.11513 -0.539301,0 -0.866518,-0.26056 -0.321156,-0.26056 -0.321156,-0.68473 0,-0.42417 0.309037,-0.67867 0.309038,-0.26056 0.981649,-0.26056 h 0.921054 v -0.11513 q 0,-0.37569 -0.218145,-0.57566 -0.218144,-0.19997 -0.642313,-0.19997 -0.2848,0 -0.55748,0.097 -0.27268,0.0909 -0.460527,0.24844 L 70.0516,217.93622 q 0.248442,-0.19996 0.593837,-0.30298 0.345395,-0.10907 0.733207,-0.10907 z m -0.13331,2.82982 q 0.333276,0 0.575658,-0.14543 0.242383,-0.15149 0.351455,-0.42417 v -0.44841 h -0.896815 q -0.739267,0 -0.739267,0.49688 0,0.24239 0.187846,0.38176 0.187847,0.13937 0.521123,0.13937 z"
         style="text-align:center;text-anchor:middle;fill:#d7abe0;fill-opacity:1;stroke-width:0.15148905"
         id="path890" />
      <path
         d="m 73.832764,217.55447 h 0.581718 v 3.21157 h -0.581718 z m 0.290859,-0.61808 q -0.169668,0 -0.2848,-0.10907 -0.109072,-0.10907 -0.109072,-0.26662 0,-0.15755 0.109072,-0.26662 0.115132,-0.11513 0.2848,-0.11513 0.169668,0 0.27874,0.10907 0.115131,0.10301 0.115131,0.26056 0,0.16361 -0.115131,0.27874 -0.109072,0.10907 -0.27874,0.10907 z"
         style="text-align:center;text-anchor:middle;fill:#d7abe0;fill-opacity:1;stroke-width:0.15148905"
         id="path892" />
      <path
         d="m 77.238235,217.52417 q 0.612015,0 0.96953,0.35752 0.363573,0.35145 0.363573,1.03618 v 1.84817 H 77.98962 v -1.78151 q 0,-0.46659 -0.224203,-0.70291 -0.224204,-0.23633 -0.642314,-0.23633 -0.472646,0 -0.745326,0.27874 -0.272681,0.27268 -0.272681,0.78775 v 1.65426 h -0.581717 v -3.21157 h 0.557479 v 0.48476 q 0.175728,-0.24844 0.472646,-0.38175 0.302978,-0.13331 0.684731,-0.13331 z"
         style="text-align:center;text-anchor:middle;fill:#d7abe0;fill-opacity:1;stroke-width:0.15148905"
         id="path894" />
    </g>
    <g
       aria-label="Ask again"
       transform="scale(0.98413002,1.0161259)"
       style="font-style:normal;font-variant:normal;font-weight:normal;font-stretch:normal;font-size:6.05956221px;line-height:1.25;font-family:Montserrat;-inkscape-font-specification:Montserrat;text-align:center;letter-spacing:0px;word-spacing:0px;text-anchor:middle;fill:#441b4d;fill-opacity:1;stroke:none;stroke-width:0.15148905"
       id="text2448">
      <path
         d="M 51.832147,219.70561 H 49.57799 l -0.466586,1.06043 h -0.624135 l 1.920881,-4.2417 h 0.599897 l 1.92694,4.2417 h -0.636254 z m -0.212085,-0.48476 -0.914994,-2.07843 -0.914993,2.07843 z"
         style="text-align:center;text-anchor:middle;fill:#441b4d;fill-opacity:1;stroke-width:0.15148905"
         id="path863" />
      <path
         d="m 54.371088,220.80239 q -0.393872,0 -0.757446,-0.10301 -0.363573,-0.10907 -0.569598,-0.27268 l 0.242382,-0.46053 q 0.212085,0.15149 0.515063,0.24239 0.302978,0.0909 0.612016,0.0909 0.763505,0 0.763505,-0.43629 0,-0.14543 -0.103013,-0.23026 -0.103013,-0.0848 -0.260561,-0.12119 -0.151489,-0.0424 -0.436289,-0.0909 -0.387812,-0.0606 -0.636254,-0.13937 -0.242382,-0.0788 -0.41811,-0.26662 -0.175727,-0.18784 -0.175727,-0.52718 0,-0.43629 0.363574,-0.69685 0.363574,-0.26662 0.975589,-0.26662 0.321157,0 0.642314,0.0788 0.321157,0.0788 0.527182,0.21208 l -0.248442,0.46053 q -0.393872,-0.2545 -0.927113,-0.2545 -0.369633,0 -0.563539,0.12119 -0.193906,0.12119 -0.193906,0.32115 0,0.15755 0.109072,0.24845 0.109072,0.0909 0.26662,0.13331 0.163609,0.0424 0.454468,0.097 0.387812,0.0666 0.624135,0.14543 0.242382,0.0727 0.41205,0.2545 0.169667,0.18179 0.169667,0.509 0,0.43629 -0.375692,0.69685 -0.369634,0.2545 -1.011947,0.2545 z"
         style="text-align:center;text-anchor:middle;fill:#441b4d;fill-opacity:1;stroke-width:0.15148905"
         id="path865" />
      <path
         d="m 57.734141,219.26933 -0.666552,0.61807 v 0.87864 h -0.581718 v -4.4962 h 0.581718 v 2.88435 l 1.751214,-1.59972 h 0.702909 l -1.351282,1.32704 1.484592,1.88453 h -0.715028 z"
         style="text-align:center;text-anchor:middle;fill:#441b4d;fill-opacity:1;stroke-width:0.15148905"
         id="path867" />
      <path
         d="m 63.018069,217.52417 q 0.666552,0 1.018007,0.32722 0.357514,0.32721 0.357514,0.97559 v 1.93906 h -0.55142 v -0.42417 q -0.14543,0.2242 -0.41811,0.34539 -0.266621,0.11513 -0.636254,0.11513 -0.539301,0 -0.866517,-0.26056 -0.321157,-0.26056 -0.321157,-0.68473 0,-0.42417 0.309037,-0.67867 0.309038,-0.26056 0.98165,-0.26056 h 0.921053 v -0.11513 q 0,-0.37569 -0.218144,-0.57566 -0.218144,-0.19997 -0.642314,-0.19997 -0.284799,0 -0.55748,0.097 -0.27268,0.0909 -0.460526,0.24844 l -0.242383,-0.43629 q 0.248442,-0.19996 0.593837,-0.30298 0.345395,-0.10907 0.733207,-0.10907 z m -0.13331,2.82982 q 0.333276,0 0.575658,-0.14543 0.242383,-0.15149 0.351455,-0.42417 v -0.44841 h -0.896815 q -0.739267,0 -0.739267,0.49688 0,0.24239 0.187847,0.38176 0.187846,0.13937 0.521122,0.13937 z"
         style="text-align:center;text-anchor:middle;fill:#441b4d;fill-opacity:1;stroke-width:0.15148905"
         id="path869" />
      <path
         d="m 68.562557,217.55447 v 2.77528 q 0,0.84228 -0.41811,1.24221 -0.41811,0.40599 -1.24827,0.40599 -0.454467,0 -0.866517,-0.12725 -0.412051,-0.12119 -0.666552,-0.35146 l 0.27874,-0.4484 q 0.224203,0.1939 0.55142,0.30297 0.333276,0.11514 0.68473,0.11514 0.56354,0 0.83016,-0.26662 0.272681,-0.26663 0.272681,-0.81199 v -0.2545 q -0.206026,0.24844 -0.509004,0.3757 -0.296918,0.12119 -0.648373,0.12119 -0.460527,0 -0.836219,-0.19391 -0.369634,-0.19996 -0.581718,-0.55142 -0.212085,-0.35751 -0.212085,-0.81198 0,-0.45447 0.212085,-0.80592 0.212084,-0.35752 0.581718,-0.55142 0.375692,-0.19391 0.836219,-0.19391 0.363574,0 0.672612,0.13331 0.315097,0.13331 0.515062,0.39387 v -0.49688 z m -1.67244,2.56925 q 0.315098,0 0.56354,-0.13331 0.254501,-0.13331 0.393871,-0.36963 0.14543,-0.24238 0.14543,-0.54536 0,-0.46659 -0.309038,-0.75139 -0.309038,-0.29086 -0.793803,-0.29086 -0.490824,0 -0.799862,0.29086 -0.309038,0.2848 -0.309038,0.75139 0,0.30298 0.13937,0.54536 0.14543,0.23632 0.393872,0.36963 0.254502,0.13331 0.575658,0.13331 z"
         style="text-align:center;text-anchor:middle;fill:#441b4d;fill-opacity:1;stroke-width:0.15148905"
         id="path871" />
      <path
         d="m 70.840943,217.52417 q 0.666552,0 1.018007,0.32722 0.357514,0.32721 0.357514,0.97559 v 1.93906 h -0.55142 v -0.42417 q -0.14543,0.2242 -0.41811,0.34539 -0.266621,0.11513 -0.636254,0.11513 -0.539301,0 -0.866517,-0.26056 -0.321157,-0.26056 -0.321157,-0.68473 0,-0.42417 0.309038,-0.67867 0.309037,-0.26056 0.981649,-0.26056 h 0.921053 v -0.11513 q 0,-0.37569 -0.218144,-0.57566 -0.218144,-0.19997 -0.642314,-0.19997 -0.284799,0 -0.55748,0.097 -0.27268,0.0909 -0.460526,0.24844 l -0.242383,-0.43629 q 0.248442,-0.19996 0.593837,-0.30298 0.345395,-0.10907 0.733207,-0.10907 z m -0.13331,2.82982 q 0.333276,0 0.575658,-0.14543 0.242383,-0.15149 0.351455,-0.42417 v -0.44841 h -0.896815 q -0.739267,0 -0.739267,0.49688 0,0.24239 0.187847,0.38176 0.187846,0.13937 0.521122,0.13937 z"
         style="text-align:center;text-anchor:middle;fill:#441b4d;fill-opacity:1;stroke-width:0.15148905"
         id="path873" />
      <path
         d="m 73.295063,217.55447 h 0.581718 v 3.21157 h -0.581718 z m 0.290859,-0.61808 q -0.169668,0 -0.284799,-0.10907 -0.109072,-0.10907 -0.109072,-0.26662 0,-0.15755 0.109072,-0.26662 0.115131,-0.11513 0.284799,-0.11513 0.169668,0 0.27874,0.10907 0.115132,0.10301 0.115132,0.26056 0,0.16361 -0.115132,0.27874 -0.109072,0.10907 -0.27874,0.10907 z"
         style="text-align:center;text-anchor:middle;fill:#441b4d;fill-opacity:1;stroke-width:0.15148905"
         id="path875" />
      <path
         d="m 76.700534,217.52417 q 0.612016,0 0.96953,0.35752 0.363574,0.35145 0.363574,1.03618 v 1.84817 H 77.45192 v -1.78151 q 0,-0.46659 -0.224204,-0.70291 -0.224204,-0.23633 -0.642314,-0.23633 -0.472646,0 -0.745326,0.27874 -0.27268,0.27268 -0.27268,0.78775 v 1.65426 h -0.581718 v -3.21157 h 0.55748 v 0.48476 q 0.175727,-0.24844 0.472645,-0.38175 0.302979,-0.13331 0.684731,-0.13331 z"
         style="text-align:center;text-anchor:middle;fill:#441b4d;fill-opacity:1;stroke-width:0.15148905"
         id="path877" />
    </g>
    <g
       aria-label="later"
       transform="scale(0.98413002,1.0161259)"
       style="font-style:normal;font-variant:normal;font-weight:normal;font-stretch:normal;font-size:6.05956221px;line-height:1.25;font-family:Montserrat;-inkscape-font-specification:Montserrat;text-align:center;letter-spacing:0px;word-spacing:0px;text-anchor:middle;fill:#d7abe0;fill-opacity:1;stroke:none;stroke-width:0.15148905"
       id="text2448-3-9">
      <path
         d="m 57.662857,222.73841 h 0.581718 v 4.49619 h -0.581718 z"
         style="text-align:center;text-anchor:middle;fill:#d7abe0;fill-opacity:1;stroke-width:0.15148905"
         id="path852" />
      <path
         d="m 60.522967,223.99274 q 0.666552,0 1.018006,0.32721 0.357514,0.32722 0.357514,0.97559 v 1.93906 h -0.55142 v -0.42417 q -0.145429,0.22421 -0.41811,0.3454 -0.26662,0.11513 -0.636254,0.11513 -0.539301,0 -0.866517,-0.26056 -0.321157,-0.26056 -0.321157,-0.68473 0,-0.42417 0.309038,-0.67867 0.309037,-0.26056 0.981649,-0.26056 h 0.921053 v -0.11513 q 0,-0.3757 -0.218144,-0.57566 -0.218144,-0.19997 -0.642314,-0.19997 -0.284799,0 -0.557479,0.097 -0.272681,0.0909 -0.460527,0.24845 l -0.242382,-0.43629 q 0.248442,-0.19997 0.593837,-0.30298 0.345395,-0.10907 0.733207,-0.10907 z m -0.133311,2.82981 q 0.333276,0 0.575659,-0.14543 0.242382,-0.15148 0.351454,-0.42417 v -0.4484 h -0.896815 q -0.739266,0 -0.739266,0.49688 0,0.24238 0.187846,0.38175 0.187846,0.13937 0.521122,0.13937 z"
         style="text-align:center;text-anchor:middle;fill:#d7abe0;fill-opacity:1;stroke-width:0.15148905"
         id="path854" />
      <path
         d="m 64.782836,227.04676 q -0.127251,0.10907 -0.315097,0.16967 -0.187847,0.0545 -0.387812,0.0545 -0.484765,0 -0.751386,-0.26056 -0.266621,-0.26056 -0.266621,-0.74533 v -1.76333 h -0.54536 v -0.4787 h 0.54536 v -0.70291 h 0.581718 v 0.70291 h 0.921054 v 0.4787 h -0.921054 v 1.7391 q 0,0.26056 0.127251,0.39993 0.13331,0.13937 0.375693,0.13937 0.266621,0 0.454467,-0.15149 z"
         style="text-align:center;text-anchor:middle;fill:#d7abe0;fill-opacity:1;stroke-width:0.15148905"
         id="path856" />
      <path
         d="m 68.279191,225.647 q 0,0.0667 -0.01212,0.17573 h -2.605611 q 0.05454,0.42417 0.369633,0.68473 0.321157,0.2545 0.793803,0.2545 0.575658,0 0.927113,-0.38781 l 0.321156,0.37569 q -0.218144,0.2545 -0.54536,0.38781 -0.321157,0.13331 -0.721088,0.13331 -0.509003,0 -0.902875,-0.20602 -0.393871,-0.21209 -0.612016,-0.58778 -0.212084,-0.37569 -0.212084,-0.84834 0,-0.46659 0.206025,-0.84228 0.212084,-0.37569 0.575658,-0.58172 0.369633,-0.21208 0.83016,-0.21208 0.460527,0 0.818041,0.21208 0.363574,0.20603 0.563539,0.58172 0.206025,0.37569 0.206025,0.86046 z m -1.587605,-1.16344 q -0.41811,0 -0.702909,0.2545 -0.27874,0.25451 -0.327216,0.66656 h 2.060251 q -0.04848,-0.40599 -0.333276,-0.6605 -0.27874,-0.26056 -0.69685,-0.26056 z"
         style="text-align:center;text-anchor:middle;fill:#d7abe0;fill-opacity:1;stroke-width:0.15148905"
         id="path858" />
      <path
         d="m 69.64259,224.56234 q 0.151489,-0.27874 0.448407,-0.42417 0.296919,-0.14543 0.721088,-0.14543 v 0.56354 q -0.04848,-0.006 -0.13331,-0.006 -0.472646,0 -0.745326,0.2848 -0.266621,0.27874 -0.266621,0.79986 v 1.59972 H 69.08511 v -3.21156 h 0.55748 z"
         style="text-align:center;text-anchor:middle;fill:#d7abe0;fill-opacity:1;stroke-width:0.15148905"
         id="path860" />
    </g>
    <g
       aria-label="later"
       transform="scale(0.98413002,1.0161259)"
       style="font-style:normal;font-variant:normal;font-weight:normal;font-stretch:normal;font-size:6.05956221px;line-height:1.25;font-family:Montserrat;-inkscape-font-specification:Montserrat;text-align:center;letter-spacing:0px;word-spacing:0px;text-anchor:middle;fill:#441b4d;fill-opacity:1;stroke:none;stroke-width:0.15148905"
       id="text2448-3">
      <path
         d="m 57.125157,222.73841 h 0.581718 v 4.49619 h -0.581718 z"
         style="text-align:center;text-anchor:middle;fill:#441b4d;fill-opacity:1;stroke-width:0.15148905"
         id="path841" />
      <path
         d="m 59.985266,223.99274 q 0.666552,0 1.018006,0.32721 0.357515,0.32722 0.357515,0.97559 v 1.93906 h -0.551421 v -0.42417 q -0.145429,0.22421 -0.418109,0.3454 -0.266621,0.11513 -0.636254,0.11513 -0.539301,0 -0.866518,-0.26056 -0.321157,-0.26056 -0.321157,-0.68473 0,-0.42417 0.309038,-0.67867 0.309038,-0.26056 0.981649,-0.26056 h 0.921054 v -0.11513 q 0,-0.3757 -0.218145,-0.57566 -0.218144,-0.19997 -0.642313,-0.19997 -0.2848,0 -0.55748,0.097 -0.27268,0.0909 -0.460527,0.24845 l -0.242382,-0.43629 q 0.248442,-0.19997 0.593837,-0.30298 0.345395,-0.10907 0.733207,-0.10907 z m -0.13331,2.82981 q 0.333276,0 0.575658,-0.14543 0.242383,-0.15148 0.351455,-0.42417 v -0.4484 h -0.896816 q -0.739266,0 -0.739266,0.49688 0,0.24238 0.187846,0.38175 0.187847,0.13937 0.521123,0.13937 z"
         style="text-align:center;text-anchor:middle;fill:#441b4d;fill-opacity:1;stroke-width:0.15148905"
         id="path843" />
      <path
         d="m 64.245135,227.04676 q -0.12725,0.10907 -0.315097,0.16967 -0.187846,0.0545 -0.387812,0.0545 -0.484765,0 -0.751386,-0.26056 -0.26662,-0.26056 -0.26662,-0.74533 v -1.76333 h -0.545361 v -0.4787 h 0.545361 v -0.70291 h 0.581718 v 0.70291 h 0.921053 v 0.4787 h -0.921053 v 1.7391 q 0,0.26056 0.12725,0.39993 0.133311,0.13937 0.375693,0.13937 0.266621,0 0.454467,-0.15149 z"
         style="text-align:center;text-anchor:middle;fill:#441b4d;fill-opacity:1;stroke-width:0.15148905"
         id="path845" />
      <path
         d="m 67.741491,225.647 q 0,0.0667 -0.01212,0.17573 H 65.12376 q 0.05454,0.42417 0.369633,0.68473 0.321157,0.2545 0.793803,0.2545 0.575658,0 0.927113,-0.38781 l 0.321157,0.37569 q -0.218145,0.2545 -0.545361,0.38781 -0.321157,0.13331 -0.721088,0.13331 -0.509003,0 -0.902875,-0.20602 -0.393871,-0.21209 -0.612015,-0.58778 -0.212085,-0.37569 -0.212085,-0.84834 0,-0.46659 0.206025,-0.84228 0.212085,-0.37569 0.575659,-0.58172 0.369633,-0.21208 0.83016,-0.21208 0.460526,0 0.81804,0.21208 0.363574,0.20603 0.56354,0.58172 0.206025,0.37569 0.206025,0.86046 z m -1.587605,-1.16344 q -0.41811,0 -0.70291,0.2545 -0.27874,0.25451 -0.327216,0.66656 h 2.060251 q -0.04848,-0.40599 -0.333276,-0.6605 -0.27874,-0.26056 -0.696849,-0.26056 z"
         style="text-align:center;text-anchor:middle;fill:#441b4d;fill-opacity:1;stroke-width:0.15148905"
         id="path847" />
      <path
         d="m 69.104889,224.56234 q 0.151489,-0.27874 0.448408,-0.42417 0.296918,-0.14543 0.721088,-0.14543 v 0.56354 q -0.04848,-0.006 -0.133311,-0.006 -0.472646,0 -0.745326,0.2848 -0.266621,0.27874 -0.266621,0.79986 v 1.59972 h -0.581718 v -3.21156 h 0.55748 z"
         style="text-align:center;text-anchor:middle;fill:#441b4d;fill-opacity:1;stroke-width:0.15148905"
         id="path849" />
    </g>
  </g>
</svg>
