<?xml version="1.0" encoding="UTF-8" standalone="no"?>
<!-- Created with Inkscape (http://www.inkscape.org/) -->

<svg
   xmlns:dc="http://purl.org/dc/elements/1.1/"
   xmlns:cc="http://creativecommons.org/ns#"
   xmlns:rdf="http://www.w3.org/1999/02/22-rdf-syntax-ns#"
   xmlns:svg="http://www.w3.org/2000/svg"
   xmlns="http://www.w3.org/2000/svg"
   xmlns:sodipodi="http://sodipodi.sourceforge.net/DTD/sodipodi-0.dtd"
   xmlns:inkscape="http://www.inkscape.org/namespaces/inkscape"
   width="500"
   height="500"
   viewBox="0 0 132.29166 132.29167"
   version="1.1"
   id="svg885"
   inkscape:version="0.92.5 (2060ec1f9f, 2020-04-08)"
   sodipodi:docname="back1.svg">
  <defs
     id="defs879" />
  <sodipodi:namedview
     id="base"
     pagecolor="#ffffff"
     bordercolor="#666666"
     borderopacity="1.0"
     inkscape:pageopacity="0.0"
     inkscape:pageshadow="2"
     inkscape:zoom="1.979899"
     inkscape:cx="184.80453"
     inkscape:cy="255.84572"
     inkscape:document-units="mm"
     inkscape:current-layer="layer1"
     showgrid="false"
     units="px"
     inkscape:window-width="1848"
     inkscape:window-height="1016"
     inkscape:window-x="72"
     inkscape:window-y="27"
     inkscape:window-maximized="1"
     inkscape:lockguides="true" />
  <metadata
     id="metadata882">
    <rdf:RDF>
      <cc:Work
         rdf:about="">
        <dc:format>image/svg+xml</dc:format>
        <dc:type
           rdf:resource="http://purl.org/dc/dcmitype/StillImage" />
        <dc:title />
      </cc:Work>
    </rdf:RDF>
  </metadata>
  <g
     inkscape:label="Layer 1"
     inkscape:groupmode="layer"
     id="layer1"
     transform="translate(0,-164.70832)">
    <ellipse
       style="opacity:0.26199999;vector-effect:none;fill:#754f75;fill-opacity:1;stroke:none;stroke-width:1.17161381;stroke-linecap:round;stroke-linejoin:round;stroke-miterlimit:4;stroke-dasharray:none;stroke-dashoffset:0;stroke-opacity:1"
       id="path1534"
       cx="85.47683"
       cy="282.5824"
       rx="42.783207"
       ry="9.6148434" />
    <ellipse
       style="opacity:0.26199999;vector-effect:none;fill:#754f75;fill-opacity:1;stroke:none;stroke-width:0.76952147;stroke-linecap:round;stroke-linejoin:round;stroke-miterlimit:4;stroke-dasharray:none;stroke-dashoffset:0;stroke-opacity:1"
       id="path1534-9"
       cx="71.481262"
       cy="282.92374"
       rx="28.100214"
       ry="6.3150744" />
    <circle
       style="opacity:1;vector-effect:none;fill:#9957af;fill-opacity:1;stroke:none;stroke-width:1.14031112;stroke-linecap:round;stroke-linejoin:round;stroke-miterlimit:4;stroke-dasharray:none;stroke-dashoffset:0;stroke-opacity:1"
       id="path1449"
       cx="62.440365"
       cy="229.14644"
       r="58.030418" />
    <circle
       style="opacity:1;vector-effect:none;fill:#82326f;fill-opacity:1;stroke:none;stroke-width:1.11348021;stroke-linecap:round;stroke-linejoin:round;stroke-miterlimit:4;stroke-dasharray:none;stroke-dashoffset:0;stroke-opacity:1"
       id="path1449-3"
       cx="62.440365"
       cy="229.14644"
       r="56.665001" />
    <ellipse
       style="opacity:1;vector-effect:none;fill:#613e6d;fill-opacity:1;stroke:none;stroke-width:0.73709202;stroke-linecap:round;stroke-linejoin:round;stroke-miterlimit:4;stroke-dasharray:none;stroke-dashoffset:0;stroke-opacity:1"
       id="path1449-3-3"
       cx="62.440365"
       cy="229.14644"
       rx="37.386955"
       ry="37.634663" />
    <ellipse
       style="opacity:1;vector-effect:none;fill:#000000;fill-opacity:1;stroke:none;stroke-width:0.68278807;stroke-linecap:round;stroke-linejoin:round;stroke-miterlimit:4;stroke-dasharray:none;stroke-dashoffset:0;stroke-opacity:1"
       id="path1449-3-3-0"
       cx="62.440365"
       cy="229.14644"
       rx="34.632538"
       ry="34.861996" />
    <path
       style="fill:#c12688;fill-opacity:1;stroke:none;stroke-width:0.45056611px;stroke-linecap:butt;stroke-linejoin:miter;stroke-opacity:1"
       d="m 12.488691,207.29972 c 0,0 4.63182,-14.18778 20.139969,-23.89489 15.916805,-9.96289 28.901421,-9.44417 28.901421,-9.44417 0,0 -17.19509,5.47451 -27.763568,12.2888 -12.174689,7.84993 -21.277822,21.05026 -21.277822,21.05026 z"
       id="path1496"
       inkscape:connector-curvature="0"
       sodipodi:nodetypes="cscsc" />
    <path
       style="fill:#c12688;fill-opacity:1;stroke:none;stroke-width:0.45056611px;stroke-linecap:butt;stroke-linejoin:miter;stroke-opacity:1"
       d="m 67.352956,283.81496 c 0,0 17.255122,-2.81772 32.22176,-16.62391 14.524494,-13.39832 17.526094,-33.44637 17.526094,-33.44637 0,0 -1.76699,20.12708 -14.40203,32.98788 -12.992154,15.8522 -35.345824,17.0824 -35.345824,17.0824 z"
       id="path1502"
       inkscape:connector-curvature="0"
       sodipodi:nodetypes="csccc" />
    <path
       style="fill:#441b4d;fill-opacity:1;stroke:none;stroke-width:0.45056611px;stroke-linecap:butt;stroke-linejoin:miter;stroke-opacity:1"
       d="m 8.2786413,226.30183 c 0,0 -3.8706954,17.27867 12.9715057,38.11802 15.585378,19.28423 42.555639,20.36753 42.555639,20.36753 0,0 -26.120163,-7.65598 -38.800732,-23.78109 C 11.394135,243.69812 8.2786413,226.30183 8.2786413,226.30183 Z"
       id="path1498"
       inkscape:connector-curvature="0"
       sodipodi:nodetypes="cscsc" />
    <path
       style="fill:#441b4d;fill-opacity:1;stroke:none;stroke-width:0.45056611px;stroke-linecap:butt;stroke-linejoin:miter;stroke-opacity:1"
       d="m 73.116067,267.96472 c 0,0 11.784257,-3.57061 18.997624,-12.45183 7.849509,-9.66445 9.275819,-19.11899 9.275819,-19.11899 0,0 0.14172,12.08179 -5.761552,19.93446 -9.438692,12.55555 -22.511891,11.63636 -22.511891,11.63636 z"
       id="path1500"
       inkscape:connector-curvature="0"
       sodipodi:nodetypes="cscsc" />
    <path
       style="fill:#c12688;fill-opacity:1;stroke:none;stroke-width:0.45056611px;stroke-linecap:butt;stroke-linejoin:miter;stroke-opacity:1"
       d="m 23.779191,215.00115 c 0,0 5.493113,-13.36137 14.646353,-19.4062 11.50994,-7.6012 25.578374,-7.27865 25.578374,-7.27865 0,0 -17.670875,-3.82775 -29.698611,7.64808 C 22.85,206.89404 23.779191,215.00115 23.779191,215.00115 Z"
       id="path1504"
       inkscape:connector-curvature="0"
       sodipodi:nodetypes="cscsc" />
    <path
       style="opacity:0.497;fill:#c8afcd;fill-opacity:1;stroke:none;stroke-width:0.45056611px;stroke-linecap:butt;stroke-linejoin:miter;stroke-opacity:1"
       d="m 42.197929,195.81003 c 0,0 -0.911998,-3.11088 -0.667794,-7.16951 0.33609,-5.58578 5.799581,-15.02436 5.799581,-15.02436 0,0 -4.37482,1.25605 -9.143445,3.35116 -3.291257,1.44602 -7.102216,4.00624 -7.102216,4.00624 0,0 -1.464498,6.18081 0.309093,11.15227 2.649144,7.42568 5.971412,7.412 5.971412,7.412 0,0 1.370906,-1.24739 2.294992,-1.8171 0.751826,-0.46349 2.538377,-1.9107 2.538377,-1.9107 z"
       id="path1506"
       inkscape:connector-curvature="0"
       sodipodi:nodetypes="cscscscsc" />
    <path
       style="opacity:0.497;fill:#c8afcd;fill-opacity:1;stroke:none;stroke-width:0.45056611px;stroke-linecap:butt;stroke-linejoin:miter;stroke-opacity:1"
       d="m 50.891173,176.17949 c 0,0 -3.658319,4.35542 -3.822427,7.79051 -0.397974,8.33035 1.842794,8.73349 1.842794,8.73349 0,0 -0.387944,-5.34475 0.359263,-8.4066 0.850987,-3.4871 5.204601,-9.02768 5.204601,-9.02768 0,0 -1.434702,0.21092 -2.133471,0.39825 -0.495332,0.13283 -1.45076,0.51203 -1.45076,0.51203 z"
       id="path1516"
       inkscape:connector-curvature="0"
       sodipodi:nodetypes="cscscsc" />
    <path
       style="fill:#fefcff;fill-opacity:1;stroke:none;stroke-width:0.45056611px;stroke-linecap:butt;stroke-linejoin:miter;stroke-opacity:1"
       d="m 33.538939,183.34795 c 0,0 -0.502859,5.0238 0.170679,7.39603 0.696468,2.453 3.868696,6.59953 3.868696,6.59953 0,0 -1.764731,-4.77663 -2.048134,-7.28225 -0.305152,-2.69793 0.398247,-8.13563 0.398247,-8.13563 0,0 -1.091522,0.47873 -1.592992,0.79649 -0.285209,0.18073 -0.796496,0.62583 -0.796496,0.62583 z"
       id="path1520"
       inkscape:connector-curvature="0"
       sodipodi:nodetypes="cscscsc" />
    <path
       style="opacity:0.63999999;fill:#5a224c;fill-opacity:1;stroke:none;stroke-width:0.45056611px;stroke-linecap:butt;stroke-linejoin:miter;stroke-opacity:1"
       d="m 89.726638,259.71673 c 0,0 2.682741,1.85039 4.487731,5.62484 1.382366,2.89069 2.190857,8.46556 2.190857,8.46556 0,0 -4.06807,3.08156 -6.315075,4.26694 -2.417053,1.27505 -7.225356,3.58422 -7.225356,3.58422 0,0 2.520062,-6.5867 2.929475,-10.87054 0.378096,-3.95617 -0.01537,-7.59158 -0.01537,-7.59158 0,0 1.622249,-1.28757 2.361648,-1.83813 0.610225,-0.45439 1.586087,-1.64131 1.586087,-1.64131 z"
       id="path1522"
       inkscape:connector-curvature="0"
       sodipodi:nodetypes="cscscscscc" />
    <path
       style="fill:#754f75;fill-opacity:1;stroke:none;stroke-width:0.45056611px;stroke-linecap:butt;stroke-linejoin:miter;stroke-opacity:1"
       d="m 13.309686,228.67581 c 0,0 2.045867,3.10432 4.539264,4.64325 2.073254,1.27962 5.217524,2.4962 5.217524,2.4962 0,0 2.540774,13.61731 13.430992,23.57426 9.562964,8.74343 26.383782,10.14148 26.383782,10.14148 0,0 -0.678616,0.97006 -0.746067,3.92271 -0.06342,2.77637 2.024111,6.39355 2.024111,6.39355 0,0 -21.211989,-4.85956 -34.275209,-17.70082 C 15.351548,247.86082 13.309686,228.67581 13.309686,228.67581 Z"
       id="path1530"
       inkscape:connector-curvature="0"
       sodipodi:nodetypes="cscscscsc" />
    <path
       style="fill:#754f75;fill-opacity:1;stroke:none;stroke-width:0.45056611px;stroke-linecap:butt;stroke-linejoin:miter;stroke-opacity:1"
       d="m 73.534163,190.94683 c 0,0 11.252812,2.76648 21.312141,15.41951 6.685546,8.40935 6.872166,19.26746 6.872166,19.26746 0,0 4.45556,-0.77274 7.42271,-0.77274 3.46168,0 5.22405,2.20559 5.22405,2.20559 0,0 -0.26503,-18.96655 -14.16065,-34.27522 -13.086311,-14.41705 -32.183293,-14.48248 -32.183293,-14.48248 0,0 3.489668,3.49909 4.214274,5.99127 0.812703,2.79519 1.298602,6.64661 1.298602,6.64661 z"
       id="path1532"
       inkscape:connector-curvature="0"
       sodipodi:nodetypes="cscscscsc" />
    <path
       style="fill:#1c1353;fill-opacity:1;stroke:none;stroke-width:0.26458332px;stroke-linecap:butt;stroke-linejoin:miter;stroke-opacity:1"
       d="m 35.613663,247.28786 c 0,0 10.921188,-16.61824 36.682742,-13.76439 13.043829,1.44499 19.310224,10.35669 19.310224,10.35669 0,0 -9.153873,17.22781 -26.860587,17.97388 -20.43704,0.86111 -29.132379,-14.56618 -29.132379,-14.56618 z"
       id="path2442"
       inkscape:connector-curvature="0"
       sodipodi:nodetypes="cscsc" />
    <path
       style="fill:#b676c3;fill-opacity:1;stroke:none;stroke-width:0.26458332px;stroke-linecap:butt;stroke-linejoin:miter;stroke-opacity:1"
       d="m 62.181004,257.51069 h 2.765491 l 24.985615,-41.97453 -0.459603,-3.19387 -27.599613,42.7632 z"
       id="path2444"
       inkscape:connector-curvature="0"
       sodipodi:nodetypes="cccccc" />
    <path
       style="fill:#d7abe0;fill-opacity:1;stroke:none;stroke-width:0.65895617px;stroke-linecap:butt;stroke-linejoin:miter;stroke-opacity:1"
       d="m 62.181005,257.51069 -26.07796,-45.1684 h 53.369462 z"
       id="path2347"
       inkscape:connector-curvature="0" />
    <path
       style="fill:#ece7ed;fill-opacity:1;stroke:none;stroke-width:0.52110004px;stroke-linecap:butt;stroke-linejoin:miter;stroke-opacity:1"
       d="M 62.307943,252.78599 40.098093,214.42116 H 85.477456 Z"
       id="path2347-4"
       inkscape:connector-curvature="0"
       sodipodi:nodetypes="cccc" />
    <g
       aria-label="It is"
       style="font-style:normal;font-variant:normal;font-weight:normal;font-stretch:normal;font-size:6.57112265px;line-height:1.25;font-family:Montserrat;-inkscape-font-specification:Montserrat;text-align:center;letter-spacing:0px;word-spacing:0px;text-anchor:middle;fill:#d7abe0;fill-opacity:1;stroke:none;stroke-width:0.16427808"
       id="text2448-6">
      <path
         d="m 57.887711,221.20444 h 0.657112 v 4.59979 h -0.657112 z"
         style="text-align:center;text-anchor:middle;fill:#d7abe0;fill-opacity:1;stroke-width:0.16427808"
         id="path880" />
      <path
         d="m 61.790954,225.60052 q -0.137993,0.11829 -0.341698,0.184 -0.203705,0.0591 -0.420552,0.0591 -0.52569,0 -0.814819,-0.28256 -0.28913,-0.28256 -0.28913,-0.80825 v -1.9122 h -0.591401 v -0.51912 h 0.591401 v -0.76225 h 0.630828 v 0.76225 h 0.998811 v 0.51912 h -0.998811 v 1.88592 q 0,0.28255 0.137994,0.43369 0.144565,0.15114 0.407409,0.15114 0.28913,0 0.492835,-0.16428 z"
         style="text-align:center;text-anchor:middle;fill:#d7abe0;fill-opacity:1;stroke-width:0.16427808"
         id="path882" />
      <path
         d="m 64.320827,222.32153 h 0.630828 v 3.4827 h -0.630828 z m 0.315414,-0.67025 q -0.183991,0 -0.308842,-0.11828 -0.118281,-0.11828 -0.118281,-0.28913 0,-0.17085 0.118281,-0.28913 0.124851,-0.12485 0.308842,-0.12485 0.183992,0 0.302272,0.11828 0.124851,0.11171 0.124851,0.28256 0,0.17742 -0.124851,0.30227 -0.11828,0.11828 -0.302272,0.11828 z"
         style="text-align:center;text-anchor:middle;fill:#d7abe0;fill-opacity:1;stroke-width:0.16427808"
         id="path884" />
      <path
         d="m 67.152977,225.84366 q -0.427123,0 -0.821391,-0.11171 -0.394267,-0.11828 -0.617685,-0.2957 l 0.262845,-0.49941 q 0.229989,0.16428 0.558545,0.26285 0.328556,0.0986 0.663684,0.0986 0.827961,0 0.827961,-0.47312 0,-0.1577 -0.111709,-0.2497 -0.111709,-0.092 -0.282558,-0.13142 -0.164278,-0.046 -0.473121,-0.0986 -0.420552,-0.0657 -0.689968,-0.15114 -0.262845,-0.0854 -0.453407,-0.28912 -0.190563,-0.20371 -0.190563,-0.57169 0,-0.47312 0.394267,-0.75568 0.394268,-0.28913 1.057951,-0.28913 0.34827,0 0.696539,0.0854 0.34827,0.0854 0.571688,0.22999 l -0.269416,0.49941 q -0.427123,-0.27599 -1.005382,-0.27599 -0.400838,0 -0.611114,0.13142 -0.210276,0.13143 -0.210276,0.34827 0,0.17085 0.11828,0.26942 0.11828,0.0986 0.289129,0.14456 0.177421,0.046 0.492834,0.10514 0.420552,0.0723 0.676826,0.15771 0.262845,0.0789 0.446836,0.27599 0.183992,0.19713 0.183992,0.55197 0,0.47312 -0.40741,0.75568 -0.400838,0.27599 -1.097377,0.27599 z"
         style="text-align:center;text-anchor:middle;fill:#d7abe0;fill-opacity:1;stroke-width:0.16427808"
         id="path886" />
    </g>
    <g
       aria-label="It is"
       style="font-style:normal;font-variant:normal;font-weight:normal;font-stretch:normal;font-size:6.57112265px;line-height:1.25;font-family:Montserrat;-inkscape-font-specification:Montserrat;text-align:center;letter-spacing:0px;word-spacing:0px;text-anchor:middle;fill:#441b4d;fill-opacity:1;stroke:none;stroke-width:0.16427808"
       id="text2448">
      <path
         d="m 57.358544,221.20444 h 0.657112 v 4.59979 h -0.657112 z"
         style="text-align:center;text-anchor:middle;fill:#441b4d;fill-opacity:1;stroke-width:0.16427808"
         id="path871" />
      <path
         d="m 61.261787,225.60052 q -0.137993,0.11829 -0.341698,0.184 -0.203705,0.0591 -0.420552,0.0591 -0.52569,0 -0.814819,-0.28256 -0.28913,-0.28256 -0.28913,-0.80825 v -1.9122 h -0.591401 v -0.51912 h 0.591401 v -0.76225 h 0.630828 v 0.76225 h 0.998811 v 0.51912 h -0.998811 v 1.88592 q 0,0.28255 0.137994,0.43369 0.144564,0.15114 0.407409,0.15114 0.28913,0 0.492834,-0.16428 z"
         style="text-align:center;text-anchor:middle;fill:#441b4d;fill-opacity:1;stroke-width:0.16427808"
         id="path873" />
      <path
         d="m 63.79166,222.32153 h 0.630828 v 3.4827 H 63.79166 Z m 0.315414,-0.67025 q -0.183991,0 -0.308843,-0.11828 -0.11828,-0.11828 -0.11828,-0.28913 0,-0.17085 0.11828,-0.28913 0.124852,-0.12485 0.308843,-0.12485 0.183992,0 0.302272,0.11828 0.124851,0.11171 0.124851,0.28256 0,0.17742 -0.124851,0.30227 -0.11828,0.11828 -0.302272,0.11828 z"
         style="text-align:center;text-anchor:middle;fill:#441b4d;fill-opacity:1;stroke-width:0.16427808"
         id="path875" />
      <path
         d="m 66.62381,225.84366 q -0.427123,0 -0.821391,-0.11171 -0.394267,-0.11828 -0.617685,-0.2957 l 0.262845,-0.49941 q 0.229989,0.16428 0.558545,0.26285 0.328556,0.0986 0.663683,0.0986 0.827962,0 0.827962,-0.47312 0,-0.1577 -0.111709,-0.2497 -0.111709,-0.092 -0.282558,-0.13142 -0.164279,-0.046 -0.473121,-0.0986 -0.420552,-0.0657 -0.689968,-0.15114 -0.262845,-0.0854 -0.453408,-0.28912 -0.190562,-0.20371 -0.190562,-0.57169 0,-0.47312 0.394267,-0.75568 0.394268,-0.28913 1.057951,-0.28913 0.348269,0 0.696539,0.0854 0.348269,0.0854 0.571688,0.22999 l -0.269416,0.49941 q -0.427123,-0.27599 -1.005382,-0.27599 -0.400839,0 -0.611115,0.13142 -0.210276,0.13143 -0.210276,0.34827 0,0.17085 0.118281,0.26942 0.11828,0.0986 0.289129,0.14456 0.17742,0.046 0.492834,0.10514 0.420552,0.0723 0.676826,0.15771 0.262845,0.0789 0.446836,0.27599 0.183992,0.19713 0.183992,0.55197 0,0.47312 -0.40741,0.75568 -0.400838,0.27599 -1.097377,0.27599 z"
         style="text-align:center;text-anchor:middle;fill:#441b4d;fill-opacity:1;stroke-width:0.16427808"
         id="path877" />
    </g>
    <g
       aria-label="certain"
       style="font-style:normal;font-variant:normal;font-weight:normal;font-stretch:normal;font-size:6.57112265px;line-height:1.25;font-family:Montserrat;-inkscape-font-specification:Montserrat;text-align:center;letter-spacing:0px;word-spacing:0px;text-anchor:middle;fill:#d7abe0;fill-opacity:1;stroke:none;stroke-width:0.16427808"
       id="text2448-3-4">
      <path
         d="m 53.402927,232.27434 q -0.532261,0 -0.952813,-0.22999 -0.413981,-0.22999 -0.650541,-0.63083 -0.236561,-0.40741 -0.236561,-0.91996 0,-0.51255 0.236561,-0.91338 0.23656,-0.40741 0.650541,-0.63083 0.420552,-0.22999 0.952813,-0.22999 0.473121,0 0.841103,0.19056 0.374554,0.19056 0.578259,0.55198 l -0.479692,0.30884 q -0.164278,-0.2497 -0.407409,-0.37456 -0.243132,-0.12485 -0.538832,-0.12485 -0.341699,0 -0.617686,0.15114 -0.269416,0.15113 -0.427123,0.43369 -0.151136,0.27599 -0.151136,0.6374 0,0.36798 0.151136,0.65054 0.157707,0.27599 0.427123,0.42713 0.275987,0.15113 0.617686,0.15113 0.2957,0 0.538832,-0.12485 0.243131,-0.12485 0.407409,-0.37455 l 0.479692,0.30227 q -0.203705,0.36141 -0.578259,0.55854 -0.367982,0.19057 -0.841103,0.19057 z"
         style="text-align:center;text-anchor:middle;fill:#d7abe0;fill-opacity:1;stroke-width:0.16427808"
         id="path856" />
      <path
         d="m 58.732093,230.51327 q 0,0.0723 -0.01314,0.19057 h -2.825583 q 0.05914,0.45998 0.400838,0.74253 0.34827,0.27599 0.860817,0.27599 0.624257,0 1.005382,-0.42055 l 0.34827,0.40741 q -0.236561,0.27599 -0.591401,0.42055 -0.34827,0.14457 -0.781964,0.14457 -0.551974,0 -0.979097,-0.22342 -0.427123,-0.22999 -0.663684,-0.6374 -0.229989,-0.40741 -0.229989,-0.91996 0,-0.50597 0.223418,-0.91338 0.22999,-0.40741 0.624257,-0.63083 0.400838,-0.22999 0.900244,-0.22999 0.499405,0 0.887101,0.22999 0.394268,0.22342 0.611115,0.63083 0.223418,0.40741 0.223418,0.93309 z m -1.721634,-1.26165 q -0.453408,0 -0.76225,0.27599 -0.302272,0.27598 -0.354841,0.72282 h 2.234182 q -0.05257,-0.44027 -0.361412,-0.71625 -0.302272,-0.28256 -0.755679,-0.28256 z"
         style="text-align:center;text-anchor:middle;fill:#d7abe0;fill-opacity:1;stroke-width:0.16427808"
         id="path858" />
      <path
         d="m 60.210592,229.33704 q 0.164278,-0.30227 0.486263,-0.45997 0.321985,-0.15771 0.781964,-0.15771 v 0.61111 q -0.05257,-0.007 -0.144565,-0.007 -0.512547,0 -0.808248,0.30884 -0.289129,0.30228 -0.289129,0.86739 v 1.73478 h -0.630828 v -3.4827 h 0.604543 z"
         style="text-align:center;text-anchor:middle;fill:#d7abe0;fill-opacity:1;stroke-width:0.16427808"
         id="path860" />
      <path
         d="m 64.356966,232.0312 q -0.137994,0.11828 -0.341699,0.184 -0.203704,0.0591 -0.420551,0.0591 -0.52569,0 -0.81482,-0.28256 -0.289129,-0.28256 -0.289129,-0.80825 v -1.9122 h -0.591401 v -0.51912 h 0.591401 v -0.76225 h 0.630828 v 0.76225 h 0.99881 v 0.51912 h -0.99881 v 1.88591 q 0,0.28256 0.137993,0.4337 0.144565,0.15113 0.40741,0.15113 0.289129,0 0.492834,-0.16427 z"
         style="text-align:center;text-anchor:middle;fill:#d7abe0;fill-opacity:1;stroke-width:0.16427808"
         id="path862" />
      <path
         d="m 66.38744,228.71936 q 0.722823,0 1.103948,0.35484 0.387697,0.35484 0.387697,1.05795 v 2.10276 h -0.597973 v -0.45998 q -0.157706,0.24313 -0.453407,0.37455 -0.289129,0.12486 -0.689968,0.12486 -0.58483,0 -0.93967,-0.28256 -0.34827,-0.28256 -0.34827,-0.74254 0,-0.45998 0.335127,-0.73597 0.335128,-0.28255 1.064522,-0.28255 h 0.998811 v -0.12485 q 0,-0.40741 -0.236561,-0.62426 -0.23656,-0.21685 -0.696539,-0.21685 -0.308842,0 -0.604543,0.10514 -0.2957,0.0986 -0.499405,0.26942 l -0.262845,-0.47313 q 0.269416,-0.21684 0.64397,-0.32855 0.374554,-0.11828 0.795106,-0.11828 z m -0.144565,3.06871 q 0.361412,0 0.624257,-0.1577 0.262845,-0.16428 0.381125,-0.45998 v -0.48627 h -0.972526 q -0.801677,0 -0.801677,0.53884 0,0.26284 0.203705,0.41398 0.203704,0.15113 0.565116,0.15113 z"
         style="text-align:center;text-anchor:middle;fill:#d7abe0;fill-opacity:1;stroke-width:0.16427808"
         id="path864" />
      <path
         d="m 69.048741,228.75221 h 0.630828 v 3.4827 h -0.630828 z m 0.315414,-0.67025 q -0.183991,0 -0.308843,-0.11828 -0.11828,-0.11828 -0.11828,-0.28913 0,-0.17085 0.11828,-0.28913 0.124852,-0.12485 0.308843,-0.12485 0.183992,0 0.302272,0.11828 0.124851,0.11171 0.124851,0.28256 0,0.17742 -0.124851,0.30227 -0.11828,0.11828 -0.302272,0.11828 z"
         style="text-align:center;text-anchor:middle;fill:#d7abe0;fill-opacity:1;stroke-width:0.16427808"
         id="path866" />
      <path
         d="m 72.741709,228.71936 q 0.663683,0 1.051379,0.38769 0.394268,0.38113 0.394268,1.12367 v 2.00419 H 73.556528 V 230.303 q 0,-0.50598 -0.243132,-0.76225 -0.243131,-0.25628 -0.696539,-0.25628 -0.512547,0 -0.808248,0.30228 -0.2957,0.2957 -0.2957,0.85424 v 1.79392 h -0.630828 v -3.4827 h 0.604543 v 0.52569 q 0.190563,-0.26941 0.512548,-0.41398 0.328556,-0.14456 0.742537,-0.14456 z"
         style="text-align:center;text-anchor:middle;fill:#d7abe0;fill-opacity:1;stroke-width:0.16427808"
         id="path868" />
    </g>
    <g
       aria-label="certain"
       style="font-style:normal;font-variant:normal;font-weight:normal;font-stretch:normal;font-size:6.57112265px;line-height:1.25;font-family:Montserrat;-inkscape-font-specification:Montserrat;text-align:center;letter-spacing:0px;word-spacing:0px;text-anchor:middle;fill:#441b4d;fill-opacity:1;stroke:none;stroke-width:0.16427808"
       id="text2448-3">
      <path
         d="m 52.87376,232.27434 q -0.532261,0 -0.952813,-0.22999 -0.413981,-0.22999 -0.650541,-0.63083 -0.236561,-0.40741 -0.236561,-0.91996 0,-0.51255 0.236561,-0.91338 0.23656,-0.40741 0.650541,-0.63083 0.420552,-0.22999 0.952813,-0.22999 0.47312,0 0.841103,0.19056 0.374554,0.19056 0.578259,0.55198 l -0.479692,0.30884 q -0.164278,-0.2497 -0.40741,-0.37456 -0.243131,-0.12485 -0.538832,-0.12485 -0.341698,0 -0.617685,0.15114 -0.269416,0.15113 -0.427123,0.43369 -0.151136,0.27599 -0.151136,0.6374 0,0.36798 0.151136,0.65054 0.157707,0.27599 0.427123,0.42713 0.275987,0.15113 0.617685,0.15113 0.295701,0 0.538832,-0.12485 0.243132,-0.12485 0.40741,-0.37455 l 0.479692,0.30227 q -0.203705,0.36141 -0.578259,0.55854 -0.367983,0.19057 -0.841103,0.19057 z"
         style="text-align:center;text-anchor:middle;fill:#441b4d;fill-opacity:1;stroke-width:0.16427808"
         id="path841" />
      <path
         d="m 58.202926,230.51327 q 0,0.0723 -0.01314,0.19057 h -2.825582 q 0.05914,0.45998 0.400838,0.74253 0.34827,0.27599 0.860817,0.27599 0.624257,0 1.005382,-0.42055 l 0.34827,0.40741 q -0.236561,0.27599 -0.591401,0.42055 -0.34827,0.14457 -0.781964,0.14457 -0.551974,0 -0.979097,-0.22342 -0.427123,-0.22999 -0.663684,-0.6374 -0.229989,-0.40741 -0.229989,-0.91996 0,-0.50597 0.223418,-0.91338 0.229989,-0.40741 0.624257,-0.63083 0.400838,-0.22999 0.900244,-0.22999 0.499405,0 0.887101,0.22999 0.394267,0.22342 0.611115,0.63083 0.223418,0.40741 0.223418,0.93309 z m -1.721634,-1.26165 q -0.453408,0 -0.762251,0.27599 -0.302271,0.27598 -0.35484,0.72282 h 2.234181 q -0.05257,-0.44027 -0.361411,-0.71625 -0.302272,-0.28256 -0.755679,-0.28256 z"
         style="text-align:center;text-anchor:middle;fill:#441b4d;fill-opacity:1;stroke-width:0.16427808"
         id="path843" />
      <path
         d="m 59.681425,229.33704 q 0.164278,-0.30227 0.486263,-0.45997 0.321985,-0.15771 0.781964,-0.15771 v 0.61111 q -0.05257,-0.007 -0.144565,-0.007 -0.512547,0 -0.808248,0.30884 -0.289129,0.30228 -0.289129,0.86739 v 1.73478 h -0.630828 v -3.4827 h 0.604543 z"
         style="text-align:center;text-anchor:middle;fill:#441b4d;fill-opacity:1;stroke-width:0.16427808"
         id="path845" />
      <path
         d="m 63.827799,232.0312 q -0.137994,0.11828 -0.341699,0.184 -0.203704,0.0591 -0.420552,0.0591 -0.525689,0 -0.814819,-0.28256 -0.289129,-0.28256 -0.289129,-0.80825 v -1.9122 h -0.591401 v -0.51912 H 61.9616 v -0.76225 h 0.630828 v 0.76225 h 0.99881 v 0.51912 h -0.99881 v 1.88591 q 0,0.28256 0.137993,0.4337 0.144565,0.15113 0.40741,0.15113 0.289129,0 0.492834,-0.16427 z"
         style="text-align:center;text-anchor:middle;fill:#441b4d;fill-opacity:1;stroke-width:0.16427808"
         id="path847" />
      <path
         d="m 65.858273,228.71936 q 0.722823,0 1.103948,0.35484 0.387696,0.35484 0.387696,1.05795 v 2.10276 h -0.597972 v -0.45998 q -0.157707,0.24313 -0.453407,0.37455 -0.28913,0.12486 -0.689968,0.12486 -0.58483,0 -0.939671,-0.28256 -0.348269,-0.28256 -0.348269,-0.74254 0,-0.45998 0.335127,-0.73597 0.335127,-0.28255 1.064522,-0.28255 h 0.998811 v -0.12485 q 0,-0.40741 -0.236561,-0.62426 -0.23656,-0.21685 -0.696539,-0.21685 -0.308842,0 -0.604543,0.10514 -0.295701,0.0986 -0.499405,0.26942 l -0.262845,-0.47313 q 0.269416,-0.21684 0.64397,-0.32855 0.374554,-0.11828 0.795106,-0.11828 z m -0.144565,3.06871 q 0.361412,0 0.624257,-0.1577 0.262844,-0.16428 0.381125,-0.45998 v -0.48627 h -0.972526 q -0.801677,0 -0.801677,0.53884 0,0.26284 0.203704,0.41398 0.203705,0.15113 0.565117,0.15113 z"
         style="text-align:center;text-anchor:middle;fill:#441b4d;fill-opacity:1;stroke-width:0.16427808"
         id="path849" />
      <path
         d="m 68.519574,228.75221 h 0.630828 v 3.4827 h -0.630828 z m 0.315414,-0.67025 q -0.183991,0 -0.308843,-0.11828 -0.11828,-0.11828 -0.11828,-0.28913 0,-0.17085 0.11828,-0.28913 0.124852,-0.12485 0.308843,-0.12485 0.183992,0 0.302272,0.11828 0.124851,0.11171 0.124851,0.28256 0,0.17742 -0.124851,0.30227 -0.11828,0.11828 -0.302272,0.11828 z"
         style="text-align:center;text-anchor:middle;fill:#441b4d;fill-opacity:1;stroke-width:0.16427808"
         id="path851" />
      <path
         d="m 72.212542,228.71936 q 0.663683,0 1.051379,0.38769 0.394268,0.38113 0.394268,1.12367 v 2.00419 H 73.027361 V 230.303 q 0,-0.50598 -0.243132,-0.76225 -0.243131,-0.25628 -0.696539,-0.25628 -0.512547,0 -0.808248,0.30228 -0.2957,0.2957 -0.2957,0.85424 v 1.79392 h -0.630828 v -3.4827 h 0.604543 v 0.52569 q 0.190563,-0.26941 0.512548,-0.41398 0.328556,-0.14456 0.742537,-0.14456 z"
         style="text-align:center;text-anchor:middle;fill:#441b4d;fill-opacity:1;stroke-width:0.16427808"
         id="path853" />
    </g>
  </g>
</svg>
