<?xml version="1.0" encoding="UTF-8" standalone="no"?>
<!-- Created with Inkscape (http://www.inkscape.org/) -->

<svg
   xmlns:dc="http://purl.org/dc/elements/1.1/"
   xmlns:cc="http://creativecommons.org/ns#"
   xmlns:rdf="http://www.w3.org/1999/02/22-rdf-syntax-ns#"
   xmlns:svg="http://www.w3.org/2000/svg"
   xmlns="http://www.w3.org/2000/svg"
   xmlns:sodipodi="http://sodipodi.sourceforge.net/DTD/sodipodi-0.dtd"
   xmlns:inkscape="http://www.inkscape.org/namespaces/inkscape"
   width="500"
   height="500"
   viewBox="0 0 132.29166 132.29167"
   version="1.1"
   id="svg885"
   inkscape:version="0.92.5 (2060ec1f9f, 2020-04-08)"
   sodipodi:docname="back20.svg">
  <defs
     id="defs879" />
  <sodipodi:namedview
     id="base"
     pagecolor="#ffffff"
     bordercolor="#666666"
     borderopacity="1.0"
     inkscape:pageopacity="0.0"
     inkscape:pageshadow="2"
     inkscape:zoom="1.979899"
     inkscape:cx="36.421876"
     inkscape:cy="256.58971"
     inkscape:document-units="mm"
     inkscape:current-layer="layer1"
     showgrid="false"
     units="px"
     inkscape:window-width="1848"
     inkscape:window-height="1016"
     inkscape:window-x="72"
     inkscape:window-y="27"
     inkscape:window-maximized="1"
     inkscape:lockguides="true" />
  <metadata
     id="metadata882">
    <rdf:RDF>
      <cc:Work
         rdf:about="">
        <dc:format>image/svg+xml</dc:format>
        <dc:type
           rdf:resource="http://purl.org/dc/dcmitype/StillImage" />
        <dc:title />
      </cc:Work>
    </rdf:RDF>
  </metadata>
  <g
     inkscape:label="Layer 1"
     inkscape:groupmode="layer"
     id="layer1"
     transform="translate(0,-164.70832)">
    <ellipse
       style="opacity:0.26199999;vector-effect:none;fill:#754f75;fill-opacity:1;stroke:none;stroke-width:1.17161381;stroke-linecap:round;stroke-linejoin:round;stroke-miterlimit:4;stroke-dasharray:none;stroke-dashoffset:0;stroke-opacity:1"
       id="path1534"
       cx="85.47683"
       cy="282.5824"
       rx="42.783207"
       ry="9.6148434" />
    <ellipse
       style="opacity:0.26199999;vector-effect:none;fill:#754f75;fill-opacity:1;stroke:none;stroke-width:0.76952147;stroke-linecap:round;stroke-linejoin:round;stroke-miterlimit:4;stroke-dasharray:none;stroke-dashoffset:0;stroke-opacity:1"
       id="path1534-9"
       cx="71.481262"
       cy="282.92374"
       rx="28.100214"
       ry="6.3150744" />
    <circle
       style="opacity:1;vector-effect:none;fill:#9957af;fill-opacity:1;stroke:none;stroke-width:1.14031112;stroke-linecap:round;stroke-linejoin:round;stroke-miterlimit:4;stroke-dasharray:none;stroke-dashoffset:0;stroke-opacity:1"
       id="path1449"
       cx="62.440365"
       cy="229.14644"
       r="58.030418" />
    <circle
       style="opacity:1;vector-effect:none;fill:#82326f;fill-opacity:1;stroke:none;stroke-width:1.11348021;stroke-linecap:round;stroke-linejoin:round;stroke-miterlimit:4;stroke-dasharray:none;stroke-dashoffset:0;stroke-opacity:1"
       id="path1449-3"
       cx="62.440365"
       cy="229.14644"
       r="56.665001" />
    <ellipse
       style="opacity:1;vector-effect:none;fill:#613e6d;fill-opacity:1;stroke:none;stroke-width:0.73709202;stroke-linecap:round;stroke-linejoin:round;stroke-miterlimit:4;stroke-dasharray:none;stroke-dashoffset:0;stroke-opacity:1"
       id="path1449-3-3"
       cx="62.440365"
       cy="229.14644"
       rx="37.386955"
       ry="37.634663" />
    <ellipse
       style="opacity:1;vector-effect:none;fill:#000000;fill-opacity:1;stroke:none;stroke-width:0.68278807;stroke-linecap:round;stroke-linejoin:round;stroke-miterlimit:4;stroke-dasharray:none;stroke-dashoffset:0;stroke-opacity:1"
       id="path1449-3-3-0"
       cx="62.440365"
       cy="229.14644"
       rx="34.632538"
       ry="34.861996" />
    <path
       style="fill:#c12688;fill-opacity:1;stroke:none;stroke-width:0.45056611px;stroke-linecap:butt;stroke-linejoin:miter;stroke-opacity:1"
       d="m 12.488691,207.29972 c 0,0 4.63182,-14.18778 20.139969,-23.89489 15.916805,-9.96289 28.901421,-9.44417 28.901421,-9.44417 0,0 -17.19509,5.47451 -27.763568,12.2888 -12.174689,7.84993 -21.277822,21.05026 -21.277822,21.05026 z"
       id="path1496"
       inkscape:connector-curvature="0"
       sodipodi:nodetypes="cscsc" />
    <path
       style="fill:#c12688;fill-opacity:1;stroke:none;stroke-width:0.45056611px;stroke-linecap:butt;stroke-linejoin:miter;stroke-opacity:1"
       d="m 67.352956,283.81496 c 0,0 17.255122,-2.81772 32.22176,-16.62391 14.524494,-13.39832 17.526094,-33.44637 17.526094,-33.44637 0,0 -1.76699,20.12708 -14.40203,32.98788 -12.992154,15.8522 -35.345824,17.0824 -35.345824,17.0824 z"
       id="path1502"
       inkscape:connector-curvature="0"
       sodipodi:nodetypes="csccc" />
    <path
       style="fill:#441b4d;fill-opacity:1;stroke:none;stroke-width:0.45056611px;stroke-linecap:butt;stroke-linejoin:miter;stroke-opacity:1"
       d="m 8.2786413,226.30183 c 0,0 -3.8706954,17.27867 12.9715057,38.11802 15.585378,19.28423 42.555639,20.36753 42.555639,20.36753 0,0 -26.120163,-7.65598 -38.800732,-23.78109 C 11.394135,243.69812 8.2786413,226.30183 8.2786413,226.30183 Z"
       id="path1498"
       inkscape:connector-curvature="0"
       sodipodi:nodetypes="cscsc" />
    <path
       style="fill:#441b4d;fill-opacity:1;stroke:none;stroke-width:0.45056611px;stroke-linecap:butt;stroke-linejoin:miter;stroke-opacity:1"
       d="m 73.116067,267.96472 c 0,0 11.784257,-3.57061 18.997624,-12.45183 7.849509,-9.66445 9.275819,-19.11899 9.275819,-19.11899 0,0 0.14172,12.08179 -5.761552,19.93446 -9.438692,12.55555 -22.511891,11.63636 -22.511891,11.63636 z"
       id="path1500"
       inkscape:connector-curvature="0"
       sodipodi:nodetypes="cscsc" />
    <path
       style="fill:#c12688;fill-opacity:1;stroke:none;stroke-width:0.45056611px;stroke-linecap:butt;stroke-linejoin:miter;stroke-opacity:1"
       d="m 23.779191,215.00115 c 0,0 5.493113,-13.36137 14.646353,-19.4062 11.50994,-7.6012 25.578374,-7.27865 25.578374,-7.27865 0,0 -17.670875,-3.82775 -29.698611,7.64808 C 22.85,206.89404 23.779191,215.00115 23.779191,215.00115 Z"
       id="path1504"
       inkscape:connector-curvature="0"
       sodipodi:nodetypes="cscsc" />
    <path
       style="opacity:0.497;fill:#c8afcd;fill-opacity:1;stroke:none;stroke-width:0.45056611px;stroke-linecap:butt;stroke-linejoin:miter;stroke-opacity:1"
       d="m 42.197929,195.81003 c 0,0 -0.911998,-3.11088 -0.667794,-7.16951 0.33609,-5.58578 5.799581,-15.02436 5.799581,-15.02436 0,0 -4.37482,1.25605 -9.143445,3.35116 -3.291257,1.44602 -7.102216,4.00624 -7.102216,4.00624 0,0 -1.464498,6.18081 0.309093,11.15227 2.649144,7.42568 5.971412,7.412 5.971412,7.412 0,0 1.370906,-1.24739 2.294992,-1.8171 0.751826,-0.46349 2.538377,-1.9107 2.538377,-1.9107 z"
       id="path1506"
       inkscape:connector-curvature="0"
       sodipodi:nodetypes="cscscscsc" />
    <path
       style="opacity:0.497;fill:#c8afcd;fill-opacity:1;stroke:none;stroke-width:0.45056611px;stroke-linecap:butt;stroke-linejoin:miter;stroke-opacity:1"
       d="m 50.891173,176.17949 c 0,0 -3.658319,4.35542 -3.822427,7.79051 -0.397974,8.33035 1.842794,8.73349 1.842794,8.73349 0,0 -0.387944,-5.34475 0.359263,-8.4066 0.850987,-3.4871 5.204601,-9.02768 5.204601,-9.02768 0,0 -1.434702,0.21092 -2.133471,0.39825 -0.495332,0.13283 -1.45076,0.51203 -1.45076,0.51203 z"
       id="path1516"
       inkscape:connector-curvature="0"
       sodipodi:nodetypes="cscscsc" />
    <path
       style="fill:#fefcff;fill-opacity:1;stroke:none;stroke-width:0.45056611px;stroke-linecap:butt;stroke-linejoin:miter;stroke-opacity:1"
       d="m 33.538939,183.34795 c 0,0 -0.502859,5.0238 0.170679,7.39603 0.696468,2.453 3.868696,6.59953 3.868696,6.59953 0,0 -1.764731,-4.77663 -2.048134,-7.28225 -0.305152,-2.69793 0.398247,-8.13563 0.398247,-8.13563 0,0 -1.091522,0.47873 -1.592992,0.79649 -0.285209,0.18073 -0.796496,0.62583 -0.796496,0.62583 z"
       id="path1520"
       inkscape:connector-curvature="0"
       sodipodi:nodetypes="cscscsc" />
    <path
       style="opacity:0.63999999;fill:#5a224c;fill-opacity:1;stroke:none;stroke-width:0.45056611px;stroke-linecap:butt;stroke-linejoin:miter;stroke-opacity:1"
       d="m 89.726638,259.71673 c 0,0 2.682741,1.85039 4.487731,5.62484 1.382366,2.89069 2.190857,8.46556 2.190857,8.46556 0,0 -4.06807,3.08156 -6.315075,4.26694 -2.417053,1.27505 -7.225356,3.58422 -7.225356,3.58422 0,0 2.520062,-6.5867 2.929475,-10.87054 0.378096,-3.95617 -0.01537,-7.59158 -0.01537,-7.59158 0,0 1.622249,-1.28757 2.361648,-1.83813 0.610225,-0.45439 1.586087,-1.64131 1.586087,-1.64131 z"
       id="path1522"
       inkscape:connector-curvature="0"
       sodipodi:nodetypes="cscscscscc" />
    <path
       style="fill:#754f75;fill-opacity:1;stroke:none;stroke-width:0.45056611px;stroke-linecap:butt;stroke-linejoin:miter;stroke-opacity:1"
       d="m 13.309686,228.67581 c 0,0 2.045867,3.10432 4.539264,4.64325 2.073254,1.27962 5.217524,2.4962 5.217524,2.4962 0,0 2.540774,13.61731 13.430992,23.57426 9.562964,8.74343 26.383782,10.14148 26.383782,10.14148 0,0 -0.678616,0.97006 -0.746067,3.92271 -0.06342,2.77637 2.024111,6.39355 2.024111,6.39355 0,0 -21.211989,-4.85956 -34.275209,-17.70082 C 15.351548,247.86082 13.309686,228.67581 13.309686,228.67581 Z"
       id="path1530"
       inkscape:connector-curvature="0"
       sodipodi:nodetypes="cscscscsc" />
    <path
       style="fill:#754f75;fill-opacity:1;stroke:none;stroke-width:0.45056611px;stroke-linecap:butt;stroke-linejoin:miter;stroke-opacity:1"
       d="m 73.534163,190.94683 c 0,0 11.252812,2.76648 21.312141,15.41951 6.685546,8.40935 6.872166,19.26746 6.872166,19.26746 0,0 4.45556,-0.77274 7.42271,-0.77274 3.46168,0 5.22405,2.20559 5.22405,2.20559 0,0 -0.26503,-18.96655 -14.16065,-34.27522 -13.086311,-14.41705 -32.183293,-14.48248 -32.183293,-14.48248 0,0 3.489668,3.49909 4.214274,5.99127 0.812703,2.79519 1.298602,6.64661 1.298602,6.64661 z"
       id="path1532"
       inkscape:connector-curvature="0"
       sodipodi:nodetypes="cscscscsc" />
    <path
       style="fill:#1c1353;fill-opacity:1;stroke:none;stroke-width:0.26458332px;stroke-linecap:butt;stroke-linejoin:miter;stroke-opacity:1"
       d="m 35.613663,247.28786 c 0,0 10.921188,-16.61824 36.682742,-13.76439 13.043829,1.44499 19.310224,10.35669 19.310224,10.35669 0,0 -9.153873,17.22781 -26.860587,17.97388 -20.43704,0.86111 -29.132379,-14.56618 -29.132379,-14.56618 z"
       id="path2442"
       inkscape:connector-curvature="0"
       sodipodi:nodetypes="cscsc" />
    <path
       style="fill:#b676c3;fill-opacity:1;stroke:none;stroke-width:0.26458332px;stroke-linecap:butt;stroke-linejoin:miter;stroke-opacity:1"
       d="m 62.181004,257.51069 h 2.765491 l 24.985615,-41.97453 -0.459603,-3.19387 -27.599613,42.7632 z"
       id="path2444"
       inkscape:connector-curvature="0"
       sodipodi:nodetypes="cccccc" />
    <path
       style="fill:#d7abe0;fill-opacity:1;stroke:none;stroke-width:0.65895617px;stroke-linecap:butt;stroke-linejoin:miter;stroke-opacity:1"
       d="m 62.181005,257.51069 -26.07796,-45.1684 h 53.369462 z"
       id="path2347"
       inkscape:connector-curvature="0" />
    <path
       style="fill:#ece7ed;fill-opacity:1;stroke:none;stroke-width:0.52110004px;stroke-linecap:butt;stroke-linejoin:miter;stroke-opacity:1"
       d="M 62.307943,252.78599 40.098093,214.42116 H 85.477456 Z"
       id="path2347-4"
       inkscape:connector-curvature="0"
       sodipodi:nodetypes="cccc" />
    <g
       aria-label="Very"
       transform="scale(0.98413002,1.0161259)"
       style="font-style:normal;font-variant:normal;font-weight:normal;font-stretch:normal;font-size:5.44106913px;line-height:1.25;font-family:Montserrat;-inkscape-font-specification:Montserrat;text-align:center;letter-spacing:0px;word-spacing:0px;text-anchor:middle;fill:#d7abe0;fill-opacity:1;stroke:none;stroke-width:0.13602674"
       id="text2448-5">
      <path
         d="m 61.995382,215.84576 -1.670408,3.80875 h -0.538666 l -1.675849,-3.80875 h 0.587635 l 1.37115,3.12862 1.382031,-3.12862 z"
         style="text-align:center;text-anchor:middle;fill:#d7abe0;fill-opacity:1;stroke-width:0.13602674"
         id="path884" />
      <path
         d="m 64.792089,218.22895 q 0,0.0599 -0.01088,0.15779 h -2.339659 q 0.04897,0.38088 0.331905,0.61484 0.288376,0.22853 0.71278,0.22853 0.516901,0 0.832483,-0.34823 l 0.288377,0.33734 q -0.195878,0.22853 -0.489696,0.34823 -0.288377,0.11971 -0.647487,0.11971 -0.45705,0 -0.81072,-0.185 -0.353669,-0.19044 -0.549548,-0.52778 -0.190437,-0.33735 -0.190437,-0.76175 0,-0.41897 0.184996,-0.75631 0.190438,-0.33735 0.516902,-0.52234 0.331905,-0.19044 0.745426,-0.19044 0.413522,0 0.734545,0.19044 0.326464,0.18499 0.506019,0.52234 0.184996,0.33734 0.184996,0.77263 z m -1.42556,-1.04468 q -0.375433,0 -0.631164,0.22852 -0.250289,0.22852 -0.293817,0.59852 h 1.849963 q -0.04353,-0.36455 -0.299259,-0.59308 -0.250289,-0.23396 -0.625723,-0.23396 z"
         style="text-align:center;text-anchor:middle;fill:#d7abe0;fill-opacity:1;stroke-width:0.13602674"
         id="path886" />
      <path
         d="m 66.016327,217.255 q 0.136027,-0.25029 0.402639,-0.38088 0.266613,-0.13058 0.647488,-0.13058 v 0.50602 q -0.04353,-0.005 -0.119704,-0.005 -0.424403,0 -0.669251,0.25573 -0.239408,0.25029 -0.239408,0.71822 v 1.43644 h -0.522342 v -2.88377 h 0.500578 z"
         style="text-align:center;text-anchor:middle;fill:#d7abe0;fill-opacity:1;stroke-width:0.13602674"
         id="path888" />
      <path
         d="m 70.380061,216.77074 -1.398355,3.17215 q -0.184996,0.44072 -0.435286,0.62028 -0.244848,0.17955 -0.593076,0.17955 -0.212202,0 -0.413521,-0.0707 -0.195879,-0.0653 -0.326465,-0.19588 l 0.223084,-0.39176 q 0.223084,0.21221 0.516902,0.21221 0.190437,0 0.315582,-0.10338 0.130585,-0.0979 0.233966,-0.34279 l 0.0925,-0.20132 -1.27321,-2.87833 h 0.544107 l 1.006598,2.30702 0.995715,-2.30702 z"
         style="text-align:center;text-anchor:middle;fill:#d7abe0;fill-opacity:1;stroke-width:0.13602674"
         id="path890" />
    </g>
    <g
       aria-label="Very"
       transform="scale(0.98413002,1.0161259)"
       style="font-style:normal;font-variant:normal;font-weight:normal;font-stretch:normal;font-size:5.44106913px;line-height:1.25;font-family:Montserrat;-inkscape-font-specification:Montserrat;text-align:center;letter-spacing:0px;word-spacing:0px;text-anchor:middle;fill:#441b4d;fill-opacity:1;stroke:none;stroke-width:0.13602674"
       id="text2448">
      <path
         d="m 61.457681,215.84576 -1.670408,3.80875 h -0.538666 l -1.675849,-3.80875 h 0.587636 l 1.371149,3.12862 1.382032,-3.12862 z"
         style="text-align:center;text-anchor:middle;fill:#441b4d;fill-opacity:1;stroke-width:0.13602674"
         id="path875" />
      <path
         d="m 64.254389,218.22895 q 0,0.0599 -0.01088,0.15779 h -2.33966 q 0.04897,0.38088 0.331905,0.61484 0.288377,0.22853 0.71278,0.22853 0.516902,0 0.832484,-0.34823 l 0.288376,0.33734 q -0.195878,0.22853 -0.489696,0.34823 -0.288376,0.11971 -0.647487,0.11971 -0.45705,0 -0.810719,-0.185 -0.35367,-0.19044 -0.549548,-0.52778 -0.190438,-0.33735 -0.190438,-0.76175 0,-0.41897 0.184997,-0.75631 0.190437,-0.33735 0.516901,-0.52234 0.331905,-0.19044 0.745427,-0.19044 0.413521,0 0.734544,0.19044 0.326464,0.18499 0.506019,0.52234 0.184997,0.33734 0.184997,0.77263 z m -1.42556,-1.04468 q -0.375434,0 -0.631164,0.22852 -0.25029,0.22852 -0.293818,0.59852 h 1.849963 q -0.04353,-0.36455 -0.299258,-0.59308 -0.25029,-0.23396 -0.625723,-0.23396 z"
         style="text-align:center;text-anchor:middle;fill:#441b4d;fill-opacity:1;stroke-width:0.13602674"
         id="path877" />
      <path
         d="m 65.478627,217.255 q 0.136026,-0.25029 0.402639,-0.38088 0.266612,-0.13058 0.647487,-0.13058 v 0.50602 q -0.04353,-0.005 -0.119704,-0.005 -0.424403,0 -0.669251,0.25573 -0.239407,0.25029 -0.239407,0.71822 v 1.43644 h -0.522343 v -2.88377 h 0.500579 z"
         style="text-align:center;text-anchor:middle;fill:#441b4d;fill-opacity:1;stroke-width:0.13602674"
         id="path879" />
      <path
         d="m 69.84236,216.77074 -1.398355,3.17215 q -0.184996,0.44072 -0.435285,0.62028 -0.244848,0.17955 -0.593077,0.17955 -0.212202,0 -0.413521,-0.0707 -0.195879,-0.0653 -0.326464,-0.19588 l 0.223084,-0.39176 q 0.223083,0.21221 0.516901,0.21221 0.190438,0 0.315582,-0.10338 0.130586,-0.0979 0.233966,-0.34279 l 0.0925,-0.20132 -1.27321,-2.87833 h 0.544107 l 1.006598,2.30702 0.995716,-2.30702 z"
         style="text-align:center;text-anchor:middle;fill:#441b4d;fill-opacity:1;stroke-width:0.13602674"
         id="path881" />
    </g>
    <g
       aria-label="doubtful"
       transform="scale(0.98413002,1.0161259)"
       style="font-style:normal;font-variant:normal;font-weight:normal;font-stretch:normal;font-size:5.44106913px;line-height:1.25;font-family:Montserrat;-inkscape-font-specification:Montserrat;text-align:center;letter-spacing:0px;word-spacing:0px;text-anchor:middle;fill:#d7abe0;fill-opacity:1;stroke:none;stroke-width:0.13602674"
       id="text2448-3-9">
      <path
         d="m 55.49332,221.97647 v 4.03728 h -0.500578 v -0.45705 q -0.174114,0.23941 -0.440727,0.36455 -0.266612,0.12514 -0.587635,0.12514 -0.418962,0 -0.750868,-0.18499 -0.331905,-0.185 -0.522342,-0.5169 -0.184997,-0.33735 -0.184997,-0.77264 0,-0.43528 0.184997,-0.76719 0.190437,-0.3319 0.522342,-0.5169 0.331906,-0.18499 0.750868,-0.18499 0.310141,0 0.571312,0.1197 0.261171,0.11426 0.435286,0.34279 v -1.5888 z m -1.485412,3.61287 q 0.272054,0 0.495138,-0.12514 0.223084,-0.13059 0.348228,-0.35911 0.125145,-0.23397 0.125145,-0.53323 0,-0.29925 -0.125145,-0.52778 -0.125144,-0.23396 -0.348228,-0.35911 -0.223084,-0.12514 -0.495138,-0.12514 -0.277494,0 -0.500578,0.12514 -0.217643,0.12515 -0.348228,0.35911 -0.125145,0.22853 -0.125145,0.52778 0,0.29926 0.125145,0.53323 0.130585,0.22852 0.348228,0.35911 0.223084,0.12514 0.500578,0.12514 z"
         style="text-align:center;text-anchor:middle;fill:#d7abe0;fill-opacity:1;stroke-width:0.13602674"
         id="path858" />
      <path
         d="m 57.718713,226.04639 q -0.429844,0 -0.772631,-0.19043 -0.342788,-0.19044 -0.538666,-0.52235 -0.190438,-0.33734 -0.190438,-0.76175 0,-0.4244 0.190438,-0.7563 0.195878,-0.33735 0.538666,-0.52235 0.342787,-0.19043 0.772631,-0.19043 0.429845,0 0.767191,0.19043 0.342787,0.185 0.533225,0.52235 0.195878,0.3319 0.195878,0.7563 0,0.42441 -0.195878,0.76175 -0.190438,0.33191 -0.533225,0.52235 -0.337346,0.19043 -0.767191,0.19043 z m 0,-0.45705 q 0.277495,0 0.495138,-0.12514 0.223084,-0.13059 0.348228,-0.35911 0.125145,-0.23397 0.125145,-0.53323 0,-0.29925 -0.125145,-0.52778 -0.125144,-0.23396 -0.348228,-0.35911 -0.217643,-0.12514 -0.495138,-0.12514 -0.277494,0 -0.500578,0.12514 -0.217643,0.12515 -0.348228,0.35911 -0.125145,0.22853 -0.125145,0.52778 0,0.29926 0.125145,0.53323 0.130585,0.22852 0.348228,0.35911 0.223084,0.12514 0.500578,0.12514 z"
         style="text-align:center;text-anchor:middle;fill:#d7abe0;fill-opacity:1;stroke-width:0.13602674"
         id="path860" />
      <path
         d="m 62.626548,223.12998 v 2.88377 h -0.495137 v -0.43529 q -0.157791,0.22309 -0.418962,0.34823 -0.25573,0.1197 -0.56043,0.1197 -0.576754,0 -0.908659,-0.31558 -0.331905,-0.32102 -0.331905,-0.9413 v -1.65953 h 0.522343 v 1.59968 q 0,0.41896 0.201319,0.6366 0.20132,0.2122 0.576753,0.2122 0.413522,0 0.652929,-0.25029 0.239407,-0.25029 0.239407,-0.70734 v -1.49085 z"
         style="text-align:center;text-anchor:middle;fill:#d7abe0;fill-opacity:1;stroke-width:0.13602674"
         id="path862" />
      <path
         d="m 65.151194,223.10278 q 0.418963,0 0.750868,0.18499 0.331905,0.185 0.516902,0.5169 0.190437,0.33191 0.190437,0.76719 0,0.43529 -0.190437,0.77264 -0.184997,0.3319 -0.516902,0.5169 -0.331905,0.18499 -0.750868,0.18499 -0.321023,0 -0.587635,-0.12514 -0.266612,-0.12514 -0.440727,-0.36455 v 0.45705 h -0.500578 v -4.03728 h 0.522343 v 1.5888 q 0.174114,-0.22853 0.435285,-0.34279 0.261171,-0.1197 0.571312,-0.1197 z m -0.04353,2.48656 q 0.277494,0 0.495137,-0.12514 0.223084,-0.13059 0.348229,-0.35911 0.130585,-0.23397 0.130585,-0.53323 0,-0.29925 -0.130585,-0.52778 -0.125145,-0.23396 -0.348229,-0.35911 -0.217643,-0.12514 -0.495137,-0.12514 -0.272054,0 -0.495137,0.12514 -0.223084,0.12515 -0.348229,0.35911 -0.125144,0.22853 -0.125144,0.52778 0,0.29926 0.125144,0.53323 0.125145,0.22852 0.348229,0.35911 0.223083,0.12514 0.495137,0.12514 z"
         style="text-align:center;text-anchor:middle;fill:#d7abe0;fill-opacity:1;stroke-width:0.13602674"
         id="path864" />
      <path
         d="m 68.954498,225.84508 q -0.114263,0.0979 -0.282936,0.15234 -0.168673,0.049 -0.348228,0.049 -0.435286,0 -0.674693,-0.23396 -0.239407,-0.23397 -0.239407,-0.66925 v -1.58335 h -0.489696 v -0.42985 h 0.489696 v -0.63116 h 0.522343 v 0.63116 h 0.827042 v 0.42985 h -0.827042 v 1.56158 q 0,0.23397 0.114262,0.35911 0.119703,0.12515 0.337346,0.12515 0.239407,0 0.40808,-0.13603 z"
         style="text-align:center;text-anchor:middle;fill:#d7abe0;fill-opacity:1;stroke-width:0.13602674"
         id="path866" />
      <path
         d="m 70.641227,222.37367 q -0.467932,0 -0.467932,0.50602 v 0.25029 h 0.837925 v 0.42985 h -0.827043 v 2.45392 h -0.522342 v -2.45392 h -0.489697 v -0.42985 h 0.489697 v -0.25573 q 0,-0.42984 0.250289,-0.68013 0.250289,-0.25029 0.701898,-0.25029 0.174114,0 0.326464,0.0435 0.15235,0.0435 0.261171,0.12514 l -0.157791,0.3972 q -0.179555,-0.13603 -0.402639,-0.13603 z"
         style="text-align:center;text-anchor:middle;fill:#d7abe0;fill-opacity:1;stroke-width:0.13602674"
         id="path868" />
      <path
         d="m 74.194238,223.12998 v 2.88377 h -0.495137 v -0.43529 q -0.157791,0.22309 -0.418962,0.34823 -0.255731,0.1197 -0.56043,0.1197 -0.576754,0 -0.908659,-0.31558 -0.331905,-0.32102 -0.331905,-0.9413 v -1.65953 h 0.522342 v 1.59968 q 0,0.41896 0.20132,0.6366 0.20132,0.2122 0.576753,0.2122 0.413522,0 0.652929,-0.25029 0.239407,-0.25029 0.239407,-0.70734 v -1.49085 z"
         style="text-align:center;text-anchor:middle;fill:#d7abe0;fill-opacity:1;stroke-width:0.13602674"
         id="path870" />
      <path
         d="m 75.189944,221.97647 h 0.522343 v 4.03728 h -0.522343 z"
         style="text-align:center;text-anchor:middle;fill:#d7abe0;fill-opacity:1;stroke-width:0.13602674"
         id="path872" />
    </g>
    <g
       aria-label="doubtful"
       transform="scale(0.98413002,1.0161259)"
       style="font-style:normal;font-variant:normal;font-weight:normal;font-stretch:normal;font-size:5.44106913px;line-height:1.25;font-family:Montserrat;-inkscape-font-specification:Montserrat;text-align:center;letter-spacing:0px;word-spacing:0px;text-anchor:middle;fill:#441b4d;fill-opacity:1;stroke:none;stroke-width:0.13602674"
       id="text2448-3">
      <path
         d="m 54.95562,221.97647 v 4.03728 h -0.500579 v -0.45705 q -0.174114,0.23941 -0.440726,0.36455 -0.266613,0.12514 -0.587636,0.12514 -0.418962,0 -0.750867,-0.18499 -0.331906,-0.185 -0.522343,-0.5169 -0.184996,-0.33735 -0.184996,-0.77264 0,-0.43528 0.184996,-0.76719 0.190437,-0.3319 0.522343,-0.5169 0.331905,-0.18499 0.750867,-0.18499 0.310141,0 0.571312,0.1197 0.261172,0.11426 0.435286,0.34279 v -1.5888 z m -1.485412,3.61287 q 0.272053,0 0.495137,-0.12514 0.223084,-0.13059 0.348229,-0.35911 0.125144,-0.23397 0.125144,-0.53323 0,-0.29925 -0.125144,-0.52778 -0.125145,-0.23396 -0.348229,-0.35911 -0.223084,-0.12514 -0.495137,-0.12514 -0.277495,0 -0.500579,0.12514 -0.217642,0.12515 -0.348228,0.35911 -0.125145,0.22853 -0.125145,0.52778 0,0.29926 0.125145,0.53323 0.130586,0.22852 0.348228,0.35911 0.223084,0.12514 0.500579,0.12514 z"
         style="text-align:center;text-anchor:middle;fill:#441b4d;fill-opacity:1;stroke-width:0.13602674"
         id="path841" />
      <path
         d="m 57.181013,226.04639 q -0.429845,0 -0.772632,-0.19043 -0.342787,-0.19044 -0.538666,-0.52235 -0.190437,-0.33734 -0.190437,-0.76175 0,-0.4244 0.190437,-0.7563 0.195879,-0.33735 0.538666,-0.52235 0.342787,-0.19043 0.772632,-0.19043 0.429844,0 0.76719,0.19043 0.342788,0.185 0.533225,0.52235 0.195879,0.3319 0.195879,0.7563 0,0.42441 -0.195879,0.76175 -0.190437,0.33191 -0.533225,0.52235 -0.337346,0.19043 -0.76719,0.19043 z m 0,-0.45705 q 0.277494,0 0.495137,-0.12514 0.223084,-0.13059 0.348228,-0.35911 0.125145,-0.23397 0.125145,-0.53323 0,-0.29925 -0.125145,-0.52778 -0.125144,-0.23396 -0.348228,-0.35911 -0.217643,-0.12514 -0.495137,-0.12514 -0.277495,0 -0.500579,0.12514 -0.217642,0.12515 -0.348228,0.35911 -0.125145,0.22853 -0.125145,0.52778 0,0.29926 0.125145,0.53323 0.130586,0.22852 0.348228,0.35911 0.223084,0.12514 0.500579,0.12514 z"
         style="text-align:center;text-anchor:middle;fill:#441b4d;fill-opacity:1;stroke-width:0.13602674"
         id="path843" />
      <path
         d="m 62.088848,223.12998 v 2.88377 H 61.59371 v -0.43529 q -0.157791,0.22309 -0.418962,0.34823 -0.25573,0.1197 -0.56043,0.1197 -0.576753,0 -0.908659,-0.31558 -0.331905,-0.32102 -0.331905,-0.9413 v -1.65953 h 0.522343 v 1.59968 q 0,0.41896 0.201319,0.6366 0.20132,0.2122 0.576754,0.2122 0.413521,0 0.652928,-0.25029 0.239407,-0.25029 0.239407,-0.70734 v -1.49085 z"
         style="text-align:center;text-anchor:middle;fill:#441b4d;fill-opacity:1;stroke-width:0.13602674"
         id="path845" />
      <path
         d="m 64.613494,223.10278 q 0.418962,0 0.750867,0.18499 0.331906,0.185 0.516902,0.5169 0.190437,0.33191 0.190437,0.76719 0,0.43529 -0.190437,0.77264 -0.184996,0.3319 -0.516902,0.5169 -0.331905,0.18499 -0.750867,0.18499 -0.321023,0 -0.587636,-0.12514 -0.266612,-0.12514 -0.440726,-0.36455 v 0.45705 h -0.500579 v -4.03728 h 0.522343 v 1.5888 q 0.174114,-0.22853 0.435285,-0.34279 0.261172,-0.1197 0.571313,-0.1197 z m -0.04353,2.48656 q 0.277495,0 0.495137,-0.12514 0.223084,-0.13059 0.348229,-0.35911 0.130586,-0.23397 0.130586,-0.53323 0,-0.29925 -0.130586,-0.52778 -0.125145,-0.23396 -0.348229,-0.35911 -0.217642,-0.12514 -0.495137,-0.12514 -0.272053,0 -0.495137,0.12514 -0.223084,0.12515 -0.348229,0.35911 -0.125144,0.22853 -0.125144,0.52778 0,0.29926 0.125144,0.53323 0.125145,0.22852 0.348229,0.35911 0.223084,0.12514 0.495137,0.12514 z"
         style="text-align:center;text-anchor:middle;fill:#441b4d;fill-opacity:1;stroke-width:0.13602674"
         id="path847" />
      <path
         d="m 68.416797,225.84508 q -0.114263,0.0979 -0.282936,0.15234 -0.168673,0.049 -0.348228,0.049 -0.435286,0 -0.674693,-0.23396 -0.239407,-0.23397 -0.239407,-0.66925 v -1.58335 h -0.489696 v -0.42985 h 0.489696 v -0.63116 h 0.522343 v 0.63116 h 0.827042 v 0.42985 h -0.827042 v 1.56158 q 0,0.23397 0.114262,0.35911 0.119704,0.12515 0.337347,0.12515 0.239407,0 0.40808,-0.13603 z"
         style="text-align:center;text-anchor:middle;fill:#441b4d;fill-opacity:1;stroke-width:0.13602674"
         id="path849" />
      <path
         d="m 70.103526,222.37367 q -0.467932,0 -0.467932,0.50602 v 0.25029 h 0.837925 v 0.42985 h -0.827042 v 2.45392 h -0.522343 v -2.45392 h -0.489696 v -0.42985 h 0.489696 v -0.25573 q 0,-0.42984 0.250289,-0.68013 0.250289,-0.25029 0.701898,-0.25029 0.174114,0 0.326464,0.0435 0.15235,0.0435 0.261171,0.12514 l -0.157791,0.3972 q -0.179555,-0.13603 -0.402639,-0.13603 z"
         style="text-align:center;text-anchor:middle;fill:#441b4d;fill-opacity:1;stroke-width:0.13602674"
         id="path851" />
      <path
         d="m 73.656538,223.12998 v 2.88377 H 73.1614 v -0.43529 q -0.157791,0.22309 -0.418962,0.34823 -0.25573,0.1197 -0.56043,0.1197 -0.576753,0 -0.908659,-0.31558 -0.331905,-0.32102 -0.331905,-0.9413 v -1.65953 h 0.522343 v 1.59968 q 0,0.41896 0.201319,0.6366 0.20132,0.2122 0.576754,0.2122 0.413521,0 0.652928,-0.25029 0.239407,-0.25029 0.239407,-0.70734 v -1.49085 z"
         style="text-align:center;text-anchor:middle;fill:#441b4d;fill-opacity:1;stroke-width:0.13602674"
         id="path853" />
      <path
         d="m 74.652243,221.97647 h 0.522343 v 4.03728 h -0.522343 z"
         style="text-align:center;text-anchor:middle;fill:#441b4d;fill-opacity:1;stroke-width:0.13602674"
         id="path855" />
    </g>
  </g>
</svg>
