<?xml version="1.0" encoding="UTF-8" standalone="no"?>
<!-- Created with Inkscape (http://www.inkscape.org/) -->

<svg
   xmlns:dc="http://purl.org/dc/elements/1.1/"
   xmlns:cc="http://creativecommons.org/ns#"
   xmlns:rdf="http://www.w3.org/1999/02/22-rdf-syntax-ns#"
   xmlns:svg="http://www.w3.org/2000/svg"
   xmlns="http://www.w3.org/2000/svg"
   xmlns:sodipodi="http://sodipodi.sourceforge.net/DTD/sodipodi-0.dtd"
   xmlns:inkscape="http://www.inkscape.org/namespaces/inkscape"
   width="500"
   height="500"
   viewBox="0 0 132.29166 132.29167"
   version="1.1"
   id="svg885"
   inkscape:version="0.92.5 (2060ec1f9f, 2020-04-08)"
   sodipodi:docname="back15.svg">
  <defs
     id="defs879" />
  <sodipodi:namedview
     id="base"
     pagecolor="#ffffff"
     bordercolor="#666666"
     borderopacity="1.0"
     inkscape:pageopacity="0.0"
     inkscape:pageshadow="2"
     inkscape:zoom="1.979899"
     inkscape:cx="119.68018"
     inkscape:cy="248.70153"
     inkscape:document-units="mm"
     inkscape:current-layer="layer1"
     showgrid="false"
     units="px"
     inkscape:window-width="1848"
     inkscape:window-height="1016"
     inkscape:window-x="72"
     inkscape:window-y="27"
     inkscape:window-maximized="1"
     inkscape:lockguides="true" />
  <metadata
     id="metadata882">
    <rdf:RDF>
      <cc:Work
         rdf:about="">
        <dc:format>image/svg+xml</dc:format>
        <dc:type
           rdf:resource="http://purl.org/dc/dcmitype/StillImage" />
        <dc:title />
      </cc:Work>
    </rdf:RDF>
  </metadata>
  <g
     inkscape:label="Layer 1"
     inkscape:groupmode="layer"
     id="layer1"
     transform="translate(0,-164.70832)">
    <ellipse
       style="opacity:0.26199999;vector-effect:none;fill:#754f75;fill-opacity:1;stroke:none;stroke-width:1.17161381;stroke-linecap:round;stroke-linejoin:round;stroke-miterlimit:4;stroke-dasharray:none;stroke-dashoffset:0;stroke-opacity:1"
       id="path1534"
       cx="85.47683"
       cy="282.5824"
       rx="42.783207"
       ry="9.6148434" />
    <ellipse
       style="opacity:0.26199999;vector-effect:none;fill:#754f75;fill-opacity:1;stroke:none;stroke-width:0.76952147;stroke-linecap:round;stroke-linejoin:round;stroke-miterlimit:4;stroke-dasharray:none;stroke-dashoffset:0;stroke-opacity:1"
       id="path1534-9"
       cx="71.481262"
       cy="282.92374"
       rx="28.100214"
       ry="6.3150744" />
    <circle
       style="opacity:1;vector-effect:none;fill:#9957af;fill-opacity:1;stroke:none;stroke-width:1.14031112;stroke-linecap:round;stroke-linejoin:round;stroke-miterlimit:4;stroke-dasharray:none;stroke-dashoffset:0;stroke-opacity:1"
       id="path1449"
       cx="62.440365"
       cy="229.14644"
       r="58.030418" />
    <circle
       style="opacity:1;vector-effect:none;fill:#82326f;fill-opacity:1;stroke:none;stroke-width:1.11348021;stroke-linecap:round;stroke-linejoin:round;stroke-miterlimit:4;stroke-dasharray:none;stroke-dashoffset:0;stroke-opacity:1"
       id="path1449-3"
       cx="62.440365"
       cy="229.14644"
       r="56.665001" />
    <ellipse
       style="opacity:1;vector-effect:none;fill:#613e6d;fill-opacity:1;stroke:none;stroke-width:0.73709202;stroke-linecap:round;stroke-linejoin:round;stroke-miterlimit:4;stroke-dasharray:none;stroke-dashoffset:0;stroke-opacity:1"
       id="path1449-3-3"
       cx="62.440365"
       cy="229.14644"
       rx="37.386955"
       ry="37.634663" />
    <ellipse
       style="opacity:1;vector-effect:none;fill:#000000;fill-opacity:1;stroke:none;stroke-width:0.68278807;stroke-linecap:round;stroke-linejoin:round;stroke-miterlimit:4;stroke-dasharray:none;stroke-dashoffset:0;stroke-opacity:1"
       id="path1449-3-3-0"
       cx="62.440365"
       cy="229.14644"
       rx="34.632538"
       ry="34.861996" />
    <path
       style="fill:#c12688;fill-opacity:1;stroke:none;stroke-width:0.45056611px;stroke-linecap:butt;stroke-linejoin:miter;stroke-opacity:1"
       d="m 12.488691,207.29972 c 0,0 4.63182,-14.18778 20.139969,-23.89489 15.916805,-9.96289 28.901421,-9.44417 28.901421,-9.44417 0,0 -17.19509,5.47451 -27.763568,12.2888 -12.174689,7.84993 -21.277822,21.05026 -21.277822,21.05026 z"
       id="path1496"
       inkscape:connector-curvature="0"
       sodipodi:nodetypes="cscsc" />
    <path
       style="fill:#c12688;fill-opacity:1;stroke:none;stroke-width:0.45056611px;stroke-linecap:butt;stroke-linejoin:miter;stroke-opacity:1"
       d="m 67.352956,283.81496 c 0,0 17.255122,-2.81772 32.22176,-16.62391 14.524494,-13.39832 17.526094,-33.44637 17.526094,-33.44637 0,0 -1.76699,20.12708 -14.40203,32.98788 -12.992154,15.8522 -35.345824,17.0824 -35.345824,17.0824 z"
       id="path1502"
       inkscape:connector-curvature="0"
       sodipodi:nodetypes="csccc" />
    <path
       style="fill:#441b4d;fill-opacity:1;stroke:none;stroke-width:0.45056611px;stroke-linecap:butt;stroke-linejoin:miter;stroke-opacity:1"
       d="m 8.2786413,226.30183 c 0,0 -3.8706954,17.27867 12.9715057,38.11802 15.585378,19.28423 42.555639,20.36753 42.555639,20.36753 0,0 -26.120163,-7.65598 -38.800732,-23.78109 C 11.394135,243.69812 8.2786413,226.30183 8.2786413,226.30183 Z"
       id="path1498"
       inkscape:connector-curvature="0"
       sodipodi:nodetypes="cscsc" />
    <path
       style="fill:#441b4d;fill-opacity:1;stroke:none;stroke-width:0.45056611px;stroke-linecap:butt;stroke-linejoin:miter;stroke-opacity:1"
       d="m 73.116067,267.96472 c 0,0 11.784257,-3.57061 18.997624,-12.45183 7.849509,-9.66445 9.275819,-19.11899 9.275819,-19.11899 0,0 0.14172,12.08179 -5.761552,19.93446 -9.438692,12.55555 -22.511891,11.63636 -22.511891,11.63636 z"
       id="path1500"
       inkscape:connector-curvature="0"
       sodipodi:nodetypes="cscsc" />
    <path
       style="fill:#c12688;fill-opacity:1;stroke:none;stroke-width:0.45056611px;stroke-linecap:butt;stroke-linejoin:miter;stroke-opacity:1"
       d="m 23.779191,215.00115 c 0,0 5.493113,-13.36137 14.646353,-19.4062 11.50994,-7.6012 25.578374,-7.27865 25.578374,-7.27865 0,0 -17.670875,-3.82775 -29.698611,7.64808 C 22.85,206.89404 23.779191,215.00115 23.779191,215.00115 Z"
       id="path1504"
       inkscape:connector-curvature="0"
       sodipodi:nodetypes="cscsc" />
    <path
       style="opacity:0.497;fill:#c8afcd;fill-opacity:1;stroke:none;stroke-width:0.45056611px;stroke-linecap:butt;stroke-linejoin:miter;stroke-opacity:1"
       d="m 42.197929,195.81003 c 0,0 -0.911998,-3.11088 -0.667794,-7.16951 0.33609,-5.58578 5.799581,-15.02436 5.799581,-15.02436 0,0 -4.37482,1.25605 -9.143445,3.35116 -3.291257,1.44602 -7.102216,4.00624 -7.102216,4.00624 0,0 -1.464498,6.18081 0.309093,11.15227 2.649144,7.42568 5.971412,7.412 5.971412,7.412 0,0 1.370906,-1.24739 2.294992,-1.8171 0.751826,-0.46349 2.538377,-1.9107 2.538377,-1.9107 z"
       id="path1506"
       inkscape:connector-curvature="0"
       sodipodi:nodetypes="cscscscsc" />
    <path
       style="opacity:0.497;fill:#c8afcd;fill-opacity:1;stroke:none;stroke-width:0.45056611px;stroke-linecap:butt;stroke-linejoin:miter;stroke-opacity:1"
       d="m 50.891173,176.17949 c 0,0 -3.658319,4.35542 -3.822427,7.79051 -0.397974,8.33035 1.842794,8.73349 1.842794,8.73349 0,0 -0.387944,-5.34475 0.359263,-8.4066 0.850987,-3.4871 5.204601,-9.02768 5.204601,-9.02768 0,0 -1.434702,0.21092 -2.133471,0.39825 -0.495332,0.13283 -1.45076,0.51203 -1.45076,0.51203 z"
       id="path1516"
       inkscape:connector-curvature="0"
       sodipodi:nodetypes="cscscsc" />
    <path
       style="fill:#fefcff;fill-opacity:1;stroke:none;stroke-width:0.45056611px;stroke-linecap:butt;stroke-linejoin:miter;stroke-opacity:1"
       d="m 33.538939,183.34795 c 0,0 -0.502859,5.0238 0.170679,7.39603 0.696468,2.453 3.868696,6.59953 3.868696,6.59953 0,0 -1.764731,-4.77663 -2.048134,-7.28225 -0.305152,-2.69793 0.398247,-8.13563 0.398247,-8.13563 0,0 -1.091522,0.47873 -1.592992,0.79649 -0.285209,0.18073 -0.796496,0.62583 -0.796496,0.62583 z"
       id="path1520"
       inkscape:connector-curvature="0"
       sodipodi:nodetypes="cscscsc" />
    <path
       style="opacity:0.63999999;fill:#5a224c;fill-opacity:1;stroke:none;stroke-width:0.45056611px;stroke-linecap:butt;stroke-linejoin:miter;stroke-opacity:1"
       d="m 89.726638,259.71673 c 0,0 2.682741,1.85039 4.487731,5.62484 1.382366,2.89069 2.190857,8.46556 2.190857,8.46556 0,0 -4.06807,3.08156 -6.315075,4.26694 -2.417053,1.27505 -7.225356,3.58422 -7.225356,3.58422 0,0 2.520062,-6.5867 2.929475,-10.87054 0.378096,-3.95617 -0.01537,-7.59158 -0.01537,-7.59158 0,0 1.622249,-1.28757 2.361648,-1.83813 0.610225,-0.45439 1.586087,-1.64131 1.586087,-1.64131 z"
       id="path1522"
       inkscape:connector-curvature="0"
       sodipodi:nodetypes="cscscscscc" />
    <path
       style="fill:#754f75;fill-opacity:1;stroke:none;stroke-width:0.45056611px;stroke-linecap:butt;stroke-linejoin:miter;stroke-opacity:1"
       d="m 13.309686,228.67581 c 0,0 2.045867,3.10432 4.539264,4.64325 2.073254,1.27962 5.217524,2.4962 5.217524,2.4962 0,0 2.540774,13.61731 13.430992,23.57426 9.562964,8.74343 26.383782,10.14148 26.383782,10.14148 0,0 -0.678616,0.97006 -0.746067,3.92271 -0.06342,2.77637 2.024111,6.39355 2.024111,6.39355 0,0 -21.211989,-4.85956 -34.275209,-17.70082 C 15.351548,247.86082 13.309686,228.67581 13.309686,228.67581 Z"
       id="path1530"
       inkscape:connector-curvature="0"
       sodipodi:nodetypes="cscscscsc" />
    <path
       style="fill:#754f75;fill-opacity:1;stroke:none;stroke-width:0.45056611px;stroke-linecap:butt;stroke-linejoin:miter;stroke-opacity:1"
       d="m 73.534163,190.94683 c 0,0 11.252812,2.76648 21.312141,15.41951 6.685546,8.40935 6.872166,19.26746 6.872166,19.26746 0,0 4.45556,-0.77274 7.42271,-0.77274 3.46168,0 5.22405,2.20559 5.22405,2.20559 0,0 -0.26503,-18.96655 -14.16065,-34.27522 -13.086311,-14.41705 -32.183293,-14.48248 -32.183293,-14.48248 0,0 3.489668,3.49909 4.214274,5.99127 0.812703,2.79519 1.298602,6.64661 1.298602,6.64661 z"
       id="path1532"
       inkscape:connector-curvature="0"
       sodipodi:nodetypes="cscscscsc" />
    <path
       style="fill:#1c1353;fill-opacity:1;stroke:none;stroke-width:0.26458332px;stroke-linecap:butt;stroke-linejoin:miter;stroke-opacity:1"
       d="m 35.613663,247.28786 c 0,0 10.921188,-16.61824 36.682742,-13.76439 13.043829,1.44499 19.310224,10.35669 19.310224,10.35669 0,0 -9.153873,17.22781 -26.860587,17.97388 -20.43704,0.86111 -29.132379,-14.56618 -29.132379,-14.56618 z"
       id="path2442"
       inkscape:connector-curvature="0"
       sodipodi:nodetypes="cscsc" />
    <path
       style="fill:#b676c3;fill-opacity:1;stroke:none;stroke-width:0.26458332px;stroke-linecap:butt;stroke-linejoin:miter;stroke-opacity:1"
       d="m 62.181004,257.51069 h 2.765491 l 24.985615,-41.97453 -0.459603,-3.19387 -27.599613,42.7632 z"
       id="path2444"
       inkscape:connector-curvature="0"
       sodipodi:nodetypes="cccccc" />
    <path
       style="fill:#d7abe0;fill-opacity:1;stroke:none;stroke-width:0.65895617px;stroke-linecap:butt;stroke-linejoin:miter;stroke-opacity:1"
       d="m 62.181005,257.51069 -26.07796,-45.1684 h 53.369462 z"
       id="path2347"
       inkscape:connector-curvature="0" />
    <path
       style="fill:#ece7ed;fill-opacity:1;stroke:none;stroke-width:0.52110004px;stroke-linecap:butt;stroke-linejoin:miter;stroke-opacity:1"
       d="M 62.307943,252.78599 40.098093,214.42116 H 85.477456 Z"
       id="path2347-4"
       inkscape:connector-curvature="0"
       sodipodi:nodetypes="cccc" />
    <g
       aria-label="Concentrate"
       transform="scale(0.98413002,1.0161259)"
       style="font-style:normal;font-variant:normal;font-weight:normal;font-stretch:normal;font-size:5.54869699px;line-height:1.25;font-family:Montserrat;-inkscape-font-specification:Montserrat;text-align:center;letter-spacing:0px;word-spacing:0px;text-anchor:middle;fill:#d7abe0;fill-opacity:1;stroke:none;stroke-width:0.13871743"
       id="text2448-0">
      <path
         d="m 49.057124,217.61521 q -0.582614,0 -1.054253,-0.25524 -0.46609,-0.26079 -0.732428,-0.71024 -0.266337,-0.45499 -0.266337,-1.02096 0,-0.56597 0.266337,-1.01541 0.266338,-0.45499 0.737977,-0.71023 0.471639,-0.26079 1.054252,-0.26079 0.454993,0 0.832305,0.15536 0.377311,0.14982 0.643649,0.44945 l -0.360666,0.34956 q -0.438347,-0.46054 -1.093093,-0.46054 -0.432798,0 -0.782366,0.19421 -0.349568,0.1942 -0.549321,0.53822 -0.194205,0.33847 -0.194205,0.76017 0,0.4217 0.194205,0.76572 0.199753,0.33847 0.549321,0.53268 0.349568,0.1942 0.782366,0.1942 0.649198,0 1.093093,-0.46609 l 0.360666,0.34957 q -0.266338,0.29963 -0.649198,0.45499 -0.377311,0.15537 -0.832304,0.15537 z"
         style="text-align:center;text-anchor:middle;fill:#d7abe0;fill-opacity:1;stroke-width:0.13871743"
         id="path918" />
      <path
         d="m 52.391881,217.60411 q -0.438347,0 -0.787915,-0.19421 -0.349568,-0.1942 -0.549321,-0.53267 -0.194204,-0.34402 -0.194204,-0.77682 0,-0.4328 0.194204,-0.77127 0.199753,-0.34402 0.549321,-0.53267 0.349568,-0.19421 0.787915,-0.19421 0.438347,0 0.782366,0.19421 0.349568,0.18865 0.543773,0.53267 0.199753,0.33847 0.199753,0.77127 0,0.4328 -0.199753,0.77682 -0.194205,0.33847 -0.543773,0.53267 -0.344019,0.19421 -0.782366,0.19421 z m 0,-0.46609 q 0.282984,0 0.504931,-0.12762 0.227497,-0.13317 0.355117,-0.36622 0.12762,-0.23859 0.12762,-0.54377 0,-0.30518 -0.12762,-0.53822 -0.12762,-0.2386 -0.355117,-0.36622 -0.221947,-0.12762 -0.504931,-0.12762 -0.282983,0 -0.51048,0.12762 -0.221948,0.12762 -0.355117,0.36622 -0.12762,0.23304 -0.12762,0.53822 0,0.30518 0.12762,0.54377 0.133169,0.23305 0.355117,0.36622 0.227497,0.12762 0.51048,0.12762 z"
         style="text-align:center;text-anchor:middle;fill:#d7abe0;fill-opacity:1;stroke-width:0.13871743"
         id="path920" />
      <path
         d="m 56.226021,214.60226 q 0.560418,0 0.887792,0.32738 0.332921,0.32182 0.332921,0.94882 v 1.69236 h -0.532675 v -1.63132 q 0,-0.42725 -0.205301,-0.64365 -0.205302,-0.2164 -0.588162,-0.2164 -0.432799,0 -0.68249,0.25524 -0.249691,0.24969 -0.249691,0.72133 v 1.5148 H 54.65574 v -2.94081 h 0.51048 v 0.44389 q 0.160912,-0.22749 0.432798,-0.34957 0.277435,-0.12207 0.627003,-0.12207 z"
         style="text-align:center;text-anchor:middle;fill:#d7abe0;fill-opacity:1;stroke-width:0.13871743"
         id="path922" />
      <path
         d="m 59.732787,217.60411 q -0.449444,0 -0.804561,-0.19421 -0.349568,-0.1942 -0.549321,-0.53267 -0.199753,-0.34402 -0.199753,-0.77682 0,-0.4328 0.199753,-0.77127 0.199753,-0.34402 0.549321,-0.53267 0.355117,-0.19421 0.804561,-0.19421 0.399507,0 0.710234,0.16092 0.316275,0.16091 0.488285,0.46609 l -0.405055,0.26078 q -0.138717,-0.21085 -0.344019,-0.31627 -0.205302,-0.10543 -0.454993,-0.10543 -0.288533,0 -0.521578,0.12762 -0.227496,0.12762 -0.360665,0.36622 -0.12762,0.23304 -0.12762,0.53822 0,0.31073 0.12762,0.54932 0.133169,0.23305 0.360665,0.36067 0.233045,0.12762 0.521578,0.12762 0.249691,0 0.454993,-0.10543 0.205302,-0.10542 0.344019,-0.31627 l 0.405055,0.25524 q -0.17201,0.30518 -0.488285,0.47164 -0.310727,0.16091 -0.710234,0.16091 z"
         style="text-align:center;text-anchor:middle;fill:#d7abe0;fill-opacity:1;stroke-width:0.13871743"
         id="path924" />
      <path
         d="m 64.232768,216.11706 q 0,0.061 -0.0111,0.16091 h -2.38594 q 0.04994,0.38841 0.338471,0.627 0.294081,0.23305 0.726879,0.23305 0.527126,0 0.848951,-0.35512 l 0.294081,0.34402 q -0.199753,0.23305 -0.499383,0.35512 -0.294081,0.12207 -0.660295,0.12207 -0.46609,0 -0.826756,-0.18866 -0.360665,-0.1942 -0.560418,-0.53822 -0.194205,-0.34402 -0.194205,-0.77682 0,-0.42725 0.188656,-0.77127 0.194205,-0.34402 0.527126,-0.53267 0.338471,-0.19421 0.760172,-0.19421 0.421701,0 0.749074,0.19421 0.332922,0.18865 0.516029,0.53267 0.188655,0.34402 0.188655,0.78792 z m -1.453758,-1.06535 q -0.38286,0 -0.643649,0.23304 -0.25524,0.23305 -0.29963,0.61036 h 1.886557 q -0.04439,-0.37176 -0.305178,-0.60481 -0.25524,-0.23859 -0.6381,-0.23859 z"
         style="text-align:center;text-anchor:middle;fill:#d7abe0;fill-opacity:1;stroke-width:0.13871743"
         id="path926" />
      <path
         d="m 66.541023,214.60226 q 0.560419,0 0.887792,0.32738 0.332922,0.32182 0.332922,0.94882 v 1.69236 h -0.532675 v -1.63132 q 0,-0.42725 -0.205302,-0.64365 -0.205302,-0.2164 -0.588162,-0.2164 -0.432798,0 -0.68249,0.25524 -0.249691,0.24969 -0.249691,0.72133 v 1.5148 h -0.532675 v -2.94081 h 0.51048 v 0.44389 q 0.160913,-0.22749 0.432799,-0.34957 0.277435,-0.12207 0.627002,-0.12207 z"
         style="text-align:center;text-anchor:middle;fill:#d7abe0;fill-opacity:1;stroke-width:0.13871743"
         id="path928" />
      <path
         d="m 70.402916,217.39881 q -0.116523,0.0999 -0.288533,0.15536 -0.172009,0.0499 -0.355116,0.0499 -0.443896,0 -0.688039,-0.2386 -0.244142,-0.23859 -0.244142,-0.68249 v -1.61467 h -0.499383 v -0.43834 h 0.499383 v -0.64365 h 0.532675 v 0.64365 h 0.843402 v 0.43834 h -0.843402 v 1.59248 q 0,0.23859 0.116522,0.36621 0.122072,0.12762 0.344019,0.12762 0.244143,0 0.416153,-0.13871 z"
         style="text-align:center;text-anchor:middle;fill:#d7abe0;fill-opacity:1;stroke-width:0.13871743"
         id="path930" />
      <path
         d="m 71.557041,215.12384 q 0.138718,-0.25524 0.410604,-0.38841 0.271886,-0.13317 0.660295,-0.13317 v 0.51603 q -0.04439,-0.006 -0.122071,-0.006 -0.432799,0 -0.68249,0.26079 -0.244143,0.25524 -0.244143,0.73243 v 1.46486 h -0.532675 v -2.94081 h 0.51048 z"
         style="text-align:center;text-anchor:middle;fill:#d7abe0;fill-opacity:1;stroke-width:0.13871743"
         id="path932" />
      <path
         d="m 74.348028,214.60226 q 0.610356,0 0.932181,0.29963 0.327373,0.29963 0.327373,0.89334 v 1.77559 H 75.10265 v -0.38841 q -0.133168,0.2053 -0.38286,0.31627 -0.244142,0.10543 -0.582613,0.10543 -0.493834,0 -0.793463,-0.2386 -0.294081,-0.23859 -0.294081,-0.627 0,-0.38841 0.282983,-0.62145 0.282984,-0.2386 0.898889,-0.2386 h 0.843402 v -0.10542 q 0,-0.34402 -0.199753,-0.52713 -0.199753,-0.18311 -0.588162,-0.18311 -0.260789,0 -0.51048,0.0888 -0.249691,0.0832 -0.421701,0.2275 l -0.221948,-0.39951 q 0.227497,-0.1831 0.543772,-0.27743 0.316276,-0.0999 0.671393,-0.0999 z m -0.122072,2.59124 q 0.305179,0 0.527127,-0.13316 0.221947,-0.13872 0.321824,-0.38841 v -0.41061 H 74.2537 q -0.676941,0 -0.676941,0.455 0,0.22194 0.172009,0.34956 0.17201,0.12762 0.477188,0.12762 z"
         style="text-align:center;text-anchor:middle;fill:#d7abe0;fill-opacity:1;stroke-width:0.13871743"
         id="path934" />
      <path
         d="m 78.24876,217.39881 q -0.116523,0.0999 -0.288532,0.15536 -0.17201,0.0499 -0.355117,0.0499 -0.443896,0 -0.688038,-0.2386 -0.244143,-0.23859 -0.244143,-0.68249 v -1.61467 h -0.499383 v -0.43834 h 0.499383 v -0.64365 h 0.532675 v 0.64365 h 0.843402 v 0.43834 h -0.843402 v 1.59248 q 0,0.23859 0.116523,0.36621 0.122071,0.12762 0.344019,0.12762 0.244142,0 0.416152,-0.13871 z"
         style="text-align:center;text-anchor:middle;fill:#d7abe0;fill-opacity:1;stroke-width:0.13871743"
         id="path936" />
      <path
         d="m 81.450347,216.11706 q 0,0.061 -0.0111,0.16091 h -2.38594 q 0.04994,0.38841 0.338471,0.627 0.294081,0.23305 0.726879,0.23305 0.527126,0 0.848951,-0.35512 l 0.294081,0.34402 q -0.199753,0.23305 -0.499383,0.35512 -0.294081,0.12207 -0.660295,0.12207 -0.466091,0 -0.826756,-0.18866 -0.360665,-0.1942 -0.560418,-0.53822 -0.194205,-0.34402 -0.194205,-0.77682 0,-0.42725 0.188656,-0.77127 0.194204,-0.34402 0.527126,-0.53267 0.338471,-0.19421 0.760172,-0.19421 0.421701,0 0.749074,0.19421 0.332922,0.18865 0.516029,0.53267 0.188655,0.34402 0.188655,0.78792 z m -1.453758,-1.06535 q -0.38286,0 -0.643649,0.23304 -0.25524,0.23305 -0.29963,0.61036 h 1.886557 q -0.04439,-0.37176 -0.305178,-0.60481 -0.25524,-0.23859 -0.6381,-0.23859 z"
         style="text-align:center;text-anchor:middle;fill:#d7abe0;fill-opacity:1;stroke-width:0.13871743"
         id="path938" />
    </g>
    <g
       aria-label="Concentrate"
       transform="scale(0.98413002,1.0161259)"
       style="font-style:normal;font-variant:normal;font-weight:normal;font-stretch:normal;font-size:5.54869699px;line-height:1.25;font-family:Montserrat;-inkscape-font-specification:Montserrat;text-align:center;letter-spacing:0px;word-spacing:0px;text-anchor:middle;fill:#441b4d;fill-opacity:1;stroke:none;stroke-width:0.13871743"
       id="text2448">
      <path
         d="m 48.519423,217.61521 q -0.582613,0 -1.054253,-0.25524 -0.46609,-0.26079 -0.732428,-0.71024 -0.266337,-0.45499 -0.266337,-1.02096 0,-0.56597 0.266337,-1.01541 0.266338,-0.45499 0.737977,-0.71023 0.471639,-0.26079 1.054253,-0.26079 0.454993,0 0.832304,0.15536 0.377312,0.14982 0.643649,0.44945 l -0.360665,0.34956 q -0.438347,-0.46054 -1.093094,-0.46054 -0.432798,0 -0.782366,0.19421 -0.349568,0.1942 -0.549321,0.53822 -0.194204,0.33847 -0.194204,0.76017 0,0.4217 0.194204,0.76572 0.199753,0.33847 0.549321,0.53268 0.349568,0.1942 0.782366,0.1942 0.649198,0 1.093094,-0.46609 l 0.360665,0.34957 q -0.266337,0.29963 -0.649198,0.45499 -0.377311,0.15537 -0.832304,0.15537 z"
         style="text-align:center;text-anchor:middle;fill:#441b4d;fill-opacity:1;stroke-width:0.13871743"
         id="path895" />
      <path
         d="m 51.85418,217.60411 q -0.438347,0 -0.787915,-0.19421 -0.349567,-0.1942 -0.549321,-0.53267 -0.194204,-0.34402 -0.194204,-0.77682 0,-0.4328 0.194204,-0.77127 0.199754,-0.34402 0.549321,-0.53267 0.349568,-0.19421 0.787915,-0.19421 0.438347,0 0.782367,0.19421 0.349568,0.18865 0.543772,0.53267 0.199753,0.33847 0.199753,0.77127 0,0.4328 -0.199753,0.77682 -0.194204,0.33847 -0.543772,0.53267 -0.34402,0.19421 -0.782367,0.19421 z m 0,-0.46609 q 0.282984,0 0.504932,-0.12762 0.227496,-0.13317 0.355116,-0.36622 0.12762,-0.23859 0.12762,-0.54377 0,-0.30518 -0.12762,-0.53822 -0.12762,-0.2386 -0.355116,-0.36622 -0.221948,-0.12762 -0.504932,-0.12762 -0.282983,0 -0.51048,0.12762 -0.221948,0.12762 -0.355116,0.36622 -0.12762,0.23304 -0.12762,0.53822 0,0.30518 0.12762,0.54377 0.133168,0.23305 0.355116,0.36622 0.227497,0.12762 0.51048,0.12762 z"
         style="text-align:center;text-anchor:middle;fill:#441b4d;fill-opacity:1;stroke-width:0.13871743"
         id="path897" />
      <path
         d="m 55.68832,214.60226 q 0.560419,0 0.887792,0.32738 0.332922,0.32182 0.332922,0.94882 v 1.69236 h -0.532675 v -1.63132 q 0,-0.42725 -0.205302,-0.64365 -0.205302,-0.2164 -0.588162,-0.2164 -0.432798,0 -0.68249,0.25524 -0.249691,0.24969 -0.249691,0.72133 v 1.5148 h -0.532675 v -2.94081 h 0.51048 v 0.44389 q 0.160912,-0.22749 0.432799,-0.34957 0.277434,-0.12207 0.627002,-0.12207 z"
         style="text-align:center;text-anchor:middle;fill:#441b4d;fill-opacity:1;stroke-width:0.13871743"
         id="path899" />
      <path
         d="m 59.195087,217.60411 q -0.449445,0 -0.804561,-0.19421 -0.349568,-0.1942 -0.549321,-0.53267 -0.199753,-0.34402 -0.199753,-0.77682 0,-0.4328 0.199753,-0.77127 0.199753,-0.34402 0.549321,-0.53267 0.355116,-0.19421 0.804561,-0.19421 0.399506,0 0.710233,0.16092 0.316276,0.16091 0.488285,0.46609 l -0.405055,0.26078 q -0.138717,-0.21085 -0.344019,-0.31627 -0.205302,-0.10543 -0.454993,-0.10543 -0.288532,0 -0.521578,0.12762 -0.227496,0.12762 -0.360665,0.36622 -0.12762,0.23304 -0.12762,0.53822 0,0.31073 0.12762,0.54932 0.133169,0.23305 0.360665,0.36067 0.233046,0.12762 0.521578,0.12762 0.249691,0 0.454993,-0.10543 0.205302,-0.10542 0.344019,-0.31627 l 0.405055,0.25524 q -0.172009,0.30518 -0.488285,0.47164 -0.310727,0.16091 -0.710233,0.16091 z"
         style="text-align:center;text-anchor:middle;fill:#441b4d;fill-opacity:1;stroke-width:0.13871743"
         id="path901" />
      <path
         d="m 63.695068,216.11706 q 0,0.061 -0.0111,0.16091 h -2.385939 q 0.04994,0.38841 0.33847,0.627 0.294081,0.23305 0.72688,0.23305 0.527126,0 0.84895,-0.35512 l 0.294081,0.34402 q -0.199753,0.23305 -0.499383,0.35512 -0.294081,0.12207 -0.660295,0.12207 -0.46609,0 -0.826755,-0.18866 -0.360666,-0.1942 -0.560419,-0.53822 -0.194204,-0.34402 -0.194204,-0.77682 0,-0.42725 0.188655,-0.77127 0.194205,-0.34402 0.527127,-0.53267 0.33847,-0.19421 0.760171,-0.19421 0.421701,0 0.749074,0.19421 0.332922,0.18865 0.516029,0.53267 0.188656,0.34402 0.188656,0.78792 z m -1.453759,-1.06535 q -0.38286,0 -0.643649,0.23304 -0.25524,0.23305 -0.299629,0.61036 h 1.886557 q -0.04439,-0.37176 -0.305179,-0.60481 -0.25524,-0.23859 -0.6381,-0.23859 z"
         style="text-align:center;text-anchor:middle;fill:#441b4d;fill-opacity:1;stroke-width:0.13871743"
         id="path903" />
      <path
         d="m 66.003323,214.60226 q 0.560418,0 0.887791,0.32738 0.332922,0.32182 0.332922,0.94882 v 1.69236 h -0.532675 v -1.63132 q 0,-0.42725 -0.205302,-0.64365 -0.205301,-0.2164 -0.588161,-0.2164 -0.432799,0 -0.68249,0.25524 -0.249692,0.24969 -0.249692,0.72133 v 1.5148 h -0.532674 v -2.94081 h 0.51048 v 0.44389 q 0.160912,-0.22749 0.432798,-0.34957 0.277435,-0.12207 0.627003,-0.12207 z"
         style="text-align:center;text-anchor:middle;fill:#441b4d;fill-opacity:1;stroke-width:0.13871743"
         id="path905" />
      <path
         d="m 69.865215,217.39881 q -0.116523,0.0999 -0.288532,0.15536 -0.17201,0.0499 -0.355117,0.0499 -0.443896,0 -0.688038,-0.2386 -0.244143,-0.23859 -0.244143,-0.68249 v -1.61467 h -0.499383 v -0.43834 h 0.499383 v -0.64365 h 0.532675 v 0.64365 h 0.843402 v 0.43834 H 68.82206 v 1.59248 q 0,0.23859 0.116523,0.36621 0.122071,0.12762 0.344019,0.12762 0.244142,0 0.416152,-0.13871 z"
         style="text-align:center;text-anchor:middle;fill:#441b4d;fill-opacity:1;stroke-width:0.13871743"
         id="path907" />
      <path
         d="m 71.019341,215.12384 q 0.138717,-0.25524 0.410603,-0.38841 0.271886,-0.13317 0.660295,-0.13317 v 0.51603 q -0.04439,-0.006 -0.122071,-0.006 -0.432798,0 -0.68249,0.26079 -0.244143,0.25524 -0.244143,0.73243 v 1.46486 h -0.532674 v -2.94081 h 0.51048 z"
         style="text-align:center;text-anchor:middle;fill:#441b4d;fill-opacity:1;stroke-width:0.13871743"
         id="path909" />
      <path
         d="m 73.810327,214.60226 q 0.610357,0 0.932181,0.29963 0.327373,0.29963 0.327373,0.89334 v 1.77559 H 74.56495 v -0.38841 q -0.133169,0.2053 -0.38286,0.31627 -0.244143,0.10543 -0.582613,0.10543 -0.493834,0 -0.793464,-0.2386 -0.294081,-0.23859 -0.294081,-0.627 0,-0.38841 0.282983,-0.62145 0.282984,-0.2386 0.898889,-0.2386 h 0.843402 v -0.10542 q 0,-0.34402 -0.199753,-0.52713 -0.199753,-0.18311 -0.588162,-0.18311 -0.260788,0 -0.51048,0.0888 -0.249691,0.0832 -0.421701,0.2275 l -0.221948,-0.39951 q 0.227497,-0.1831 0.543773,-0.27743 0.316275,-0.0999 0.671392,-0.0999 z m -0.122071,2.59124 q 0.305178,0 0.527126,-0.13316 0.221948,-0.13872 0.321824,-0.38841 v -0.41061 h -0.821207 q -0.676941,0 -0.676941,0.455 0,0.22194 0.17201,0.34956 0.172009,0.12762 0.477188,0.12762 z"
         style="text-align:center;text-anchor:middle;fill:#441b4d;fill-opacity:1;stroke-width:0.13871743"
         id="path911" />
      <path
         d="m 77.711059,217.39881 q -0.116522,0.0999 -0.288532,0.15536 -0.17201,0.0499 -0.355117,0.0499 -0.443895,0 -0.688038,-0.2386 -0.244143,-0.23859 -0.244143,-0.68249 v -1.61467 h -0.499382 v -0.43834 h 0.499382 v -0.64365 h 0.532675 v 0.64365 h 0.843402 v 0.43834 h -0.843402 v 1.59248 q 0,0.23859 0.116523,0.36621 0.122071,0.12762 0.344019,0.12762 0.244143,0 0.416152,-0.13871 z"
         style="text-align:center;text-anchor:middle;fill:#441b4d;fill-opacity:1;stroke-width:0.13871743"
         id="path913" />
      <path
         d="m 80.912647,216.11706 q 0,0.061 -0.0111,0.16091 H 78.51561 q 0.04994,0.38841 0.33847,0.627 0.294081,0.23305 0.726879,0.23305 0.527127,0 0.848951,-0.35512 l 0.294081,0.34402 q -0.199753,0.23305 -0.499383,0.35512 -0.294081,0.12207 -0.660295,0.12207 -0.46609,0 -0.826756,-0.18866 -0.360665,-0.1942 -0.560418,-0.53822 -0.194204,-0.34402 -0.194204,-0.77682 0,-0.42725 0.188655,-0.77127 0.194205,-0.34402 0.527127,-0.53267 0.33847,-0.19421 0.760171,-0.19421 0.421701,0 0.749074,0.19421 0.332922,0.18865 0.516029,0.53267 0.188656,0.34402 0.188656,0.78792 z m -1.453759,-1.06535 q -0.38286,0 -0.643649,0.23304 -0.25524,0.23305 -0.299629,0.61036 h 1.886557 q -0.04439,-0.37176 -0.305179,-0.60481 -0.25524,-0.23859 -0.6381,-0.23859 z"
         style="text-align:center;text-anchor:middle;fill:#441b4d;fill-opacity:1;stroke-width:0.13871743"
         id="path915" />
    </g>
    <g
       aria-label="and ask"
       transform="scale(0.98413002,1.0161259)"
       style="font-style:normal;font-variant:normal;font-weight:normal;font-stretch:normal;font-size:5.54869699px;line-height:1.25;font-family:Montserrat;-inkscape-font-specification:Montserrat;text-align:center;letter-spacing:0px;word-spacing:0px;text-anchor:middle;fill:#d7abe0;fill-opacity:1;stroke:none;stroke-width:0.13871743"
       id="text2448-3-5">
      <path
         d="m 54.833297,220.56938 q 0.610357,0 0.932181,0.29963 0.327373,0.29963 0.327373,0.89334 v 1.77558 H 55.58792 v -0.38841 q -0.133169,0.20531 -0.38286,0.31628 -0.244143,0.10543 -0.582613,0.10543 -0.493835,0 -0.793464,-0.2386 -0.294081,-0.23859 -0.294081,-0.627 0,-0.38841 0.282983,-0.62146 0.282984,-0.23859 0.898889,-0.23859 h 0.843402 v -0.10542 q 0,-0.34402 -0.199753,-0.52713 -0.199753,-0.18311 -0.588162,-0.18311 -0.260788,0 -0.51048,0.0888 -0.249691,0.0832 -0.421701,0.2275 l -0.221948,-0.39951 q 0.227497,-0.18311 0.543773,-0.27743 0.316275,-0.0999 0.671392,-0.0999 z m -0.122071,2.59124 q 0.305178,0 0.527126,-0.13317 0.221948,-0.13871 0.321824,-0.38841 v -0.4106 h -0.821207 q -0.676941,0 -0.676941,0.45499 0,0.22195 0.17201,0.34957 0.172009,0.12762 0.477188,0.12762 z"
         style="text-align:center;text-anchor:middle;fill:#d7abe0;fill-opacity:1;stroke-width:0.13871743"
         id="path882" />
      <path
         d="m 58.650798,220.56938 q 0.560418,0 0.887792,0.32737 0.332921,0.32183 0.332921,0.94883 v 1.69235 h -0.532675 v -1.63131 q 0,-0.42725 -0.205301,-0.64365 -0.205302,-0.2164 -0.588162,-0.2164 -0.432799,0 -0.68249,0.25524 -0.249691,0.24969 -0.249691,0.72133 v 1.51479 h -0.532675 v -2.94081 h 0.51048 v 0.4439 q 0.160912,-0.2275 0.432798,-0.34957 0.277435,-0.12207 0.627003,-0.12207 z"
         style="text-align:center;text-anchor:middle;fill:#d7abe0;fill-opacity:1;stroke-width:0.13871743"
         id="path884" />
      <path
         d="m 63.650164,219.4208 v 4.11713 h -0.51048 v -0.46609 q -0.177559,0.24415 -0.449445,0.37177 -0.271886,0.12762 -0.599259,0.12762 -0.42725,0 -0.76572,-0.18866 -0.338471,-0.18866 -0.532675,-0.52713 -0.188656,-0.34402 -0.188656,-0.78791 0,-0.4439 0.188656,-0.78237 0.194204,-0.33847 0.532675,-0.52712 0.33847,-0.18866 0.76572,-0.18866 0.316276,0 0.582613,0.12207 0.266337,0.11652 0.443896,0.34957 v -1.62022 z m -1.514795,3.68433 q 0.277435,0 0.504932,-0.12762 0.227496,-0.13316 0.355116,-0.36621 0.12762,-0.23859 0.12762,-0.54377 0,-0.30518 -0.12762,-0.53822 -0.12762,-0.2386 -0.355116,-0.36622 -0.227497,-0.12762 -0.504932,-0.12762 -0.282983,0 -0.51048,0.12762 -0.221948,0.12762 -0.355116,0.36622 -0.12762,0.23304 -0.12762,0.53822 0,0.30518 0.12762,0.54377 0.133168,0.23305 0.355116,0.36621 0.227497,0.12762 0.51048,0.12762 z"
         style="text-align:center;text-anchor:middle;fill:#d7abe0;fill-opacity:1;stroke-width:0.13871743"
         id="path886" />
      <path
         d="m 67.223515,220.56938 q 0.610356,0 0.932181,0.29963 0.327373,0.29963 0.327373,0.89334 v 1.77558 h -0.504931 v -0.38841 q -0.133169,0.20531 -0.382861,0.31628 -0.244142,0.10543 -0.582613,0.10543 -0.493834,0 -0.793463,-0.2386 -0.294081,-0.23859 -0.294081,-0.627 0,-0.38841 0.282983,-0.62146 0.282984,-0.23859 0.898889,-0.23859 h 0.843402 v -0.10542 q 0,-0.34402 -0.199753,-0.52713 -0.199753,-0.18311 -0.588162,-0.18311 -0.260789,0 -0.51048,0.0888 -0.249691,0.0832 -0.421701,0.2275 l -0.221948,-0.39951 q 0.227497,-0.18311 0.543772,-0.27743 0.316276,-0.0999 0.671393,-0.0999 z m -0.122072,2.59124 q 0.305179,0 0.527127,-0.13317 0.221948,-0.13871 0.321824,-0.38841 v -0.4106 h -0.821207 q -0.676941,0 -0.676941,0.45499 0,0.22195 0.17201,0.34957 0.172009,0.12762 0.477187,0.12762 z"
         style="text-align:center;text-anchor:middle;fill:#d7abe0;fill-opacity:1;stroke-width:0.13871743"
         id="path888" />
      <path
         d="m 70.314136,223.57123 q -0.360665,0 -0.693587,-0.0943 -0.332922,-0.0999 -0.521577,-0.24969 l 0.221948,-0.4217 q 0.194204,0.13871 0.471639,0.22194 0.277435,0.0832 0.560418,0.0832 0.699136,0 0.699136,-0.3995 0,-0.13317 -0.09433,-0.21085 -0.09433,-0.0777 -0.238594,-0.11098 -0.138717,-0.0388 -0.399506,-0.0832 -0.355117,-0.0555 -0.582613,-0.12762 -0.221948,-0.0721 -0.38286,-0.24414 -0.160912,-0.17201 -0.160912,-0.48274 0,-0.3995 0.332921,-0.6381 0.332922,-0.24414 0.893341,-0.24414 0.29408,0 0.588161,0.0721 0.294081,0.0721 0.482737,0.19421 l -0.227497,0.4217 q -0.360665,-0.23305 -0.84895,-0.23305 -0.338471,0 -0.516029,0.11098 -0.177558,0.11097 -0.177558,0.29408 0,0.14426 0.09988,0.2275 0.09988,0.0832 0.244143,0.12207 0.149815,0.0388 0.416152,0.0888 0.355117,0.061 0.571516,0.13316 0.221948,0.0666 0.377311,0.23305 0.155364,0.16646 0.155364,0.46609 0,0.39951 -0.344019,0.6381 -0.338471,0.23305 -0.926633,0.23305 z"
         style="text-align:center;text-anchor:middle;fill:#d7abe0;fill-opacity:1;stroke-width:0.13871743"
         id="path890" />
      <path
         d="m 73.39366,222.16741 -0.610357,0.56596 v 0.80456 h -0.532675 v -4.11713 h 0.532675 v 2.64118 l 1.603574,-1.46486 h 0.643648 l -1.237359,1.21517 1.359431,1.72564 h -0.654746 z"
         style="text-align:center;text-anchor:middle;fill:#d7abe0;fill-opacity:1;stroke-width:0.13871743"
         id="path892" />
    </g>
    <g
       aria-label="and ask"
       transform="scale(0.98413002,1.0161259)"
       style="font-style:normal;font-variant:normal;font-weight:normal;font-stretch:normal;font-size:5.54869699px;line-height:1.25;font-family:Montserrat;-inkscape-font-specification:Montserrat;text-align:center;letter-spacing:0px;word-spacing:0px;text-anchor:middle;fill:#441b4d;fill-opacity:1;stroke:none;stroke-width:0.13871743"
       id="text2448-3">
      <path
         d="m 54.295596,220.56938 q 0.610357,0 0.932181,0.29963 0.327374,0.29963 0.327374,0.89334 v 1.77558 h -0.504932 v -0.38841 q -0.133169,0.20531 -0.38286,0.31628 -0.244143,0.10543 -0.582613,0.10543 -0.493834,0 -0.793464,-0.2386 -0.294081,-0.23859 -0.294081,-0.627 0,-0.38841 0.282984,-0.62146 0.282983,-0.23859 0.898889,-0.23859 h 0.843402 v -0.10542 q 0,-0.34402 -0.199753,-0.52713 -0.199754,-0.18311 -0.588162,-0.18311 -0.260789,0 -0.51048,0.0888 -0.249692,0.0832 -0.421701,0.2275 l -0.221948,-0.39951 q 0.227496,-0.18311 0.543772,-0.27743 0.316276,-0.0999 0.671392,-0.0999 z m -0.122071,2.59124 q 0.305178,0 0.527126,-0.13317 0.221948,-0.13871 0.321825,-0.38841 v -0.4106 h -0.821208 q -0.676941,0 -0.676941,0.45499 0,0.22195 0.17201,0.34957 0.17201,0.12762 0.477188,0.12762 z"
         style="text-align:center;text-anchor:middle;fill:#441b4d;fill-opacity:1;stroke-width:0.13871743"
         id="path869" />
      <path
         d="m 58.113097,220.56938 q 0.560419,0 0.887792,0.32737 0.332922,0.32183 0.332922,0.94883 v 1.69235 h -0.532675 v -1.63131 q 0,-0.42725 -0.205302,-0.64365 -0.205302,-0.2164 -0.588162,-0.2164 -0.432798,0 -0.68249,0.25524 -0.249691,0.24969 -0.249691,0.72133 v 1.51479 h -0.532675 v -2.94081 h 0.51048 v 0.4439 q 0.160912,-0.2275 0.432799,-0.34957 0.277434,-0.12207 0.627002,-0.12207 z"
         style="text-align:center;text-anchor:middle;fill:#441b4d;fill-opacity:1;stroke-width:0.13871743"
         id="path871" />
      <path
         d="m 63.112463,219.4208 v 4.11713 h -0.51048 v -0.46609 q -0.177558,0.24415 -0.449445,0.37177 -0.271886,0.12762 -0.599259,0.12762 -0.42725,0 -0.76572,-0.18866 -0.338471,-0.18866 -0.532675,-0.52713 -0.188656,-0.34402 -0.188656,-0.78791 0,-0.4439 0.188656,-0.78237 0.194204,-0.33847 0.532675,-0.52712 0.33847,-0.18866 0.76572,-0.18866 0.316276,0 0.582613,0.12207 0.266338,0.11652 0.443896,0.34957 v -1.62022 z m -1.514794,3.68433 q 0.277435,0 0.504931,-0.12762 0.227497,-0.13316 0.355117,-0.36621 0.12762,-0.23859 0.12762,-0.54377 0,-0.30518 -0.12762,-0.53822 -0.12762,-0.2386 -0.355117,-0.36622 -0.227496,-0.12762 -0.504931,-0.12762 -0.282984,0 -0.51048,0.12762 -0.221948,0.12762 -0.355117,0.36622 -0.12762,0.23304 -0.12762,0.53822 0,0.30518 0.12762,0.54377 0.133169,0.23305 0.355117,0.36621 0.227496,0.12762 0.51048,0.12762 z"
         style="text-align:center;text-anchor:middle;fill:#441b4d;fill-opacity:1;stroke-width:0.13871743"
         id="path873" />
      <path
         d="m 66.685814,220.56938 q 0.610357,0 0.932181,0.29963 0.327373,0.29963 0.327373,0.89334 v 1.77558 h -0.504931 v -0.38841 q -0.133169,0.20531 -0.38286,0.31628 -0.244143,0.10543 -0.582613,0.10543 -0.493834,0 -0.793464,-0.2386 -0.294081,-0.23859 -0.294081,-0.627 0,-0.38841 0.282984,-0.62146 0.282983,-0.23859 0.898888,-0.23859 h 0.843402 v -0.10542 q 0,-0.34402 -0.199753,-0.52713 -0.199753,-0.18311 -0.588162,-0.18311 -0.260788,0 -0.51048,0.0888 -0.249691,0.0832 -0.421701,0.2275 l -0.221948,-0.39951 q 0.227497,-0.18311 0.543773,-0.27743 0.316276,-0.0999 0.671392,-0.0999 z m -0.122071,2.59124 q 0.305178,0 0.527126,-0.13317 0.221948,-0.13871 0.321824,-0.38841 v -0.4106 h -0.821207 q -0.676941,0 -0.676941,0.45499 0,0.22195 0.17201,0.34957 0.172009,0.12762 0.477188,0.12762 z"
         style="text-align:center;text-anchor:middle;fill:#441b4d;fill-opacity:1;stroke-width:0.13871743"
         id="path875" />
      <path
         d="m 69.776436,223.57123 q -0.360666,0 -0.693587,-0.0943 -0.332922,-0.0999 -0.521578,-0.24969 l 0.221948,-0.4217 q 0.194204,0.13871 0.471639,0.22194 0.277435,0.0832 0.560419,0.0832 0.699135,0 0.699135,-0.3995 0,-0.13317 -0.09433,-0.21085 -0.09433,-0.0777 -0.238593,-0.11098 -0.138718,-0.0388 -0.399507,-0.0832 -0.355116,-0.0555 -0.582613,-0.12762 -0.221948,-0.0721 -0.38286,-0.24414 -0.160912,-0.17201 -0.160912,-0.48274 0,-0.3995 0.332922,-0.6381 0.332921,-0.24414 0.89334,-0.24414 0.294081,0 0.588162,0.0721 0.294081,0.0721 0.482736,0.19421 l -0.227496,0.4217 q -0.360665,-0.23305 -0.848951,-0.23305 -0.33847,0 -0.516029,0.11098 -0.177558,0.11097 -0.177558,0.29408 0,0.14426 0.09988,0.2275 0.09988,0.0832 0.244142,0.12207 0.149815,0.0388 0.416153,0.0888 0.355116,0.061 0.571515,0.13316 0.221948,0.0666 0.377312,0.23305 0.155363,0.16646 0.155363,0.46609 0,0.39951 -0.344019,0.6381 -0.33847,0.23305 -0.926632,0.23305 z"
         style="text-align:center;text-anchor:middle;fill:#441b4d;fill-opacity:1;stroke-width:0.13871743"
         id="path877" />
      <path
         d="m 72.855959,222.16741 -0.610357,0.56596 v 0.80456 h -0.532674 v -4.11713 h 0.532674 v 2.64118 l 1.603574,-1.46486 h 0.643649 l -1.23736,1.21517 1.359431,1.72564 H 73.96015 Z"
         style="text-align:center;text-anchor:middle;fill:#441b4d;fill-opacity:1;stroke-width:0.13871743"
         id="path879" />
    </g>
    <text
       xml:space="preserve"
       style="font-style:normal;font-variant:normal;font-weight:normal;font-stretch:normal;font-size:6.24012136px;line-height:1.25;font-family:Montserrat;-inkscape-font-specification:Montserrat;text-align:center;letter-spacing:0px;word-spacing:0px;text-anchor:middle;fill:#d7abe0;fill-opacity:1;stroke:none;stroke-width:0.15600304"
       x="64.072716"
       y="230.87491"
       id="text2448-3-8-6"
       transform="scale(0.98413002,1.0161259)"><tspan
         sodipodi:role="line"
         x="64.072716"
         y="236.61017"
         style="text-align:center;text-anchor:middle;fill:#d7abe0;fill-opacity:1;stroke-width:0.15600304"
         id="tspan2450-8-89-3" /></text>
    <g
       aria-label="again"
       transform="scale(0.98413002,1.0161259)"
       style="font-style:normal;font-variant:normal;font-weight:normal;font-stretch:normal;font-size:5.54869699px;line-height:1.25;font-family:Montserrat;-inkscape-font-specification:Montserrat;text-align:center;letter-spacing:0px;word-spacing:0px;text-anchor:middle;fill:#d7abe0;fill-opacity:1;stroke:none;stroke-width:0.13871743"
       id="text2448-3-8-9">
      <path
         d="m 57.882303,226.02147 q 0.610357,0 0.932181,0.29963 0.327374,0.29963 0.327374,0.89334 v 1.77558 h -0.504932 v -0.38841 q -0.133169,0.2053 -0.38286,0.31628 -0.244143,0.10542 -0.582613,0.10542 -0.493834,0 -0.793464,-0.23859 -0.294081,-0.2386 -0.294081,-0.627 0,-0.38841 0.282984,-0.62146 0.282983,-0.23859 0.898889,-0.23859 h 0.843402 v -0.10543 q 0,-0.34402 -0.199753,-0.52712 -0.199754,-0.18311 -0.588162,-0.18311 -0.260789,0 -0.510481,0.0888 -0.249691,0.0832 -0.4217,0.2275 l -0.221948,-0.39951 q 0.227496,-0.18311 0.543772,-0.27744 0.316276,-0.0999 0.671392,-0.0999 z m -0.122071,2.59124 q 0.305178,0 0.527126,-0.13317 0.221948,-0.13872 0.321825,-0.38841 v -0.4106 h -0.821208 q -0.676941,0 -0.676941,0.45499 0,0.22195 0.17201,0.34957 0.17201,0.12762 0.477188,0.12762 z"
         style="text-align:center;text-anchor:middle;fill:#d7abe0;fill-opacity:1;stroke-width:0.13871743"
         id="path858" />
      <path
         d="m 62.95935,226.04921 v 2.5413 q 0,0.77127 -0.382861,1.13749 -0.38286,0.37176 -1.143031,0.37176 -0.416152,0 -0.793464,-0.11652 -0.377311,-0.11098 -0.610356,-0.32183 l 0.25524,-0.4106 q 0.205301,0.17756 0.504931,0.27743 0.305178,0.10543 0.627003,0.10543 0.516029,0 0.760171,-0.24414 0.249692,-0.24415 0.249692,-0.74353 v -0.23304 q -0.188656,0.22749 -0.466091,0.34402 -0.271886,0.11097 -0.59371,0.11097 -0.421701,0 -0.765721,-0.17756 -0.33847,-0.18311 -0.532675,-0.50493 -0.194204,-0.32737 -0.194204,-0.74353 0,-0.41615 0.194204,-0.73797 0.194205,-0.32738 0.532675,-0.50493 0.34402,-0.17756 0.765721,-0.17756 0.332921,0 0.615905,0.12207 0.288532,0.12207 0.471639,0.36066 v -0.45499 z m -1.531441,2.35265 q 0.288532,0 0.516029,-0.12207 0.233045,-0.12207 0.360665,-0.33847 0.133169,-0.22195 0.133169,-0.49939 0,-0.42725 -0.282983,-0.68803 -0.282984,-0.26634 -0.72688,-0.26634 -0.449444,0 -0.732428,0.26634 -0.282983,0.26078 -0.282983,0.68803 0,0.27744 0.12762,0.49939 0.133168,0.2164 0.360665,0.33847 0.233045,0.12207 0.527126,0.12207 z"
         style="text-align:center;text-anchor:middle;fill:#d7abe0;fill-opacity:1;stroke-width:0.13871743"
         id="path860" />
      <path
         d="m 65.045652,226.02147 q 0.610357,0 0.932181,0.29963 0.327373,0.29963 0.327373,0.89334 v 1.77558 h -0.504931 v -0.38841 q -0.133169,0.2053 -0.38286,0.31628 -0.244143,0.10542 -0.582614,0.10542 -0.493834,0 -0.793463,-0.23859 -0.294081,-0.2386 -0.294081,-0.627 0,-0.38841 0.282983,-0.62146 0.282984,-0.23859 0.898889,-0.23859 h 0.843402 v -0.10543 q 0,-0.34402 -0.199753,-0.52712 -0.199753,-0.18311 -0.588162,-0.18311 -0.260788,0 -0.51048,0.0888 -0.249691,0.0832 -0.421701,0.2275 l -0.221948,-0.39951 q 0.227497,-0.18311 0.543773,-0.27744 0.316275,-0.0999 0.671392,-0.0999 z m -0.122071,2.59124 q 0.305178,0 0.527126,-0.13317 0.221948,-0.13872 0.321824,-0.38841 v -0.4106 h -0.821207 q -0.676941,0 -0.676941,0.45499 0,0.22195 0.17201,0.34957 0.172009,0.12762 0.477188,0.12762 z"
         style="text-align:center;text-anchor:middle;fill:#d7abe0;fill-opacity:1;stroke-width:0.13871743"
         id="path862" />
      <path
         d="m 67.292872,226.04921 h 0.532675 v 2.94081 h -0.532675 z m 0.266337,-0.56597 q -0.155363,0 -0.260788,-0.0999 -0.09988,-0.0999 -0.09988,-0.24414 0,-0.14427 0.09988,-0.24415 0.105425,-0.10542 0.260788,-0.10542 0.155364,0 0.255241,0.0999 0.105425,0.0943 0.105425,0.2386 0,0.14981 -0.105425,0.25524 -0.09988,0.0999 -0.255241,0.0999 z"
         style="text-align:center;text-anchor:middle;fill:#d7abe0;fill-opacity:1;stroke-width:0.13871743"
         id="path864" />
      <path
         d="m 70.411236,226.02147 q 0.560418,0 0.887791,0.32737 0.332922,0.32183 0.332922,0.94883 v 1.69235 h -0.532675 v -1.63132 q 0,-0.42725 -0.205302,-0.64365 -0.205302,-0.21639 -0.588162,-0.21639 -0.432798,0 -0.682489,0.25524 -0.249692,0.24969 -0.249692,0.72133 v 1.51479 h -0.532675 v -2.94081 h 0.51048 v 0.4439 q 0.160913,-0.2275 0.432799,-0.34957 0.277435,-0.12207 0.627003,-0.12207 z"
         style="text-align:center;text-anchor:middle;fill:#d7abe0;fill-opacity:1;stroke-width:0.13871743"
         id="path866" />
    </g>
    <g
       aria-label="again"
       transform="scale(0.98413002,1.0161259)"
       style="font-style:normal;font-variant:normal;font-weight:normal;font-stretch:normal;font-size:5.54869699px;line-height:1.25;font-family:Montserrat;-inkscape-font-specification:Montserrat;text-align:center;letter-spacing:0px;word-spacing:0px;text-anchor:middle;fill:#441b4d;fill-opacity:1;stroke:none;stroke-width:0.13871743"
       id="text2448-3-8">
      <path
         d="m 57.344603,226.02147 q 0.610356,0 0.932181,0.29963 0.327373,0.29963 0.327373,0.89334 v 1.77558 h -0.504932 v -0.38841 q -0.133168,0.2053 -0.38286,0.31628 -0.244142,0.10542 -0.582613,0.10542 -0.493834,0 -0.793464,-0.23859 -0.29408,-0.2386 -0.29408,-0.627 0,-0.38841 0.282983,-0.62146 0.282984,-0.23859 0.898889,-0.23859 h 0.843402 v -0.10543 q 0,-0.34402 -0.199753,-0.52712 -0.199753,-0.18311 -0.588162,-0.18311 -0.260789,0 -0.51048,0.0888 -0.249692,0.0832 -0.421701,0.2275 l -0.221948,-0.39951 q 0.227497,-0.18311 0.543772,-0.27744 0.316276,-0.0999 0.671393,-0.0999 z m -0.122072,2.59124 q 0.305179,0 0.527127,-0.13317 0.221947,-0.13872 0.321824,-0.38841 v -0.4106 h -0.821207 q -0.676941,0 -0.676941,0.45499 0,0.22195 0.172009,0.34957 0.17201,0.12762 0.477188,0.12762 z"
         style="text-align:center;text-anchor:middle;fill:#441b4d;fill-opacity:1;stroke-width:0.13871743"
         id="path847" />
      <path
         d="m 62.421649,226.04921 v 2.5413 q 0,0.77127 -0.38286,1.13749 -0.38286,0.37176 -1.143032,0.37176 -0.416152,0 -0.793463,-0.11652 -0.377312,-0.11098 -0.610357,-0.32183 l 0.25524,-0.4106 q 0.205302,0.17756 0.504931,0.27743 0.305179,0.10543 0.627003,0.10543 0.516029,0 0.760172,-0.24414 0.249691,-0.24415 0.249691,-0.74353 v -0.23304 q -0.188656,0.22749 -0.466091,0.34402 -0.271886,0.11097 -0.59371,0.11097 -0.421701,0 -0.76572,-0.17756 -0.338471,-0.18311 -0.532675,-0.50493 -0.194205,-0.32737 -0.194205,-0.74353 0,-0.41615 0.194205,-0.73797 0.194204,-0.32738 0.532675,-0.50493 0.344019,-0.17756 0.76572,-0.17756 0.332922,0 0.615905,0.12207 0.288532,0.12207 0.471639,0.36066 v -0.45499 z m -1.53144,2.35265 q 0.288532,0 0.516028,-0.12207 0.233046,-0.12207 0.360666,-0.33847 0.133168,-0.22195 0.133168,-0.49939 0,-0.42725 -0.282983,-0.68803 -0.282984,-0.26634 -0.726879,-0.26634 -0.449445,0 -0.732428,0.26634 -0.282984,0.26078 -0.282984,0.68803 0,0.27744 0.12762,0.49939 0.133169,0.2164 0.360665,0.33847 0.233046,0.12207 0.527127,0.12207 z"
         style="text-align:center;text-anchor:middle;fill:#441b4d;fill-opacity:1;stroke-width:0.13871743"
         id="path849" />
      <path
         d="m 64.507951,226.02147 q 0.610357,0 0.932181,0.29963 0.327374,0.29963 0.327374,0.89334 v 1.77558 h -0.504932 v -0.38841 q -0.133169,0.2053 -0.38286,0.31628 -0.244143,0.10542 -0.582613,0.10542 -0.493834,0 -0.793464,-0.23859 -0.294081,-0.2386 -0.294081,-0.627 0,-0.38841 0.282984,-0.62146 0.282983,-0.23859 0.898889,-0.23859 h 0.843402 v -0.10543 q 0,-0.34402 -0.199753,-0.52712 -0.199754,-0.18311 -0.588162,-0.18311 -0.260789,0 -0.51048,0.0888 -0.249692,0.0832 -0.421701,0.2275 l -0.221948,-0.39951 q 0.227496,-0.18311 0.543772,-0.27744 0.316276,-0.0999 0.671392,-0.0999 z m -0.122071,2.59124 q 0.305178,0 0.527126,-0.13317 0.221948,-0.13872 0.321825,-0.38841 v -0.4106 h -0.821208 q -0.676941,0 -0.676941,0.45499 0,0.22195 0.17201,0.34957 0.17201,0.12762 0.477188,0.12762 z"
         style="text-align:center;text-anchor:middle;fill:#441b4d;fill-opacity:1;stroke-width:0.13871743"
         id="path851" />
      <path
         d="m 66.755171,226.04921 h 0.532675 v 2.94081 h -0.532675 z m 0.266338,-0.56597 q -0.155364,0 -0.260789,-0.0999 -0.09988,-0.0999 -0.09988,-0.24414 0,-0.14427 0.09988,-0.24415 0.105425,-0.10542 0.260789,-0.10542 0.155363,0 0.25524,0.0999 0.105425,0.0943 0.105425,0.2386 0,0.14981 -0.105425,0.25524 -0.09988,0.0999 -0.25524,0.0999 z"
         style="text-align:center;text-anchor:middle;fill:#441b4d;fill-opacity:1;stroke-width:0.13871743"
         id="path853" />
      <path
         d="m 69.873535,226.02147 q 0.560418,0 0.887791,0.32737 0.332922,0.32183 0.332922,0.94883 v 1.69235 h -0.532675 v -1.63132 q 0,-0.42725 -0.205301,-0.64365 -0.205302,-0.21639 -0.588162,-0.21639 -0.432799,0 -0.68249,0.25524 -0.249691,0.24969 -0.249691,0.72133 v 1.51479 h -0.532675 v -2.94081 h 0.51048 v 0.4439 q 0.160912,-0.2275 0.432798,-0.34957 0.277435,-0.12207 0.627003,-0.12207 z"
         style="text-align:center;text-anchor:middle;fill:#441b4d;fill-opacity:1;stroke-width:0.13871743"
         id="path855" />
    </g>
  </g>
</svg>
