<?xml version="1.0" encoding="UTF-8" standalone="no"?>
<!-- Created with Inkscape (http://www.inkscape.org/) -->

<svg
   xmlns:dc="http://purl.org/dc/elements/1.1/"
   xmlns:cc="http://creativecommons.org/ns#"
   xmlns:rdf="http://www.w3.org/1999/02/22-rdf-syntax-ns#"
   xmlns:svg="http://www.w3.org/2000/svg"
   xmlns="http://www.w3.org/2000/svg"
   xmlns:sodipodi="http://sodipodi.sourceforge.net/DTD/sodipodi-0.dtd"
   xmlns:inkscape="http://www.inkscape.org/namespaces/inkscape"
   width="500"
   height="500"
   viewBox="0 0 132.29166 132.29167"
   version="1.1"
   id="svg885"
   inkscape:version="0.92.5 (2060ec1f9f, 2020-04-08)"
   sodipodi:docname="back10.svg">
  <defs
     id="defs879" />
  <sodipodi:namedview
     id="base"
     pagecolor="#ffffff"
     bordercolor="#666666"
     borderopacity="1.0"
     inkscape:pageopacity="0.0"
     inkscape:pageshadow="2"
     inkscape:zoom="0.98994949"
     inkscape:cx="-31.29239"
     inkscape:cy="262.91279"
     inkscape:document-units="mm"
     inkscape:current-layer="layer1"
     showgrid="false"
     units="px"
     inkscape:window-width="1848"
     inkscape:window-height="1016"
     inkscape:window-x="72"
     inkscape:window-y="27"
     inkscape:window-maximized="1"
     inkscape:lockguides="true" />
  <metadata
     id="metadata882">
    <rdf:RDF>
      <cc:Work
         rdf:about="">
        <dc:format>image/svg+xml</dc:format>
        <dc:type
           rdf:resource="http://purl.org/dc/dcmitype/StillImage" />
        <dc:title />
      </cc:Work>
    </rdf:RDF>
  </metadata>
  <g
     inkscape:label="Layer 1"
     inkscape:groupmode="layer"
     id="layer1"
     transform="translate(0,-164.70832)">
    <ellipse
       style="opacity:0.26199999;vector-effect:none;fill:#754f75;fill-opacity:1;stroke:none;stroke-width:1.17161381;stroke-linecap:round;stroke-linejoin:round;stroke-miterlimit:4;stroke-dasharray:none;stroke-dashoffset:0;stroke-opacity:1"
       id="path1534"
       cx="85.47683"
       cy="282.5824"
       rx="42.783207"
       ry="9.6148434" />
    <ellipse
       style="opacity:0.26199999;vector-effect:none;fill:#754f75;fill-opacity:1;stroke:none;stroke-width:0.76952147;stroke-linecap:round;stroke-linejoin:round;stroke-miterlimit:4;stroke-dasharray:none;stroke-dashoffset:0;stroke-opacity:1"
       id="path1534-9"
       cx="71.481262"
       cy="282.92374"
       rx="28.100214"
       ry="6.3150744" />
    <circle
       style="opacity:1;vector-effect:none;fill:#9957af;fill-opacity:1;stroke:none;stroke-width:1.14031112;stroke-linecap:round;stroke-linejoin:round;stroke-miterlimit:4;stroke-dasharray:none;stroke-dashoffset:0;stroke-opacity:1"
       id="path1449"
       cx="62.440365"
       cy="229.14644"
       r="58.030418" />
    <circle
       style="opacity:1;vector-effect:none;fill:#82326f;fill-opacity:1;stroke:none;stroke-width:1.11348021;stroke-linecap:round;stroke-linejoin:round;stroke-miterlimit:4;stroke-dasharray:none;stroke-dashoffset:0;stroke-opacity:1"
       id="path1449-3"
       cx="62.440365"
       cy="229.14644"
       r="56.665001" />
    <ellipse
       style="opacity:1;vector-effect:none;fill:#613e6d;fill-opacity:1;stroke:none;stroke-width:0.73709202;stroke-linecap:round;stroke-linejoin:round;stroke-miterlimit:4;stroke-dasharray:none;stroke-dashoffset:0;stroke-opacity:1"
       id="path1449-3-3"
       cx="62.440365"
       cy="229.14644"
       rx="37.386955"
       ry="37.634663" />
    <ellipse
       style="opacity:1;vector-effect:none;fill:#000000;fill-opacity:1;stroke:none;stroke-width:0.68278807;stroke-linecap:round;stroke-linejoin:round;stroke-miterlimit:4;stroke-dasharray:none;stroke-dashoffset:0;stroke-opacity:1"
       id="path1449-3-3-0"
       cx="62.440365"
       cy="229.14644"
       rx="34.632538"
       ry="34.861996" />
    <path
       style="fill:#c12688;fill-opacity:1;stroke:none;stroke-width:0.45056611px;stroke-linecap:butt;stroke-linejoin:miter;stroke-opacity:1"
       d="m 12.488691,207.29972 c 0,0 4.63182,-14.18778 20.139969,-23.89489 15.916805,-9.96289 28.901421,-9.44417 28.901421,-9.44417 0,0 -17.19509,5.47451 -27.763568,12.2888 -12.174689,7.84993 -21.277822,21.05026 -21.277822,21.05026 z"
       id="path1496"
       inkscape:connector-curvature="0"
       sodipodi:nodetypes="cscsc" />
    <path
       style="fill:#c12688;fill-opacity:1;stroke:none;stroke-width:0.45056611px;stroke-linecap:butt;stroke-linejoin:miter;stroke-opacity:1"
       d="m 67.352956,283.81496 c 0,0 17.255122,-2.81772 32.22176,-16.62391 14.524494,-13.39832 17.526094,-33.44637 17.526094,-33.44637 0,0 -1.76699,20.12708 -14.40203,32.98788 -12.992154,15.8522 -35.345824,17.0824 -35.345824,17.0824 z"
       id="path1502"
       inkscape:connector-curvature="0"
       sodipodi:nodetypes="csccc" />
    <path
       style="fill:#441b4d;fill-opacity:1;stroke:none;stroke-width:0.45056611px;stroke-linecap:butt;stroke-linejoin:miter;stroke-opacity:1"
       d="m 8.2786413,226.30183 c 0,0 -3.8706954,17.27867 12.9715057,38.11802 15.585378,19.28423 42.555639,20.36753 42.555639,20.36753 0,0 -26.120163,-7.65598 -38.800732,-23.78109 C 11.394135,243.69812 8.2786413,226.30183 8.2786413,226.30183 Z"
       id="path1498"
       inkscape:connector-curvature="0"
       sodipodi:nodetypes="cscsc" />
    <path
       style="fill:#441b4d;fill-opacity:1;stroke:none;stroke-width:0.45056611px;stroke-linecap:butt;stroke-linejoin:miter;stroke-opacity:1"
       d="m 73.116067,267.96472 c 0,0 11.784257,-3.57061 18.997624,-12.45183 7.849509,-9.66445 9.275819,-19.11899 9.275819,-19.11899 0,0 0.14172,12.08179 -5.761552,19.93446 -9.438692,12.55555 -22.511891,11.63636 -22.511891,11.63636 z"
       id="path1500"
       inkscape:connector-curvature="0"
       sodipodi:nodetypes="cscsc" />
    <path
       style="fill:#c12688;fill-opacity:1;stroke:none;stroke-width:0.45056611px;stroke-linecap:butt;stroke-linejoin:miter;stroke-opacity:1"
       d="m 23.779191,215.00115 c 0,0 5.493113,-13.36137 14.646353,-19.4062 11.50994,-7.6012 25.578374,-7.27865 25.578374,-7.27865 0,0 -17.670875,-3.82775 -29.698611,7.64808 C 22.85,206.89404 23.779191,215.00115 23.779191,215.00115 Z"
       id="path1504"
       inkscape:connector-curvature="0"
       sodipodi:nodetypes="cscsc" />
    <path
       style="opacity:0.497;fill:#c8afcd;fill-opacity:1;stroke:none;stroke-width:0.45056611px;stroke-linecap:butt;stroke-linejoin:miter;stroke-opacity:1"
       d="m 42.197929,195.81003 c 0,0 -0.911998,-3.11088 -0.667794,-7.16951 0.33609,-5.58578 5.799581,-15.02436 5.799581,-15.02436 0,0 -4.37482,1.25605 -9.143445,3.35116 -3.291257,1.44602 -7.102216,4.00624 -7.102216,4.00624 0,0 -1.464498,6.18081 0.309093,11.15227 2.649144,7.42568 5.971412,7.412 5.971412,7.412 0,0 1.370906,-1.24739 2.294992,-1.8171 0.751826,-0.46349 2.538377,-1.9107 2.538377,-1.9107 z"
       id="path1506"
       inkscape:connector-curvature="0"
       sodipodi:nodetypes="cscscscsc" />
    <path
       style="opacity:0.497;fill:#c8afcd;fill-opacity:1;stroke:none;stroke-width:0.45056611px;stroke-linecap:butt;stroke-linejoin:miter;stroke-opacity:1"
       d="m 50.891173,176.17949 c 0,0 -3.658319,4.35542 -3.822427,7.79051 -0.397974,8.33035 1.842794,8.73349 1.842794,8.73349 0,0 -0.387944,-5.34475 0.359263,-8.4066 0.850987,-3.4871 5.204601,-9.02768 5.204601,-9.02768 0,0 -1.434702,0.21092 -2.133471,0.39825 -0.495332,0.13283 -1.45076,0.51203 -1.45076,0.51203 z"
       id="path1516"
       inkscape:connector-curvature="0"
       sodipodi:nodetypes="cscscsc" />
    <path
       style="fill:#fefcff;fill-opacity:1;stroke:none;stroke-width:0.45056611px;stroke-linecap:butt;stroke-linejoin:miter;stroke-opacity:1"
       d="m 33.538939,183.34795 c 0,0 -0.502859,5.0238 0.170679,7.39603 0.696468,2.453 3.868696,6.59953 3.868696,6.59953 0,0 -1.764731,-4.77663 -2.048134,-7.28225 -0.305152,-2.69793 0.398247,-8.13563 0.398247,-8.13563 0,0 -1.091522,0.47873 -1.592992,0.79649 -0.285209,0.18073 -0.796496,0.62583 -0.796496,0.62583 z"
       id="path1520"
       inkscape:connector-curvature="0"
       sodipodi:nodetypes="cscscsc" />
    <path
       style="opacity:0.63999999;fill:#5a224c;fill-opacity:1;stroke:none;stroke-width:0.45056611px;stroke-linecap:butt;stroke-linejoin:miter;stroke-opacity:1"
       d="m 89.726638,259.71673 c 0,0 2.682741,1.85039 4.487731,5.62484 1.382366,2.89069 2.190857,8.46556 2.190857,8.46556 0,0 -4.06807,3.08156 -6.315075,4.26694 -2.417053,1.27505 -7.225356,3.58422 -7.225356,3.58422 0,0 2.520062,-6.5867 2.929475,-10.87054 0.378096,-3.95617 -0.01537,-7.59158 -0.01537,-7.59158 0,0 1.622249,-1.28757 2.361648,-1.83813 0.610225,-0.45439 1.586087,-1.64131 1.586087,-1.64131 z"
       id="path1522"
       inkscape:connector-curvature="0"
       sodipodi:nodetypes="cscscscscc" />
    <path
       style="fill:#754f75;fill-opacity:1;stroke:none;stroke-width:0.45056611px;stroke-linecap:butt;stroke-linejoin:miter;stroke-opacity:1"
       d="m 13.309686,228.67581 c 0,0 2.045867,3.10432 4.539264,4.64325 2.073254,1.27962 5.217524,2.4962 5.217524,2.4962 0,0 2.540774,13.61731 13.430992,23.57426 9.562964,8.74343 26.383782,10.14148 26.383782,10.14148 0,0 -0.678616,0.97006 -0.746067,3.92271 -0.06342,2.77637 2.024111,6.39355 2.024111,6.39355 0,0 -21.211989,-4.85956 -34.275209,-17.70082 C 15.351548,247.86082 13.309686,228.67581 13.309686,228.67581 Z"
       id="path1530"
       inkscape:connector-curvature="0"
       sodipodi:nodetypes="cscscscsc" />
    <path
       style="fill:#754f75;fill-opacity:1;stroke:none;stroke-width:0.45056611px;stroke-linecap:butt;stroke-linejoin:miter;stroke-opacity:1"
       d="m 73.534163,190.94683 c 0,0 11.252812,2.76648 21.312141,15.41951 6.685546,8.40935 6.872166,19.26746 6.872166,19.26746 0,0 4.45556,-0.77274 7.42271,-0.77274 3.46168,0 5.22405,2.20559 5.22405,2.20559 0,0 -0.26503,-18.96655 -14.16065,-34.27522 -13.086311,-14.41705 -32.183293,-14.48248 -32.183293,-14.48248 0,0 3.489668,3.49909 4.214274,5.99127 0.812703,2.79519 1.298602,6.64661 1.298602,6.64661 z"
       id="path1532"
       inkscape:connector-curvature="0"
       sodipodi:nodetypes="cscscscsc" />
    <path
       style="fill:#1c1353;fill-opacity:1;stroke:none;stroke-width:0.26458332px;stroke-linecap:butt;stroke-linejoin:miter;stroke-opacity:1"
       d="m 35.613663,247.28786 c 0,0 10.921188,-16.61824 36.682742,-13.76439 13.043829,1.44499 19.310224,10.35669 19.310224,10.35669 0,0 -9.153873,17.22781 -26.860587,17.97388 -20.43704,0.86111 -29.132379,-14.56618 -29.132379,-14.56618 z"
       id="path2442"
       inkscape:connector-curvature="0"
       sodipodi:nodetypes="cscsc" />
    <path
       style="fill:#b676c3;fill-opacity:1;stroke:none;stroke-width:0.26458332px;stroke-linecap:butt;stroke-linejoin:miter;stroke-opacity:1"
       d="m 62.181004,257.51069 h 2.765491 l 24.985615,-41.97453 -0.459603,-3.19387 -27.599613,42.7632 z"
       id="path2444"
       inkscape:connector-curvature="0"
       sodipodi:nodetypes="cccccc" />
    <path
       style="fill:#d7abe0;fill-opacity:1;stroke:none;stroke-width:0.65895617px;stroke-linecap:butt;stroke-linejoin:miter;stroke-opacity:1"
       d="m 62.181005,257.51069 -26.07796,-45.1684 h 53.369462 z"
       id="path2347"
       inkscape:connector-curvature="0" />
    <path
       style="fill:#ece7ed;fill-opacity:1;stroke:none;stroke-width:0.52110004px;stroke-linecap:butt;stroke-linejoin:miter;stroke-opacity:1"
       d="M 62.307943,252.78599 40.098093,214.42116 H 85.477456 Z"
       id="path2347-4"
       inkscape:connector-curvature="0"
       sodipodi:nodetypes="cccc" />
    <g
       aria-label="Signs point"
       transform="scale(0.98413002,1.0161259)"
       style="font-style:normal;font-variant:normal;font-weight:normal;font-stretch:normal;font-size:5.53811359px;line-height:1.25;font-family:Montserrat;-inkscape-font-specification:Montserrat;text-align:center;letter-spacing:0px;word-spacing:0px;text-anchor:middle;fill:#d7abe0;fill-opacity:1;stroke:none;stroke-width:0.13845287"
       id="text2448-8">
      <path
         d="m 49.9174,220.80703 q -0.437511,0 -0.847331,-0.13291 -0.404283,-0.13846 -0.636883,-0.35444 l 0.20491,-0.43198 q 0.221524,0.19938 0.564887,0.32675 0.348901,0.12184 0.714417,0.12184 0.481816,0 0.719955,-0.1606 0.238139,-0.16615 0.238139,-0.43752 0,-0.19937 -0.132915,-0.32121 -0.127377,-0.12737 -0.321211,-0.19383 -0.188296,-0.0665 -0.537197,-0.14953 -0.437511,-0.10522 -0.708878,-0.21045 -0.26583,-0.10522 -0.459664,-0.32121 -0.188296,-0.22152 -0.188296,-0.59258 0,-0.31013 0.160606,-0.55935 0.166143,-0.24921 0.49843,-0.39874 0.332287,-0.14953 0.825179,-0.14953 0.343363,0 0.67565,0.0886 0.332287,0.0886 0.570425,0.25475 l -0.182757,0.44305 q -0.243677,-0.15506 -0.520583,-0.2326 -0.276906,-0.0831 -0.542735,-0.0831 -0.47074,0 -0.708879,0.17168 -0.2326,0.17168 -0.2326,0.44305 0,0.19937 0.132914,0.32675 0.132915,0.12184 0.326749,0.19383 0.199372,0.0665 0.537197,0.144 0.437511,0.10522 0.70334,0.21044 0.26583,0.10523 0.454126,0.32121 0.193834,0.21599 0.193834,0.58151 0,0.30459 -0.166144,0.55935 -0.166143,0.24921 -0.503968,0.39874 -0.337825,0.14399 -0.830717,0.14399 z"
         style="text-align:center;text-anchor:middle;fill:#d7abe0;fill-opacity:1;stroke-width:0.13845287"
         id="path884" />
      <path
         d="m 52.149251,217.82753 h 0.531659 v 2.9352 h -0.531659 z m 0.265829,-0.56489 q -0.155067,0 -0.260291,-0.0997 -0.09969,-0.0997 -0.09969,-0.24368 0,-0.14399 0.09969,-0.24367 0.105224,-0.10523 0.260291,-0.10523 0.155067,0 0.254754,0.0997 0.105224,0.0941 0.105224,0.23814 0,0.14953 -0.105224,0.25475 -0.09969,0.0997 -0.254754,0.0997 z"
         style="text-align:center;text-anchor:middle;fill:#d7abe0;fill-opacity:1;stroke-width:0.13845287"
         id="path886" />
      <path
         d="m 56.502204,217.82753 v 2.53645 q 0,0.7698 -0.382129,1.13531 -0.38213,0.37106 -1.140852,0.37106 -0.415358,0 -0.79195,-0.1163 -0.376592,-0.11076 -0.609193,-0.32121 l 0.254754,-0.40982 q 0.20491,0.17722 0.503968,0.2769 0.304596,0.10523 0.625807,0.10523 0.515044,0 0.758721,-0.24368 0.249216,-0.24368 0.249216,-0.74211 v -0.2326 q -0.188296,0.22706 -0.465202,0.34337 -0.271368,0.11076 -0.592578,0.11076 -0.420897,0 -0.76426,-0.17722 -0.337825,-0.18276 -0.531659,-0.50397 -0.193834,-0.32675 -0.193834,-0.74211 0,-0.41536 0.193834,-0.73657 0.193834,-0.32675 0.531659,-0.50397 0.343363,-0.17721 0.76426,-0.17721 0.332287,0 0.61473,0.12183 0.287982,0.12184 0.47074,0.35998 v -0.45412 z m -1.528519,2.34816 q 0.287982,0 0.515045,-0.12184 0.2326,-0.12184 0.359977,-0.33783 0.132915,-0.22152 0.132915,-0.49843 0,-0.42643 -0.282444,-0.68672 -0.282444,-0.26583 -0.725493,-0.26583 -0.448587,0 -0.731031,0.26583 -0.282444,0.26029 -0.282444,0.68672 0,0.27691 0.127377,0.49843 0.132915,0.21599 0.359977,0.33783 0.232601,0.12184 0.526121,0.12184 z"
         style="text-align:center;text-anchor:middle;fill:#d7abe0;fill-opacity:1;stroke-width:0.13845287"
         id="path888" />
      <path
         d="m 59.082957,217.79984 q 0.55935,0 0.886099,0.32674 0.332286,0.32121 0.332286,0.94702 v 1.68913 h -0.531658 v -1.62821 q 0,-0.42643 -0.204911,-0.64242 -0.20491,-0.21599 -0.58704,-0.21599 -0.431973,0 -0.681188,0.25476 -0.249215,0.24921 -0.249215,0.71995 v 1.51191 h -0.531659 v -2.9352 h 0.509507 v 0.44304 q 0.160605,-0.22706 0.431973,-0.3489 0.276905,-0.12183 0.625806,-0.12183 z"
         style="text-align:center;text-anchor:middle;fill:#d7abe0;fill-opacity:1;stroke-width:0.13845287"
         id="path890" />
      <path
         d="m 62.128918,220.79595 q -0.359977,0 -0.692264,-0.0941 -0.332287,-0.0997 -0.520582,-0.24922 l 0.221524,-0.4209 q 0.193834,0.13846 0.47074,0.22153 0.276905,0.0831 0.559349,0.0831 0.697803,0 0.697803,-0.39874 0,-0.13292 -0.09415,-0.21045 -0.09415,-0.0775 -0.238139,-0.11076 -0.138453,-0.0388 -0.398744,-0.0831 -0.35444,-0.0554 -0.581502,-0.12737 -0.221525,-0.072 -0.38213,-0.24368 -0.160605,-0.17168 -0.160605,-0.48181 0,-0.39875 0.332286,-0.63689 0.332287,-0.24367 0.891637,-0.24367 0.29352,0 0.58704,0.072 0.29352,0.072 0.481816,0.19383 l -0.227063,0.4209 q -0.359977,-0.2326 -0.847331,-0.2326 -0.337825,0 -0.515045,0.11076 -0.17722,0.11076 -0.17722,0.29352 0,0.14399 0.09969,0.22707 0.09969,0.0831 0.243677,0.12183 0.149529,0.0388 0.415359,0.0886 0.354439,0.0609 0.570426,0.13292 0.221524,0.0665 0.376591,0.2326 0.155067,0.16614 0.155067,0.4652 0,0.39874 -0.343363,0.63688 -0.337824,0.2326 -0.924865,0.2326 z"
         style="text-align:center;text-anchor:middle;fill:#d7abe0;fill-opacity:1;stroke-width:0.13845287"
         id="path892" />
      <path
         d="m 67.107675,217.79984 q 0.426434,0 0.764259,0.18829 0.337825,0.1883 0.526121,0.52612 0.193834,0.33783 0.193834,0.78088 0,0.44304 -0.193834,0.78641 -0.188296,0.33782 -0.526121,0.52612 -0.337825,0.18829 -0.764259,0.18829 -0.315673,0 -0.581502,-0.12183 -0.260292,-0.12184 -0.443049,-0.35444 v 1.51744 h -0.531659 v -4.00959 h 0.509506 v 0.4652 q 0.17722,-0.24368 0.448587,-0.36552 0.271368,-0.12737 0.598117,-0.12737 z m -0.0443,2.53091 q 0.282443,0 0.503968,-0.12737 0.227063,-0.13292 0.354439,-0.36552 0.132915,-0.23814 0.132915,-0.54273 0,-0.3046 -0.132915,-0.5372 -0.127376,-0.23814 -0.354439,-0.36552 -0.221525,-0.12737 -0.503968,-0.12737 -0.276906,0 -0.503969,0.13291 -0.221524,0.12738 -0.354439,0.35998 -0.127377,0.2326 -0.127377,0.5372 0,0.30459 0.127377,0.54273 0.127377,0.2326 0.354439,0.36552 0.227063,0.12737 0.503969,0.12737 z"
         style="text-align:center;text-anchor:middle;fill:#d7abe0;fill-opacity:1;stroke-width:0.13845287"
         id="path894" />
      <path
         d="m 70.585605,220.79595 q -0.437511,0 -0.786412,-0.19383 -0.348901,-0.19383 -0.548273,-0.53166 -0.193834,-0.34336 -0.193834,-0.77533 0,-0.43198 0.193834,-0.7698 0.199372,-0.34337 0.548273,-0.53166 0.348901,-0.19383 0.786412,-0.19383 0.437511,0 0.780874,0.19383 0.348902,0.18829 0.542736,0.53166 0.199372,0.33782 0.199372,0.7698 0,0.43197 -0.199372,0.77533 -0.193834,0.33783 -0.542736,0.53166 -0.343363,0.19383 -0.780874,0.19383 z m 0,-0.4652 q 0.282444,0 0.503969,-0.12737 0.227062,-0.13292 0.354439,-0.36552 0.127377,-0.23814 0.127377,-0.54273 0,-0.3046 -0.127377,-0.5372 -0.127377,-0.23814 -0.354439,-0.36552 -0.221525,-0.12737 -0.503969,-0.12737 -0.282443,0 -0.509506,0.12737 -0.221525,0.12738 -0.354439,0.36552 -0.127377,0.2326 -0.127377,0.5372 0,0.30459 0.127377,0.54273 0.132914,0.2326 0.354439,0.36552 0.227063,0.12737 0.509506,0.12737 z"
         style="text-align:center;text-anchor:middle;fill:#d7abe0;fill-opacity:1;stroke-width:0.13845287"
         id="path896" />
      <path
         d="m 72.845147,217.82753 h 0.531659 v 2.9352 h -0.531659 z m 0.265829,-0.56489 q -0.155067,0 -0.260291,-0.0997 -0.09969,-0.0997 -0.09969,-0.24368 0,-0.14399 0.09969,-0.24367 0.105224,-0.10523 0.260291,-0.10523 0.155067,0 0.254753,0.0997 0.105225,0.0941 0.105225,0.23814 0,0.14953 -0.105225,0.25475 -0.09969,0.0997 -0.254753,0.0997 z"
         style="text-align:center;text-anchor:middle;fill:#d7abe0;fill-opacity:1;stroke-width:0.13845287"
         id="path898" />
      <path
         d="m 75.957563,217.79984 q 0.559349,0 0.886098,0.32674 0.332287,0.32121 0.332287,0.94702 v 1.68913 h -0.531659 v -1.62821 q 0,-0.42643 -0.20491,-0.64242 -0.204911,-0.21599 -0.58704,-0.21599 -0.431973,0 -0.681188,0.25476 -0.249216,0.24921 -0.249216,0.71995 v 1.51191 h -0.531658 v -2.9352 h 0.509506 v 0.44304 q 0.160605,-0.22706 0.431973,-0.3489 0.276906,-0.12183 0.625807,-0.12183 z"
         style="text-align:center;text-anchor:middle;fill:#d7abe0;fill-opacity:1;stroke-width:0.13845287"
         id="path900" />
      <path
         d="m 79.812088,220.59104 q -0.1163,0.0997 -0.287982,0.15507 -0.171681,0.0498 -0.354439,0.0498 -0.443049,0 -0.686726,-0.23813 -0.243677,-0.23814 -0.243677,-0.68119 v -1.61159 h -0.49843 v -0.43751 h 0.49843 v -0.64243 h 0.531659 v 0.64243 h 0.841793 v 0.43751 h -0.841793 v 1.58944 q 0,0.23813 0.1163,0.36551 0.121839,0.12738 0.343363,0.12738 0.243677,0 0.415359,-0.13846 z"
         style="text-align:center;text-anchor:middle;fill:#d7abe0;fill-opacity:1;stroke-width:0.13845287"
         id="path902" />
    </g>
    <g
       aria-label="Signs point"
       transform="scale(0.98413002,1.0161259)"
       style="font-style:normal;font-variant:normal;font-weight:normal;font-stretch:normal;font-size:5.53811407px;line-height:1.25;font-family:Montserrat;-inkscape-font-specification:Montserrat;text-align:center;letter-spacing:0px;word-spacing:0px;text-anchor:middle;fill:#441b4d;fill-opacity:1;stroke:none;stroke-width:0.13845287"
       id="text2448">
      <path
         d="m 49.379698,220.80703 q -0.437511,0 -0.847331,-0.13291 -0.404283,-0.13846 -0.636883,-0.35444 l 0.20491,-0.43198 q 0.221524,0.19938 0.564887,0.32675 0.348902,0.12184 0.714417,0.12184 0.481816,0 0.719955,-0.1606 0.238139,-0.16615 0.238139,-0.43752 0,-0.19937 -0.132915,-0.32121 -0.127377,-0.12737 -0.321211,-0.19383 -0.188295,-0.0665 -0.537197,-0.14953 -0.437511,-0.10522 -0.708878,-0.21045 -0.26583,-0.10522 -0.459664,-0.32121 -0.188296,-0.22152 -0.188296,-0.59258 0,-0.31013 0.160606,-0.55935 0.166143,-0.24921 0.49843,-0.39874 0.332287,-0.14953 0.825179,-0.14953 0.343363,0 0.67565,0.0886 0.332287,0.0886 0.570426,0.25475 l -0.182758,0.44305 q -0.243677,-0.15506 -0.520583,-0.2326 -0.276905,-0.0831 -0.542735,-0.0831 -0.47074,0 -0.708879,0.17168 -0.2326,0.17168 -0.2326,0.44305 0,0.19937 0.132914,0.32675 0.132915,0.12184 0.326749,0.19383 0.199372,0.0665 0.537197,0.144 0.437511,0.10522 0.703341,0.21044 0.265829,0.10523 0.454125,0.32121 0.193834,0.21599 0.193834,0.58151 0,0.30459 -0.166143,0.55935 -0.166144,0.24921 -0.503969,0.39874 -0.337825,0.14399 -0.830717,0.14399 z"
         style="text-align:center;text-anchor:middle;fill:#441b4d;fill-opacity:1;stroke-width:0.13845287"
         id="path863" />
      <path
         d="m 51.611549,217.82753 h 0.531659 v 2.9352 h -0.531659 z m 0.26583,-0.56489 q -0.155068,0 -0.260292,-0.0997 -0.09969,-0.0997 -0.09969,-0.24368 0,-0.14399 0.09969,-0.24367 0.105224,-0.10523 0.260292,-0.10523 0.155067,0 0.254753,0.0997 0.105224,0.0941 0.105224,0.23814 0,0.14953 -0.105224,0.25475 -0.09969,0.0997 -0.254753,0.0997 z"
         style="text-align:center;text-anchor:middle;fill:#441b4d;fill-opacity:1;stroke-width:0.13845287"
         id="path865" />
      <path
         d="m 55.964503,217.82753 v 2.53645 q 0,0.7698 -0.38213,1.13532 -0.38213,0.37105 -1.140851,0.37105 -0.415359,0 -0.79195,-0.1163 -0.376592,-0.11076 -0.609193,-0.32121 l 0.254753,-0.40982 q 0.20491,0.17722 0.503969,0.2769 0.304596,0.10523 0.625806,0.10523 0.515045,0 0.758722,-0.24368 0.249215,-0.24368 0.249215,-0.74211 v -0.2326 q -0.188296,0.22706 -0.465201,0.34337 -0.271368,0.11076 -0.592579,0.11076 -0.420896,0 -0.764259,-0.17722 -0.337825,-0.18276 -0.531659,-0.50397 -0.193834,-0.32675 -0.193834,-0.74211 0,-0.41536 0.193834,-0.73657 0.193834,-0.32675 0.531659,-0.50397 0.343363,-0.17722 0.764259,-0.17722 0.332287,0 0.614731,0.12184 0.287982,0.12184 0.47074,0.35998 v -0.45412 z m -1.528519,2.34816 q 0.287982,0 0.515044,-0.12184 0.232601,-0.12184 0.359978,-0.33783 0.132914,-0.22152 0.132914,-0.49843 0,-0.42643 -0.282443,-0.68672 -0.282444,-0.26583 -0.725493,-0.26583 -0.448588,0 -0.731031,0.26583 -0.282444,0.26029 -0.282444,0.68672 0,0.27691 0.127376,0.49843 0.132915,0.21599 0.359978,0.33783 0.232601,0.12184 0.526121,0.12184 z"
         style="text-align:center;text-anchor:middle;fill:#441b4d;fill-opacity:1;stroke-width:0.13845287"
         id="path867" />
      <path
         d="m 58.545257,217.79983 q 0.559349,0 0.886098,0.32675 0.332287,0.32121 0.332287,0.94702 v 1.68913 h -0.531659 v -1.62821 q 0,-0.42643 -0.20491,-0.64242 -0.204911,-0.21599 -0.587041,-0.21599 -0.431972,0 -0.681188,0.25476 -0.249215,0.24921 -0.249215,0.71995 v 1.51191 H 56.97797 v -2.9352 h 0.509507 v 0.44304 q 0.160605,-0.22706 0.431973,-0.3489 0.276905,-0.12184 0.625807,-0.12184 z"
         style="text-align:center;text-anchor:middle;fill:#441b4d;fill-opacity:1;stroke-width:0.13845287"
         id="path869" />
      <path
         d="m 61.591218,220.79595 q -0.359977,0 -0.692264,-0.0941 -0.332287,-0.0997 -0.520583,-0.24922 l 0.221525,-0.4209 q 0.193834,0.13846 0.47074,0.22153 0.276905,0.0831 0.559349,0.0831 0.697803,0 0.697803,-0.39874 0,-0.13292 -0.09415,-0.21045 -0.09415,-0.0775 -0.238139,-0.11076 -0.138453,-0.0388 -0.398744,-0.0831 -0.35444,-0.0554 -0.581502,-0.12737 -0.221525,-0.072 -0.38213,-0.24368 -0.160606,-0.17168 -0.160606,-0.48182 0,-0.39874 0.332287,-0.63688 0.332287,-0.24368 0.891637,-0.24368 0.29352,0 0.58704,0.072 0.29352,0.072 0.481816,0.19383 l -0.227063,0.4209 q -0.359977,-0.2326 -0.847331,-0.2326 -0.337825,0 -0.515045,0.11076 -0.17722,0.11076 -0.17722,0.29352 0,0.14399 0.09969,0.22707 0.09969,0.0831 0.243677,0.12183 0.149529,0.0388 0.415359,0.0886 0.354439,0.0609 0.570426,0.13292 0.221524,0.0665 0.376591,0.2326 0.155068,0.16614 0.155068,0.4652 0,0.39874 -0.343363,0.63688 -0.337825,0.2326 -0.924866,0.2326 z"
         style="text-align:center;text-anchor:middle;fill:#441b4d;fill-opacity:1;stroke-width:0.13845287"
         id="path871" />
      <path
         d="m 66.569975,217.79983 q 0.426434,0 0.764259,0.1883 0.337825,0.1883 0.526121,0.52612 0.193834,0.33783 0.193834,0.78088 0,0.44304 -0.193834,0.78641 -0.188296,0.33782 -0.526121,0.52612 -0.337825,0.18829 -0.764259,0.18829 -0.315673,0 -0.581502,-0.12183 -0.260292,-0.12184 -0.443049,-0.35444 v 1.51744 h -0.531659 v -4.00959 h 0.509506 v 0.4652 q 0.17722,-0.24368 0.448587,-0.36552 0.271368,-0.12738 0.598117,-0.12738 z m -0.0443,2.53092 q 0.282444,0 0.503968,-0.12737 0.227063,-0.13292 0.354439,-0.36552 0.132915,-0.23814 0.132915,-0.54273 0,-0.3046 -0.132915,-0.5372 -0.127376,-0.23814 -0.354439,-0.36552 -0.221524,-0.12737 -0.503968,-0.12737 -0.276906,0 -0.503969,0.13291 -0.221524,0.12738 -0.354439,0.35998 -0.127377,0.2326 -0.127377,0.5372 0,0.30459 0.127377,0.54273 0.127377,0.2326 0.354439,0.36552 0.227063,0.12737 0.503969,0.12737 z"
         style="text-align:center;text-anchor:middle;fill:#441b4d;fill-opacity:1;stroke-width:0.13845287"
         id="path873" />
      <path
         d="m 70.047905,220.79595 q -0.437511,0 -0.786412,-0.19383 -0.348901,-0.19383 -0.548273,-0.53166 -0.193834,-0.34336 -0.193834,-0.77533 0,-0.43198 0.193834,-0.7698 0.199372,-0.34337 0.548273,-0.53166 0.348901,-0.19384 0.786412,-0.19384 0.437511,0 0.780875,0.19384 0.348901,0.18829 0.542735,0.53166 0.199372,0.33782 0.199372,0.7698 0,0.43197 -0.199372,0.77533 -0.193834,0.33783 -0.542735,0.53166 -0.343364,0.19383 -0.780875,0.19383 z m 0,-0.4652 q 0.282444,0 0.503969,-0.12737 0.227063,-0.13292 0.354439,-0.36552 0.127377,-0.23814 0.127377,-0.54273 0,-0.3046 -0.127377,-0.5372 -0.127376,-0.23814 -0.354439,-0.36552 -0.221525,-0.12737 -0.503969,-0.12737 -0.282443,0 -0.509506,0.12737 -0.221525,0.12738 -0.354439,0.36552 -0.127377,0.2326 -0.127377,0.5372 0,0.30459 0.127377,0.54273 0.132914,0.2326 0.354439,0.36552 0.227063,0.12737 0.509506,0.12737 z"
         style="text-align:center;text-anchor:middle;fill:#441b4d;fill-opacity:1;stroke-width:0.13845287"
         id="path875" />
      <path
         d="m 72.307447,217.82753 h 0.531659 v 2.9352 h -0.531659 z m 0.265829,-0.56489 q -0.155067,0 -0.260291,-0.0997 -0.09969,-0.0997 -0.09969,-0.24368 0,-0.14399 0.09969,-0.24367 0.105224,-0.10523 0.260291,-0.10523 0.155067,0 0.254753,0.0997 0.105225,0.0941 0.105225,0.23814 0,0.14953 -0.105225,0.25475 -0.09969,0.0997 -0.254753,0.0997 z"
         style="text-align:center;text-anchor:middle;fill:#441b4d;fill-opacity:1;stroke-width:0.13845287"
         id="path877" />
      <path
         d="m 75.419863,217.79983 q 0.559349,0 0.886098,0.32675 0.332287,0.32121 0.332287,0.94702 v 1.68913 h -0.531659 v -1.62821 q 0,-0.42643 -0.20491,-0.64242 -0.204911,-0.21599 -0.58704,-0.21599 -0.431973,0 -0.681188,0.25476 -0.249216,0.24921 -0.249216,0.71995 v 1.51191 h -0.531659 v -2.9352 h 0.509507 v 0.44304 q 0.160605,-0.22706 0.431973,-0.3489 0.276906,-0.12184 0.625807,-0.12184 z"
         style="text-align:center;text-anchor:middle;fill:#441b4d;fill-opacity:1;stroke-width:0.13845287"
         id="path879" />
      <path
         d="m 79.27439,220.59104 q -0.1163,0.0997 -0.287982,0.15507 -0.171681,0.0498 -0.354439,0.0498 -0.443049,0 -0.686726,-0.23813 -0.243677,-0.23814 -0.243677,-0.68119 v -1.61159 h -0.49843 v -0.43751 h 0.49843 v -0.64243 h 0.531659 v 0.64243 h 0.841793 v 0.43751 h -0.841793 v 1.58944 q 0,0.23813 0.1163,0.36551 0.121839,0.12738 0.343363,0.12738 0.243677,0 0.415359,-0.13846 z"
         style="text-align:center;text-anchor:middle;fill:#441b4d;fill-opacity:1;stroke-width:0.13845287"
         id="path881" />
    </g>
    <g
       aria-label="to yes"
       transform="scale(0.98413002,1.0161259)"
       style="font-style:normal;font-variant:normal;font-weight:normal;font-stretch:normal;font-size:5.53811359px;line-height:1.25;font-family:Montserrat;-inkscape-font-specification:Montserrat;text-align:center;letter-spacing:0px;word-spacing:0px;text-anchor:middle;fill:#d7abe0;fill-opacity:1;stroke:none;stroke-width:0.13845287"
       id="text2448-3-0">
      <path
         d="m 58.044581,226.02702 q -0.116301,0.0997 -0.287982,0.15507 -0.171682,0.0498 -0.35444,0.0498 -0.443049,0 -0.686726,-0.23814 -0.243677,-0.23814 -0.243677,-0.68119 v -1.61159 h -0.49843 v -0.43751 h 0.49843 v -0.64242 h 0.531659 v 0.64242 h 0.841794 v 0.43751 h -0.841794 v 1.58944 q 0,0.23814 0.116301,0.36551 0.121838,0.12738 0.343363,0.12738 0.243677,0 0.415358,-0.13845 z"
         style="text-align:center;text-anchor:middle;fill:#d7abe0;fill-opacity:1;stroke-width:0.13845287"
         id="path852" />
      <path
         d="m 59.844456,226.23193 q -0.437511,0 -0.786412,-0.19384 -0.348901,-0.19383 -0.548273,-0.53165 -0.193834,-0.34337 -0.193834,-0.77534 0,-0.43197 0.193834,-0.7698 0.199372,-0.34336 0.548273,-0.53166 0.348901,-0.19383 0.786412,-0.19383 0.437511,0 0.780874,0.19383 0.348902,0.1883 0.542736,0.53166 0.199372,0.33783 0.199372,0.7698 0,0.43197 -0.199372,0.77534 -0.193834,0.33782 -0.542736,0.53165 -0.343363,0.19384 -0.780874,0.19384 z m 0,-0.4652 q 0.282444,0 0.503969,-0.12738 0.227062,-0.13291 0.354439,-0.36552 0.127377,-0.23813 0.127377,-0.54273 0,-0.3046 -0.127377,-0.5372 -0.127377,-0.23814 -0.354439,-0.36551 -0.221525,-0.12738 -0.503969,-0.12738 -0.282443,0 -0.509506,0.12738 -0.221525,0.12737 -0.354439,0.36551 -0.127377,0.2326 -0.127377,0.5372 0,0.3046 0.127377,0.54273 0.132914,0.23261 0.354439,0.36552 0.227063,0.12738 0.509506,0.12738 z"
         style="text-align:center;text-anchor:middle;fill:#d7abe0;fill-opacity:1;stroke-width:0.13845287"
         id="path854" />
      <path
         d="m 66.19112,223.2635 -1.423295,3.22872 q -0.188296,0.44859 -0.443049,0.63134 -0.249215,0.18276 -0.603655,0.18276 -0.215986,0 -0.420896,-0.072 -0.199372,-0.0665 -0.332287,-0.19937 l 0.227063,-0.39875 q 0.227062,0.21599 0.52612,0.21599 0.193834,0 0.321211,-0.10523 0.132915,-0.0997 0.238139,-0.3489 l 0.09415,-0.20491 -1.295919,-2.92966 h 0.553812 l 1.024551,2.34816 1.013474,-2.34816 z"
         style="text-align:center;text-anchor:middle;fill:#d7abe0;fill-opacity:1;stroke-width:0.13845287"
         id="path856" />
      <path
         d="m 69.259217,224.74771 q 0,0.0609 -0.01108,0.16061 h -2.381389 q 0.04984,0.38767 0.337825,0.62581 0.29352,0.2326 0.725493,0.2326 0.526121,0 0.847332,-0.35444 l 0.29352,0.34336 q -0.199372,0.2326 -0.498431,0.35444 -0.29352,0.12184 -0.659035,0.12184 -0.465202,0 -0.825179,-0.1883 -0.359977,-0.19383 -0.55935,-0.53719 -0.193833,-0.34337 -0.193833,-0.77534 0,-0.42643 0.188295,-0.7698 0.193834,-0.34336 0.526121,-0.53166 0.337825,-0.19383 0.758722,-0.19383 0.420896,0 0.747645,0.19383 0.332287,0.1883 0.515045,0.53166 0.188295,0.34337 0.188295,0.78641 z m -1.450985,-1.06331 q -0.38213,0 -0.642421,0.2326 -0.254754,0.2326 -0.299059,0.60919 h 1.882959 q -0.04431,-0.37105 -0.304596,-0.60365 -0.254753,-0.23814 -0.636883,-0.23814 z"
         style="text-align:center;text-anchor:middle;fill:#d7abe0;fill-opacity:1;stroke-width:0.13845287"
         id="path858" />
      <path
         d="m 70.837577,226.23193 q -0.359978,0 -0.692265,-0.0942 -0.332286,-0.0997 -0.520582,-0.24921 l 0.221524,-0.4209 q 0.193834,0.13845 0.47074,0.22152 0.276906,0.0831 0.559349,0.0831 0.697803,0 0.697803,-0.39875 0,-0.13291 -0.09415,-0.21045 -0.09415,-0.0775 -0.238139,-0.11076 -0.138453,-0.0388 -0.398744,-0.0831 -0.35444,-0.0554 -0.581502,-0.12738 -0.221525,-0.072 -0.38213,-0.24367 -0.160605,-0.17169 -0.160605,-0.48182 0,-0.39874 0.332286,-0.63688 0.332287,-0.24368 0.891637,-0.24368 0.29352,0 0.58704,0.072 0.29352,0.072 0.481816,0.19384 l -0.227063,0.4209 q -0.359977,-0.23261 -0.847331,-0.23261 -0.337825,0 -0.515045,0.11077 -0.17722,0.11076 -0.17722,0.29352 0,0.14399 0.09969,0.22706 0.09969,0.0831 0.243677,0.12184 0.149529,0.0388 0.415358,0.0886 0.354439,0.0609 0.570426,0.13291 0.221524,0.0665 0.376591,0.2326 0.155068,0.16615 0.155068,0.4652 0,0.39875 -0.343363,0.63689 -0.337825,0.2326 -0.924865,0.2326 z"
         style="text-align:center;text-anchor:middle;fill:#d7abe0;fill-opacity:1;stroke-width:0.13845287"
         id="path860" />
    </g>
    <g
       aria-label="to yes"
       transform="scale(0.98413002,1.0161259)"
       style="font-style:normal;font-variant:normal;font-weight:normal;font-stretch:normal;font-size:5.53811407px;line-height:1.25;font-family:Montserrat;-inkscape-font-specification:Montserrat;text-align:center;letter-spacing:0px;word-spacing:0px;text-anchor:middle;fill:#441b4d;fill-opacity:1;stroke:none;stroke-width:0.13845287"
       id="text2448-3">
      <path
         d="m 57.506879,226.02702 q -0.1163,0.0997 -0.287981,0.15507 -0.171682,0.0498 -0.35444,0.0498 -0.443049,0 -0.686726,-0.23814 -0.243677,-0.23814 -0.243677,-0.68119 v -1.61159 h -0.49843 v -0.43751 h 0.49843 v -0.64242 h 0.531659 v 0.64242 h 0.841793 v 0.43751 h -0.841793 v 1.58944 q 0,0.23814 0.1163,0.36551 0.121839,0.12738 0.343363,0.12738 0.243677,0 0.415359,-0.13845 z"
         style="text-align:center;text-anchor:middle;fill:#441b4d;fill-opacity:1;stroke-width:0.13845287"
         id="path841" />
      <path
         d="m 59.306755,226.23193 q -0.437511,0 -0.786412,-0.19384 -0.348901,-0.19383 -0.548273,-0.53165 -0.193834,-0.34337 -0.193834,-0.77534 0,-0.43197 0.193834,-0.7698 0.199372,-0.34336 0.548273,-0.53166 0.348901,-0.19383 0.786412,-0.19383 0.437511,0 0.780875,0.19383 0.348901,0.1883 0.542735,0.53166 0.199372,0.33783 0.199372,0.7698 0,0.43197 -0.199372,0.77534 -0.193834,0.33782 -0.542735,0.53165 -0.343364,0.19384 -0.780875,0.19384 z m 0,-0.4652 q 0.282444,0 0.503969,-0.12738 0.227062,-0.13291 0.354439,-0.36552 0.127377,-0.23813 0.127377,-0.54273 0,-0.3046 -0.127377,-0.5372 -0.127377,-0.23814 -0.354439,-0.36551 -0.221525,-0.12738 -0.503969,-0.12738 -0.282443,0 -0.509506,0.12738 -0.221525,0.12737 -0.354439,0.36551 -0.127377,0.2326 -0.127377,0.5372 0,0.3046 0.127377,0.54273 0.132914,0.23261 0.354439,0.36552 0.227063,0.12738 0.509506,0.12738 z"
         style="text-align:center;text-anchor:middle;fill:#441b4d;fill-opacity:1;stroke-width:0.13845287"
         id="path843" />
      <path
         d="m 65.65342,223.2635 -1.423295,3.22872 q -0.188296,0.44859 -0.44305,0.63135 -0.249215,0.18275 -0.603654,0.18275 -0.215986,0 -0.420897,-0.072 -0.199372,-0.0665 -0.332286,-0.19937 l 0.227062,-0.39875 q 0.227063,0.21599 0.526121,0.21599 0.193834,0 0.321211,-0.10523 0.132914,-0.0997 0.238139,-0.3489 l 0.09415,-0.20491 L 62.541,223.2635 h 0.553811 l 1.024551,2.34816 1.013475,-2.34816 z"
         style="text-align:center;text-anchor:middle;fill:#441b4d;fill-opacity:1;stroke-width:0.13845287"
         id="path845" />
      <path
         d="m 68.721517,224.74771 q 0,0.0609 -0.01108,0.16061 h -2.381389 q 0.04984,0.38767 0.337825,0.62581 0.29352,0.2326 0.725493,0.2326 0.526121,0 0.847331,-0.35444 l 0.29352,0.34336 q -0.199372,0.2326 -0.49843,0.35444 -0.29352,0.12184 -0.659035,0.12184 -0.465202,0 -0.825179,-0.1883 -0.359978,-0.19383 -0.55935,-0.53719 -0.193834,-0.34337 -0.193834,-0.77534 0,-0.42644 0.188296,-0.7698 0.193834,-0.34336 0.526121,-0.53166 0.337825,-0.19383 0.758721,-0.19383 0.420897,0 0.747646,0.19383 0.332287,0.1883 0.515044,0.53166 0.188296,0.34336 0.188296,0.78641 z m -1.450986,-1.06331 q -0.382129,0 -0.642421,0.2326 -0.254753,0.2326 -0.299058,0.60919 h 1.882959 q -0.04431,-0.37105 -0.304596,-0.60365 -0.254754,-0.23814 -0.636884,-0.23814 z"
         style="text-align:center;text-anchor:middle;fill:#441b4d;fill-opacity:1;stroke-width:0.13845287"
         id="path847" />
      <path
         d="m 70.299877,226.23193 q -0.359977,0 -0.692264,-0.0942 -0.332287,-0.0997 -0.520583,-0.24921 l 0.221525,-0.4209 q 0.193834,0.13845 0.47074,0.22152 0.276905,0.0831 0.559349,0.0831 0.697802,0 0.697802,-0.39875 0,-0.13291 -0.09415,-0.21045 -0.09415,-0.0775 -0.238139,-0.11076 -0.138453,-0.0388 -0.398745,-0.0831 -0.354439,-0.0554 -0.581502,-0.12738 -0.221524,-0.072 -0.382129,-0.24368 -0.160606,-0.17168 -0.160606,-0.48181 0,-0.39875 0.332287,-0.63688 0.332287,-0.24368 0.891636,-0.24368 0.29352,0 0.587041,0.072 0.29352,0.072 0.481815,0.19384 l -0.227062,0.4209 q -0.359978,-0.23261 -0.847332,-0.23261 -0.337825,0 -0.515044,0.11077 -0.17722,0.11076 -0.17722,0.29352 0,0.14399 0.09969,0.22706 0.09969,0.0831 0.243677,0.12184 0.149529,0.0388 0.415359,0.0886 0.354439,0.0609 0.570425,0.13291 0.221525,0.0665 0.376592,0.2326 0.155067,0.16615 0.155067,0.4652 0,0.39875 -0.343363,0.63689 -0.337825,0.2326 -0.924865,0.2326 z"
         style="text-align:center;text-anchor:middle;fill:#441b4d;fill-opacity:1;stroke-width:0.13845287"
         id="path849" />
    </g>
  </g>
</svg>
