<?xml version="1.0" encoding="UTF-8" standalone="no"?>
<!-- Created with Inkscape (http://www.inkscape.org/) -->

<svg
   xmlns:dc="http://purl.org/dc/elements/1.1/"
   xmlns:cc="http://creativecommons.org/ns#"
   xmlns:rdf="http://www.w3.org/1999/02/22-rdf-syntax-ns#"
   xmlns:svg="http://www.w3.org/2000/svg"
   xmlns="http://www.w3.org/2000/svg"
   xmlns:sodipodi="http://sodipodi.sourceforge.net/DTD/sodipodi-0.dtd"
   xmlns:inkscape="http://www.inkscape.org/namespaces/inkscape"
   width="500"
   height="500"
   viewBox="0 0 132.29166 132.29167"
   version="1.1"
   id="svg885"
   inkscape:version="0.92.5 (2060ec1f9f, 2020-04-08)"
   sodipodi:docname="back11.svg">
  <defs
     id="defs879" />
  <sodipodi:namedview
     id="base"
     pagecolor="#ffffff"
     bordercolor="#666666"
     borderopacity="1.0"
     inkscape:pageopacity="0.0"
     inkscape:pageshadow="2"
     inkscape:zoom="1.979899"
     inkscape:cx="53.908326"
     inkscape:cy="261.79495"
     inkscape:document-units="mm"
     inkscape:current-layer="layer1"
     showgrid="false"
     units="px"
     inkscape:window-width="1848"
     inkscape:window-height="1016"
     inkscape:window-x="72"
     inkscape:window-y="27"
     inkscape:window-maximized="1"
     inkscape:lockguides="true" />
  <metadata
     id="metadata882">
    <rdf:RDF>
      <cc:Work
         rdf:about="">
        <dc:format>image/svg+xml</dc:format>
        <dc:type
           rdf:resource="http://purl.org/dc/dcmitype/StillImage" />
        <dc:title />
      </cc:Work>
    </rdf:RDF>
  </metadata>
  <g
     inkscape:label="Layer 1"
     inkscape:groupmode="layer"
     id="layer1"
     transform="translate(0,-164.70832)">
    <ellipse
       style="opacity:0.26199999;vector-effect:none;fill:#754f75;fill-opacity:1;stroke:none;stroke-width:1.17161381;stroke-linecap:round;stroke-linejoin:round;stroke-miterlimit:4;stroke-dasharray:none;stroke-dashoffset:0;stroke-opacity:1"
       id="path1534"
       cx="85.47683"
       cy="282.5824"
       rx="42.783207"
       ry="9.6148434" />
    <ellipse
       style="opacity:0.26199999;vector-effect:none;fill:#754f75;fill-opacity:1;stroke:none;stroke-width:0.76952147;stroke-linecap:round;stroke-linejoin:round;stroke-miterlimit:4;stroke-dasharray:none;stroke-dashoffset:0;stroke-opacity:1"
       id="path1534-9"
       cx="71.481262"
       cy="282.92374"
       rx="28.100214"
       ry="6.3150744" />
    <circle
       style="opacity:1;vector-effect:none;fill:#9957af;fill-opacity:1;stroke:none;stroke-width:1.14031112;stroke-linecap:round;stroke-linejoin:round;stroke-miterlimit:4;stroke-dasharray:none;stroke-dashoffset:0;stroke-opacity:1"
       id="path1449"
       cx="62.440365"
       cy="229.14644"
       r="58.030418" />
    <circle
       style="opacity:1;vector-effect:none;fill:#82326f;fill-opacity:1;stroke:none;stroke-width:1.11348021;stroke-linecap:round;stroke-linejoin:round;stroke-miterlimit:4;stroke-dasharray:none;stroke-dashoffset:0;stroke-opacity:1"
       id="path1449-3"
       cx="62.440365"
       cy="229.14644"
       r="56.665001" />
    <ellipse
       style="opacity:1;vector-effect:none;fill:#613e6d;fill-opacity:1;stroke:none;stroke-width:0.73709202;stroke-linecap:round;stroke-linejoin:round;stroke-miterlimit:4;stroke-dasharray:none;stroke-dashoffset:0;stroke-opacity:1"
       id="path1449-3-3"
       cx="62.440365"
       cy="229.14644"
       rx="37.386955"
       ry="37.634663" />
    <ellipse
       style="opacity:1;vector-effect:none;fill:#000000;fill-opacity:1;stroke:none;stroke-width:0.68278807;stroke-linecap:round;stroke-linejoin:round;stroke-miterlimit:4;stroke-dasharray:none;stroke-dashoffset:0;stroke-opacity:1"
       id="path1449-3-3-0"
       cx="62.440365"
       cy="229.14644"
       rx="34.632538"
       ry="34.861996" />
    <path
       style="fill:#c12688;fill-opacity:1;stroke:none;stroke-width:0.45056611px;stroke-linecap:butt;stroke-linejoin:miter;stroke-opacity:1"
       d="m 12.488691,207.29972 c 0,0 4.63182,-14.18778 20.139969,-23.89489 15.916805,-9.96289 28.901421,-9.44417 28.901421,-9.44417 0,0 -17.19509,5.47451 -27.763568,12.2888 -12.174689,7.84993 -21.277822,21.05026 -21.277822,21.05026 z"
       id="path1496"
       inkscape:connector-curvature="0"
       sodipodi:nodetypes="cscsc" />
    <path
       style="fill:#c12688;fill-opacity:1;stroke:none;stroke-width:0.45056611px;stroke-linecap:butt;stroke-linejoin:miter;stroke-opacity:1"
       d="m 67.352956,283.81496 c 0,0 17.255122,-2.81772 32.22176,-16.62391 14.524494,-13.39832 17.526094,-33.44637 17.526094,-33.44637 0,0 -1.76699,20.12708 -14.40203,32.98788 -12.992154,15.8522 -35.345824,17.0824 -35.345824,17.0824 z"
       id="path1502"
       inkscape:connector-curvature="0"
       sodipodi:nodetypes="csccc" />
    <path
       style="fill:#441b4d;fill-opacity:1;stroke:none;stroke-width:0.45056611px;stroke-linecap:butt;stroke-linejoin:miter;stroke-opacity:1"
       d="m 8.2786413,226.30183 c 0,0 -3.8706954,17.27867 12.9715057,38.11802 15.585378,19.28423 42.555639,20.36753 42.555639,20.36753 0,0 -26.120163,-7.65598 -38.800732,-23.78109 C 11.394135,243.69812 8.2786413,226.30183 8.2786413,226.30183 Z"
       id="path1498"
       inkscape:connector-curvature="0"
       sodipodi:nodetypes="cscsc" />
    <path
       style="fill:#441b4d;fill-opacity:1;stroke:none;stroke-width:0.45056611px;stroke-linecap:butt;stroke-linejoin:miter;stroke-opacity:1"
       d="m 73.116067,267.96472 c 0,0 11.784257,-3.57061 18.997624,-12.45183 7.849509,-9.66445 9.275819,-19.11899 9.275819,-19.11899 0,0 0.14172,12.08179 -5.761552,19.93446 -9.438692,12.55555 -22.511891,11.63636 -22.511891,11.63636 z"
       id="path1500"
       inkscape:connector-curvature="0"
       sodipodi:nodetypes="cscsc" />
    <path
       style="fill:#c12688;fill-opacity:1;stroke:none;stroke-width:0.45056611px;stroke-linecap:butt;stroke-linejoin:miter;stroke-opacity:1"
       d="m 23.779191,215.00115 c 0,0 5.493113,-13.36137 14.646353,-19.4062 11.50994,-7.6012 25.578374,-7.27865 25.578374,-7.27865 0,0 -17.670875,-3.82775 -29.698611,7.64808 C 22.85,206.89404 23.779191,215.00115 23.779191,215.00115 Z"
       id="path1504"
       inkscape:connector-curvature="0"
       sodipodi:nodetypes="cscsc" />
    <path
       style="opacity:0.497;fill:#c8afcd;fill-opacity:1;stroke:none;stroke-width:0.45056611px;stroke-linecap:butt;stroke-linejoin:miter;stroke-opacity:1"
       d="m 42.197929,195.81003 c 0,0 -0.911998,-3.11088 -0.667794,-7.16951 0.33609,-5.58578 5.799581,-15.02436 5.799581,-15.02436 0,0 -4.37482,1.25605 -9.143445,3.35116 -3.291257,1.44602 -7.102216,4.00624 -7.102216,4.00624 0,0 -1.464498,6.18081 0.309093,11.15227 2.649144,7.42568 5.971412,7.412 5.971412,7.412 0,0 1.370906,-1.24739 2.294992,-1.8171 0.751826,-0.46349 2.538377,-1.9107 2.538377,-1.9107 z"
       id="path1506"
       inkscape:connector-curvature="0"
       sodipodi:nodetypes="cscscscsc" />
    <path
       style="opacity:0.497;fill:#c8afcd;fill-opacity:1;stroke:none;stroke-width:0.45056611px;stroke-linecap:butt;stroke-linejoin:miter;stroke-opacity:1"
       d="m 50.891173,176.17949 c 0,0 -3.658319,4.35542 -3.822427,7.79051 -0.397974,8.33035 1.842794,8.73349 1.842794,8.73349 0,0 -0.387944,-5.34475 0.359263,-8.4066 0.850987,-3.4871 5.204601,-9.02768 5.204601,-9.02768 0,0 -1.434702,0.21092 -2.133471,0.39825 -0.495332,0.13283 -1.45076,0.51203 -1.45076,0.51203 z"
       id="path1516"
       inkscape:connector-curvature="0"
       sodipodi:nodetypes="cscscsc" />
    <path
       style="fill:#fefcff;fill-opacity:1;stroke:none;stroke-width:0.45056611px;stroke-linecap:butt;stroke-linejoin:miter;stroke-opacity:1"
       d="m 33.538939,183.34795 c 0,0 -0.502859,5.0238 0.170679,7.39603 0.696468,2.453 3.868696,6.59953 3.868696,6.59953 0,0 -1.764731,-4.77663 -2.048134,-7.28225 -0.305152,-2.69793 0.398247,-8.13563 0.398247,-8.13563 0,0 -1.091522,0.47873 -1.592992,0.79649 -0.285209,0.18073 -0.796496,0.62583 -0.796496,0.62583 z"
       id="path1520"
       inkscape:connector-curvature="0"
       sodipodi:nodetypes="cscscsc" />
    <path
       style="opacity:0.63999999;fill:#5a224c;fill-opacity:1;stroke:none;stroke-width:0.45056611px;stroke-linecap:butt;stroke-linejoin:miter;stroke-opacity:1"
       d="m 89.726638,259.71673 c 0,0 2.682741,1.85039 4.487731,5.62484 1.382366,2.89069 2.190857,8.46556 2.190857,8.46556 0,0 -4.06807,3.08156 -6.315075,4.26694 -2.417053,1.27505 -7.225356,3.58422 -7.225356,3.58422 0,0 2.520062,-6.5867 2.929475,-10.87054 0.378096,-3.95617 -0.01537,-7.59158 -0.01537,-7.59158 0,0 1.622249,-1.28757 2.361648,-1.83813 0.610225,-0.45439 1.586087,-1.64131 1.586087,-1.64131 z"
       id="path1522"
       inkscape:connector-curvature="0"
       sodipodi:nodetypes="cscscscscc" />
    <path
       style="fill:#754f75;fill-opacity:1;stroke:none;stroke-width:0.45056611px;stroke-linecap:butt;stroke-linejoin:miter;stroke-opacity:1"
       d="m 13.309686,228.67581 c 0,0 2.045867,3.10432 4.539264,4.64325 2.073254,1.27962 5.217524,2.4962 5.217524,2.4962 0,0 2.540774,13.61731 13.430992,23.57426 9.562964,8.74343 26.383782,10.14148 26.383782,10.14148 0,0 -0.678616,0.97006 -0.746067,3.92271 -0.06342,2.77637 2.024111,6.39355 2.024111,6.39355 0,0 -21.211989,-4.85956 -34.275209,-17.70082 C 15.351548,247.86082 13.309686,228.67581 13.309686,228.67581 Z"
       id="path1530"
       inkscape:connector-curvature="0"
       sodipodi:nodetypes="cscscscsc" />
    <path
       style="fill:#754f75;fill-opacity:1;stroke:none;stroke-width:0.45056611px;stroke-linecap:butt;stroke-linejoin:miter;stroke-opacity:1"
       d="m 73.534163,190.94683 c 0,0 11.252812,2.76648 21.312141,15.41951 6.685546,8.40935 6.872166,19.26746 6.872166,19.26746 0,0 4.45556,-0.77274 7.42271,-0.77274 3.46168,0 5.22405,2.20559 5.22405,2.20559 0,0 -0.26503,-18.96655 -14.16065,-34.27522 -13.086311,-14.41705 -32.183293,-14.48248 -32.183293,-14.48248 0,0 3.489668,3.49909 4.214274,5.99127 0.812703,2.79519 1.298602,6.64661 1.298602,6.64661 z"
       id="path1532"
       inkscape:connector-curvature="0"
       sodipodi:nodetypes="cscscscsc" />
    <path
       style="fill:#1c1353;fill-opacity:1;stroke:none;stroke-width:0.26458332px;stroke-linecap:butt;stroke-linejoin:miter;stroke-opacity:1"
       d="m 35.613663,247.28786 c 0,0 10.921188,-16.61824 36.682742,-13.76439 13.043829,1.44499 19.310224,10.35669 19.310224,10.35669 0,0 -9.153873,17.22781 -26.860587,17.97388 -20.43704,0.86111 -29.132379,-14.56618 -29.132379,-14.56618 z"
       id="path2442"
       inkscape:connector-curvature="0"
       sodipodi:nodetypes="cscsc" />
    <path
       style="fill:#b676c3;fill-opacity:1;stroke:none;stroke-width:0.26458332px;stroke-linecap:butt;stroke-linejoin:miter;stroke-opacity:1"
       d="m 62.181004,257.51069 h 2.765491 l 24.985615,-41.97453 -0.459603,-3.19387 -27.599613,42.7632 z"
       id="path2444"
       inkscape:connector-curvature="0"
       sodipodi:nodetypes="cccccc" />
    <path
       style="fill:#d7abe0;fill-opacity:1;stroke:none;stroke-width:0.65895617px;stroke-linecap:butt;stroke-linejoin:miter;stroke-opacity:1"
       d="m 62.181005,257.51069 -26.07796,-45.1684 h 53.369462 z"
       id="path2347"
       inkscape:connector-curvature="0" />
    <path
       style="fill:#ece7ed;fill-opacity:1;stroke:none;stroke-width:0.52110004px;stroke-linecap:butt;stroke-linejoin:miter;stroke-opacity:1"
       d="M 62.307943,252.78599 40.098093,214.42116 H 85.477456 Z"
       id="path2347-4"
       inkscape:connector-curvature="0"
       sodipodi:nodetypes="cccc" />
    <g
       aria-label="Reply hazy"
       transform="scale(0.98413002,1.0161259)"
       style="font-style:normal;font-variant:normal;font-weight:normal;font-stretch:normal;font-size:5.61600018px;line-height:1.25;font-family:Montserrat;-inkscape-font-specification:Montserrat;text-align:center;letter-spacing:0px;word-spacing:0px;text-anchor:middle;fill:#d7abe0;fill-opacity:1;stroke:none;stroke-width:0.14040002"
       id="text2448-0">
      <path
         d="m 51.944372,219.83028 -0.848016,-1.20744 q -0.157248,0.0112 -0.247104,0.0112 h -0.971568 v 1.19621 h -0.5616 v -3.9312 h 1.533168 q 0.763776,0 1.201824,0.36504 0.438048,0.36504 0.438048,1.00526 0,0.4549 -0.22464,0.77501 -0.22464,0.32011 -0.640224,0.46613 l 0.932256,1.31976 z m -1.111968,-1.67357 q 0.53352,0 0.81432,-0.23026 0.2808,-0.23025 0.2808,-0.65707 0,-0.42682 -0.2808,-0.65146 -0.2808,-0.23025 -0.81432,-0.23025 h -0.95472 v 1.76904 z"
         style="text-align:center;text-anchor:middle;fill:#d7abe0;fill-opacity:1;stroke-width:0.14040002"
         id="path894" />
      <path
         d="m 56.010352,218.35888 q 0,0.0618 -0.01123,0.16287 h -2.41488 q 0.05054,0.39312 0.342576,0.63461 0.297648,0.23587 0.735696,0.23587 0.53352,0 0.859248,-0.35943 l 0.297648,0.3482 q -0.202176,0.23587 -0.50544,0.35942 -0.297648,0.12355 -0.668304,0.12355 -0.471744,0 -0.836784,-0.19094 -0.36504,-0.19656 -0.567216,-0.54475 -0.19656,-0.3482 -0.19656,-0.78624 0,-0.43244 0.190944,-0.78063 0.19656,-0.34819 0.53352,-0.53913 0.342576,-0.19656 0.769392,-0.19656 0.426816,0 0.75816,0.19656 0.33696,0.19094 0.522288,0.53913 0.190944,0.34819 0.190944,0.79747 z m -1.471392,-1.07827 q -0.387504,0 -0.651456,0.23587 -0.258336,0.23588 -0.303264,0.61776 h 1.90944 q -0.04493,-0.37627 -0.30888,-0.61214 -0.258336,-0.24149 -0.64584,-0.24149 z"
         style="text-align:center;text-anchor:middle;fill:#d7abe0;fill-opacity:1;stroke-width:0.14040002"
         id="path896" />
      <path
         d="m 58.335373,216.82572 q 0.432432,0 0.775008,0.19094 0.342576,0.19094 0.53352,0.53352 0.19656,0.34258 0.19656,0.79186 0,0.44928 -0.19656,0.79747 -0.190944,0.34257 -0.53352,0.53352 -0.342576,0.19094 -0.775008,0.19094 -0.320112,0 -0.58968,-0.12355 -0.263952,-0.12355 -0.44928,-0.35942 v 1.53878 h -0.539136 v -4.06598 h 0.516672 v 0.47174 q 0.179712,-0.2471 0.454896,-0.37066 0.275184,-0.12916 0.606528,-0.12916 z m -0.04493,2.56651 q 0.286416,0 0.511056,-0.12917 0.230256,-0.13478 0.359424,-0.37066 0.134784,-0.24148 0.134784,-0.55036 0,-0.30888 -0.134784,-0.54476 -0.129168,-0.24148 -0.359424,-0.37065 -0.22464,-0.12917 -0.511056,-0.12917 -0.2808,0 -0.511056,0.13478 -0.22464,0.12917 -0.359424,0.36504 -0.129168,0.23588 -0.129168,0.54476 0,0.30888 0.129168,0.55036 0.129168,0.23588 0.359424,0.37066 0.230256,0.12917 0.511056,0.12917 z"
         style="text-align:center;text-anchor:middle;fill:#d7abe0;fill-opacity:1;stroke-width:0.14040002"
         id="path898" />
      <path
         d="m 60.587385,215.6632 h 0.539136 v 4.16708 h -0.539136 z"
         style="text-align:center;text-anchor:middle;fill:#d7abe0;fill-opacity:1;stroke-width:0.14040002"
         id="path900" />
      <path
         d="m 64.788149,216.8538 -1.443312,3.27412 q -0.190944,0.4549 -0.44928,0.64023 -0.25272,0.18533 -0.612144,0.18533 -0.219024,0 -0.426816,-0.073 -0.202176,-0.0674 -0.33696,-0.20218 l 0.230256,-0.40435 q 0.230256,0.21902 0.53352,0.21902 0.19656,0 0.325728,-0.1067 0.134784,-0.10109 0.241488,-0.35381 l 0.09547,-0.20779 -1.314144,-2.97086 h 0.5616 l 1.03896,2.38118 1.027728,-2.38118 z"
         style="text-align:center;text-anchor:middle;fill:#d7abe0;fill-opacity:1;stroke-width:0.14040002"
         id="path902" />
      <path
         d="m 68.393606,216.82572 q 0.567216,0 0.89856,0.33134 0.33696,0.32573 0.33696,0.96034 v 1.71288 H 69.08999 v -1.65111 q 0,-0.43243 -0.207792,-0.65145 -0.207792,-0.21903 -0.595296,-0.21903 -0.438048,0 -0.690768,0.25834 -0.25272,0.25272 -0.25272,0.73008 v 1.53317 h -0.539136 v -4.16708 h 0.539136 v 1.6118 q 0.16848,-0.21341 0.438048,-0.33135 0.275184,-0.11793 0.612144,-0.11793 z"
         style="text-align:center;text-anchor:middle;fill:#d7abe0;fill-opacity:1;stroke-width:0.14040002"
         id="path904" />
      <path
         d="m 71.712661,216.82572 q 0.61776,0 0.943488,0.30326 0.331344,0.30326 0.331344,0.90418 v 1.79712 h -0.511056 v -0.39312 q -0.134784,0.20779 -0.387504,0.32011 -0.247104,0.1067 -0.58968,0.1067 -0.499824,0 -0.803088,-0.24149 -0.297648,-0.24148 -0.297648,-0.6346 0,-0.39312 0.286416,-0.629 0.286416,-0.24148 0.909792,-0.24148 h 0.853632 v -0.10671 q 0,-0.34819 -0.202176,-0.53352 -0.202176,-0.18533 -0.595296,-0.18533 -0.263952,0 -0.516672,0.0899 -0.25272,0.0842 -0.426816,0.23026 l -0.22464,-0.40436 q 0.230256,-0.18532 0.550368,-0.2808 0.320112,-0.10108 0.679536,-0.10108 z m -0.123552,2.62267 q 0.30888,0 0.53352,-0.13479 0.22464,-0.1404 0.325728,-0.39312 v -0.41558 h -0.831168 q -0.685152,0 -0.685152,0.46051 0,0.22464 0.174096,0.35381 0.174096,0.12917 0.482976,0.12917 z"
         style="text-align:center;text-anchor:middle;fill:#d7abe0;fill-opacity:1;stroke-width:0.14040002"
         id="path906" />
      <path
         d="m 76.194226,219.38661 v 0.44367 h -2.493505 v -0.3482 l 1.757808,-2.18462 h -1.724112 v -0.44366 h 2.414881 v 0.3538 l -1.757809,2.17901 z"
         style="text-align:center;text-anchor:middle;fill:#d7abe0;fill-opacity:1;stroke-width:0.14040002"
         id="path908" />
      <path
         d="m 79.490817,216.8538 -1.443312,3.27412 q -0.190944,0.4549 -0.44928,0.64023 -0.25272,0.18533 -0.612144,0.18533 -0.219024,0 -0.426816,-0.073 -0.202176,-0.0674 -0.33696,-0.20218 l 0.230256,-0.40435 q 0.230256,0.21902 0.53352,0.21902 0.19656,0 0.325728,-0.1067 0.134784,-0.10109 0.241488,-0.35381 l 0.09547,-0.20779 -1.314144,-2.97086 h 0.5616 l 1.03896,2.38118 1.027728,-2.38118 z"
         style="text-align:center;text-anchor:middle;fill:#d7abe0;fill-opacity:1;stroke-width:0.14040002"
         id="path910" />
    </g>
    <g
       aria-label="Reply hazy"
       transform="scale(0.98413002,1.0161259)"
       style="font-style:normal;font-variant:normal;font-weight:normal;font-stretch:normal;font-size:5.61600065px;line-height:1.25;font-family:Montserrat;-inkscape-font-specification:Montserrat;text-align:center;letter-spacing:0px;word-spacing:0px;text-anchor:middle;fill:#441b4d;fill-opacity:1;stroke:none;stroke-width:0.14040002"
       id="text2448">
      <path
         d="m 51.40667,219.83028 -0.848016,-1.20744 q -0.157248,0.0112 -0.247104,0.0112 h -0.971568 v 1.19621 h -0.5616 v -3.9312 h 1.533168 q 0.763776,0 1.201824,0.36504 0.438048,0.36504 0.438048,1.00526 0,0.4549 -0.22464,0.77501 -0.22464,0.32011 -0.640224,0.46613 l 0.932256,1.31976 z m -1.111968,-1.67357 q 0.53352,0 0.81432,-0.23026 0.2808,-0.23025 0.2808,-0.65707 0,-0.42682 -0.2808,-0.65146 -0.2808,-0.23025 -0.81432,-0.23025 h -0.95472 v 1.76904 z"
         style="text-align:center;text-anchor:middle;fill:#441b4d;fill-opacity:1;stroke-width:0.14040002"
         id="path875" />
      <path
         d="m 55.472651,218.35888 q 0,0.0618 -0.01123,0.16287 h -2.414881 q 0.05054,0.39312 0.342576,0.63461 0.297648,0.23587 0.735697,0.23587 0.53352,0 0.859248,-0.35943 l 0.297648,0.3482 q -0.202176,0.23587 -0.50544,0.35942 -0.297648,0.12355 -0.668304,0.12355 -0.471745,0 -0.836785,-0.19094 -0.36504,-0.19656 -0.567216,-0.54475 -0.19656,-0.3482 -0.19656,-0.78624 0,-0.43244 0.190944,-0.78063 0.19656,-0.34819 0.53352,-0.53913 0.342576,-0.19656 0.769393,-0.19656 0.426816,0 0.75816,0.19656 0.33696,0.19094 0.522288,0.53913 0.190944,0.34819 0.190944,0.79747 z m -1.471392,-1.07827 q -0.387505,0 -0.651457,0.23587 -0.258336,0.23588 -0.303264,0.61776 h 1.909441 q -0.04493,-0.37627 -0.30888,-0.61214 -0.258336,-0.24149 -0.64584,-0.24149 z"
         style="text-align:center;text-anchor:middle;fill:#441b4d;fill-opacity:1;stroke-width:0.14040002"
         id="path877" />
      <path
         d="m 57.797672,216.82572 q 0.432432,0 0.775008,0.19094 0.342576,0.19094 0.533521,0.53352 0.19656,0.34258 0.19656,0.79186 0,0.44928 -0.19656,0.79747 -0.190945,0.34257 -0.533521,0.53352 -0.342576,0.19094 -0.775008,0.19094 -0.320112,0 -0.58968,-0.12355 -0.263952,-0.12355 -0.44928,-0.35942 v 1.53878 h -0.539136 v -4.06598 h 0.516672 v 0.47174 q 0.179712,-0.2471 0.454896,-0.37066 0.275184,-0.12916 0.606528,-0.12916 z m -0.04493,2.56651 q 0.286416,0 0.511056,-0.12917 0.230256,-0.13478 0.359424,-0.37066 0.134784,-0.24148 0.134784,-0.55036 0,-0.30888 -0.134784,-0.54476 -0.129168,-0.24148 -0.359424,-0.37065 -0.22464,-0.12917 -0.511056,-0.12917 -0.2808,0 -0.511056,0.13478 -0.22464,0.12917 -0.359424,0.36504 -0.129168,0.23588 -0.129168,0.54476 0,0.30888 0.129168,0.55036 0.129168,0.23588 0.359424,0.37066 0.230256,0.12917 0.511056,0.12917 z"
         style="text-align:center;text-anchor:middle;fill:#441b4d;fill-opacity:1;stroke-width:0.14040002"
         id="path879" />
      <path
         d="m 60.049684,215.6632 h 0.539136 v 4.16708 h -0.539136 z"
         style="text-align:center;text-anchor:middle;fill:#441b4d;fill-opacity:1;stroke-width:0.14040002"
         id="path881" />
      <path
         d="m 64.250448,216.8538 -1.443312,3.27412 q -0.190944,0.4549 -0.44928,0.64023 -0.25272,0.18533 -0.612144,0.18533 -0.219024,0 -0.426816,-0.073 -0.202176,-0.0674 -0.33696,-0.20218 l 0.230256,-0.40435 q 0.230256,0.21902 0.53352,0.21902 0.19656,0 0.325728,-0.1067 0.134784,-0.10109 0.241488,-0.35381 l 0.09547,-0.20779 -1.314144,-2.97086 h 0.5616 l 1.03896,2.38118 1.027728,-2.38118 z"
         style="text-align:center;text-anchor:middle;fill:#441b4d;fill-opacity:1;stroke-width:0.14040002"
         id="path883" />
      <path
         d="m 67.855906,216.82572 q 0.567216,0 0.89856,0.33134 0.33696,0.32573 0.33696,0.96034 v 1.71288 H 68.55229 v -1.65111 q 0,-0.43243 -0.207792,-0.65145 -0.207792,-0.21903 -0.595296,-0.21903 -0.438048,0 -0.690768,0.25834 -0.25272,0.25272 -0.25272,0.73008 v 1.53317 h -0.539136 v -4.16708 h 0.539136 v 1.6118 q 0.16848,-0.21341 0.438048,-0.33135 0.275184,-0.11793 0.612144,-0.11793 z"
         style="text-align:center;text-anchor:middle;fill:#441b4d;fill-opacity:1;stroke-width:0.14040002"
         id="path885" />
      <path
         d="m 71.17496,216.82572 q 0.61776,0 0.943488,0.30326 0.331344,0.30326 0.331344,0.90418 v 1.79712 h -0.511056 v -0.39312 q -0.134784,0.20779 -0.387504,0.32011 -0.247104,0.1067 -0.58968,0.1067 -0.499825,0 -0.803089,-0.24149 -0.297648,-0.24148 -0.297648,-0.6346 0,-0.39312 0.286416,-0.629 0.286416,-0.24148 0.909793,-0.24148 h 0.853632 v -0.10671 q 0,-0.34819 -0.202176,-0.53352 -0.202176,-0.18533 -0.595296,-0.18533 -0.263952,0 -0.516673,0.0899 -0.25272,0.0842 -0.426816,0.23026 l -0.22464,-0.40436 q 0.230256,-0.18532 0.550368,-0.2808 0.320113,-0.10108 0.679537,-0.10108 z m -0.123552,2.62267 q 0.30888,0 0.53352,-0.13479 0.22464,-0.1404 0.325728,-0.39312 v -0.41558 h -0.831168 q -0.685153,0 -0.685153,0.46051 0,0.22464 0.174096,0.35381 0.174096,0.12917 0.482977,0.12917 z"
         style="text-align:center;text-anchor:middle;fill:#441b4d;fill-opacity:1;stroke-width:0.14040002"
         id="path887" />
      <path
         d="m 75.656526,219.38661 v 0.44367 h -2.493505 v -0.3482 l 1.757809,-2.18462 h -1.724113 v -0.44366 h 2.414881 v 0.3538 l -1.757809,2.17901 z"
         style="text-align:center;text-anchor:middle;fill:#441b4d;fill-opacity:1;stroke-width:0.14040002"
         id="path889" />
      <path
         d="m 78.953118,216.8538 -1.443313,3.27412 q -0.190944,0.4549 -0.44928,0.64023 -0.25272,0.18533 -0.612144,0.18533 -0.219024,0 -0.426816,-0.073 -0.202176,-0.0674 -0.33696,-0.20218 l 0.230256,-0.40435 q 0.230256,0.21902 0.53352,0.21902 0.19656,0 0.325728,-0.1067 0.134784,-0.10109 0.241488,-0.35381 l 0.09547,-0.20779 -1.314144,-2.97086 h 0.5616 l 1.03896,2.38118 1.027728,-2.38118 z"
         style="text-align:center;text-anchor:middle;fill:#441b4d;fill-opacity:1;stroke-width:0.14040002"
         id="path891" />
    </g>
    <g
       aria-label="try again"
       transform="scale(0.98413002,1.0161259)"
       style="font-style:normal;font-variant:normal;font-weight:normal;font-stretch:normal;font-size:5.61600018px;line-height:1.25;font-family:Montserrat;-inkscape-font-specification:Montserrat;text-align:center;letter-spacing:0px;word-spacing:0px;text-anchor:middle;fill:#d7abe0;fill-opacity:1;stroke:none;stroke-width:0.14040002"
       id="text2448-3-5">
      <path
         d="m 53.609517,225.68935 q -0.117936,0.10109 -0.292032,0.15725 -0.174096,0.0506 -0.359424,0.0506 -0.44928,0 -0.696384,-0.24149 -0.247104,-0.24149 -0.247104,-0.69077 v -1.63426 h -0.50544 v -0.44366 h 0.50544 v -0.65146 h 0.539136 v 0.65146 h 0.853632 v 0.44366 h -0.853632 v 1.6118 q 0,0.24148 0.117936,0.37065 0.123552,0.12917 0.348192,0.12917 0.247104,0 0.4212,-0.1404 z"
         style="text-align:center;text-anchor:middle;fill:#d7abe0;fill-opacity:1;stroke-width:0.14040002"
         id="path858" />
      <path
         d="m 54.777643,223.38679 q 0.1404,-0.25833 0.415584,-0.39312 0.275184,-0.13478 0.668304,-0.13478 v 0.52229 q -0.04493,-0.006 -0.123552,-0.006 -0.438048,0 -0.690768,0.26395 -0.247104,0.25834 -0.247104,0.74132 v 1.48262 h -0.539136 v -2.97648 h 0.516672 z"
         style="text-align:center;text-anchor:middle;fill:#d7abe0;fill-opacity:1;stroke-width:0.14040002"
         id="path860" />
      <path
         d="m 59.28167,222.88697 -1.443312,3.27413 q -0.190944,0.45489 -0.44928,0.64022 -0.25272,0.18533 -0.612144,0.18533 -0.219024,0 -0.426816,-0.073 -0.202176,-0.0674 -0.33696,-0.20217 l 0.230256,-0.40436 q 0.230256,0.21903 0.53352,0.21903 0.19656,0 0.325728,-0.10671 0.134784,-0.10108 0.241488,-0.3538 l 0.09547,-0.2078 -1.314144,-2.97086 h 0.5616 l 1.03896,2.38118 1.027728,-2.38118 z"
         style="text-align:center;text-anchor:middle;fill:#d7abe0;fill-opacity:1;stroke-width:0.14040002"
         id="path862" />
      <path
         d="m 62.381687,222.85889 q 0.61776,0 0.943488,0.30326 0.331344,0.30327 0.331344,0.90418 v 1.79712 h -0.511056 v -0.39312 q -0.134784,0.20779 -0.387504,0.32011 -0.247104,0.10671 -0.58968,0.10671 -0.499824,0 -0.803088,-0.24149 -0.297648,-0.24149 -0.297648,-0.63461 0,-0.39312 0.286416,-0.62899 0.286416,-0.24149 0.909792,-0.24149 h 0.853632 v -0.1067 q 0,-0.3482 -0.202176,-0.53352 -0.202176,-0.18533 -0.595296,-0.18533 -0.263952,0 -0.516672,0.0899 -0.25272,0.0842 -0.426816,0.23026 l -0.22464,-0.40435 q 0.230256,-0.18533 0.550368,-0.2808 0.320112,-0.10109 0.679536,-0.10109 z m -0.123552,2.62267 q 0.30888,0 0.53352,-0.13478 0.22464,-0.1404 0.325728,-0.39312 v -0.41559 h -0.831168 q -0.685152,0 -0.685152,0.46052 0,0.22464 0.174096,0.3538 0.174096,0.12917 0.482976,0.12917 z"
         style="text-align:center;text-anchor:middle;fill:#d7abe0;fill-opacity:1;stroke-width:0.14040002"
         id="path864" />
      <path
         d="m 67.520316,222.88697 v 2.57213 q 0,0.78062 -0.387504,1.15128 -0.387504,0.37627 -1.156896,0.37627 -0.4212,0 -0.803088,-0.11794 -0.381888,-0.11232 -0.61776,-0.32572 l 0.258336,-0.41559 q 0.207792,0.17971 0.511056,0.2808 0.30888,0.10671 0.634608,0.10671 0.522288,0 0.769392,-0.24711 0.25272,-0.2471 0.25272,-0.75254 v -0.23587 q -0.190944,0.23025 -0.471744,0.34819 -0.275184,0.11232 -0.600912,0.11232 -0.426816,0 -0.775008,-0.17971 -0.342576,-0.18533 -0.539136,-0.51106 -0.19656,-0.33134 -0.19656,-0.75254 0,-0.4212 0.19656,-0.74693 0.19656,-0.33135 0.539136,-0.51106 0.348192,-0.17971 0.775008,-0.17971 0.33696,0 0.623376,0.12355 0.292032,0.12355 0.47736,0.36504 v -0.46051 z m -1.550016,2.38118 q 0.292032,0 0.522288,-0.12355 0.235872,-0.12355 0.36504,-0.34257 0.134784,-0.22464 0.134784,-0.50544 0,-0.43244 -0.286416,-0.69639 -0.286416,-0.26957 -0.735696,-0.26957 -0.454896,0 -0.741312,0.26957 -0.286416,0.26395 -0.286416,0.69639 0,0.2808 0.129168,0.50544 0.134784,0.21902 0.36504,0.34257 0.235872,0.12355 0.53352,0.12355 z"
         style="text-align:center;text-anchor:middle;fill:#d7abe0;fill-opacity:1;stroke-width:0.14040002"
         id="path866" />
      <path
         d="m 69.631924,222.85889 q 0.61776,0 0.943488,0.30326 0.331344,0.30327 0.331344,0.90418 v 1.79712 H 70.3957 v -0.39312 q -0.134784,0.20779 -0.387504,0.32011 -0.247104,0.10671 -0.58968,0.10671 -0.499824,0 -0.803088,-0.24149 -0.297648,-0.24149 -0.297648,-0.63461 0,-0.39312 0.286416,-0.62899 0.286416,-0.24149 0.909792,-0.24149 h 0.853632 v -0.1067 q 0,-0.3482 -0.202176,-0.53352 -0.202176,-0.18533 -0.595296,-0.18533 -0.263952,0 -0.516672,0.0899 -0.25272,0.0842 -0.426816,0.23026 l -0.22464,-0.40435 q 0.230256,-0.18533 0.550368,-0.2808 0.320112,-0.10109 0.679536,-0.10109 z m -0.123552,2.62267 q 0.30888,0 0.53352,-0.13478 0.22464,-0.1404 0.325728,-0.39312 v -0.41559 h -0.831168 q -0.685152,0 -0.685152,0.46052 0,0.22464 0.174096,0.3538 0.174096,0.12917 0.482976,0.12917 z"
         style="text-align:center;text-anchor:middle;fill:#d7abe0;fill-opacity:1;stroke-width:0.14040002"
         id="path868" />
      <path
         d="m 71.906402,222.88697 h 0.539136 v 2.97648 h -0.539136 z m 0.269568,-0.57283 q -0.157248,0 -0.263952,-0.10109 -0.101088,-0.10109 -0.101088,-0.24711 0,-0.14601 0.101088,-0.2471 0.106704,-0.1067 0.263952,-0.1067 0.157248,0 0.258336,0.10108 0.106704,0.0955 0.106704,0.24149 0,0.15163 -0.106704,0.25834 -0.101088,0.10109 -0.258336,0.10109 z"
         style="text-align:center;text-anchor:middle;fill:#d7abe0;fill-opacity:1;stroke-width:0.14040002"
         id="path870" />
      <path
         d="m 75.062591,222.85889 q 0.567216,0 0.89856,0.33134 0.33696,0.32573 0.33696,0.96034 v 1.71288 h -0.539136 v -1.6511 q 0,-0.43244 -0.207792,-0.65146 -0.207792,-0.21902 -0.595296,-0.21902 -0.438048,0 -0.690768,0.25833 -0.25272,0.25272 -0.25272,0.73008 v 1.53317 h -0.539136 v -2.97648 h 0.516672 v 0.44928 q 0.162864,-0.23026 0.438048,-0.35381 0.2808,-0.12355 0.634608,-0.12355 z"
         style="text-align:center;text-anchor:middle;fill:#d7abe0;fill-opacity:1;stroke-width:0.14040002"
         id="path872" />
    </g>
    <g
       aria-label="try again"
       transform="scale(0.98413002,1.0161259)"
       style="font-style:normal;font-variant:normal;font-weight:normal;font-stretch:normal;font-size:5.61600065px;line-height:1.25;font-family:Montserrat;-inkscape-font-specification:Montserrat;text-align:center;letter-spacing:0px;word-spacing:0px;text-anchor:middle;fill:#441b4d;fill-opacity:1;stroke:none;stroke-width:0.14040002"
       id="text2448-3">
      <path
         d="m 53.071816,225.68935 q -0.117936,0.10109 -0.292032,0.15725 -0.174096,0.0506 -0.359424,0.0506 -0.449281,0 -0.696385,-0.24149 -0.247104,-0.24149 -0.247104,-0.69077 v -1.63426 h -0.50544 v -0.44366 h 0.50544 v -0.65146 h 0.539136 v 0.65146 h 0.853633 v 0.44366 h -0.853633 v 1.61179 q 0,0.24149 0.117937,0.37066 0.123552,0.12917 0.348192,0.12917 0.247104,0 0.4212,-0.1404 z"
         style="text-align:center;text-anchor:middle;fill:#441b4d;fill-opacity:1;stroke-width:0.14040002"
         id="path841" />
      <path
         d="m 54.239941,223.38679 q 0.1404,-0.25833 0.415584,-0.39312 0.275184,-0.13478 0.668304,-0.13478 v 0.52229 q -0.04493,-0.006 -0.123552,-0.006 -0.438048,0 -0.690768,0.26395 -0.247104,0.25834 -0.247104,0.74131 v 1.48263 h -0.539136 v -2.97648 h 0.516672 z"
         style="text-align:center;text-anchor:middle;fill:#441b4d;fill-opacity:1;stroke-width:0.14040002"
         id="path843" />
      <path
         d="m 58.743969,222.88697 -1.443312,3.27413 q -0.190944,0.45489 -0.44928,0.64022 -0.25272,0.18533 -0.612144,0.18533 -0.219024,0 -0.426816,-0.073 -0.202176,-0.0674 -0.33696,-0.20217 l 0.230256,-0.40436 q 0.230256,0.21903 0.53352,0.21903 0.19656,0 0.325728,-0.10671 0.134784,-0.10108 0.241488,-0.3538 l 0.09547,-0.2078 -1.314144,-2.97086 h 0.5616 l 1.03896,2.38118 1.027728,-2.38118 z"
         style="text-align:center;text-anchor:middle;fill:#441b4d;fill-opacity:1;stroke-width:0.14040002"
         id="path845" />
      <path
         d="m 61.843986,222.85889 q 0.61776,0 0.943488,0.30326 0.331344,0.30327 0.331344,0.90418 v 1.79712 h -0.511056 v -0.39312 q -0.134784,0.20779 -0.387504,0.32011 -0.247104,0.10671 -0.58968,0.10671 -0.499824,0 -0.803088,-0.24149 -0.297648,-0.24149 -0.297648,-0.63461 0,-0.39312 0.286416,-0.62899 0.286416,-0.24149 0.909792,-0.24149 h 0.853632 v -0.10671 q 0,-0.34819 -0.202176,-0.53352 -0.202176,-0.18532 -0.595296,-0.18532 -0.263952,0 -0.516672,0.0899 -0.25272,0.0842 -0.426816,0.23026 l -0.22464,-0.40435 q 0.230256,-0.18533 0.550368,-0.2808 0.320112,-0.10109 0.679536,-0.10109 z m -0.123552,2.62267 q 0.30888,0 0.53352,-0.13478 0.22464,-0.1404 0.325728,-0.39312 v -0.41559 h -0.831168 q -0.685152,0 -0.685152,0.46051 0,0.22465 0.174096,0.35381 0.174096,0.12917 0.482976,0.12917 z"
         style="text-align:center;text-anchor:middle;fill:#441b4d;fill-opacity:1;stroke-width:0.14040002"
         id="path847" />
      <path
         d="m 66.982616,222.88697 v 2.57213 q 0,0.78062 -0.387505,1.15128 -0.387504,0.37627 -1.156896,0.37627 -0.4212,0 -0.803088,-0.11794 -0.381888,-0.11232 -0.61776,-0.32572 l 0.258336,-0.41559 q 0.207792,0.17971 0.511056,0.2808 0.30888,0.10671 0.634608,0.10671 0.522288,0 0.769392,-0.24711 0.25272,-0.2471 0.25272,-0.75254 v -0.23587 q -0.190944,0.23025 -0.471744,0.34819 -0.275184,0.11232 -0.600912,0.11232 -0.426816,0 -0.775008,-0.17971 -0.342576,-0.18533 -0.539136,-0.51106 -0.19656,-0.33135 -0.19656,-0.75255 0,-0.4212 0.19656,-0.74692 0.19656,-0.33135 0.539136,-0.51106 0.348192,-0.17971 0.775008,-0.17971 0.33696,0 0.623376,0.12355 0.292032,0.12355 0.47736,0.36504 v -0.46051 z m -1.550017,2.38118 q 0.292032,0 0.522288,-0.12355 0.235872,-0.12355 0.36504,-0.34258 0.134784,-0.22464 0.134784,-0.50544 0,-0.43243 -0.286416,-0.69638 -0.286416,-0.26957 -0.735696,-0.26957 -0.454896,0 -0.741312,0.26957 -0.286416,0.26395 -0.286416,0.69638 0,0.2808 0.129168,0.50544 0.134784,0.21903 0.36504,0.34258 0.235872,0.12355 0.53352,0.12355 z"
         style="text-align:center;text-anchor:middle;fill:#441b4d;fill-opacity:1;stroke-width:0.14040002"
         id="path849" />
      <path
         d="m 69.094223,222.85889 q 0.61776,0 0.943488,0.30326 0.331344,0.30327 0.331344,0.90418 v 1.79712 h -0.511056 v -0.39312 q -0.134784,0.20779 -0.387504,0.32011 -0.247104,0.10671 -0.58968,0.10671 -0.499824,0 -0.803088,-0.24149 -0.297648,-0.24149 -0.297648,-0.63461 0,-0.39312 0.286416,-0.62899 0.286416,-0.24149 0.909792,-0.24149 h 0.853632 v -0.10671 q 0,-0.34819 -0.202176,-0.53352 -0.202176,-0.18532 -0.595296,-0.18532 -0.263952,0 -0.516672,0.0899 -0.25272,0.0842 -0.426816,0.23026 l -0.22464,-0.40435 q 0.230256,-0.18533 0.550368,-0.2808 0.320112,-0.10109 0.679536,-0.10109 z m -0.123552,2.62267 q 0.30888,0 0.53352,-0.13478 0.22464,-0.1404 0.325728,-0.39312 v -0.41559 h -0.831168 q -0.685152,0 -0.685152,0.46051 0,0.22465 0.174096,0.35381 0.174096,0.12917 0.482976,0.12917 z"
         style="text-align:center;text-anchor:middle;fill:#441b4d;fill-opacity:1;stroke-width:0.14040002"
         id="path851" />
      <path
         d="m 71.368701,222.88697 h 0.539136 v 2.97648 h -0.539136 z m 0.269568,-0.57283 q -0.157248,0 -0.263952,-0.10109 -0.101088,-0.10109 -0.101088,-0.24711 0,-0.14601 0.101088,-0.2471 0.106704,-0.1067 0.263952,-0.1067 0.157248,0 0.258336,0.10108 0.106704,0.0955 0.106704,0.24149 0,0.15163 -0.106704,0.25834 -0.101088,0.10109 -0.258336,0.10109 z"
         style="text-align:center;text-anchor:middle;fill:#441b4d;fill-opacity:1;stroke-width:0.14040002"
         id="path853" />
      <path
         d="m 74.524891,222.85889 q 0.567216,0 0.89856,0.33134 0.33696,0.32573 0.33696,0.96034 v 1.71288 h -0.539136 v -1.65111 q 0,-0.43243 -0.207792,-0.65145 -0.207792,-0.21903 -0.595296,-0.21903 -0.438048,0 -0.690768,0.25834 -0.25272,0.25272 -0.25272,0.73008 v 1.53317 h -0.539136 v -2.97648 h 0.516672 v 0.44928 q 0.162864,-0.23026 0.438048,-0.35381 0.2808,-0.12355 0.634608,-0.12355 z"
         style="text-align:center;text-anchor:middle;fill:#441b4d;fill-opacity:1;stroke-width:0.14040002"
         id="path855" />
    </g>
  </g>
</svg>
