<?xml version="1.0" encoding="UTF-8" standalone="no"?>
<!-- Created with Inkscape (http://www.inkscape.org/) -->

<svg
   xmlns:dc="http://purl.org/dc/elements/1.1/"
   xmlns:cc="http://creativecommons.org/ns#"
   xmlns:rdf="http://www.w3.org/1999/02/22-rdf-syntax-ns#"
   xmlns:svg="http://www.w3.org/2000/svg"
   xmlns="http://www.w3.org/2000/svg"
   xmlns:sodipodi="http://sodipodi.sourceforge.net/DTD/sodipodi-0.dtd"
   xmlns:inkscape="http://www.inkscape.org/namespaces/inkscape"
   width="500"
   height="500"
   viewBox="0 0 132.29166 132.29167"
   version="1.1"
   id="svg885"
   inkscape:version="0.92.5 (2060ec1f9f, 2020-04-08)"
   sodipodi:docname="back3.svg">
  <defs
     id="defs879" />
  <sodipodi:namedview
     id="base"
     pagecolor="#ffffff"
     bordercolor="#666666"
     borderopacity="1.0"
     inkscape:pageopacity="0.0"
     inkscape:pageshadow="2"
     inkscape:zoom="0.7"
     inkscape:cx="92.169079"
     inkscape:cy="327.4917"
     inkscape:document-units="mm"
     inkscape:current-layer="layer1"
     showgrid="false"
     units="px"
     inkscape:window-width="1848"
     inkscape:window-height="1016"
     inkscape:window-x="72"
     inkscape:window-y="27"
     inkscape:window-maximized="1"
     inkscape:lockguides="true" />
  <metadata
     id="metadata882">
    <rdf:RDF>
      <cc:Work
         rdf:about="">
        <dc:format>image/svg+xml</dc:format>
        <dc:type
           rdf:resource="http://purl.org/dc/dcmitype/StillImage" />
        <dc:title />
      </cc:Work>
    </rdf:RDF>
  </metadata>
  <g
     inkscape:label="Layer 1"
     inkscape:groupmode="layer"
     id="layer1"
     transform="translate(0,-164.70832)">
    <ellipse
       style="opacity:0.26199999;vector-effect:none;fill:#754f75;fill-opacity:1;stroke:none;stroke-width:1.17161381;stroke-linecap:round;stroke-linejoin:round;stroke-miterlimit:4;stroke-dasharray:none;stroke-dashoffset:0;stroke-opacity:1"
       id="path1534"
       cx="85.47683"
       cy="282.5824"
       rx="42.783207"
       ry="9.6148434" />
    <ellipse
       style="opacity:0.26199999;vector-effect:none;fill:#754f75;fill-opacity:1;stroke:none;stroke-width:0.76952147;stroke-linecap:round;stroke-linejoin:round;stroke-miterlimit:4;stroke-dasharray:none;stroke-dashoffset:0;stroke-opacity:1"
       id="path1534-9"
       cx="71.481262"
       cy="282.92374"
       rx="28.100214"
       ry="6.3150744" />
    <circle
       style="opacity:1;vector-effect:none;fill:#9957af;fill-opacity:1;stroke:none;stroke-width:1.14031112;stroke-linecap:round;stroke-linejoin:round;stroke-miterlimit:4;stroke-dasharray:none;stroke-dashoffset:0;stroke-opacity:1"
       id="path1449"
       cx="62.440365"
       cy="229.14644"
       r="58.030418" />
    <circle
       style="opacity:1;vector-effect:none;fill:#82326f;fill-opacity:1;stroke:none;stroke-width:1.11348021;stroke-linecap:round;stroke-linejoin:round;stroke-miterlimit:4;stroke-dasharray:none;stroke-dashoffset:0;stroke-opacity:1"
       id="path1449-3"
       cx="62.440365"
       cy="229.14644"
       r="56.665001" />
    <ellipse
       style="opacity:1;vector-effect:none;fill:#613e6d;fill-opacity:1;stroke:none;stroke-width:0.73709202;stroke-linecap:round;stroke-linejoin:round;stroke-miterlimit:4;stroke-dasharray:none;stroke-dashoffset:0;stroke-opacity:1"
       id="path1449-3-3"
       cx="62.440365"
       cy="229.14644"
       rx="37.386955"
       ry="37.634663" />
    <ellipse
       style="opacity:1;vector-effect:none;fill:#000000;fill-opacity:1;stroke:none;stroke-width:0.68278807;stroke-linecap:round;stroke-linejoin:round;stroke-miterlimit:4;stroke-dasharray:none;stroke-dashoffset:0;stroke-opacity:1"
       id="path1449-3-3-0"
       cx="62.440365"
       cy="229.14644"
       rx="34.632538"
       ry="34.861996" />
    <path
       style="fill:#c12688;fill-opacity:1;stroke:none;stroke-width:0.45056611px;stroke-linecap:butt;stroke-linejoin:miter;stroke-opacity:1"
       d="m 12.488691,207.29972 c 0,0 4.63182,-14.18778 20.139969,-23.89489 15.916805,-9.96289 28.901421,-9.44417 28.901421,-9.44417 0,0 -17.19509,5.47451 -27.763568,12.2888 -12.174689,7.84993 -21.277822,21.05026 -21.277822,21.05026 z"
       id="path1496"
       inkscape:connector-curvature="0"
       sodipodi:nodetypes="cscsc" />
    <path
       style="fill:#c12688;fill-opacity:1;stroke:none;stroke-width:0.45056611px;stroke-linecap:butt;stroke-linejoin:miter;stroke-opacity:1"
       d="m 67.352956,283.81496 c 0,0 17.255122,-2.81772 32.22176,-16.62391 14.524494,-13.39832 17.526094,-33.44637 17.526094,-33.44637 0,0 -1.76699,20.12708 -14.40203,32.98788 -12.992154,15.8522 -35.345824,17.0824 -35.345824,17.0824 z"
       id="path1502"
       inkscape:connector-curvature="0"
       sodipodi:nodetypes="csccc" />
    <path
       style="fill:#441b4d;fill-opacity:1;stroke:none;stroke-width:0.45056611px;stroke-linecap:butt;stroke-linejoin:miter;stroke-opacity:1"
       d="m 8.2786413,226.30183 c 0,0 -3.8706954,17.27867 12.9715057,38.11802 15.585378,19.28423 42.555639,20.36753 42.555639,20.36753 0,0 -26.120163,-7.65598 -38.800732,-23.78109 C 11.394135,243.69812 8.2786413,226.30183 8.2786413,226.30183 Z"
       id="path1498"
       inkscape:connector-curvature="0"
       sodipodi:nodetypes="cscsc" />
    <path
       style="fill:#441b4d;fill-opacity:1;stroke:none;stroke-width:0.45056611px;stroke-linecap:butt;stroke-linejoin:miter;stroke-opacity:1"
       d="m 73.116067,267.96472 c 0,0 11.784257,-3.57061 18.997624,-12.45183 7.849509,-9.66445 9.275819,-19.11899 9.275819,-19.11899 0,0 0.14172,12.08179 -5.761552,19.93446 -9.438692,12.55555 -22.511891,11.63636 -22.511891,11.63636 z"
       id="path1500"
       inkscape:connector-curvature="0"
       sodipodi:nodetypes="cscsc" />
    <path
       style="fill:#c12688;fill-opacity:1;stroke:none;stroke-width:0.45056611px;stroke-linecap:butt;stroke-linejoin:miter;stroke-opacity:1"
       d="m 23.779191,215.00115 c 0,0 5.493113,-13.36137 14.646353,-19.4062 11.50994,-7.6012 25.578374,-7.27865 25.578374,-7.27865 0,0 -17.670875,-3.82775 -29.698611,7.64808 C 22.85,206.89404 23.779191,215.00115 23.779191,215.00115 Z"
       id="path1504"
       inkscape:connector-curvature="0"
       sodipodi:nodetypes="cscsc" />
    <path
       style="opacity:0.497;fill:#c8afcd;fill-opacity:1;stroke:none;stroke-width:0.45056611px;stroke-linecap:butt;stroke-linejoin:miter;stroke-opacity:1"
       d="m 42.197929,195.81003 c 0,0 -0.911998,-3.11088 -0.667794,-7.16951 0.33609,-5.58578 5.799581,-15.02436 5.799581,-15.02436 0,0 -4.37482,1.25605 -9.143445,3.35116 -3.291257,1.44602 -7.102216,4.00624 -7.102216,4.00624 0,0 -1.464498,6.18081 0.309093,11.15227 2.649144,7.42568 5.971412,7.412 5.971412,7.412 0,0 1.370906,-1.24739 2.294992,-1.8171 0.751826,-0.46349 2.538377,-1.9107 2.538377,-1.9107 z"
       id="path1506"
       inkscape:connector-curvature="0"
       sodipodi:nodetypes="cscscscsc" />
    <path
       style="opacity:0.497;fill:#c8afcd;fill-opacity:1;stroke:none;stroke-width:0.45056611px;stroke-linecap:butt;stroke-linejoin:miter;stroke-opacity:1"
       d="m 50.891173,176.17949 c 0,0 -3.658319,4.35542 -3.822427,7.79051 -0.397974,8.33035 1.842794,8.73349 1.842794,8.73349 0,0 -0.387944,-5.34475 0.359263,-8.4066 0.850987,-3.4871 5.204601,-9.02768 5.204601,-9.02768 0,0 -1.434702,0.21092 -2.133471,0.39825 -0.495332,0.13283 -1.45076,0.51203 -1.45076,0.51203 z"
       id="path1516"
       inkscape:connector-curvature="0"
       sodipodi:nodetypes="cscscsc" />
    <path
       style="fill:#fefcff;fill-opacity:1;stroke:none;stroke-width:0.45056611px;stroke-linecap:butt;stroke-linejoin:miter;stroke-opacity:1"
       d="m 33.538939,183.34795 c 0,0 -0.502859,5.0238 0.170679,7.39603 0.696468,2.453 3.868696,6.59953 3.868696,6.59953 0,0 -1.764731,-4.77663 -2.048134,-7.28225 -0.305152,-2.69793 0.398247,-8.13563 0.398247,-8.13563 0,0 -1.091522,0.47873 -1.592992,0.79649 -0.285209,0.18073 -0.796496,0.62583 -0.796496,0.62583 z"
       id="path1520"
       inkscape:connector-curvature="0"
       sodipodi:nodetypes="cscscsc" />
    <path
       style="opacity:0.63999999;fill:#5a224c;fill-opacity:1;stroke:none;stroke-width:0.45056611px;stroke-linecap:butt;stroke-linejoin:miter;stroke-opacity:1"
       d="m 89.726638,259.71673 c 0,0 2.682741,1.85039 4.487731,5.62484 1.382366,2.89069 2.190857,8.46556 2.190857,8.46556 0,0 -4.06807,3.08156 -6.315075,4.26694 -2.417053,1.27505 -7.225356,3.58422 -7.225356,3.58422 0,0 2.520062,-6.5867 2.929475,-10.87054 0.378096,-3.95617 -0.01537,-7.59158 -0.01537,-7.59158 0,0 1.622249,-1.28757 2.361648,-1.83813 0.610225,-0.45439 1.586087,-1.64131 1.586087,-1.64131 z"
       id="path1522"
       inkscape:connector-curvature="0"
       sodipodi:nodetypes="cscscscscc" />
    <path
       style="fill:#754f75;fill-opacity:1;stroke:none;stroke-width:0.45056611px;stroke-linecap:butt;stroke-linejoin:miter;stroke-opacity:1"
       d="m 13.309686,228.67581 c 0,0 2.045867,3.10432 4.539264,4.64325 2.073254,1.27962 5.217524,2.4962 5.217524,2.4962 0,0 2.540774,13.61731 13.430992,23.57426 9.562964,8.74343 26.383782,10.14148 26.383782,10.14148 0,0 -0.678616,0.97006 -0.746067,3.92271 -0.06342,2.77637 2.024111,6.39355 2.024111,6.39355 0,0 -21.211989,-4.85956 -34.275209,-17.70082 C 15.351548,247.86082 13.309686,228.67581 13.309686,228.67581 Z"
       id="path1530"
       inkscape:connector-curvature="0"
       sodipodi:nodetypes="cscscscsc" />
    <path
       style="fill:#754f75;fill-opacity:1;stroke:none;stroke-width:0.45056611px;stroke-linecap:butt;stroke-linejoin:miter;stroke-opacity:1"
       d="m 73.534163,190.94683 c 0,0 11.252812,2.76648 21.312141,15.41951 6.685546,8.40935 6.872166,19.26746 6.872166,19.26746 0,0 4.45556,-0.77274 7.42271,-0.77274 3.46168,0 5.22405,2.20559 5.22405,2.20559 0,0 -0.26503,-18.96655 -14.16065,-34.27522 -13.086311,-14.41705 -32.183293,-14.48248 -32.183293,-14.48248 0,0 3.489668,3.49909 4.214274,5.99127 0.812703,2.79519 1.298602,6.64661 1.298602,6.64661 z"
       id="path1532"
       inkscape:connector-curvature="0"
       sodipodi:nodetypes="cscscscsc" />
    <path
       style="fill:#1c1353;fill-opacity:1;stroke:none;stroke-width:0.26458332px;stroke-linecap:butt;stroke-linejoin:miter;stroke-opacity:1"
       d="m 35.613663,247.28786 c 0,0 10.921188,-16.61824 36.682742,-13.76439 13.043829,1.44499 19.310224,10.35669 19.310224,10.35669 0,0 -9.153873,17.22781 -26.860587,17.97388 -20.43704,0.86111 -29.132379,-14.56618 -29.132379,-14.56618 z"
       id="path2442"
       inkscape:connector-curvature="0"
       sodipodi:nodetypes="cscsc" />
    <path
       style="fill:#b676c3;fill-opacity:1;stroke:none;stroke-width:0.26458332px;stroke-linecap:butt;stroke-linejoin:miter;stroke-opacity:1"
       d="m 62.181004,257.51069 h 2.765491 l 24.985615,-41.97453 -0.459603,-3.19387 -27.599613,42.7632 z"
       id="path2444"
       inkscape:connector-curvature="0"
       sodipodi:nodetypes="cccccc" />
    <path
       style="fill:#d7abe0;fill-opacity:1;stroke:none;stroke-width:0.65895617px;stroke-linecap:butt;stroke-linejoin:miter;stroke-opacity:1"
       d="m 62.181005,257.51069 -26.07796,-45.1684 h 53.369462 z"
       id="path2347"
       inkscape:connector-curvature="0" />
    <path
       style="fill:#ece7ed;fill-opacity:1;stroke:none;stroke-width:0.52110004px;stroke-linecap:butt;stroke-linejoin:miter;stroke-opacity:1"
       d="M 62.307943,252.78599 40.098093,214.42116 H 85.477456 Z"
       id="path2347-4"
       inkscape:connector-curvature="0"
       sodipodi:nodetypes="cccc" />
    <g
       aria-label="Without"
       transform="scale(0.98413002,1.0161259)"
       style="font-style:normal;font-variant:normal;font-weight:normal;font-stretch:normal;font-size:6.24012136px;line-height:1.25;font-family:Montserrat;-inkscape-font-specification:Montserrat;text-align:center;letter-spacing:0px;word-spacing:0px;text-anchor:middle;fill:#d7abe0;fill-opacity:1;stroke:none;stroke-width:0.15600304"
       id="text2448-0">
      <path
         d="m 57.748382,215.35675 -1.460188,4.36809 h -0.655213 l -1.191863,-3.48823 -1.191863,3.48823 h -0.667693 l -1.460189,-4.36809 h 0.642733 l 1.179383,3.55063 1.229303,-3.55063 h 0.574092 l 1.204343,3.56935 1.204344,-3.56935 z"
         style="text-align:center;text-anchor:middle;fill:#d7abe0;fill-opacity:1;stroke-width:0.15600304"
         id="path888" />
      <path
         d="m 58.42854,216.41757 h 0.599052 v 3.30727 H 58.42854 Z m 0.299526,-0.63649 q -0.174723,0 -0.293285,-0.11232 -0.112323,-0.11232 -0.112323,-0.27457 0,-0.16224 0.112323,-0.27456 0.118562,-0.11856 0.293285,-0.11856 0.174724,0 0.287046,0.11232 0.118562,0.10608 0.118562,0.26832 0,0.16849 -0.118562,0.28705 -0.112322,0.11232 -0.287046,0.11232 z"
         style="text-align:center;text-anchor:middle;fill:#d7abe0;fill-opacity:1;stroke-width:0.15600304"
         id="path890" />
      <path
         d="m 62.029086,219.53139 q -0.131042,0.11233 -0.324486,0.17473 -0.193444,0.0562 -0.399368,0.0562 -0.499209,0 -0.773775,-0.26833 -0.274565,-0.26832 -0.274565,-0.76753 v -1.81588 h -0.561611 v -0.49297 h 0.561611 v -0.72385 h 0.599051 v 0.72385 h 0.948499 v 0.49297 h -0.948499 v 1.79092 q 0,0.26832 0.131043,0.41185 0.137283,0.14352 0.386888,0.14352 0.274565,0 0.468009,-0.156 z"
         style="text-align:center;text-anchor:middle;fill:#d7abe0;fill-opacity:1;stroke-width:0.15600304"
         id="path892" />
      <path
         d="m 64.518892,216.38637 q 0.630252,0 0.998419,0.36817 0.374408,0.36193 0.374408,1.06706 v 1.90324 h -0.599052 v -1.8346 q 0,-0.48049 -0.230885,-0.72385 -0.230884,-0.24337 -0.661452,-0.24337 -0.48673,0 -0.767535,0.28705 -0.280806,0.2808 -0.280806,0.81122 v 1.70355 h -0.599051 v -4.63017 h 0.599051 v 1.79091 q 0.187204,-0.23712 0.48673,-0.36816 0.305766,-0.13105 0.680173,-0.13105 z"
         style="text-align:center;text-anchor:middle;fill:#d7abe0;fill-opacity:1;stroke-width:0.15600304"
         id="path894" />
      <path
         d="m 68.437676,219.76228 q -0.492969,0 -0.886097,-0.21841 -0.393127,-0.2184 -0.617772,-0.59905 -0.218404,-0.38688 -0.218404,-0.87361 0,-0.48673 0.218404,-0.86738 0.224645,-0.38689 0.617772,-0.59905 0.393128,-0.21841 0.886097,-0.21841 0.49297,0 0.879858,0.21841 0.393127,0.21216 0.611531,0.59905 0.224645,0.38065 0.224645,0.86738 0,0.48673 -0.224645,0.87361 -0.218404,0.38065 -0.611531,0.59905 -0.386888,0.21841 -0.879858,0.21841 z m 0,-0.52417 q 0.318247,0 0.567852,-0.14352 0.255844,-0.14977 0.399367,-0.41185 0.143523,-0.26833 0.143523,-0.61153 0,-0.34321 -0.143523,-0.6053 -0.143523,-0.26832 -0.399367,-0.41184 -0.249605,-0.14353 -0.567852,-0.14353 -0.318246,0 -0.574091,0.14353 -0.249605,0.14352 -0.399367,0.41184 -0.143523,0.26209 -0.143523,0.6053 0,0.3432 0.143523,0.61153 0.149762,0.26208 0.399367,0.41185 0.255845,0.14352 0.574091,0.14352 z"
         style="text-align:center;text-anchor:middle;fill:#d7abe0;fill-opacity:1;stroke-width:0.15600304"
         id="path896" />
      <path
         d="m 74.066255,216.41757 v 3.30727 h -0.567851 v -0.49921 q -0.180963,0.25584 -0.480489,0.39937 -0.293286,0.13728 -0.642733,0.13728 -0.661453,0 -1.0421,-0.36193 -0.380647,-0.36817 -0.380647,-1.07954 v -1.90324 h 0.599051 v 1.8346 q 0,0.48049 0.230885,0.73009 0.230884,0.24337 0.661453,0.24337 0.474249,0 0.748814,-0.28705 0.274565,-0.28704 0.274565,-0.81121 v -1.7098 z"
         style="text-align:center;text-anchor:middle;fill:#d7abe0;fill-opacity:1;stroke-width:0.15600304"
         id="path898" />
      <path
         d="m 77.067742,219.53139 q -0.131043,0.11233 -0.324487,0.17473 -0.193444,0.0562 -0.399368,0.0562 -0.499209,0 -0.773775,-0.26833 -0.274565,-0.26832 -0.274565,-0.76753 v -1.81588 h -0.561611 v -0.49297 h 0.561611 v -0.72385 h 0.599052 v 0.72385 h 0.948498 v 0.49297 h -0.948498 v 1.79092 q 0,0.26832 0.131042,0.41185 0.137283,0.14352 0.386888,0.14352 0.274565,0 0.468009,-0.156 z"
         style="text-align:center;text-anchor:middle;fill:#d7abe0;fill-opacity:1;stroke-width:0.15600304"
         id="path900" />
    </g>
    <g
       aria-label="Without"
       transform="scale(0.98413002,1.0161259)"
       style="font-style:normal;font-variant:normal;font-weight:normal;font-stretch:normal;font-size:6.24012136px;line-height:1.25;font-family:Montserrat;-inkscape-font-specification:Montserrat;text-align:center;letter-spacing:0px;word-spacing:0px;text-anchor:middle;fill:#441b4d;fill-opacity:1;stroke:none;stroke-width:0.15600304"
       id="text2448">
      <path
         d="m 57.210681,215.35675 -1.460188,4.36809 H 55.09528 l -1.191863,-3.48823 -1.191863,3.48823 h -0.667693 l -1.460189,-4.36809 h 0.642733 l 1.179383,3.55063 1.229304,-3.55063 h 0.574091 l 1.204343,3.56935 1.204344,-3.56935 z"
         style="text-align:center;text-anchor:middle;fill:#441b4d;fill-opacity:1;stroke-width:0.15600304"
         id="path873" />
      <path
         d="m 57.89084,216.41757 h 0.599051 v 3.30727 H 57.89084 Z m 0.299526,-0.63649 q -0.174724,0 -0.293286,-0.11232 -0.112322,-0.11232 -0.112322,-0.27457 0,-0.16224 0.112322,-0.27456 0.118562,-0.11856 0.293286,-0.11856 0.174723,0 0.287045,0.11232 0.118562,0.10608 0.118562,0.26832 0,0.16849 -0.118562,0.28705 -0.112322,0.11232 -0.287045,0.11232 z"
         style="text-align:center;text-anchor:middle;fill:#441b4d;fill-opacity:1;stroke-width:0.15600304"
         id="path875" />
      <path
         d="m 61.491386,219.53139 q -0.131043,0.11233 -0.324487,0.17473 -0.193443,0.0562 -0.399367,0.0562 -0.49921,0 -0.773775,-0.26833 -0.274566,-0.26832 -0.274566,-0.76753 v -1.81588 H 59.15758 v -0.49297 h 0.561611 v -0.72385 h 0.599052 v 0.72385 h 0.948498 v 0.49297 h -0.948498 v 1.79092 q 0,0.26832 0.131042,0.41185 0.137283,0.14352 0.386888,0.14352 0.274565,0 0.468009,-0.156 z"
         style="text-align:center;text-anchor:middle;fill:#441b4d;fill-opacity:1;stroke-width:0.15600304"
         id="path877" />
      <path
         d="m 63.981191,216.38637 q 0.630252,0 0.99842,0.36817 0.374407,0.36193 0.374407,1.06706 v 1.90324 h -0.599052 v -1.8346 q 0,-0.48049 -0.230884,-0.72385 -0.230885,-0.24337 -0.661453,-0.24337 -0.48673,0 -0.767535,0.28705 -0.280805,0.2808 -0.280805,0.81122 v 1.70355 h -0.599052 v -4.63017 h 0.599052 v 1.79091 q 0.187203,-0.23712 0.486729,-0.36816 0.305766,-0.13105 0.680173,-0.13105 z"
         style="text-align:center;text-anchor:middle;fill:#441b4d;fill-opacity:1;stroke-width:0.15600304"
         id="path879" />
      <path
         d="m 67.899976,219.76228 q -0.49297,0 -0.886097,-0.21841 -0.393128,-0.2184 -0.617772,-0.59905 -0.218405,-0.38688 -0.218405,-0.87361 0,-0.48673 0.218405,-0.86738 0.224644,-0.38689 0.617772,-0.59905 0.393127,-0.21841 0.886097,-0.21841 0.492969,0 0.879857,0.21841 0.393128,0.21216 0.611532,0.59905 0.224644,0.38065 0.224644,0.86738 0,0.48673 -0.224644,0.87361 -0.218404,0.38065 -0.611532,0.59905 -0.386888,0.21841 -0.879857,0.21841 z m 0,-0.52417 q 0.318246,0 0.567851,-0.14352 0.255845,-0.14977 0.399368,-0.41185 0.143522,-0.26833 0.143522,-0.61153 0,-0.34321 -0.143522,-0.6053 -0.143523,-0.26832 -0.399368,-0.41184 -0.249605,-0.14353 -0.567851,-0.14353 -0.318246,0 -0.574091,0.14353 -0.249605,0.14352 -0.399368,0.41184 -0.143523,0.26209 -0.143523,0.6053 0,0.3432 0.143523,0.61153 0.149763,0.26208 0.399368,0.41185 0.255845,0.14352 0.574091,0.14352 z"
         style="text-align:center;text-anchor:middle;fill:#441b4d;fill-opacity:1;stroke-width:0.15600304"
         id="path881" />
      <path
         d="m 73.528554,216.41757 v 3.30727 h -0.567851 v -0.49921 q -0.180963,0.25584 -0.480489,0.39937 -0.293286,0.13728 -0.642732,0.13728 -0.661453,0 -1.042101,-0.36193 -0.380647,-0.36817 -0.380647,-1.07954 v -1.90324 h 0.599052 v 1.8346 q 0,0.48049 0.230884,0.73009 0.230885,0.24337 0.661453,0.24337 0.474249,0 0.748814,-0.28705 0.274566,-0.28704 0.274566,-0.81121 v -1.7098 z"
         style="text-align:center;text-anchor:middle;fill:#441b4d;fill-opacity:1;stroke-width:0.15600304"
         id="path883" />
      <path
         d="m 76.530041,219.53139 q -0.131043,0.11233 -0.324486,0.17473 -0.193444,0.0562 -0.399368,0.0562 -0.49921,0 -0.773775,-0.26833 -0.274566,-0.26832 -0.274566,-0.76753 v -1.81588 h -0.56161 v -0.49297 h 0.56161 v -0.72385 h 0.599052 v 0.72385 h 0.948499 v 0.49297 h -0.948499 v 1.79092 q 0,0.26832 0.131043,0.41185 0.137282,0.14352 0.386887,0.14352 0.274566,0 0.468009,-0.156 z"
         style="text-align:center;text-anchor:middle;fill:#441b4d;fill-opacity:1;stroke-width:0.15600304"
         id="path885" />
    </g>
    <g
       aria-label="a"
       transform="scale(0.98413002,1.0161259)"
       style="font-style:normal;font-variant:normal;font-weight:normal;font-stretch:normal;font-size:6.24012136px;line-height:1.25;font-family:Montserrat;-inkscape-font-specification:Montserrat;text-align:center;letter-spacing:0px;word-spacing:0px;text-anchor:middle;fill:#d7abe0;fill-opacity:1;stroke:none;stroke-width:0.15600304"
       id="text2448-3-2">
      <path
         d="m 63.979115,221.99064 q 0.686414,0 1.048341,0.33696 0.368167,0.33697 0.368167,1.00466 v 1.99684 h -0.567851 v -0.43681 q -0.149763,0.23089 -0.430569,0.35569 -0.274565,0.11856 -0.655212,0.11856 -0.555371,0 -0.892338,-0.26832 -0.330726,-0.26833 -0.330726,-0.70514 0,-0.43681 0.318246,-0.69889 0.318246,-0.26833 1.0109,-0.26833 h 0.948498 v -0.11856 q 0,-0.38689 -0.224644,-0.59281 -0.224645,-0.20592 -0.661453,-0.20592 -0.293286,0 -0.574091,0.0998 -0.280806,0.0936 -0.474249,0.25584 l -0.249605,-0.44929 q 0.255845,-0.20592 0.611532,-0.312 0.355687,-0.11232 0.755054,-0.11232 z m -0.137282,2.91413 q 0.343206,0 0.592811,-0.14976 0.249605,-0.156 0.361927,-0.43681 v -0.46177 h -0.923538 q -0.761295,0 -0.761295,0.51169 0,0.24961 0.193444,0.39313 0.193444,0.14352 0.536651,0.14352 z"
         style="text-align:center;text-anchor:middle;fill:#d7abe0;fill-opacity:1;stroke-width:0.15600304"
         id="path870" />
    </g>
    <g
       aria-label="a"
       transform="scale(0.98413002,1.0161259)"
       style="font-style:normal;font-variant:normal;font-weight:normal;font-stretch:normal;font-size:6.24012136px;line-height:1.25;font-family:Montserrat;-inkscape-font-specification:Montserrat;text-align:center;letter-spacing:0px;word-spacing:0px;text-anchor:middle;fill:#441b4d;fill-opacity:1;stroke:none;stroke-width:0.15600304"
       id="text2448-3">
      <path
         d="m 63.441415,221.99064 q 0.686413,0 1.04834,0.33696 0.368167,0.33697 0.368167,1.00466 v 1.99684 h -0.567851 v -0.43681 q -0.149763,0.23089 -0.430568,0.35569 -0.274566,0.11856 -0.655213,0.11856 -0.555371,0 -0.892337,-0.26832 -0.330727,-0.26833 -0.330727,-0.70514 0,-0.43681 0.318246,-0.69889 0.318247,-0.26833 1.0109,-0.26833 h 0.948499 v -0.11856 q 0,-0.38689 -0.224645,-0.59281 -0.224644,-0.20592 -0.661453,-0.20592 -0.293285,0 -0.574091,0.0998 -0.280805,0.0936 -0.474249,0.25584 l -0.249605,-0.44929 q 0.255845,-0.20592 0.611532,-0.312 0.355687,-0.11232 0.755055,-0.11232 z m -0.137283,2.91413 q 0.343207,0 0.592811,-0.14976 0.249605,-0.156 0.361928,-0.43681 v -0.46177 h -0.923538 q -0.761295,0 -0.761295,0.51169 0,0.24961 0.193444,0.39313 0.193443,0.14352 0.53665,0.14352 z"
         style="text-align:center;text-anchor:middle;fill:#441b4d;fill-opacity:1;stroke-width:0.15600304"
         id="path867" />
    </g>
    <g
       aria-label="doubt"
       transform="scale(0.98413002,1.0161259)"
       style="font-style:normal;font-variant:normal;font-weight:normal;font-stretch:normal;font-size:6.24012136px;line-height:1.25;font-family:Montserrat;-inkscape-font-specification:Montserrat;text-align:center;letter-spacing:0px;word-spacing:0px;text-anchor:middle;fill:#d7abe0;fill-opacity:1;stroke:none;stroke-width:0.15600304"
       id="text2448-3-8-4">
      <path
         d="m 58.119657,226.24474 v 4.63017 h -0.574091 v -0.52417 q -0.199684,0.27456 -0.50545,0.41809 -0.305766,0.14352 -0.673933,0.14352 -0.480489,0 -0.861136,-0.21216 -0.380648,-0.21217 -0.599052,-0.59282 -0.212164,-0.38688 -0.212164,-0.88609 0,-0.49921 0.212164,-0.87986 0.218404,-0.38065 0.599052,-0.59281 0.380647,-0.21217 0.861136,-0.21217 0.355687,0 0.655213,0.13729 0.299526,0.13104 0.49921,0.39312 v -1.82211 z m -1.703553,4.14344 q 0.312006,0 0.567851,-0.14352 0.255845,-0.14977 0.399368,-0.41185 0.143523,-0.26833 0.143523,-0.61153 0,-0.34321 -0.143523,-0.6053 -0.143523,-0.26832 -0.399368,-0.41184 -0.255845,-0.14353 -0.567851,-0.14353 -0.318246,0 -0.574091,0.14353 -0.249605,0.14352 -0.399368,0.41184 -0.143523,0.26209 -0.143523,0.6053 0,0.3432 0.143523,0.61153 0.149763,0.26208 0.399368,0.41185 0.255845,0.14352 0.574091,0.14352 z"
         style="text-align:center;text-anchor:middle;fill:#d7abe0;fill-opacity:1;stroke-width:0.15600304"
         id="path856" />
      <path
         d="m 60.671862,230.91235 q -0.49297,0 -0.886097,-0.21841 -0.393128,-0.2184 -0.617772,-0.59905 -0.218404,-0.38688 -0.218404,-0.87361 0,-0.48673 0.218404,-0.86738 0.224644,-0.38689 0.617772,-0.59905 0.393127,-0.21841 0.886097,-0.21841 0.49297,0 0.879857,0.21841 0.393128,0.21216 0.611532,0.59905 0.224644,0.38065 0.224644,0.86738 0,0.48673 -0.224644,0.87361 -0.218404,0.38065 -0.611532,0.59905 -0.386887,0.21841 -0.879857,0.21841 z m 0,-0.52417 q 0.318246,0 0.567851,-0.14352 0.255845,-0.14977 0.399368,-0.41185 0.143523,-0.26833 0.143523,-0.61153 0,-0.34321 -0.143523,-0.6053 -0.143523,-0.26832 -0.399368,-0.41184 -0.249605,-0.14353 -0.567851,-0.14353 -0.318246,0 -0.574091,0.14353 -0.249605,0.14352 -0.399368,0.41184 -0.143523,0.26209 -0.143523,0.6053 0,0.3432 0.143523,0.61153 0.149763,0.26208 0.399368,0.41185 0.255845,0.14352 0.574091,0.14352 z"
         style="text-align:center;text-anchor:middle;fill:#d7abe0;fill-opacity:1;stroke-width:0.15600304"
         id="path858" />
      <path
         d="m 66.300441,227.56764 v 3.30727 H 65.73259 v -0.49921 q -0.180963,0.25584 -0.480489,0.39937 -0.293286,0.13728 -0.642733,0.13728 -0.661453,0 -1.0421,-0.36193 -0.380647,-0.36817 -0.380647,-1.07954 v -1.90324 h 0.599051 v 1.8346 q 0,0.48049 0.230885,0.73009 0.230884,0.24337 0.661453,0.24337 0.474249,0 0.748814,-0.28705 0.274566,-0.28704 0.274566,-0.81121 v -1.7098 z"
         style="text-align:center;text-anchor:middle;fill:#d7abe0;fill-opacity:1;stroke-width:0.15600304"
         id="path860" />
      <path
         d="m 69.195846,227.53644 q 0.480489,0 0.861136,0.21217 0.380648,0.21216 0.592812,0.59281 0.218404,0.38065 0.218404,0.87986 0,0.49921 -0.218404,0.88609 -0.212164,0.38065 -0.592812,0.59282 -0.380647,0.21216 -0.861136,0.21216 -0.368168,0 -0.673934,-0.14352 -0.305766,-0.14353 -0.505449,-0.41809 v 0.52417 h -0.574092 v -4.63017 h 0.599052 v 1.82211 q 0.199684,-0.26208 0.49921,-0.39312 0.299526,-0.13729 0.655213,-0.13729 z m -0.04992,2.85174 q 0.318246,0 0.567851,-0.14352 0.255845,-0.14977 0.399367,-0.41185 0.149763,-0.26833 0.149763,-0.61153 0,-0.34321 -0.149763,-0.6053 -0.143522,-0.26832 -0.399367,-0.41184 -0.249605,-0.14353 -0.567851,-0.14353 -0.312006,0 -0.567851,0.14353 -0.255845,0.14352 -0.399368,0.41184 -0.143523,0.26209 -0.143523,0.6053 0,0.3432 0.143523,0.61153 0.143523,0.26208 0.399368,0.41185 0.255845,0.14352 0.567851,0.14352 z"
         style="text-align:center;text-anchor:middle;fill:#d7abe0;fill-opacity:1;stroke-width:0.15600304"
         id="path862" />
      <path
         d="m 73.557685,230.68146 q -0.131043,0.11233 -0.324486,0.17473 -0.193444,0.0562 -0.399368,0.0562 -0.49921,0 -0.773775,-0.26833 -0.274566,-0.26832 -0.274566,-0.76753 v -1.81588 h -0.56161 v -0.49297 h 0.56161 v -0.72385 h 0.599052 v 0.72385 h 0.948499 v 0.49297 h -0.948499 v 1.79092 q 0,0.26832 0.131043,0.41185 0.137282,0.14352 0.386887,0.14352 0.274566,0 0.468009,-0.156 z"
         style="text-align:center;text-anchor:middle;fill:#d7abe0;fill-opacity:1;stroke-width:0.15600304"
         id="path864" />
    </g>
    <g
       aria-label="doubt"
       transform="scale(0.98413002,1.0161259)"
       style="font-style:normal;font-variant:normal;font-weight:normal;font-stretch:normal;font-size:6.24012136px;line-height:1.25;font-family:Montserrat;-inkscape-font-specification:Montserrat;text-align:center;letter-spacing:0px;word-spacing:0px;text-anchor:middle;fill:#441b4d;fill-opacity:1;stroke:none;stroke-width:0.15600304"
       id="text2448-3-8">
      <path
         d="m 57.581957,226.24474 v 4.63017 h -0.574091 v -0.52417 q -0.199684,0.27456 -0.50545,0.41809 -0.305766,0.14352 -0.673933,0.14352 -0.48049,0 -0.861137,-0.21216 -0.380648,-0.21217 -0.599052,-0.59282 -0.212164,-0.38688 -0.212164,-0.88609 0,-0.49921 0.212164,-0.87986 0.218404,-0.38065 0.599052,-0.59281 0.380647,-0.21217 0.861137,-0.21217 0.355687,0 0.655212,0.13729 0.299526,0.13104 0.49921,0.39312 v -1.82211 z m -1.703553,4.14344 q 0.312006,0 0.567851,-0.14352 0.255845,-0.14977 0.399367,-0.41185 0.143523,-0.26833 0.143523,-0.61153 0,-0.34321 -0.143523,-0.6053 -0.143522,-0.26832 -0.399367,-0.41184 -0.255845,-0.14353 -0.567851,-0.14353 -0.318247,0 -0.574092,0.14353 -0.249604,0.14352 -0.399367,0.41184 -0.143523,0.26209 -0.143523,0.6053 0,0.3432 0.143523,0.61153 0.149763,0.26208 0.399367,0.41185 0.255845,0.14352 0.574092,0.14352 z"
         style="text-align:center;text-anchor:middle;fill:#441b4d;fill-opacity:1;stroke-width:0.15600304"
         id="path845" />
      <path
         d="m 60.134161,230.91235 q -0.492969,0 -0.886097,-0.21841 -0.393128,-0.2184 -0.617772,-0.59905 -0.218404,-0.38688 -0.218404,-0.87361 0,-0.48673 0.218404,-0.86738 0.224644,-0.38689 0.617772,-0.59905 0.393128,-0.21841 0.886097,-0.21841 0.49297,0 0.879857,0.21841 0.393128,0.21216 0.611532,0.59905 0.224645,0.38065 0.224645,0.86738 0,0.48673 -0.224645,0.87361 -0.218404,0.38065 -0.611532,0.59905 -0.386887,0.21841 -0.879857,0.21841 z m 0,-0.52417 q 0.318247,0 0.567851,-0.14352 0.255845,-0.14977 0.399368,-0.41185 0.143523,-0.26833 0.143523,-0.61153 0,-0.34321 -0.143523,-0.6053 -0.143523,-0.26832 -0.399368,-0.41184 -0.249604,-0.14353 -0.567851,-0.14353 -0.318246,0 -0.574091,0.14353 -0.249605,0.14352 -0.399368,0.41184 -0.143522,0.26209 -0.143522,0.6053 0,0.3432 0.143522,0.61153 0.149763,0.26208 0.399368,0.41185 0.255845,0.14352 0.574091,0.14352 z"
         style="text-align:center;text-anchor:middle;fill:#441b4d;fill-opacity:1;stroke-width:0.15600304"
         id="path847" />
      <path
         d="m 65.76274,227.56764 v 3.30727 h -0.567851 v -0.49921 q -0.180963,0.25584 -0.480489,0.39937 -0.293286,0.13728 -0.642732,0.13728 -0.661453,0 -1.042101,-0.36193 -0.380647,-0.36817 -0.380647,-1.07954 v -1.90324 h 0.599052 v 1.8346 q 0,0.48049 0.230884,0.73009 0.230885,0.24337 0.661453,0.24337 0.474249,0 0.748815,-0.28705 0.274565,-0.28704 0.274565,-0.81121 v -1.7098 z"
         style="text-align:center;text-anchor:middle;fill:#441b4d;fill-opacity:1;stroke-width:0.15600304"
         id="path849" />
      <path
         d="m 68.658145,227.53644 q 0.480489,0 0.861137,0.21217 0.380647,0.21216 0.592811,0.59281 0.218404,0.38065 0.218404,0.87986 0,0.49921 -0.218404,0.88609 -0.212164,0.38065 -0.592811,0.59282 -0.380648,0.21216 -0.861137,0.21216 -0.368167,0 -0.673933,-0.14352 -0.305766,-0.14353 -0.50545,-0.41809 v 0.52417 h -0.574091 v -4.63017 h 0.599051 v 1.82211 q 0.199684,-0.26208 0.49921,-0.39312 0.299526,-0.13729 0.655213,-0.13729 z m -0.04992,2.85174 q 0.318246,0 0.567851,-0.14352 0.255845,-0.14977 0.399368,-0.41185 0.149763,-0.26833 0.149763,-0.61153 0,-0.34321 -0.149763,-0.6053 -0.143523,-0.26832 -0.399368,-0.41184 -0.249605,-0.14353 -0.567851,-0.14353 -0.312006,0 -0.567851,0.14353 -0.255845,0.14352 -0.399368,0.41184 -0.143523,0.26209 -0.143523,0.6053 0,0.3432 0.143523,0.61153 0.143523,0.26208 0.399368,0.41185 0.255845,0.14352 0.567851,0.14352 z"
         style="text-align:center;text-anchor:middle;fill:#441b4d;fill-opacity:1;stroke-width:0.15600304"
         id="path851" />
      <path
         d="m 73.019984,230.68146 q -0.131042,0.11233 -0.324486,0.17473 -0.193444,0.0562 -0.399368,0.0562 -0.499209,0 -0.773775,-0.26833 -0.274565,-0.26832 -0.274565,-0.76753 v -1.81588 h -0.561611 v -0.49297 h 0.561611 v -0.72385 h 0.599051 v 0.72385 h 0.948499 v 0.49297 h -0.948499 v 1.79092 q 0,0.26832 0.131043,0.41185 0.137283,0.14352 0.386888,0.14352 0.274565,0 0.468009,-0.156 z"
         style="text-align:center;text-anchor:middle;fill:#441b4d;fill-opacity:1;stroke-width:0.15600304"
         id="path853" />
    </g>
  </g>
</svg>
