<?xml version="1.0" encoding="UTF-8" standalone="no"?>
<!-- Created with Inkscape (http://www.inkscape.org/) -->

<svg
   xmlns:dc="http://purl.org/dc/elements/1.1/"
   xmlns:cc="http://creativecommons.org/ns#"
   xmlns:rdf="http://www.w3.org/1999/02/22-rdf-syntax-ns#"
   xmlns:svg="http://www.w3.org/2000/svg"
   xmlns="http://www.w3.org/2000/svg"
   xmlns:sodipodi="http://sodipodi.sourceforge.net/DTD/sodipodi-0.dtd"
   xmlns:inkscape="http://www.inkscape.org/namespaces/inkscape"
   width="500"
   height="500"
   viewBox="0 0 132.29166 132.29167"
   version="1.1"
   id="svg885"
   inkscape:version="0.92.5 (2060ec1f9f, 2020-04-08)"
   sodipodi:docname="back13.svg">
  <defs
     id="defs879" />
  <sodipodi:namedview
     id="base"
     pagecolor="#ffffff"
     bordercolor="#666666"
     borderopacity="1.0"
     inkscape:pageopacity="0.0"
     inkscape:pageshadow="2"
     inkscape:zoom="1.979899"
     inkscape:cx="160.38987"
     inkscape:cy="252.74215"
     inkscape:document-units="mm"
     inkscape:current-layer="layer1"
     showgrid="false"
     units="px"
     inkscape:window-width="1848"
     inkscape:window-height="1016"
     inkscape:window-x="72"
     inkscape:window-y="27"
     inkscape:window-maximized="1"
     inkscape:lockguides="true" />
  <metadata
     id="metadata882">
    <rdf:RDF>
      <cc:Work
         rdf:about="">
        <dc:format>image/svg+xml</dc:format>
        <dc:type
           rdf:resource="http://purl.org/dc/dcmitype/StillImage" />
        <dc:title />
      </cc:Work>
    </rdf:RDF>
  </metadata>
  <g
     inkscape:label="Layer 1"
     inkscape:groupmode="layer"
     id="layer1"
     transform="translate(0,-164.70832)">
    <ellipse
       style="opacity:0.26199999;vector-effect:none;fill:#754f75;fill-opacity:1;stroke:none;stroke-width:1.17161381;stroke-linecap:round;stroke-linejoin:round;stroke-miterlimit:4;stroke-dasharray:none;stroke-dashoffset:0;stroke-opacity:1"
       id="path1534"
       cx="85.47683"
       cy="282.5824"
       rx="42.783207"
       ry="9.6148434" />
    <ellipse
       style="opacity:0.26199999;vector-effect:none;fill:#754f75;fill-opacity:1;stroke:none;stroke-width:0.76952147;stroke-linecap:round;stroke-linejoin:round;stroke-miterlimit:4;stroke-dasharray:none;stroke-dashoffset:0;stroke-opacity:1"
       id="path1534-9"
       cx="71.481262"
       cy="282.92374"
       rx="28.100214"
       ry="6.3150744" />
    <circle
       style="opacity:1;vector-effect:none;fill:#9957af;fill-opacity:1;stroke:none;stroke-width:1.14031112;stroke-linecap:round;stroke-linejoin:round;stroke-miterlimit:4;stroke-dasharray:none;stroke-dashoffset:0;stroke-opacity:1"
       id="path1449"
       cx="62.440365"
       cy="229.14644"
       r="58.030418" />
    <circle
       style="opacity:1;vector-effect:none;fill:#82326f;fill-opacity:1;stroke:none;stroke-width:1.11348021;stroke-linecap:round;stroke-linejoin:round;stroke-miterlimit:4;stroke-dasharray:none;stroke-dashoffset:0;stroke-opacity:1"
       id="path1449-3"
       cx="62.440365"
       cy="229.14644"
       r="56.665001" />
    <ellipse
       style="opacity:1;vector-effect:none;fill:#613e6d;fill-opacity:1;stroke:none;stroke-width:0.73709202;stroke-linecap:round;stroke-linejoin:round;stroke-miterlimit:4;stroke-dasharray:none;stroke-dashoffset:0;stroke-opacity:1"
       id="path1449-3-3"
       cx="62.440365"
       cy="229.14644"
       rx="37.386955"
       ry="37.634663" />
    <ellipse
       style="opacity:1;vector-effect:none;fill:#000000;fill-opacity:1;stroke:none;stroke-width:0.68278807;stroke-linecap:round;stroke-linejoin:round;stroke-miterlimit:4;stroke-dasharray:none;stroke-dashoffset:0;stroke-opacity:1"
       id="path1449-3-3-0"
       cx="62.440365"
       cy="229.14644"
       rx="34.632538"
       ry="34.861996" />
    <path
       style="fill:#c12688;fill-opacity:1;stroke:none;stroke-width:0.45056611px;stroke-linecap:butt;stroke-linejoin:miter;stroke-opacity:1"
       d="m 12.488691,207.29972 c 0,0 4.63182,-14.18778 20.139969,-23.89489 15.916805,-9.96289 28.901421,-9.44417 28.901421,-9.44417 0,0 -17.19509,5.47451 -27.763568,12.2888 -12.174689,7.84993 -21.277822,21.05026 -21.277822,21.05026 z"
       id="path1496"
       inkscape:connector-curvature="0"
       sodipodi:nodetypes="cscsc" />
    <path
       style="fill:#c12688;fill-opacity:1;stroke:none;stroke-width:0.45056611px;stroke-linecap:butt;stroke-linejoin:miter;stroke-opacity:1"
       d="m 67.352956,283.81496 c 0,0 17.255122,-2.81772 32.22176,-16.62391 14.524494,-13.39832 17.526094,-33.44637 17.526094,-33.44637 0,0 -1.76699,20.12708 -14.40203,32.98788 -12.992154,15.8522 -35.345824,17.0824 -35.345824,17.0824 z"
       id="path1502"
       inkscape:connector-curvature="0"
       sodipodi:nodetypes="csccc" />
    <path
       style="fill:#441b4d;fill-opacity:1;stroke:none;stroke-width:0.45056611px;stroke-linecap:butt;stroke-linejoin:miter;stroke-opacity:1"
       d="m 8.2786413,226.30183 c 0,0 -3.8706954,17.27867 12.9715057,38.11802 15.585378,19.28423 42.555639,20.36753 42.555639,20.36753 0,0 -26.120163,-7.65598 -38.800732,-23.78109 C 11.394135,243.69812 8.2786413,226.30183 8.2786413,226.30183 Z"
       id="path1498"
       inkscape:connector-curvature="0"
       sodipodi:nodetypes="cscsc" />
    <path
       style="fill:#441b4d;fill-opacity:1;stroke:none;stroke-width:0.45056611px;stroke-linecap:butt;stroke-linejoin:miter;stroke-opacity:1"
       d="m 73.116067,267.96472 c 0,0 11.784257,-3.57061 18.997624,-12.45183 7.849509,-9.66445 9.275819,-19.11899 9.275819,-19.11899 0,0 0.14172,12.08179 -5.761552,19.93446 -9.438692,12.55555 -22.511891,11.63636 -22.511891,11.63636 z"
       id="path1500"
       inkscape:connector-curvature="0"
       sodipodi:nodetypes="cscsc" />
    <path
       style="fill:#c12688;fill-opacity:1;stroke:none;stroke-width:0.45056611px;stroke-linecap:butt;stroke-linejoin:miter;stroke-opacity:1"
       d="m 23.779191,215.00115 c 0,0 5.493113,-13.36137 14.646353,-19.4062 11.50994,-7.6012 25.578374,-7.27865 25.578374,-7.27865 0,0 -17.670875,-3.82775 -29.698611,7.64808 C 22.85,206.89404 23.779191,215.00115 23.779191,215.00115 Z"
       id="path1504"
       inkscape:connector-curvature="0"
       sodipodi:nodetypes="cscsc" />
    <path
       style="opacity:0.497;fill:#c8afcd;fill-opacity:1;stroke:none;stroke-width:0.45056611px;stroke-linecap:butt;stroke-linejoin:miter;stroke-opacity:1"
       d="m 42.197929,195.81003 c 0,0 -0.911998,-3.11088 -0.667794,-7.16951 0.33609,-5.58578 5.799581,-15.02436 5.799581,-15.02436 0,0 -4.37482,1.25605 -9.143445,3.35116 -3.291257,1.44602 -7.102216,4.00624 -7.102216,4.00624 0,0 -1.464498,6.18081 0.309093,11.15227 2.649144,7.42568 5.971412,7.412 5.971412,7.412 0,0 1.370906,-1.24739 2.294992,-1.8171 0.751826,-0.46349 2.538377,-1.9107 2.538377,-1.9107 z"
       id="path1506"
       inkscape:connector-curvature="0"
       sodipodi:nodetypes="cscscscsc" />
    <path
       style="opacity:0.497;fill:#c8afcd;fill-opacity:1;stroke:none;stroke-width:0.45056611px;stroke-linecap:butt;stroke-linejoin:miter;stroke-opacity:1"
       d="m 50.891173,176.17949 c 0,0 -3.658319,4.35542 -3.822427,7.79051 -0.397974,8.33035 1.842794,8.73349 1.842794,8.73349 0,0 -0.387944,-5.34475 0.359263,-8.4066 0.850987,-3.4871 5.204601,-9.02768 5.204601,-9.02768 0,0 -1.434702,0.21092 -2.133471,0.39825 -0.495332,0.13283 -1.45076,0.51203 -1.45076,0.51203 z"
       id="path1516"
       inkscape:connector-curvature="0"
       sodipodi:nodetypes="cscscsc" />
    <path
       style="fill:#fefcff;fill-opacity:1;stroke:none;stroke-width:0.45056611px;stroke-linecap:butt;stroke-linejoin:miter;stroke-opacity:1"
       d="m 33.538939,183.34795 c 0,0 -0.502859,5.0238 0.170679,7.39603 0.696468,2.453 3.868696,6.59953 3.868696,6.59953 0,0 -1.764731,-4.77663 -2.048134,-7.28225 -0.305152,-2.69793 0.398247,-8.13563 0.398247,-8.13563 0,0 -1.091522,0.47873 -1.592992,0.79649 -0.285209,0.18073 -0.796496,0.62583 -0.796496,0.62583 z"
       id="path1520"
       inkscape:connector-curvature="0"
       sodipodi:nodetypes="cscscsc" />
    <path
       style="opacity:0.63999999;fill:#5a224c;fill-opacity:1;stroke:none;stroke-width:0.45056611px;stroke-linecap:butt;stroke-linejoin:miter;stroke-opacity:1"
       d="m 89.726638,259.71673 c 0,0 2.682741,1.85039 4.487731,5.62484 1.382366,2.89069 2.190857,8.46556 2.190857,8.46556 0,0 -4.06807,3.08156 -6.315075,4.26694 -2.417053,1.27505 -7.225356,3.58422 -7.225356,3.58422 0,0 2.520062,-6.5867 2.929475,-10.87054 0.378096,-3.95617 -0.01537,-7.59158 -0.01537,-7.59158 0,0 1.622249,-1.28757 2.361648,-1.83813 0.610225,-0.45439 1.586087,-1.64131 1.586087,-1.64131 z"
       id="path1522"
       inkscape:connector-curvature="0"
       sodipodi:nodetypes="cscscscscc" />
    <path
       style="fill:#754f75;fill-opacity:1;stroke:none;stroke-width:0.45056611px;stroke-linecap:butt;stroke-linejoin:miter;stroke-opacity:1"
       d="m 13.309686,228.67581 c 0,0 2.045867,3.10432 4.539264,4.64325 2.073254,1.27962 5.217524,2.4962 5.217524,2.4962 0,0 2.540774,13.61731 13.430992,23.57426 9.562964,8.74343 26.383782,10.14148 26.383782,10.14148 0,0 -0.678616,0.97006 -0.746067,3.92271 -0.06342,2.77637 2.024111,6.39355 2.024111,6.39355 0,0 -21.211989,-4.85956 -34.275209,-17.70082 C 15.351548,247.86082 13.309686,228.67581 13.309686,228.67581 Z"
       id="path1530"
       inkscape:connector-curvature="0"
       sodipodi:nodetypes="cscscscsc" />
    <path
       style="fill:#754f75;fill-opacity:1;stroke:none;stroke-width:0.45056611px;stroke-linecap:butt;stroke-linejoin:miter;stroke-opacity:1"
       d="m 73.534163,190.94683 c 0,0 11.252812,2.76648 21.312141,15.41951 6.685546,8.40935 6.872166,19.26746 6.872166,19.26746 0,0 4.45556,-0.77274 7.42271,-0.77274 3.46168,0 5.22405,2.20559 5.22405,2.20559 0,0 -0.26503,-18.96655 -14.16065,-34.27522 -13.086311,-14.41705 -32.183293,-14.48248 -32.183293,-14.48248 0,0 3.489668,3.49909 4.214274,5.99127 0.812703,2.79519 1.298602,6.64661 1.298602,6.64661 z"
       id="path1532"
       inkscape:connector-curvature="0"
       sodipodi:nodetypes="cscscscsc" />
    <path
       style="fill:#1c1353;fill-opacity:1;stroke:none;stroke-width:0.26458332px;stroke-linecap:butt;stroke-linejoin:miter;stroke-opacity:1"
       d="m 35.613663,247.28786 c 0,0 10.921188,-16.61824 36.682742,-13.76439 13.043829,1.44499 19.310224,10.35669 19.310224,10.35669 0,0 -9.153873,17.22781 -26.860587,17.97388 -20.43704,0.86111 -29.132379,-14.56618 -29.132379,-14.56618 z"
       id="path2442"
       inkscape:connector-curvature="0"
       sodipodi:nodetypes="cscsc" />
    <path
       style="fill:#b676c3;fill-opacity:1;stroke:none;stroke-width:0.26458332px;stroke-linecap:butt;stroke-linejoin:miter;stroke-opacity:1"
       d="m 62.181004,257.51069 h 2.765491 l 24.985615,-41.97453 -0.459603,-3.19387 -27.599613,42.7632 z"
       id="path2444"
       inkscape:connector-curvature="0"
       sodipodi:nodetypes="cccccc" />
    <path
       style="fill:#d7abe0;fill-opacity:1;stroke:none;stroke-width:0.65895617px;stroke-linecap:butt;stroke-linejoin:miter;stroke-opacity:1"
       d="m 62.181005,257.51069 -26.07796,-45.1684 h 53.369462 z"
       id="path2347"
       inkscape:connector-curvature="0" />
    <path
       style="fill:#ece7ed;fill-opacity:1;stroke:none;stroke-width:0.52110004px;stroke-linecap:butt;stroke-linejoin:miter;stroke-opacity:1"
       d="M 62.307943,252.78599 40.098093,214.42116 H 85.477456 Z"
       id="path2347-4"
       inkscape:connector-curvature="0"
       sodipodi:nodetypes="cccc" />
    <g
       aria-label="Better not"
       transform="scale(0.98413002,1.0161259)"
       style="font-style:normal;font-variant:normal;font-weight:normal;font-stretch:normal;font-size:6.24012136px;line-height:1.25;font-family:Montserrat;-inkscape-font-specification:Montserrat;text-align:center;letter-spacing:0px;word-spacing:0px;text-anchor:middle;fill:#d7abe0;fill-opacity:1;stroke:none;stroke-width:0.15600304"
       id="text2448-8">
      <path
         d="m 51.473939,216.93891 q 0.380647,0.10608 0.599051,0.38688 0.218405,0.27457 0.218405,0.6989 0,0.56785 -0.430569,0.87362 -0.424328,0.30576 -1.241784,0.30576 h -2.0842 v -4.36808 h 1.959398 q 0.748814,0 1.154422,0.29952 0.411848,0.29953 0.411848,0.82994 0,0.3432 -0.162243,0.59281 -0.156003,0.2496 -0.424328,0.38065 z m -2.315085,-1.59747 v 1.39778 h 1.279225 q 0.480489,0 0.736334,-0.17472 0.262085,-0.18096 0.262085,-0.52417 0,-0.34321 -0.262085,-0.51793 -0.255845,-0.18096 -0.736334,-0.18096 z m 1.435228,3.35718 q 0.53041,0 0.798735,-0.17472 0.268325,-0.17473 0.268325,-0.54913 0,-0.7301 -1.06706,-0.7301 h -1.435228 v 1.45395 z"
         style="text-align:center;text-anchor:middle;fill:#d7abe0;fill-opacity:1;stroke-width:0.15600304"
         id="path908" />
      <path
         d="m 56.16027,217.56916 q 0,0.0686 -0.01248,0.18096 h -2.683252 q 0.05616,0.43681 0.380648,0.70514 0.330726,0.26208 0.817456,0.26208 0.592811,0 0.954738,-0.39937 l 0.330727,0.38689 q -0.224645,0.26209 -0.561611,0.39937 -0.330727,0.13728 -0.742575,0.13728 -0.52417,0 -0.929778,-0.21216 -0.405608,-0.21841 -0.630252,-0.60529 -0.218404,-0.38689 -0.218404,-0.87362 0,-0.48049 0.212164,-0.86738 0.218404,-0.38689 0.592811,-0.59905 0.380648,-0.2184 0.854897,-0.2184 0.474249,0 0.842416,0.2184 0.374408,0.21216 0.580332,0.59905 0.212164,0.38689 0.212164,0.8861 z m -1.634912,-1.1981 q -0.430569,0 -0.723854,0.26208 -0.287046,0.26209 -0.336967,0.68641 h 2.121641 q -0.04992,-0.41808 -0.343206,-0.68017 -0.287046,-0.26832 -0.717614,-0.26832 z"
         style="text-align:center;text-anchor:middle;fill:#d7abe0;fill-opacity:1;stroke-width:0.15600304"
         id="path910" />
      <path
         d="m 58.849759,219.01063 q -0.131043,0.11232 -0.324486,0.17472 -0.193444,0.0562 -0.399368,0.0562 -0.49921,0 -0.773775,-0.26832 -0.274566,-0.26833 -0.274566,-0.76754 v -1.81587 h -0.561611 v -0.49297 h 0.561611 v -0.72386 h 0.599052 v 0.72386 h 0.948498 v 0.49297 h -0.948498 v 1.79091 q 0,0.26833 0.131043,0.41185 0.137282,0.14352 0.386887,0.14352 0.274565,0 0.468009,-0.156 z"
         style="text-align:center;text-anchor:middle;fill:#d7abe0;fill-opacity:1;stroke-width:0.15600304"
         id="path912" />
      <path
         d="m 61.352042,219.01063 q -0.131043,0.11232 -0.324486,0.17472 -0.193444,0.0562 -0.399368,0.0562 -0.49921,0 -0.773775,-0.26832 -0.274566,-0.26833 -0.274566,-0.76754 v -1.81587 h -0.56161 v -0.49297 h 0.56161 v -0.72386 h 0.599052 v 0.72386 h 0.948499 v 0.49297 h -0.948499 v 1.79091 q 0,0.26833 0.131043,0.41185 0.137282,0.14352 0.386887,0.14352 0.274566,0 0.468009,-0.156 z"
         style="text-align:center;text-anchor:middle;fill:#d7abe0;fill-opacity:1;stroke-width:0.15600304"
         id="path914" />
      <path
         d="m 64.952579,217.56916 q 0,0.0686 -0.01248,0.18096 h -2.683252 q 0.05616,0.43681 0.380647,0.70514 0.330726,0.26208 0.817456,0.26208 0.592811,0 0.954738,-0.39937 l 0.330727,0.38689 q -0.224645,0.26209 -0.561611,0.39937 -0.330727,0.13728 -0.742575,0.13728 -0.52417,0 -0.929778,-0.21216 -0.405608,-0.21841 -0.630252,-0.60529 -0.218404,-0.38689 -0.218404,-0.87362 0,-0.48049 0.212164,-0.86738 0.218404,-0.38689 0.592812,-0.59905 0.380647,-0.2184 0.854896,-0.2184 0.474249,0 0.842417,0.2184 0.374407,0.21216 0.580331,0.59905 0.212164,0.38689 0.212164,0.8861 z m -1.634912,-1.1981 q -0.430568,0 -0.723854,0.26208 -0.287046,0.26209 -0.336966,0.68641 h 2.121641 q -0.04992,-0.41808 -0.343207,-0.68017 -0.287045,-0.26832 -0.717614,-0.26832 z"
         style="text-align:center;text-anchor:middle;fill:#d7abe0;fill-opacity:1;stroke-width:0.15600304"
         id="path916" />
      <path
         d="m 66.356603,216.45218 q 0.156003,-0.28705 0.461769,-0.43681 0.305766,-0.14976 0.742574,-0.14976 v 0.58033 q -0.04992,-0.006 -0.137283,-0.006 -0.486729,0 -0.767535,0.29328 -0.274565,0.28705 -0.274565,0.8237 v 1.64739 h -0.599052 v -3.30726 h 0.574092 z"
         style="text-align:center;text-anchor:middle;fill:#d7abe0;fill-opacity:1;stroke-width:0.15600304"
         id="path918" />
      <path
         d="m 71.785502,215.86561 q 0.630252,0 0.998419,0.36816 0.374407,0.36193 0.374407,1.06706 v 1.90324 h -0.599051 v -1.83459 q 0,-0.48049 -0.230885,-0.72386 -0.230884,-0.24336 -0.661453,-0.24336 -0.486729,0 -0.767535,0.28704 -0.280805,0.28081 -0.280805,0.81122 v 1.70355 h -0.599052 v -3.30726 h 0.574091 v 0.49921 q 0.180964,-0.25585 0.48673,-0.39313 0.312006,-0.13728 0.705134,-0.13728 z"
         style="text-align:center;text-anchor:middle;fill:#d7abe0;fill-opacity:1;stroke-width:0.15600304"
         id="path920" />
      <path
         d="m 75.704287,219.24151 q -0.492969,0 -0.886097,-0.2184 -0.393128,-0.21841 -0.617772,-0.59905 -0.218404,-0.38689 -0.218404,-0.87362 0,-0.48673 0.218404,-0.86738 0.224644,-0.38689 0.617772,-0.59905 0.393128,-0.2184 0.886097,-0.2184 0.49297,0 0.879857,0.2184 0.393128,0.21216 0.611532,0.59905 0.224644,0.38065 0.224644,0.86738 0,0.48673 -0.224644,0.87362 -0.218404,0.38064 -0.611532,0.59905 -0.386887,0.2184 -0.879857,0.2184 z m 0,-0.52417 q 0.318246,0 0.567851,-0.14352 0.255845,-0.14976 0.399368,-0.41185 0.143523,-0.26832 0.143523,-0.61153 0,-0.34321 -0.143523,-0.60529 -0.143523,-0.26833 -0.399368,-0.41185 -0.249605,-0.14352 -0.567851,-0.14352 -0.318246,0 -0.574091,0.14352 -0.249605,0.14352 -0.399368,0.41185 -0.143523,0.26208 -0.143523,0.60529 0,0.34321 0.143523,0.61153 0.149763,0.26209 0.399368,0.41185 0.255845,0.14352 0.574091,0.14352 z"
         style="text-align:center;text-anchor:middle;fill:#d7abe0;fill-opacity:1;stroke-width:0.15600304"
         id="path922" />
      <path
         d="m 80.109803,219.01063 q -0.131043,0.11232 -0.324486,0.17472 -0.193444,0.0562 -0.399368,0.0562 -0.49921,0 -0.773775,-0.26832 -0.274566,-0.26833 -0.274566,-0.76754 v -1.81587 h -0.56161 v -0.49297 h 0.56161 v -0.72386 h 0.599052 v 0.72386 h 0.948499 v 0.49297 H 78.93666 v 1.79091 q 0,0.26833 0.131043,0.41185 0.137282,0.14352 0.386887,0.14352 0.274566,0 0.468009,-0.156 z"
         style="text-align:center;text-anchor:middle;fill:#d7abe0;fill-opacity:1;stroke-width:0.15600304"
         id="path924" />
    </g>
    <g
       aria-label="Better not"
       transform="scale(0.98413002,1.0161259)"
       style="font-style:normal;font-variant:normal;font-weight:normal;font-stretch:normal;font-size:6.24012136px;line-height:1.25;font-family:Montserrat;-inkscape-font-specification:Montserrat;text-align:center;letter-spacing:0px;word-spacing:0px;text-anchor:middle;fill:#441b4d;fill-opacity:1;stroke:none;stroke-width:0.15600304"
       id="text2448">
      <path
         d="m 50.936238,216.93891 q 0.380648,0.10608 0.599052,0.38688 0.218404,0.27457 0.218404,0.6989 0,0.56785 -0.430568,0.87362 -0.424329,0.30576 -1.241784,0.30576 h -2.084201 v -4.36808 h 1.959398 q 0.748815,0 1.154423,0.29952 0.411848,0.29953 0.411848,0.82994 0,0.3432 -0.162244,0.59281 -0.156003,0.2496 -0.424328,0.38065 z m -2.315085,-1.59747 v 1.39778 h 1.279225 q 0.480489,0 0.736334,-0.17472 0.262085,-0.18096 0.262085,-0.52417 0,-0.34321 -0.262085,-0.51793 -0.255845,-0.18096 -0.736334,-0.18096 z m 1.435228,3.35718 q 0.53041,0 0.798736,-0.17472 0.268325,-0.17473 0.268325,-0.54913 0,-0.7301 -1.067061,-0.7301 h -1.435228 v 1.45395 z"
         style="text-align:center;text-anchor:middle;fill:#441b4d;fill-opacity:1;stroke-width:0.15600304"
         id="path889" />
      <path
         d="m 55.622569,217.56916 q 0,0.0686 -0.01248,0.18096 h -2.683252 q 0.05616,0.43681 0.380647,0.70514 0.330726,0.26208 0.817456,0.26208 0.592811,0 0.954738,-0.39937 l 0.330727,0.38689 q -0.224644,0.26209 -0.561611,0.39937 -0.330726,0.13728 -0.742574,0.13728 -0.524171,0 -0.929779,-0.21216 -0.405607,-0.21841 -0.630252,-0.60529 -0.218404,-0.38689 -0.218404,-0.87362 0,-0.48049 0.212164,-0.86738 0.218404,-0.38689 0.592812,-0.59905 0.380647,-0.2184 0.854896,-0.2184 0.474249,0 0.842417,0.2184 0.374407,0.21216 0.580331,0.59905 0.212164,0.38689 0.212164,0.8861 z m -1.634912,-1.1981 q -0.430568,0 -0.723854,0.26208 -0.287045,0.26209 -0.336966,0.68641 h 2.121641 q -0.04992,-0.41808 -0.343207,-0.68017 -0.287045,-0.26832 -0.717614,-0.26832 z"
         style="text-align:center;text-anchor:middle;fill:#441b4d;fill-opacity:1;stroke-width:0.15600304"
         id="path891" />
      <path
         d="m 58.312058,219.01063 q -0.131042,0.11232 -0.324486,0.17472 -0.193444,0.0562 -0.399368,0.0562 -0.49921,0 -0.773775,-0.26832 -0.274565,-0.26833 -0.274565,-0.76754 v -1.81587 h -0.561611 v -0.49297 h 0.561611 v -0.72386 h 0.599051 v 0.72386 h 0.948499 v 0.49297 h -0.948499 v 1.79091 q 0,0.26833 0.131043,0.41185 0.137283,0.14352 0.386887,0.14352 0.274566,0 0.46801,-0.156 z"
         style="text-align:center;text-anchor:middle;fill:#441b4d;fill-opacity:1;stroke-width:0.15600304"
         id="path893" />
      <path
         d="m 60.814341,219.01063 q -0.131042,0.11232 -0.324486,0.17472 -0.193444,0.0562 -0.399368,0.0562 -0.49921,0 -0.773775,-0.26832 -0.274565,-0.26833 -0.274565,-0.76754 v -1.81587 h -0.561611 v -0.49297 h 0.561611 v -0.72386 h 0.599051 v 0.72386 h 0.948499 v 0.49297 h -0.948499 v 1.79091 q 0,0.26833 0.131043,0.41185 0.137283,0.14352 0.386888,0.14352 0.274565,0 0.468009,-0.156 z"
         style="text-align:center;text-anchor:middle;fill:#441b4d;fill-opacity:1;stroke-width:0.15600304"
         id="path895" />
      <path
         d="m 64.414878,217.56916 q 0,0.0686 -0.01248,0.18096 h -2.683252 q 0.05616,0.43681 0.380647,0.70514 0.330727,0.26208 0.817456,0.26208 0.592812,0 0.954739,-0.39937 l 0.330726,0.38689 q -0.224644,0.26209 -0.561611,0.39937 -0.330726,0.13728 -0.742574,0.13728 -0.52417,0 -0.929778,-0.21216 -0.405608,-0.21841 -0.630253,-0.60529 -0.218404,-0.38689 -0.218404,-0.87362 0,-0.48049 0.212164,-0.86738 0.218405,-0.38689 0.592812,-0.59905 0.380647,-0.2184 0.854896,-0.2184 0.47425,0 0.842417,0.2184 0.374407,0.21216 0.580331,0.59905 0.212164,0.38689 0.212164,0.8861 z m -1.634912,-1.1981 q -0.430568,0 -0.723854,0.26208 -0.287045,0.26209 -0.336966,0.68641 h 2.121641 q -0.04992,-0.41808 -0.343207,-0.68017 -0.287045,-0.26832 -0.717614,-0.26832 z"
         style="text-align:center;text-anchor:middle;fill:#441b4d;fill-opacity:1;stroke-width:0.15600304"
         id="path897" />
      <path
         d="m 65.818902,216.45218 q 0.156003,-0.28705 0.461769,-0.43681 0.305766,-0.14976 0.742574,-0.14976 v 0.58033 q -0.04992,-0.006 -0.137282,-0.006 -0.48673,0 -0.767535,0.29328 -0.274566,0.28705 -0.274566,0.8237 v 1.64739 h -0.599051 v -3.30726 h 0.574091 z"
         style="text-align:center;text-anchor:middle;fill:#441b4d;fill-opacity:1;stroke-width:0.15600304"
         id="path899" />
      <path
         d="m 71.247801,215.86561 q 0.630252,0 0.998419,0.36816 0.374408,0.36193 0.374408,1.06706 v 1.90324 h -0.599052 v -1.83459 q 0,-0.48049 -0.230885,-0.72386 -0.230884,-0.24336 -0.661452,-0.24336 -0.48673,0 -0.767535,0.28704 -0.280806,0.28081 -0.280806,0.81122 v 1.70355 h -0.599051 v -3.30726 h 0.574091 v 0.49921 q 0.180963,-0.25585 0.486729,-0.39313 0.312006,-0.13728 0.705134,-0.13728 z"
         style="text-align:center;text-anchor:middle;fill:#441b4d;fill-opacity:1;stroke-width:0.15600304"
         id="path901" />
      <path
         d="m 75.166586,219.24151 q -0.492969,0 -0.886097,-0.2184 -0.393127,-0.21841 -0.617772,-0.59905 -0.218404,-0.38689 -0.218404,-0.87362 0,-0.48673 0.218404,-0.86738 0.224645,-0.38689 0.617772,-0.59905 0.393128,-0.2184 0.886097,-0.2184 0.49297,0 0.879858,0.2184 0.393127,0.21216 0.611531,0.59905 0.224645,0.38065 0.224645,0.86738 0,0.48673 -0.224645,0.87362 -0.218404,0.38064 -0.611531,0.59905 -0.386888,0.2184 -0.879858,0.2184 z m 0,-0.52417 q 0.318247,0 0.567851,-0.14352 0.255845,-0.14976 0.399368,-0.41185 0.143523,-0.26832 0.143523,-0.61153 0,-0.34321 -0.143523,-0.60529 -0.143523,-0.26833 -0.399368,-0.41185 -0.249604,-0.14352 -0.567851,-0.14352 -0.318246,0 -0.574091,0.14352 -0.249605,0.14352 -0.399367,0.41185 -0.143523,0.26208 -0.143523,0.60529 0,0.34321 0.143523,0.61153 0.149762,0.26209 0.399367,0.41185 0.255845,0.14352 0.574091,0.14352 z"
         style="text-align:center;text-anchor:middle;fill:#441b4d;fill-opacity:1;stroke-width:0.15600304"
         id="path903" />
      <path
         d="m 79.572102,219.01063 q -0.131042,0.11232 -0.324486,0.17472 -0.193444,0.0562 -0.399368,0.0562 -0.49921,0 -0.773775,-0.26832 -0.274565,-0.26833 -0.274565,-0.76754 v -1.81587 h -0.561611 v -0.49297 h 0.561611 v -0.72386 h 0.599051 v 0.72386 h 0.948499 v 0.49297 h -0.948499 v 1.79091 q 0,0.26833 0.131043,0.41185 0.137283,0.14352 0.386888,0.14352 0.274565,0 0.468009,-0.156 z"
         style="text-align:center;text-anchor:middle;fill:#441b4d;fill-opacity:1;stroke-width:0.15600304"
         id="path905" />
    </g>
    <g
       aria-label="tell you"
       transform="scale(0.98413002,1.0161259)"
       style="font-style:normal;font-variant:normal;font-weight:normal;font-stretch:normal;font-size:6.24012136px;line-height:1.25;font-family:Montserrat;-inkscape-font-specification:Montserrat;text-align:center;letter-spacing:0px;word-spacing:0px;text-anchor:middle;fill:#d7abe0;fill-opacity:1;stroke:none;stroke-width:0.15600304"
       id="text2448-3-0">
      <path
         d="m 54.984015,225.13566 q -0.131043,0.11232 -0.324487,0.17472 -0.193443,0.0562 -0.399367,0.0562 -0.49921,0 -0.773775,-0.26832 -0.274566,-0.26833 -0.274566,-0.76754 v -1.81587 h -0.561611 v -0.49297 h 0.561611 v -0.72386 h 0.599052 v 0.72386 h 0.948498 v 0.49297 h -0.948498 v 1.79091 q 0,0.26833 0.131042,0.41185 0.137283,0.14352 0.386888,0.14352 0.274565,0 0.468009,-0.156 z"
         style="text-align:center;text-anchor:middle;fill:#d7abe0;fill-opacity:1;stroke-width:0.15600304"
         id="path874" />
      <path
         d="m 58.584552,223.69419 q 0,0.0686 -0.01248,0.18096 H 55.88882 q 0.05616,0.43681 0.380647,0.70514 0.330727,0.26208 0.817456,0.26208 0.592812,0 0.954739,-0.39937 l 0.330726,0.38689 q -0.224644,0.26209 -0.561611,0.39937 -0.330726,0.13728 -0.742574,0.13728 -0.52417,0 -0.929778,-0.21216 -0.405608,-0.21841 -0.630253,-0.60529 -0.218404,-0.38689 -0.218404,-0.87362 0,-0.48049 0.212164,-0.86738 0.218405,-0.38688 0.592812,-0.59905 0.380647,-0.2184 0.854896,-0.2184 0.47425,0 0.842417,0.2184 0.374407,0.21217 0.580331,0.59905 0.212164,0.38689 0.212164,0.8861 z m -1.634912,-1.1981 q -0.430568,0 -0.723854,0.26208 -0.287045,0.26209 -0.336966,0.68641 h 2.121641 q -0.04992,-0.41808 -0.343207,-0.68017 -0.287045,-0.26832 -0.717614,-0.26832 z"
         style="text-align:center;text-anchor:middle;fill:#d7abe0;fill-opacity:1;stroke-width:0.15600304"
         id="path876" />
      <path
         d="m 59.414485,220.69893 h 0.599052 v 4.63017 h -0.599052 z"
         style="text-align:center;text-anchor:middle;fill:#d7abe0;fill-opacity:1;stroke-width:0.15600304"
         id="path878" />
      <path
         d="m 61.155475,220.69893 h 0.599052 v 4.63017 h -0.599052 z"
         style="text-align:center;text-anchor:middle;fill:#d7abe0;fill-opacity:1;stroke-width:0.15600304"
         id="path880" />
      <path
         d="m 67.501668,222.02184 -1.603711,3.63799 q -0.212164,0.50545 -0.499209,0.71137 -0.280806,0.20593 -0.680174,0.20593 -0.243364,0 -0.474249,-0.0811 -0.224644,-0.0749 -0.374407,-0.22464 l 0.255845,-0.44929 q 0.255845,0.24337 0.592811,0.24337 0.218405,0 0.361927,-0.11857 0.149763,-0.11232 0.268326,-0.39312 l 0.106082,-0.23089 -1.460189,-3.30102 h 0.624012 l 1.154423,2.64581 1.141942,-2.64581 z"
         style="text-align:center;text-anchor:middle;fill:#d7abe0;fill-opacity:1;stroke-width:0.15600304"
         id="path882" />
      <path
         d="m 69.386166,225.36654 q -0.49297,0 -0.886098,-0.2184 -0.393127,-0.21841 -0.617772,-0.59905 -0.218404,-0.38689 -0.218404,-0.87362 0,-0.48673 0.218404,-0.86738 0.224645,-0.38688 0.617772,-0.59905 0.393128,-0.2184 0.886098,-0.2184 0.492969,0 0.879857,0.2184 0.393127,0.21217 0.611532,0.59905 0.224644,0.38065 0.224644,0.86738 0,0.48673 -0.224644,0.87362 -0.218405,0.38064 -0.611532,0.59905 -0.386888,0.2184 -0.879857,0.2184 z m 0,-0.52417 q 0.318246,0 0.567851,-0.14352 0.255845,-0.14976 0.399368,-0.41185 0.143522,-0.26832 0.143522,-0.61153 0,-0.34321 -0.143522,-0.60529 -0.143523,-0.26833 -0.399368,-0.41185 -0.249605,-0.14352 -0.567851,-0.14352 -0.318246,0 -0.574091,0.14352 -0.249605,0.14352 -0.399368,0.41185 -0.143523,0.26208 -0.143523,0.60529 0,0.34321 0.143523,0.61153 0.149763,0.26209 0.399368,0.41185 0.255845,0.14352 0.574091,0.14352 z"
         style="text-align:center;text-anchor:middle;fill:#d7abe0;fill-opacity:1;stroke-width:0.15600304"
         id="path884" />
      <path
         d="m 75.014743,222.02184 v 3.30726 h -0.567851 v -0.49921 q -0.180963,0.25585 -0.480489,0.39937 -0.293286,0.13728 -0.642732,0.13728 -0.661453,0 -1.042101,-0.36192 -0.380647,-0.36817 -0.380647,-1.07955 v -1.90323 h 0.599051 v 1.83459 q 0,0.48049 0.230885,0.7301 0.230884,0.24336 0.661453,0.24336 0.474249,0 0.748814,-0.28704 0.274566,-0.28705 0.274566,-0.81122 v -1.70979 z"
         style="text-align:center;text-anchor:middle;fill:#d7abe0;fill-opacity:1;stroke-width:0.15600304"
         id="path886" />
    </g>
    <g
       aria-label="tell you"
       transform="scale(0.98413002,1.0161259)"
       style="font-style:normal;font-variant:normal;font-weight:normal;font-stretch:normal;font-size:6.24012136px;line-height:1.25;font-family:Montserrat;-inkscape-font-specification:Montserrat;text-align:center;letter-spacing:0px;word-spacing:0px;text-anchor:middle;fill:#441b4d;fill-opacity:1;stroke:none;stroke-width:0.15600304"
       id="text2448-3">
      <path
         d="m 54.446314,225.13566 q -0.131042,0.11232 -0.324486,0.17472 -0.193444,0.0562 -0.399368,0.0562 -0.49921,0 -0.773775,-0.26832 -0.274565,-0.26833 -0.274565,-0.76754 v -1.81587 h -0.561611 v -0.49297 h 0.561611 v -0.72386 h 0.599051 v 0.72386 h 0.948499 v 0.49297 h -0.948499 v 1.79091 q 0,0.26833 0.131043,0.41185 0.137282,0.14352 0.386887,0.14352 0.274566,0 0.468009,-0.156 z"
         style="text-align:center;text-anchor:middle;fill:#441b4d;fill-opacity:1;stroke-width:0.15600304"
         id="path859" />
      <path
         d="m 58.046852,223.69419 q 0,0.0686 -0.01248,0.18096 h -2.683252 q 0.05616,0.43681 0.380648,0.70514 0.330726,0.26208 0.817455,0.26208 0.592812,0 0.954739,-0.39937 l 0.330726,0.38689 q -0.224644,0.26209 -0.56161,0.39937 -0.330727,0.13728 -0.742575,0.13728 -0.52417,0 -0.929778,-0.21216 -0.405608,-0.21841 -0.630252,-0.60529 -0.218404,-0.38689 -0.218404,-0.87362 0,-0.48049 0.212164,-0.86738 0.218404,-0.38688 0.592811,-0.59905 0.380648,-0.2184 0.854897,-0.2184 0.474249,0 0.842416,0.2184 0.374407,0.21217 0.580331,0.59905 0.212165,0.38689 0.212165,0.8861 z m -1.634912,-1.1981 q -0.430569,0 -0.723854,0.26208 -0.287046,0.26209 -0.336967,0.68641 h 2.121641 q -0.04992,-0.41808 -0.343206,-0.68017 -0.287046,-0.26832 -0.717614,-0.26832 z"
         style="text-align:center;text-anchor:middle;fill:#441b4d;fill-opacity:1;stroke-width:0.15600304"
         id="path861" />
      <path
         d="m 58.876785,220.69893 h 0.599051 v 4.63017 h -0.599051 z"
         style="text-align:center;text-anchor:middle;fill:#441b4d;fill-opacity:1;stroke-width:0.15600304"
         id="path863" />
      <path
         d="m 60.617774,220.69893 h 0.599052 v 4.63017 h -0.599052 z"
         style="text-align:center;text-anchor:middle;fill:#441b4d;fill-opacity:1;stroke-width:0.15600304"
         id="path865" />
      <path
         d="m 66.963968,222.02184 -1.603711,3.63799 q -0.212164,0.50545 -0.49921,0.71137 -0.280806,0.20593 -0.680173,0.20593 -0.243365,0 -0.47425,-0.0811 -0.224644,-0.0749 -0.374407,-0.22464 l 0.255845,-0.44929 q 0.255845,0.24337 0.592812,0.24337 0.218404,0 0.361927,-0.11857 0.149763,-0.11232 0.268325,-0.39312 l 0.106082,-0.23089 -1.460188,-3.30102 h 0.624012 l 1.154422,2.64581 1.141942,-2.64581 z"
         style="text-align:center;text-anchor:middle;fill:#441b4d;fill-opacity:1;stroke-width:0.15600304"
         id="path867" />
      <path
         d="m 68.848465,225.36654 q -0.49297,0 -0.886097,-0.2184 -0.393128,-0.21841 -0.617772,-0.59905 -0.218404,-0.38689 -0.218404,-0.87362 0,-0.48673 0.218404,-0.86738 0.224644,-0.38688 0.617772,-0.59905 0.393127,-0.2184 0.886097,-0.2184 0.49297,0 0.879857,0.2184 0.393128,0.21217 0.611532,0.59905 0.224644,0.38065 0.224644,0.86738 0,0.48673 -0.224644,0.87362 -0.218404,0.38064 -0.611532,0.59905 -0.386887,0.2184 -0.879857,0.2184 z m 0,-0.52417 q 0.318246,0 0.567851,-0.14352 0.255845,-0.14976 0.399368,-0.41185 0.143523,-0.26832 0.143523,-0.61153 0,-0.34321 -0.143523,-0.60529 -0.143523,-0.26833 -0.399368,-0.41185 -0.249605,-0.14352 -0.567851,-0.14352 -0.318246,0 -0.574091,0.14352 -0.249605,0.14352 -0.399368,0.41185 -0.143523,0.26208 -0.143523,0.60529 0,0.34321 0.143523,0.61153 0.149763,0.26209 0.399368,0.41185 0.255845,0.14352 0.574091,0.14352 z"
         style="text-align:center;text-anchor:middle;fill:#441b4d;fill-opacity:1;stroke-width:0.15600304"
         id="path869" />
      <path
         d="m 74.477043,222.02184 v 3.30726 h -0.567851 v -0.49921 q -0.180964,0.25585 -0.48049,0.39937 -0.293285,0.13728 -0.642732,0.13728 -0.661453,0 -1.0421,-0.36192 -0.380648,-0.36817 -0.380648,-1.07955 v -1.90323 h 0.599052 v 1.83459 q 0,0.48049 0.230884,0.7301 0.230885,0.24336 0.661453,0.24336 0.474249,0 0.748815,-0.28704 0.274565,-0.28705 0.274565,-0.81122 v -1.70979 z"
         style="text-align:center;text-anchor:middle;fill:#441b4d;fill-opacity:1;stroke-width:0.15600304"
         id="path871" />
    </g>
    <g
       aria-label="now"
       transform="scale(0.98413002,1.0161259)"
       style="font-style:normal;font-variant:normal;font-weight:normal;font-stretch:normal;font-size:6.24012136px;line-height:1.25;font-family:Montserrat;-inkscape-font-specification:Montserrat;text-align:center;letter-spacing:0px;word-spacing:0px;text-anchor:middle;fill:#d7abe0;fill-opacity:1;stroke:none;stroke-width:0.15600304"
       id="text2448-3-8-6">
      <path
         d="m 59.533048,227.53644 q 0.630252,0 0.998419,0.36817 0.374408,0.36193 0.374408,1.06706 v 1.90324 h -0.599052 v -1.8346 q 0,-0.48049 -0.230884,-0.72385 -0.230885,-0.24337 -0.661453,-0.24337 -0.48673,0 -0.767535,0.28705 -0.280806,0.2808 -0.280806,0.81122 v 1.70355 h -0.599051 v -3.30727 h 0.574091 v 0.49921 q 0.180963,-0.25584 0.486729,-0.39312 0.312006,-0.13729 0.705134,-0.13729 z"
         style="text-align:center;text-anchor:middle;fill:#d7abe0;fill-opacity:1;stroke-width:0.15600304"
         id="path852" />
      <path
         d="m 63.451833,230.91235 q -0.49297,0 -0.886098,-0.21841 -0.393127,-0.2184 -0.617772,-0.59905 -0.218404,-0.38688 -0.218404,-0.87361 0,-0.48673 0.218404,-0.86738 0.224645,-0.38689 0.617772,-0.59905 0.393128,-0.21841 0.886098,-0.21841 0.492969,0 0.879857,0.21841 0.393127,0.21216 0.611532,0.59905 0.224644,0.38065 0.224644,0.86738 0,0.48673 -0.224644,0.87361 -0.218405,0.38065 -0.611532,0.59905 -0.386888,0.21841 -0.879857,0.21841 z m 0,-0.52417 q 0.318246,0 0.567851,-0.14352 0.255845,-0.14977 0.399367,-0.41185 0.143523,-0.26833 0.143523,-0.61153 0,-0.34321 -0.143523,-0.6053 -0.143522,-0.26832 -0.399367,-0.41184 -0.249605,-0.14353 -0.567851,-0.14353 -0.318247,0 -0.574091,0.14353 -0.249605,0.14352 -0.399368,0.41184 -0.143523,0.26209 -0.143523,0.6053 0,0.3432 0.143523,0.61153 0.149763,0.26208 0.399368,0.41185 0.255844,0.14352 0.574091,0.14352 z"
         style="text-align:center;text-anchor:middle;fill:#d7abe0;fill-opacity:1;stroke-width:0.15600304"
         id="path854" />
      <path
         d="m 70.908759,227.56764 -1.235544,3.30727 h -0.574091 l -0.954739,-2.50853 -0.967219,2.50853 h -0.574091 l -1.229304,-3.30727 h 0.567851 l 0.960979,2.63334 0.998419,-2.63334 h 0.50545 l 0.979699,2.64582 0.985939,-2.64582 z"
         style="text-align:center;text-anchor:middle;fill:#d7abe0;fill-opacity:1;stroke-width:0.15600304"
         id="path856" />
    </g>
    <g
       aria-label="now"
       transform="scale(0.98413002,1.0161259)"
       style="font-style:normal;font-variant:normal;font-weight:normal;font-stretch:normal;font-size:6.24012136px;line-height:1.25;font-family:Montserrat;-inkscape-font-specification:Montserrat;text-align:center;letter-spacing:0px;word-spacing:0px;text-anchor:middle;fill:#441b4d;fill-opacity:1;stroke:none;stroke-width:0.15600304"
       id="text2448-3-8">
      <path
         d="m 58.995347,227.53644 q 0.630253,0 0.99842,0.36817 0.374407,0.36193 0.374407,1.06706 v 1.90324 h -0.599052 v -1.8346 q 0,-0.48049 -0.230884,-0.72385 -0.230885,-0.24337 -0.661453,-0.24337 -0.486729,0 -0.767535,0.28705 -0.280805,0.2808 -0.280805,0.81122 v 1.70355 h -0.599052 v -3.30727 h 0.574091 v 0.49921 q 0.180964,-0.25584 0.48673,-0.39312 0.312006,-0.13729 0.705133,-0.13729 z"
         style="text-align:center;text-anchor:middle;fill:#441b4d;fill-opacity:1;stroke-width:0.15600304"
         id="path845" />
      <path
         d="m 62.914132,230.91235 q -0.49297,0 -0.886097,-0.21841 -0.393128,-0.2184 -0.617772,-0.59905 -0.218404,-0.38688 -0.218404,-0.87361 0,-0.48673 0.218404,-0.86738 0.224644,-0.38689 0.617772,-0.59905 0.393127,-0.21841 0.886097,-0.21841 0.49297,0 0.879857,0.21841 0.393128,0.21216 0.611532,0.59905 0.224644,0.38065 0.224644,0.86738 0,0.48673 -0.224644,0.87361 -0.218404,0.38065 -0.611532,0.59905 -0.386887,0.21841 -0.879857,0.21841 z m 0,-0.52417 q 0.318246,0 0.567851,-0.14352 0.255845,-0.14977 0.399368,-0.41185 0.143523,-0.26833 0.143523,-0.61153 0,-0.34321 -0.143523,-0.6053 -0.143523,-0.26832 -0.399368,-0.41184 -0.249605,-0.14353 -0.567851,-0.14353 -0.318246,0 -0.574091,0.14353 -0.249605,0.14352 -0.399368,0.41184 -0.143523,0.26209 -0.143523,0.6053 0,0.3432 0.143523,0.61153 0.149763,0.26208 0.399368,0.41185 0.255845,0.14352 0.574091,0.14352 z"
         style="text-align:center;text-anchor:middle;fill:#441b4d;fill-opacity:1;stroke-width:0.15600304"
         id="path847" />
      <path
         d="m 70.371058,227.56764 -1.235544,3.30727 h -0.574091 l -0.954739,-2.50853 -0.967218,2.50853 h -0.574092 l -1.229303,-3.30727 h 0.567851 l 0.960978,2.63334 0.99842,-2.63334 h 0.50545 l 0.979699,2.64582 0.985939,-2.64582 z"
         style="text-align:center;text-anchor:middle;fill:#441b4d;fill-opacity:1;stroke-width:0.15600304"
         id="path849" />
    </g>
  </g>
</svg>
