<?xml version="1.0" encoding="UTF-8" standalone="no"?>
<!-- Created with Inkscape (http://www.inkscape.org/) -->

<svg
   xmlns:dc="http://purl.org/dc/elements/1.1/"
   xmlns:cc="http://creativecommons.org/ns#"
   xmlns:rdf="http://www.w3.org/1999/02/22-rdf-syntax-ns#"
   xmlns:svg="http://www.w3.org/2000/svg"
   xmlns="http://www.w3.org/2000/svg"
   xmlns:sodipodi="http://sodipodi.sourceforge.net/DTD/sodipodi-0.dtd"
   xmlns:inkscape="http://www.inkscape.org/namespaces/inkscape"
   width="500"
   height="500"
   viewBox="0 0 132.29166 132.29167"
   version="1.1"
   id="svg885"
   inkscape:version="0.92.5 (2060ec1f9f, 2020-04-08)"
   sodipodi:docname="back17.svg">
  <defs
     id="defs879" />
  <sodipodi:namedview
     id="base"
     pagecolor="#ffffff"
     bordercolor="#666666"
     borderopacity="1.0"
     inkscape:pageopacity="0.0"
     inkscape:pageshadow="2"
     inkscape:zoom="1.979899"
     inkscape:cx="39.350806"
     inkscape:cy="253.45157"
     inkscape:document-units="mm"
     inkscape:current-layer="layer1"
     showgrid="false"
     units="px"
     inkscape:window-width="1848"
     inkscape:window-height="1016"
     inkscape:window-x="72"
     inkscape:window-y="27"
     inkscape:window-maximized="1"
     inkscape:lockguides="true" />
  <metadata
     id="metadata882">
    <rdf:RDF>
      <cc:Work
         rdf:about="">
        <dc:format>image/svg+xml</dc:format>
        <dc:type
           rdf:resource="http://purl.org/dc/dcmitype/StillImage" />
        <dc:title />
      </cc:Work>
    </rdf:RDF>
  </metadata>
  <g
     inkscape:label="Layer 1"
     inkscape:groupmode="layer"
     id="layer1"
     transform="translate(0,-164.70832)">
    <ellipse
       style="opacity:0.26199999;vector-effect:none;fill:#754f75;fill-opacity:1;stroke:none;stroke-width:1.17161381;stroke-linecap:round;stroke-linejoin:round;stroke-miterlimit:4;stroke-dasharray:none;stroke-dashoffset:0;stroke-opacity:1"
       id="path1534"
       cx="85.47683"
       cy="282.5824"
       rx="42.783207"
       ry="9.6148434" />
    <ellipse
       style="opacity:0.26199999;vector-effect:none;fill:#754f75;fill-opacity:1;stroke:none;stroke-width:0.76952147;stroke-linecap:round;stroke-linejoin:round;stroke-miterlimit:4;stroke-dasharray:none;stroke-dashoffset:0;stroke-opacity:1"
       id="path1534-9"
       cx="71.481262"
       cy="282.92374"
       rx="28.100214"
       ry="6.3150744" />
    <circle
       style="opacity:1;vector-effect:none;fill:#9957af;fill-opacity:1;stroke:none;stroke-width:1.14031112;stroke-linecap:round;stroke-linejoin:round;stroke-miterlimit:4;stroke-dasharray:none;stroke-dashoffset:0;stroke-opacity:1"
       id="path1449"
       cx="62.440365"
       cy="229.14644"
       r="58.030418" />
    <circle
       style="opacity:1;vector-effect:none;fill:#82326f;fill-opacity:1;stroke:none;stroke-width:1.11348021;stroke-linecap:round;stroke-linejoin:round;stroke-miterlimit:4;stroke-dasharray:none;stroke-dashoffset:0;stroke-opacity:1"
       id="path1449-3"
       cx="62.440365"
       cy="229.14644"
       r="56.665001" />
    <ellipse
       style="opacity:1;vector-effect:none;fill:#613e6d;fill-opacity:1;stroke:none;stroke-width:0.73709202;stroke-linecap:round;stroke-linejoin:round;stroke-miterlimit:4;stroke-dasharray:none;stroke-dashoffset:0;stroke-opacity:1"
       id="path1449-3-3"
       cx="62.440365"
       cy="229.14644"
       rx="37.386955"
       ry="37.634663" />
    <ellipse
       style="opacity:1;vector-effect:none;fill:#000000;fill-opacity:1;stroke:none;stroke-width:0.68278807;stroke-linecap:round;stroke-linejoin:round;stroke-miterlimit:4;stroke-dasharray:none;stroke-dashoffset:0;stroke-opacity:1"
       id="path1449-3-3-0"
       cx="62.440365"
       cy="229.14644"
       rx="34.632538"
       ry="34.861996" />
    <path
       style="fill:#c12688;fill-opacity:1;stroke:none;stroke-width:0.45056611px;stroke-linecap:butt;stroke-linejoin:miter;stroke-opacity:1"
       d="m 12.488691,207.29972 c 0,0 4.63182,-14.18778 20.139969,-23.89489 15.916805,-9.96289 28.901421,-9.44417 28.901421,-9.44417 0,0 -17.19509,5.47451 -27.763568,12.2888 -12.174689,7.84993 -21.277822,21.05026 -21.277822,21.05026 z"
       id="path1496"
       inkscape:connector-curvature="0"
       sodipodi:nodetypes="cscsc" />
    <path
       style="fill:#c12688;fill-opacity:1;stroke:none;stroke-width:0.45056611px;stroke-linecap:butt;stroke-linejoin:miter;stroke-opacity:1"
       d="m 67.352956,283.81496 c 0,0 17.255122,-2.81772 32.22176,-16.62391 14.524494,-13.39832 17.526094,-33.44637 17.526094,-33.44637 0,0 -1.76699,20.12708 -14.40203,32.98788 -12.992154,15.8522 -35.345824,17.0824 -35.345824,17.0824 z"
       id="path1502"
       inkscape:connector-curvature="0"
       sodipodi:nodetypes="csccc" />
    <path
       style="fill:#441b4d;fill-opacity:1;stroke:none;stroke-width:0.45056611px;stroke-linecap:butt;stroke-linejoin:miter;stroke-opacity:1"
       d="m 8.2786413,226.30183 c 0,0 -3.8706954,17.27867 12.9715057,38.11802 15.585378,19.28423 42.555639,20.36753 42.555639,20.36753 0,0 -26.120163,-7.65598 -38.800732,-23.78109 C 11.394135,243.69812 8.2786413,226.30183 8.2786413,226.30183 Z"
       id="path1498"
       inkscape:connector-curvature="0"
       sodipodi:nodetypes="cscsc" />
    <path
       style="fill:#441b4d;fill-opacity:1;stroke:none;stroke-width:0.45056611px;stroke-linecap:butt;stroke-linejoin:miter;stroke-opacity:1"
       d="m 73.116067,267.96472 c 0,0 11.784257,-3.57061 18.997624,-12.45183 7.849509,-9.66445 9.275819,-19.11899 9.275819,-19.11899 0,0 0.14172,12.08179 -5.761552,19.93446 -9.438692,12.55555 -22.511891,11.63636 -22.511891,11.63636 z"
       id="path1500"
       inkscape:connector-curvature="0"
       sodipodi:nodetypes="cscsc" />
    <path
       style="fill:#c12688;fill-opacity:1;stroke:none;stroke-width:0.45056611px;stroke-linecap:butt;stroke-linejoin:miter;stroke-opacity:1"
       d="m 23.779191,215.00115 c 0,0 5.493113,-13.36137 14.646353,-19.4062 11.50994,-7.6012 25.578374,-7.27865 25.578374,-7.27865 0,0 -17.670875,-3.82775 -29.698611,7.64808 C 22.85,206.89404 23.779191,215.00115 23.779191,215.00115 Z"
       id="path1504"
       inkscape:connector-curvature="0"
       sodipodi:nodetypes="cscsc" />
    <path
       style="opacity:0.497;fill:#c8afcd;fill-opacity:1;stroke:none;stroke-width:0.45056611px;stroke-linecap:butt;stroke-linejoin:miter;stroke-opacity:1"
       d="m 42.197929,195.81003 c 0,0 -0.911998,-3.11088 -0.667794,-7.16951 0.33609,-5.58578 5.799581,-15.02436 5.799581,-15.02436 0,0 -4.37482,1.25605 -9.143445,3.35116 -3.291257,1.44602 -7.102216,4.00624 -7.102216,4.00624 0,0 -1.464498,6.18081 0.309093,11.15227 2.649144,7.42568 5.971412,7.412 5.971412,7.412 0,0 1.370906,-1.24739 2.294992,-1.8171 0.751826,-0.46349 2.538377,-1.9107 2.538377,-1.9107 z"
       id="path1506"
       inkscape:connector-curvature="0"
       sodipodi:nodetypes="cscscscsc" />
    <path
       style="opacity:0.497;fill:#c8afcd;fill-opacity:1;stroke:none;stroke-width:0.45056611px;stroke-linecap:butt;stroke-linejoin:miter;stroke-opacity:1"
       d="m 50.891173,176.17949 c 0,0 -3.658319,4.35542 -3.822427,7.79051 -0.397974,8.33035 1.842794,8.73349 1.842794,8.73349 0,0 -0.387944,-5.34475 0.359263,-8.4066 0.850987,-3.4871 5.204601,-9.02768 5.204601,-9.02768 0,0 -1.434702,0.21092 -2.133471,0.39825 -0.495332,0.13283 -1.45076,0.51203 -1.45076,0.51203 z"
       id="path1516"
       inkscape:connector-curvature="0"
       sodipodi:nodetypes="cscscsc" />
    <path
       style="fill:#fefcff;fill-opacity:1;stroke:none;stroke-width:0.45056611px;stroke-linecap:butt;stroke-linejoin:miter;stroke-opacity:1"
       d="m 33.538939,183.34795 c 0,0 -0.502859,5.0238 0.170679,7.39603 0.696468,2.453 3.868696,6.59953 3.868696,6.59953 0,0 -1.764731,-4.77663 -2.048134,-7.28225 -0.305152,-2.69793 0.398247,-8.13563 0.398247,-8.13563 0,0 -1.091522,0.47873 -1.592992,0.79649 -0.285209,0.18073 -0.796496,0.62583 -0.796496,0.62583 z"
       id="path1520"
       inkscape:connector-curvature="0"
       sodipodi:nodetypes="cscscsc" />
    <path
       style="opacity:0.63999999;fill:#5a224c;fill-opacity:1;stroke:none;stroke-width:0.45056611px;stroke-linecap:butt;stroke-linejoin:miter;stroke-opacity:1"
       d="m 89.726638,259.71673 c 0,0 2.682741,1.85039 4.487731,5.62484 1.382366,2.89069 2.190857,8.46556 2.190857,8.46556 0,0 -4.06807,3.08156 -6.315075,4.26694 -2.417053,1.27505 -7.225356,3.58422 -7.225356,3.58422 0,0 2.520062,-6.5867 2.929475,-10.87054 0.378096,-3.95617 -0.01537,-7.59158 -0.01537,-7.59158 0,0 1.622249,-1.28757 2.361648,-1.83813 0.610225,-0.45439 1.586087,-1.64131 1.586087,-1.64131 z"
       id="path1522"
       inkscape:connector-curvature="0"
       sodipodi:nodetypes="cscscscscc" />
    <path
       style="fill:#754f75;fill-opacity:1;stroke:none;stroke-width:0.45056611px;stroke-linecap:butt;stroke-linejoin:miter;stroke-opacity:1"
       d="m 13.309686,228.67581 c 0,0 2.045867,3.10432 4.539264,4.64325 2.073254,1.27962 5.217524,2.4962 5.217524,2.4962 0,0 2.540774,13.61731 13.430992,23.57426 9.562964,8.74343 26.383782,10.14148 26.383782,10.14148 0,0 -0.678616,0.97006 -0.746067,3.92271 -0.06342,2.77637 2.024111,6.39355 2.024111,6.39355 0,0 -21.211989,-4.85956 -34.275209,-17.70082 C 15.351548,247.86082 13.309686,228.67581 13.309686,228.67581 Z"
       id="path1530"
       inkscape:connector-curvature="0"
       sodipodi:nodetypes="cscscscsc" />
    <path
       style="fill:#754f75;fill-opacity:1;stroke:none;stroke-width:0.45056611px;stroke-linecap:butt;stroke-linejoin:miter;stroke-opacity:1"
       d="m 73.534163,190.94683 c 0,0 11.252812,2.76648 21.312141,15.41951 6.685546,8.40935 6.872166,19.26746 6.872166,19.26746 0,0 4.45556,-0.77274 7.42271,-0.77274 3.46168,0 5.22405,2.20559 5.22405,2.20559 0,0 -0.26503,-18.96655 -14.16065,-34.27522 -13.086311,-14.41705 -32.183293,-14.48248 -32.183293,-14.48248 0,0 3.489668,3.49909 4.214274,5.99127 0.812703,2.79519 1.298602,6.64661 1.298602,6.64661 z"
       id="path1532"
       inkscape:connector-curvature="0"
       sodipodi:nodetypes="cscscscsc" />
    <path
       style="fill:#1c1353;fill-opacity:1;stroke:none;stroke-width:0.26458332px;stroke-linecap:butt;stroke-linejoin:miter;stroke-opacity:1"
       d="m 35.613663,247.28786 c 0,0 10.921188,-16.61824 36.682742,-13.76439 13.043829,1.44499 19.310224,10.35669 19.310224,10.35669 0,0 -9.153873,17.22781 -26.860587,17.97388 -20.43704,0.86111 -29.132379,-14.56618 -29.132379,-14.56618 z"
       id="path2442"
       inkscape:connector-curvature="0"
       sodipodi:nodetypes="cscsc" />
    <path
       style="fill:#b676c3;fill-opacity:1;stroke:none;stroke-width:0.26458332px;stroke-linecap:butt;stroke-linejoin:miter;stroke-opacity:1"
       d="m 62.181004,257.51069 h 2.765491 l 24.985615,-41.97453 -0.459603,-3.19387 -27.599613,42.7632 z"
       id="path2444"
       inkscape:connector-curvature="0"
       sodipodi:nodetypes="cccccc" />
    <path
       style="fill:#d7abe0;fill-opacity:1;stroke:none;stroke-width:0.65895617px;stroke-linecap:butt;stroke-linejoin:miter;stroke-opacity:1"
       d="m 62.181005,257.51069 -26.07796,-45.1684 h 53.369462 z"
       id="path2347"
       inkscape:connector-curvature="0" />
    <path
       style="fill:#ece7ed;fill-opacity:1;stroke:none;stroke-width:0.52110004px;stroke-linecap:butt;stroke-linejoin:miter;stroke-opacity:1"
       d="M 62.307943,252.78599 40.098093,214.42116 H 85.477456 Z"
       id="path2347-4"
       inkscape:connector-curvature="0"
       sodipodi:nodetypes="cccc" />
    <g
       aria-label="My reply"
       transform="scale(0.98413002,1.0161259)"
       style="font-style:normal;font-variant:normal;font-weight:normal;font-stretch:normal;font-size:6.25520325px;line-height:1.25;font-family:Montserrat;-inkscape-font-specification:Montserrat;text-align:center;letter-spacing:0px;word-spacing:0px;text-anchor:middle;fill:#d7abe0;fill-opacity:1;stroke:none;stroke-width:0.15638009"
       id="text2448-8">
      <path
         d="m 55.396376,221.0495 -0.0063,-3.19015 -1.582566,2.65846 h -0.287739 l -1.582567,-2.6397 v 3.17139 h -0.600499 v -4.37864 h 0.512926 l 1.82652,3.07756 1.801498,-3.07756 h 0.512927 l 0.0063,4.37864 z"
         style="text-align:center;text-anchor:middle;fill:#d7abe0;fill-opacity:1;stroke-width:0.15638009"
         id="path874" />
      <path
         d="m 60.156585,217.73424 -1.607587,3.64679 q -0.212677,0.50667 -0.500417,0.71309 -0.281484,0.20642 -0.681817,0.20642 -0.243953,0 -0.475395,-0.0813 -0.225188,-0.0751 -0.375313,-0.22518 l 0.256464,-0.45038 q 0.256463,0.24395 0.594244,0.24395 0.218932,0 0.362802,-0.11885 0.150125,-0.11259 0.268974,-0.39407 l 0.106338,-0.23145 -1.463717,-3.309 h 0.62552 l 1.157212,2.65221 1.144703,-2.65221 z"
         style="text-align:center;text-anchor:middle;fill:#d7abe0;fill-opacity:1;stroke-width:0.15638009"
         id="path876" />
      <path
         d="m 62.977664,218.29095 q 0.15638,-0.28773 0.462885,-0.43786 0.306505,-0.15012 0.744369,-0.15012 v 0.58173 q -0.05004,-0.006 -0.137614,-0.006 -0.487906,0 -0.76939,0.294 -0.275229,0.28774 -0.275229,0.82569 v 1.65137 h -0.6005 v -3.31526 h 0.575479 z"
         style="text-align:center;text-anchor:middle;fill:#d7abe0;fill-opacity:1;stroke-width:0.15638009"
         id="path878" />
      <path
         d="m 67.887992,219.41064 q 0,0.0688 -0.01251,0.1814 h -2.689737 q 0.0563,0.43786 0.381567,0.70684 0.331526,0.26271 0.819432,0.26271 0.594244,0 0.957046,-0.40033 l 0.331526,0.38782 q -0.225188,0.26272 -0.562969,0.40034 -0.331525,0.13761 -0.744369,0.13761 -0.525437,0 -0.932025,-0.21268 -0.406588,-0.21893 -0.631776,-0.60675 -0.218932,-0.38782 -0.218932,-0.87573 0,-0.48165 0.212677,-0.86947 0.218932,-0.38783 0.594244,-0.6005 0.381568,-0.21893 0.856963,-0.21893 0.475396,0 0.844453,0.21893 0.375312,0.21267 0.581734,0.6005 0.212677,0.38782 0.212677,0.88824 z m -1.638864,-1.201 q -0.431609,0 -0.725603,0.26272 -0.28774,0.26271 -0.337781,0.68807 h 2.126769 q -0.05004,-0.4191 -0.344036,-0.68182 -0.28774,-0.26897 -0.719349,-0.26897 z"
         style="text-align:center;text-anchor:middle;fill:#d7abe0;fill-opacity:1;stroke-width:0.15638009"
         id="path880" />
      <path
         d="m 70.477643,217.70297 q 0.48165,0 0.863218,0.21267 0.381567,0.21268 0.594244,0.59425 0.218932,0.38156 0.218932,0.88198 0,0.50042 -0.218932,0.88824 -0.212677,0.38157 -0.594244,0.59424 -0.381568,0.21268 -0.863218,0.21268 -0.356547,0 -0.656797,-0.13761 -0.293994,-0.13762 -0.500416,-0.40034 v 1.71393 h -0.6005 v -4.52877 h 0.575479 v 0.52544 q 0.200167,-0.27523 0.506672,-0.41284 0.306505,-0.14387 0.675562,-0.14387 z m -0.05004,2.85862 q 0.319015,0 0.569223,-0.14387 0.256464,-0.15012 0.400333,-0.41284 0.150125,-0.26897 0.150125,-0.61301 0,-0.34404 -0.150125,-0.60675 -0.143869,-0.26898 -0.400333,-0.41285 -0.250208,-0.14387 -0.569223,-0.14387 -0.31276,0 -0.569224,0.15013 -0.250208,0.14387 -0.400333,0.40659 -0.143869,0.26271 -0.143869,0.60675 0,0.34404 0.143869,0.61301 0.14387,0.26272 0.400333,0.41284 0.256464,0.14387 0.569224,0.14387 z"
         style="text-align:center;text-anchor:middle;fill:#d7abe0;fill-opacity:1;stroke-width:0.15638009"
         id="path882" />
      <path
         d="m 72.985973,216.40814 h 0.6005 v 4.64136 h -0.6005 z"
         style="text-align:center;text-anchor:middle;fill:#d7abe0;fill-opacity:1;stroke-width:0.15638009"
         id="path884" />
      <path
         d="m 77.664861,217.73424 -1.607587,3.64679 q -0.212677,0.50667 -0.500417,0.71309 -0.281484,0.20642 -0.681817,0.20642 -0.243953,0 -0.475395,-0.0813 -0.225188,-0.0751 -0.375313,-0.22518 l 0.256464,-0.45038 q 0.256463,0.24395 0.594244,0.24395 0.218932,0 0.362802,-0.11885 0.150125,-0.11259 0.268974,-0.39407 l 0.106338,-0.23145 -1.463717,-3.309 h 0.62552 l 1.157212,2.65221 1.144703,-2.65221 z"
         style="text-align:center;text-anchor:middle;fill:#d7abe0;fill-opacity:1;stroke-width:0.15638009"
         id="path886" />
    </g>
    <g
       aria-label="My reply"
       transform="scale(0.98413002,1.0161259)"
       style="font-style:normal;font-variant:normal;font-weight:normal;font-stretch:normal;font-size:6.25520325px;line-height:1.25;font-family:Montserrat;-inkscape-font-specification:Montserrat;text-align:center;letter-spacing:0px;word-spacing:0px;text-anchor:middle;fill:#441b4d;fill-opacity:1;stroke:none;stroke-width:0.1563801"
       id="text2448">
      <path
         d="m 54.858679,221.0495 -0.0063,-3.19015 -1.582567,2.65846 h -0.287739 l -1.582567,-2.6397 v 3.17139 h -0.600499 v -4.37864 h 0.512926 l 1.82652,3.07756 1.801498,-3.07756 h 0.512927 l 0.0063,4.37864 z"
         style="text-align:center;text-anchor:middle;fill:#441b4d;fill-opacity:1;stroke-width:0.1563801"
         id="path859" />
      <path
         d="m 59.618888,217.73424 -1.607587,3.64679 q -0.212677,0.50667 -0.500417,0.71309 -0.281484,0.20642 -0.681817,0.20642 -0.243953,0 -0.475395,-0.0813 -0.225187,-0.0751 -0.375312,-0.22518 l 0.256463,-0.45038 q 0.256463,0.24395 0.594244,0.24395 0.218932,0 0.362802,-0.11885 0.150125,-0.11259 0.268974,-0.39407 l 0.106338,-0.23145 -1.463717,-3.309 h 0.62552 l 1.157213,2.65221 1.144702,-2.65221 z"
         style="text-align:center;text-anchor:middle;fill:#441b4d;fill-opacity:1;stroke-width:0.1563801"
         id="path861" />
      <path
         d="m 62.439967,218.29095 q 0.15638,-0.28773 0.462885,-0.43786 0.306505,-0.15012 0.744369,-0.15012 v 0.58173 q -0.05004,-0.006 -0.137614,-0.006 -0.487906,0 -0.76939,0.294 -0.275229,0.28774 -0.275229,0.82569 v 1.65137 h -0.6005 v -3.31526 h 0.575479 z"
         style="text-align:center;text-anchor:middle;fill:#441b4d;fill-opacity:1;stroke-width:0.1563801"
         id="path863" />
      <path
         d="m 67.350295,219.41064 q 0,0.0688 -0.01251,0.1814 h -2.689737 q 0.0563,0.43786 0.381567,0.70684 0.331526,0.26271 0.819432,0.26271 0.594244,0 0.957046,-0.40033 l 0.331526,0.38782 q -0.225188,0.26272 -0.562969,0.40034 -0.331525,0.13761 -0.744369,0.13761 -0.525437,0 -0.932025,-0.21268 -0.406588,-0.21893 -0.631776,-0.60675 -0.218932,-0.38782 -0.218932,-0.87573 0,-0.48165 0.212677,-0.86947 0.218932,-0.38783 0.594245,-0.6005 0.381567,-0.21893 0.856962,-0.21893 0.475396,0 0.844453,0.21893 0.375312,0.21267 0.581734,0.6005 0.212677,0.38782 0.212677,0.88824 z m -1.638864,-1.201 q -0.431609,0 -0.725603,0.26272 -0.28774,0.26271 -0.337781,0.68807 h 2.126769 q -0.05004,-0.4191 -0.344036,-0.68182 -0.28774,-0.26897 -0.719349,-0.26897 z"
         style="text-align:center;text-anchor:middle;fill:#441b4d;fill-opacity:1;stroke-width:0.1563801"
         id="path865" />
      <path
         d="m 69.939946,217.70297 q 0.48165,0 0.863218,0.21267 0.381567,0.21268 0.594244,0.59425 0.218932,0.38156 0.218932,0.88198 0,0.50042 -0.218932,0.88824 -0.212677,0.38157 -0.594244,0.59424 -0.381568,0.21268 -0.863218,0.21268 -0.356547,0 -0.656797,-0.13761 -0.293994,-0.13762 -0.500416,-0.40034 v 1.71393 h -0.600499 v -4.52877 h 0.575478 v 0.52544 q 0.200167,-0.27523 0.506672,-0.41284 0.306505,-0.14387 0.675562,-0.14387 z m -0.05004,2.85862 q 0.319015,0 0.569224,-0.14387 0.256463,-0.15012 0.400333,-0.41284 0.150124,-0.26897 0.150124,-0.61301 0,-0.34404 -0.150124,-0.60675 -0.14387,-0.26898 -0.400333,-0.41285 -0.250209,-0.14387 -0.569224,-0.14387 -0.31276,0 -0.569223,0.15013 -0.250209,0.14387 -0.400333,0.40659 -0.14387,0.26271 -0.14387,0.60675 0,0.34404 0.14387,0.61301 0.143869,0.26272 0.400333,0.41284 0.256463,0.14387 0.569223,0.14387 z"
         style="text-align:center;text-anchor:middle;fill:#441b4d;fill-opacity:1;stroke-width:0.1563801"
         id="path867" />
      <path
         d="m 72.448276,216.40814 h 0.6005 v 4.64136 h -0.6005 z"
         style="text-align:center;text-anchor:middle;fill:#441b4d;fill-opacity:1;stroke-width:0.1563801"
         id="path869" />
      <path
         d="m 77.127164,217.73424 -1.607587,3.64679 q -0.212677,0.50667 -0.500417,0.71309 -0.281484,0.20642 -0.681817,0.20642 -0.243953,0 -0.475395,-0.0813 -0.225188,-0.0751 -0.375312,-0.22518 l 0.256463,-0.45038 q 0.256463,0.24395 0.594244,0.24395 0.218932,0 0.362802,-0.11885 0.150125,-0.11259 0.268974,-0.39407 l 0.106338,-0.23145 -1.463717,-3.309 h 0.62552 l 1.157213,2.65221 1.144702,-2.65221 z"
         style="text-align:center;text-anchor:middle;fill:#441b4d;fill-opacity:1;stroke-width:0.1563801"
         id="path871" />
    </g>
    <g
       aria-label="is no"
       transform="scale(0.98413002,1.0161259)"
       style="font-style:normal;font-variant:normal;font-weight:normal;font-stretch:normal;font-size:6.25520325px;line-height:1.25;font-family:Montserrat;-inkscape-font-specification:Montserrat;text-align:center;letter-spacing:0px;word-spacing:0px;text-anchor:middle;fill:#d7abe0;fill-opacity:1;stroke:none;stroke-width:0.15638009"
       id="text2448-3-0">
      <path
         d="m 57.332354,225.04499 h 0.6005 v 3.31525 h -0.6005 z m 0.30025,-0.63803 q -0.175146,0 -0.293995,-0.1126 -0.112593,-0.11259 -0.112593,-0.27523 0,-0.16263 0.112593,-0.27523 0.118849,-0.11884 0.293995,-0.11884 0.175145,0 0.287739,0.11259 0.118849,0.10634 0.118849,0.26897 0,0.16889 -0.118849,0.28774 -0.112594,0.1126 -0.287739,0.1126 z"
         style="text-align:center;text-anchor:middle;fill:#d7abe0;fill-opacity:1;stroke-width:0.15638009"
         id="path850" />
      <path
         d="m 60.028342,228.39778 q -0.406588,0 -0.7819,-0.10634 -0.375312,-0.1126 -0.587989,-0.28149 l 0.250208,-0.47539 q 0.218932,0.15638 0.531692,0.25021 0.312761,0.0938 0.631776,0.0938 0.788155,0 0.788155,-0.45037 0,-0.15013 -0.106338,-0.2377 -0.106338,-0.0876 -0.268974,-0.1251 -0.15638,-0.0438 -0.450374,-0.0938 -0.400333,-0.0625 -0.656797,-0.14387 -0.250208,-0.0813 -0.431609,-0.27523 -0.181401,-0.19391 -0.181401,-0.5442 0,-0.45038 0.375313,-0.71935 0.375312,-0.27523 1.007087,-0.27523 0.331526,0 0.663052,0.0813 0.331526,0.0813 0.544203,0.21893 l -0.256464,0.4754 q -0.406588,-0.26272 -0.957046,-0.26272 -0.381567,0 -0.581734,0.1251 -0.200166,0.12511 -0.200166,0.33153 0,0.16263 0.112593,0.25646 0.112594,0.0938 0.275229,0.13762 0.168891,0.0438 0.469141,0.10008 0.400333,0.0688 0.644285,0.15012 0.250209,0.0751 0.425354,0.26272 0.175146,0.18766 0.175146,0.52544 0,0.45037 -0.387823,0.71935 -0.381567,0.26272 -1.044619,0.26272 z"
         style="text-align:center;text-anchor:middle;fill:#d7abe0;fill-opacity:1;stroke-width:0.15638009"
         id="path852" />
      <path
         d="m 65.664272,225.01371 q 0.631775,0 1.000832,0.36906 0.375312,0.3628 0.375312,1.06964 v 1.90783 h -0.600499 v -1.83903 q 0,-0.48165 -0.231443,-0.7256 -0.231442,-0.24395 -0.663051,-0.24395 -0.487906,0 -0.76939,0.28774 -0.281484,0.28148 -0.281484,0.81317 v 1.70767 h -0.6005 v -3.31525 h 0.575479 v 0.50041 q 0.181401,-0.25646 0.487906,-0.39407 0.31276,-0.13762 0.706838,-0.13762 z"
         style="text-align:center;text-anchor:middle;fill:#d7abe0;fill-opacity:1;stroke-width:0.15638009"
         id="path854" />
      <path
         d="m 69.592528,228.39778 q -0.494162,0 -0.888239,-0.21894 -0.394078,-0.21893 -0.619265,-0.6005 -0.218933,-0.38782 -0.218933,-0.87572 0,-0.48791 0.218933,-0.86948 0.225187,-0.38782 0.619265,-0.6005 0.394077,-0.21893 0.888239,-0.21893 0.494161,0 0.881983,0.21893 0.394078,0.21268 0.61301,0.6005 0.225187,0.38157 0.225187,0.86948 0,0.4879 -0.225187,0.87572 -0.218932,0.38157 -0.61301,0.6005 -0.387822,0.21894 -0.881983,0.21894 z m 0,-0.52544 q 0.319015,0 0.569223,-0.14387 0.256463,-0.15013 0.400333,-0.41284 0.14387,-0.26898 0.14387,-0.61301 0,-0.34404 -0.14387,-0.60676 -0.14387,-0.26897 -0.400333,-0.41284 -0.250208,-0.14387 -0.569223,-0.14387 -0.319016,0 -0.575479,0.14387 -0.250208,0.14387 -0.400333,0.41284 -0.14387,0.26272 -0.14387,0.60676 0,0.34403 0.14387,0.61301 0.150125,0.26271 0.400333,0.41284 0.256463,0.14387 0.575479,0.14387 z"
         style="text-align:center;text-anchor:middle;fill:#d7abe0;fill-opacity:1;stroke-width:0.15638009"
         id="path856" />
    </g>
    <g
       aria-label="is no"
       transform="scale(0.98413002,1.0161259)"
       style="font-style:normal;font-variant:normal;font-weight:normal;font-stretch:normal;font-size:6.25520325px;line-height:1.25;font-family:Montserrat;-inkscape-font-specification:Montserrat;text-align:center;letter-spacing:0px;word-spacing:0px;text-anchor:middle;fill:#441b4d;fill-opacity:1;stroke:none;stroke-width:0.1563801"
       id="text2448-3">
      <path
         d="m 56.794657,225.04499 h 0.6005 v 3.31525 h -0.6005 z m 0.30025,-0.63803 q -0.175146,0 -0.293995,-0.1126 -0.112593,-0.11259 -0.112593,-0.27523 0,-0.16263 0.112593,-0.27523 0.118849,-0.11884 0.293995,-0.11884 0.175146,0 0.287739,0.11259 0.118849,0.10634 0.118849,0.26897 0,0.16889 -0.118849,0.28774 -0.112593,0.1126 -0.287739,0.1126 z"
         style="text-align:center;text-anchor:middle;fill:#441b4d;fill-opacity:1;stroke-width:0.1563801"
         id="path841" />
      <path
         d="m 59.490646,228.39778 q -0.406589,0 -0.781901,-0.10634 -0.375312,-0.1126 -0.587989,-0.28149 l 0.250208,-0.47539 q 0.218932,0.15638 0.531693,0.25021 0.31276,0.0938 0.631775,0.0938 0.788156,0 0.788156,-0.45037 0,-0.15013 -0.106339,-0.2377 -0.106338,-0.0876 -0.268974,-0.1251 -0.15638,-0.0438 -0.450374,-0.0938 -0.400333,-0.0625 -0.656797,-0.14387 -0.250208,-0.0813 -0.431609,-0.27523 -0.1814,-0.19391 -0.1814,-0.5442 0,-0.45038 0.375312,-0.71935 0.375312,-0.27523 1.007087,-0.27523 0.331526,0 0.663052,0.0813 0.331526,0.0813 0.544203,0.21893 l -0.256464,0.4754 q -0.406588,-0.26272 -0.957046,-0.26272 -0.381567,0 -0.581734,0.1251 -0.200166,0.12511 -0.200166,0.33153 0,0.16263 0.112594,0.25646 0.112593,0.0938 0.275228,0.13762 0.168891,0.0438 0.469141,0.10008 0.400333,0.0688 0.644286,0.15012 0.250208,0.0751 0.425353,0.26272 0.175146,0.18766 0.175146,0.52544 0,0.45037 -0.387822,0.71935 -0.381568,0.26272 -1.044619,0.26272 z"
         style="text-align:center;text-anchor:middle;fill:#441b4d;fill-opacity:1;stroke-width:0.1563801"
         id="path843" />
      <path
         d="m 65.126575,225.01371 q 0.631775,0 1.000832,0.36906 0.375313,0.3628 0.375313,1.06964 v 1.90783 h -0.6005 v -1.83903 q 0,-0.48165 -0.231443,-0.7256 -0.231442,-0.24395 -0.663051,-0.24395 -0.487906,0 -0.76939,0.28774 -0.281484,0.28148 -0.281484,0.81317 v 1.70767 h -0.6005 v -3.31525 h 0.575479 v 0.50041 q 0.181401,-0.25646 0.487906,-0.39407 0.31276,-0.13762 0.706838,-0.13762 z"
         style="text-align:center;text-anchor:middle;fill:#441b4d;fill-opacity:1;stroke-width:0.1563801"
         id="path845" />
      <path
         d="m 69.054831,228.39778 q -0.494161,0 -0.888239,-0.21894 -0.394078,-0.21893 -0.619265,-0.6005 -0.218932,-0.38782 -0.218932,-0.87572 0,-0.48791 0.218932,-0.86948 0.225187,-0.38782 0.619265,-0.6005 0.394078,-0.21893 0.888239,-0.21893 0.494161,0 0.881983,0.21893 0.394078,0.21268 0.61301,0.6005 0.225188,0.38157 0.225188,0.86948 0,0.4879 -0.225188,0.87572 -0.218932,0.38157 -0.61301,0.6005 -0.387822,0.21894 -0.881983,0.21894 z m 0,-0.52544 q 0.319015,0 0.569223,-0.14387 0.256464,-0.15013 0.400333,-0.41284 0.14387,-0.26898 0.14387,-0.61301 0,-0.34404 -0.14387,-0.60676 -0.143869,-0.26897 -0.400333,-0.41284 -0.250208,-0.14387 -0.569223,-0.14387 -0.319016,0 -0.575479,0.14387 -0.250208,0.14387 -0.400333,0.41284 -0.14387,0.26272 -0.14387,0.60676 0,0.34403 0.14387,0.61301 0.150125,0.26271 0.400333,0.41284 0.256463,0.14387 0.575479,0.14387 z"
         style="text-align:center;text-anchor:middle;fill:#441b4d;fill-opacity:1;stroke-width:0.1563801"
         id="path847" />
    </g>
  </g>
</svg>
