<?xml version="1.0" encoding="UTF-8" standalone="no"?>
<!-- Created with Inkscape (http://www.inkscape.org/) -->

<svg
   xmlns:dc="http://purl.org/dc/elements/1.1/"
   xmlns:cc="http://creativecommons.org/ns#"
   xmlns:rdf="http://www.w3.org/1999/02/22-rdf-syntax-ns#"
   xmlns:svg="http://www.w3.org/2000/svg"
   xmlns="http://www.w3.org/2000/svg"
   xmlns:sodipodi="http://sodipodi.sourceforge.net/DTD/sodipodi-0.dtd"
   xmlns:inkscape="http://www.inkscape.org/namespaces/inkscape"
   width="500"
   height="500"
   viewBox="0 0 132.29166 132.29167"
   version="1.1"
   id="svg885"
   inkscape:version="0.92.5 (2060ec1f9f, 2020-04-08)"
   sodipodi:docname="back16.svg">
  <defs
     id="defs879" />
  <sodipodi:namedview
     id="base"
     pagecolor="#ffffff"
     bordercolor="#666666"
     borderopacity="1.0"
     inkscape:pageopacity="0.0"
     inkscape:pageshadow="2"
     inkscape:zoom="0.98994949"
     inkscape:cx="-7.3877303"
     inkscape:cy="268.67922"
     inkscape:document-units="mm"
     inkscape:current-layer="layer1"
     showgrid="false"
     units="px"
     inkscape:window-width="1848"
     inkscape:window-height="1016"
     inkscape:window-x="72"
     inkscape:window-y="27"
     inkscape:window-maximized="1"
     inkscape:lockguides="true" />
  <metadata
     id="metadata882">
    <rdf:RDF>
      <cc:Work
         rdf:about="">
        <dc:format>image/svg+xml</dc:format>
        <dc:type
           rdf:resource="http://purl.org/dc/dcmitype/StillImage" />
        <dc:title />
      </cc:Work>
    </rdf:RDF>
  </metadata>
  <g
     inkscape:label="Layer 1"
     inkscape:groupmode="layer"
     id="layer1"
     transform="translate(0,-164.70832)">
    <ellipse
       style="opacity:0.26199999;vector-effect:none;fill:#754f75;fill-opacity:1;stroke:none;stroke-width:1.17161381;stroke-linecap:round;stroke-linejoin:round;stroke-miterlimit:4;stroke-dasharray:none;stroke-dashoffset:0;stroke-opacity:1"
       id="path1534"
       cx="85.47683"
       cy="282.5824"
       rx="42.783207"
       ry="9.6148434" />
    <ellipse
       style="opacity:0.26199999;vector-effect:none;fill:#754f75;fill-opacity:1;stroke:none;stroke-width:0.76952147;stroke-linecap:round;stroke-linejoin:round;stroke-miterlimit:4;stroke-dasharray:none;stroke-dashoffset:0;stroke-opacity:1"
       id="path1534-9"
       cx="71.481262"
       cy="282.92374"
       rx="28.100214"
       ry="6.3150744" />
    <circle
       style="opacity:1;vector-effect:none;fill:#9957af;fill-opacity:1;stroke:none;stroke-width:1.14031112;stroke-linecap:round;stroke-linejoin:round;stroke-miterlimit:4;stroke-dasharray:none;stroke-dashoffset:0;stroke-opacity:1"
       id="path1449"
       cx="62.440365"
       cy="229.14644"
       r="58.030418" />
    <circle
       style="opacity:1;vector-effect:none;fill:#82326f;fill-opacity:1;stroke:none;stroke-width:1.11348021;stroke-linecap:round;stroke-linejoin:round;stroke-miterlimit:4;stroke-dasharray:none;stroke-dashoffset:0;stroke-opacity:1"
       id="path1449-3"
       cx="62.440365"
       cy="229.14644"
       r="56.665001" />
    <ellipse
       style="opacity:1;vector-effect:none;fill:#613e6d;fill-opacity:1;stroke:none;stroke-width:0.73709202;stroke-linecap:round;stroke-linejoin:round;stroke-miterlimit:4;stroke-dasharray:none;stroke-dashoffset:0;stroke-opacity:1"
       id="path1449-3-3"
       cx="62.440365"
       cy="229.14644"
       rx="37.386955"
       ry="37.634663" />
    <ellipse
       style="opacity:1;vector-effect:none;fill:#000000;fill-opacity:1;stroke:none;stroke-width:0.68278807;stroke-linecap:round;stroke-linejoin:round;stroke-miterlimit:4;stroke-dasharray:none;stroke-dashoffset:0;stroke-opacity:1"
       id="path1449-3-3-0"
       cx="62.440365"
       cy="229.14644"
       rx="34.632538"
       ry="34.861996" />
    <path
       style="fill:#c12688;fill-opacity:1;stroke:none;stroke-width:0.45056611px;stroke-linecap:butt;stroke-linejoin:miter;stroke-opacity:1"
       d="m 12.488691,207.29972 c 0,0 4.63182,-14.18778 20.139969,-23.89489 15.916805,-9.96289 28.901421,-9.44417 28.901421,-9.44417 0,0 -17.19509,5.47451 -27.763568,12.2888 -12.174689,7.84993 -21.277822,21.05026 -21.277822,21.05026 z"
       id="path1496"
       inkscape:connector-curvature="0"
       sodipodi:nodetypes="cscsc" />
    <path
       style="fill:#c12688;fill-opacity:1;stroke:none;stroke-width:0.45056611px;stroke-linecap:butt;stroke-linejoin:miter;stroke-opacity:1"
       d="m 67.352956,283.81496 c 0,0 17.255122,-2.81772 32.22176,-16.62391 14.524494,-13.39832 17.526094,-33.44637 17.526094,-33.44637 0,0 -1.76699,20.12708 -14.40203,32.98788 -12.992154,15.8522 -35.345824,17.0824 -35.345824,17.0824 z"
       id="path1502"
       inkscape:connector-curvature="0"
       sodipodi:nodetypes="csccc" />
    <path
       style="fill:#441b4d;fill-opacity:1;stroke:none;stroke-width:0.45056611px;stroke-linecap:butt;stroke-linejoin:miter;stroke-opacity:1"
       d="m 8.2786413,226.30183 c 0,0 -3.8706954,17.27867 12.9715057,38.11802 15.585378,19.28423 42.555639,20.36753 42.555639,20.36753 0,0 -26.120163,-7.65598 -38.800732,-23.78109 C 11.394135,243.69812 8.2786413,226.30183 8.2786413,226.30183 Z"
       id="path1498"
       inkscape:connector-curvature="0"
       sodipodi:nodetypes="cscsc" />
    <path
       style="fill:#441b4d;fill-opacity:1;stroke:none;stroke-width:0.45056611px;stroke-linecap:butt;stroke-linejoin:miter;stroke-opacity:1"
       d="m 73.116067,267.96472 c 0,0 11.784257,-3.57061 18.997624,-12.45183 7.849509,-9.66445 9.275819,-19.11899 9.275819,-19.11899 0,0 0.14172,12.08179 -5.761552,19.93446 -9.438692,12.55555 -22.511891,11.63636 -22.511891,11.63636 z"
       id="path1500"
       inkscape:connector-curvature="0"
       sodipodi:nodetypes="cscsc" />
    <path
       style="fill:#c12688;fill-opacity:1;stroke:none;stroke-width:0.45056611px;stroke-linecap:butt;stroke-linejoin:miter;stroke-opacity:1"
       d="m 23.779191,215.00115 c 0,0 5.493113,-13.36137 14.646353,-19.4062 11.50994,-7.6012 25.578374,-7.27865 25.578374,-7.27865 0,0 -17.670875,-3.82775 -29.698611,7.64808 C 22.85,206.89404 23.779191,215.00115 23.779191,215.00115 Z"
       id="path1504"
       inkscape:connector-curvature="0"
       sodipodi:nodetypes="cscsc" />
    <path
       style="opacity:0.497;fill:#c8afcd;fill-opacity:1;stroke:none;stroke-width:0.45056611px;stroke-linecap:butt;stroke-linejoin:miter;stroke-opacity:1"
       d="m 42.197929,195.81003 c 0,0 -0.911998,-3.11088 -0.667794,-7.16951 0.33609,-5.58578 5.799581,-15.02436 5.799581,-15.02436 0,0 -4.37482,1.25605 -9.143445,3.35116 -3.291257,1.44602 -7.102216,4.00624 -7.102216,4.00624 0,0 -1.464498,6.18081 0.309093,11.15227 2.649144,7.42568 5.971412,7.412 5.971412,7.412 0,0 1.370906,-1.24739 2.294992,-1.8171 0.751826,-0.46349 2.538377,-1.9107 2.538377,-1.9107 z"
       id="path1506"
       inkscape:connector-curvature="0"
       sodipodi:nodetypes="cscscscsc" />
    <path
       style="opacity:0.497;fill:#c8afcd;fill-opacity:1;stroke:none;stroke-width:0.45056611px;stroke-linecap:butt;stroke-linejoin:miter;stroke-opacity:1"
       d="m 50.891173,176.17949 c 0,0 -3.658319,4.35542 -3.822427,7.79051 -0.397974,8.33035 1.842794,8.73349 1.842794,8.73349 0,0 -0.387944,-5.34475 0.359263,-8.4066 0.850987,-3.4871 5.204601,-9.02768 5.204601,-9.02768 0,0 -1.434702,0.21092 -2.133471,0.39825 -0.495332,0.13283 -1.45076,0.51203 -1.45076,0.51203 z"
       id="path1516"
       inkscape:connector-curvature="0"
       sodipodi:nodetypes="cscscsc" />
    <path
       style="fill:#fefcff;fill-opacity:1;stroke:none;stroke-width:0.45056611px;stroke-linecap:butt;stroke-linejoin:miter;stroke-opacity:1"
       d="m 33.538939,183.34795 c 0,0 -0.502859,5.0238 0.170679,7.39603 0.696468,2.453 3.868696,6.59953 3.868696,6.59953 0,0 -1.764731,-4.77663 -2.048134,-7.28225 -0.305152,-2.69793 0.398247,-8.13563 0.398247,-8.13563 0,0 -1.091522,0.47873 -1.592992,0.79649 -0.285209,0.18073 -0.796496,0.62583 -0.796496,0.62583 z"
       id="path1520"
       inkscape:connector-curvature="0"
       sodipodi:nodetypes="cscscsc" />
    <path
       style="opacity:0.63999999;fill:#5a224c;fill-opacity:1;stroke:none;stroke-width:0.45056611px;stroke-linecap:butt;stroke-linejoin:miter;stroke-opacity:1"
       d="m 89.726638,259.71673 c 0,0 2.682741,1.85039 4.487731,5.62484 1.382366,2.89069 2.190857,8.46556 2.190857,8.46556 0,0 -4.06807,3.08156 -6.315075,4.26694 -2.417053,1.27505 -7.225356,3.58422 -7.225356,3.58422 0,0 2.520062,-6.5867 2.929475,-10.87054 0.378096,-3.95617 -0.01537,-7.59158 -0.01537,-7.59158 0,0 1.622249,-1.28757 2.361648,-1.83813 0.610225,-0.45439 1.586087,-1.64131 1.586087,-1.64131 z"
       id="path1522"
       inkscape:connector-curvature="0"
       sodipodi:nodetypes="cscscscscc" />
    <path
       style="fill:#754f75;fill-opacity:1;stroke:none;stroke-width:0.45056611px;stroke-linecap:butt;stroke-linejoin:miter;stroke-opacity:1"
       d="m 13.309686,228.67581 c 0,0 2.045867,3.10432 4.539264,4.64325 2.073254,1.27962 5.217524,2.4962 5.217524,2.4962 0,0 2.540774,13.61731 13.430992,23.57426 9.562964,8.74343 26.383782,10.14148 26.383782,10.14148 0,0 -0.678616,0.97006 -0.746067,3.92271 -0.06342,2.77637 2.024111,6.39355 2.024111,6.39355 0,0 -21.211989,-4.85956 -34.275209,-17.70082 C 15.351548,247.86082 13.309686,228.67581 13.309686,228.67581 Z"
       id="path1530"
       inkscape:connector-curvature="0"
       sodipodi:nodetypes="cscscscsc" />
    <path
       style="fill:#754f75;fill-opacity:1;stroke:none;stroke-width:0.45056611px;stroke-linecap:butt;stroke-linejoin:miter;stroke-opacity:1"
       d="m 73.534163,190.94683 c 0,0 11.252812,2.76648 21.312141,15.41951 6.685546,8.40935 6.872166,19.26746 6.872166,19.26746 0,0 4.45556,-0.77274 7.42271,-0.77274 3.46168,0 5.22405,2.20559 5.22405,2.20559 0,0 -0.26503,-18.96655 -14.16065,-34.27522 -13.086311,-14.41705 -32.183293,-14.48248 -32.183293,-14.48248 0,0 3.489668,3.49909 4.214274,5.99127 0.812703,2.79519 1.298602,6.64661 1.298602,6.64661 z"
       id="path1532"
       inkscape:connector-curvature="0"
       sodipodi:nodetypes="cscscscsc" />
    <path
       style="fill:#1c1353;fill-opacity:1;stroke:none;stroke-width:0.26458332px;stroke-linecap:butt;stroke-linejoin:miter;stroke-opacity:1"
       d="m 35.613663,247.28786 c 0,0 10.921188,-16.61824 36.682742,-13.76439 13.043829,1.44499 19.310224,10.35669 19.310224,10.35669 0,0 -9.153873,17.22781 -26.860587,17.97388 -20.43704,0.86111 -29.132379,-14.56618 -29.132379,-14.56618 z"
       id="path2442"
       inkscape:connector-curvature="0"
       sodipodi:nodetypes="cscsc" />
    <path
       style="fill:#b676c3;fill-opacity:1;stroke:none;stroke-width:0.26458332px;stroke-linecap:butt;stroke-linejoin:miter;stroke-opacity:1"
       d="m 62.181004,257.51069 h 2.765491 l 24.985615,-41.97453 -0.459603,-3.19387 -27.599613,42.7632 z"
       id="path2444"
       inkscape:connector-curvature="0"
       sodipodi:nodetypes="cccccc" />
    <path
       style="fill:#d7abe0;fill-opacity:1;stroke:none;stroke-width:0.65895617px;stroke-linecap:butt;stroke-linejoin:miter;stroke-opacity:1"
       d="m 62.181005,257.51069 -26.07796,-45.1684 h 53.369462 z"
       id="path2347"
       inkscape:connector-curvature="0" />
    <path
       style="fill:#ece7ed;fill-opacity:1;stroke:none;stroke-width:0.52110004px;stroke-linecap:butt;stroke-linejoin:miter;stroke-opacity:1"
       d="M 62.307943,252.78599 40.098093,214.42116 H 85.477456 Z"
       id="path2347-4"
       inkscape:connector-curvature="0"
       sodipodi:nodetypes="cccc" />
    <g
       aria-label="Don't count"
       transform="scale(0.98413002,1.0161259)"
       style="font-style:normal;font-variant:normal;font-weight:normal;font-stretch:normal;font-size:5.02016735px;line-height:1.25;font-family:Montserrat;-inkscape-font-specification:Montserrat;text-align:center;letter-spacing:0px;word-spacing:0px;text-anchor:middle;fill:#d7abe0;fill-opacity:1;stroke:none;stroke-width:0.12550421"
       id="text2448-9">
      <path
         d="m 49.68883,217.80261 h 1.480949 q 0.557238,0 0.988973,0.22089 0.431734,0.22088 0.667682,0.6225 0.240968,0.39659 0.240968,0.91367 0,0.51708 -0.240968,0.91869 -0.235948,0.39659 -0.667682,0.61748 -0.431735,0.22089 -0.988973,0.22089 H 49.68883 Z m 1.450828,3.07736 q 0.426714,0 0.748005,-0.16566 0.326311,-0.16567 0.502017,-0.46186 0.175705,-0.30121 0.175705,-0.69278 0,-0.39157 -0.175705,-0.68776 -0.175706,-0.30121 -0.502017,-0.46688 -0.321291,-0.16567 -0.748005,-0.16567 h -0.948812 v 2.64061 z"
         style="text-align:center;text-anchor:middle;fill:#d7abe0;fill-opacity:1;stroke-width:0.12550421"
         id="path880" />
      <path
         d="m 54.904775,221.34685 q -0.396593,0 -0.712864,-0.17571 -0.31627,-0.1757 -0.496996,-0.48193 -0.175706,-0.31125 -0.175706,-0.70283 0,-0.39157 0.175706,-0.6978 0.180726,-0.31125 0.496996,-0.48194 0.316271,-0.1757 0.712864,-0.1757 0.396593,0 0.707844,0.1757 0.31627,0.17069 0.491976,0.48194 0.180726,0.30623 0.180726,0.6978 0,0.39158 -0.180726,0.70283 -0.175706,0.30623 -0.491976,0.48193 -0.311251,0.17571 -0.707844,0.17571 z m 0,-0.4217 q 0.256029,0 0.456835,-0.11546 0.205827,-0.12048 0.321291,-0.33133 0.115464,-0.21587 0.115464,-0.49198 0,-0.27611 -0.115464,-0.48695 -0.115464,-0.21587 -0.321291,-0.33133 -0.200806,-0.11547 -0.456835,-0.11547 -0.256029,0 -0.461855,0.11547 -0.200807,0.11546 -0.321291,0.33133 -0.115464,0.21084 -0.115464,0.48695 0,0.27611 0.115464,0.49198 0.120484,0.21085 0.321291,0.33133 0.205826,0.11546 0.461855,0.11546 z"
         style="text-align:center;text-anchor:middle;fill:#d7abe0;fill-opacity:1;stroke-width:0.12550421"
         id="path882" />
      <path
         d="m 58.373702,218.63094 q 0.507037,0 0.803227,0.29619 0.30121,0.29117 0.30121,0.85845 v 1.53115 h -0.481936 v -1.47593 q 0,-0.38656 -0.185746,-0.58234 -0.185746,-0.19579 -0.532138,-0.19579 -0.391573,0 -0.61748,0.23093 -0.225908,0.22591 -0.225908,0.65262 v 1.37051 h -0.481936 v -2.66069 h 0.461855 v 0.40161 q 0.145585,-0.20583 0.391573,-0.31627 0.251009,-0.11044 0.567279,-0.11044 z"
         style="text-align:center;text-anchor:middle;fill:#d7abe0;fill-opacity:1;stroke-width:0.12550421"
         id="path884" />
      <path
         d="m 60.231163,217.80261 h 0.421694 l -0.03514,1.35544 h -0.356432 z"
         style="text-align:center;text-anchor:middle;fill:#d7abe0;fill-opacity:1;stroke-width:0.12550421"
         id="path886" />
      <path
         d="m 62.921968,221.1611 q -0.105423,0.0904 -0.261048,0.14057 -0.155626,0.0452 -0.321291,0.0452 -0.401614,0 -0.622501,-0.21587 -0.220887,-0.21587 -0.220887,-0.61748 v -1.46087 h -0.451815 v -0.39659 h 0.451815 v -0.58234 h 0.481936 v 0.58234 h 0.763065 v 0.39659 h -0.763065 v 1.44079 q 0,0.21587 0.105423,0.33133 0.110444,0.11546 0.311251,0.11546 0.220887,0 0.376512,-0.1255 z"
         style="text-align:center;text-anchor:middle;fill:#d7abe0;fill-opacity:1;stroke-width:0.12550421"
         id="path888" />
      <path
         d="m 66.014384,221.34685 q -0.406633,0 -0.727924,-0.17571 -0.316271,-0.1757 -0.496997,-0.48193 -0.180726,-0.31125 -0.180726,-0.70283 0,-0.39157 0.180726,-0.6978 0.180726,-0.31125 0.496997,-0.48194 0.321291,-0.1757 0.727924,-0.1757 0.361452,0 0.642582,0.14558 0.286149,0.14559 0.441774,0.4217 l -0.366472,0.23594 q -0.125504,-0.19076 -0.31125,-0.28615 -0.185746,-0.0954 -0.411654,-0.0954 -0.261049,0 -0.471896,0.11547 -0.205827,0.11546 -0.326311,0.33133 -0.115463,0.21084 -0.115463,0.48695 0,0.28113 0.115463,0.497 0.120484,0.21085 0.326311,0.32631 0.210847,0.11546 0.471896,0.11546 0.225908,0 0.411654,-0.0954 0.185746,-0.0954 0.31125,-0.28615 l 0.366472,0.23093 q -0.155625,0.27611 -0.441774,0.42671 -0.28113,0.14559 -0.642582,0.14559 z"
         style="text-align:center;text-anchor:middle;fill:#d7abe0;fill-opacity:1;stroke-width:0.12550421"
         id="path890" />
      <path
         d="m 68.820646,221.34685 q -0.396593,0 -0.712864,-0.17571 -0.31627,-0.1757 -0.496996,-0.48193 -0.175706,-0.31125 -0.175706,-0.70283 0,-0.39157 0.175706,-0.6978 0.180726,-0.31125 0.496996,-0.48194 0.316271,-0.1757 0.712864,-0.1757 0.396593,0 0.707844,0.1757 0.31627,0.17069 0.491976,0.48194 0.180726,0.30623 0.180726,0.6978 0,0.39158 -0.180726,0.70283 -0.175706,0.30623 -0.491976,0.48193 -0.311251,0.17571 -0.707844,0.17571 z m 0,-0.4217 q 0.256029,0 0.456835,-0.11546 0.205827,-0.12048 0.321291,-0.33133 0.115464,-0.21587 0.115464,-0.49198 0,-0.27611 -0.115464,-0.48695 -0.115464,-0.21587 -0.321291,-0.33133 -0.200806,-0.11547 -0.456835,-0.11547 -0.256028,0 -0.461855,0.11547 -0.200807,0.11546 -0.321291,0.33133 -0.115464,0.21084 -0.115464,0.48695 0,0.27611 0.115464,0.49198 0.120484,0.21085 0.321291,0.33133 0.205827,0.11546 0.461855,0.11546 z"
         style="text-align:center;text-anchor:middle;fill:#d7abe0;fill-opacity:1;stroke-width:0.12550421"
         id="path892" />
      <path
         d="m 73.348828,218.65604 v 2.66069 h -0.456835 v -0.40162 q -0.145585,0.20583 -0.386553,0.32129 -0.235948,0.11045 -0.517077,0.11045 -0.532138,0 -0.838368,-0.29117 -0.30623,-0.29619 -0.30623,-0.86849 v -1.53115 h 0.481936 v 1.47593 q 0,0.38655 0.185746,0.58736 0.185746,0.19578 0.532138,0.19578 0.381533,0 0.60242,-0.23092 0.220887,-0.23093 0.220887,-0.65263 v -1.37552 z"
         style="text-align:center;text-anchor:middle;fill:#d7abe0;fill-opacity:1;stroke-width:0.12550421"
         id="path894" />
      <path
         d="m 75.688218,218.63094 q 0.507037,0 0.803227,0.29619 0.30121,0.29117 0.30121,0.85845 v 1.53115 h -0.481936 v -1.47593 q 0,-0.38656 -0.185746,-0.58234 -0.185746,-0.19579 -0.532138,-0.19579 -0.391573,0 -0.61748,0.23093 -0.225908,0.22591 -0.225908,0.65262 v 1.37051 h -0.481936 v -2.66069 h 0.461855 v 0.40161 q 0.145585,-0.20583 0.391574,-0.31627 0.251008,-0.11044 0.567278,-0.11044 z"
         style="text-align:center;text-anchor:middle;fill:#d7abe0;fill-opacity:1;stroke-width:0.12550421"
         id="path896" />
      <path
         d="m 79.182253,221.1611 q -0.105424,0.0904 -0.261049,0.14057 -0.155625,0.0452 -0.321291,0.0452 -0.401613,0 -0.622501,-0.21587 -0.220887,-0.21587 -0.220887,-0.61748 v -1.46087 H 77.30471 v -0.39659 h 0.451815 v -0.58234 h 0.481936 v 0.58234 h 0.763066 v 0.39659 h -0.763066 v 1.44079 q 0,0.21587 0.105424,0.33133 0.110443,0.11546 0.31125,0.11546 0.220887,0 0.376513,-0.1255 z"
         style="text-align:center;text-anchor:middle;fill:#d7abe0;fill-opacity:1;stroke-width:0.12550421"
         id="path898" />
    </g>
    <g
       aria-label="Don't count"
       transform="scale(0.98413002,1.0161259)"
       style="font-style:normal;font-variant:normal;font-weight:normal;font-stretch:normal;font-size:5.02016783px;line-height:1.25;font-family:Montserrat;-inkscape-font-specification:Montserrat;text-align:center;letter-spacing:0px;word-spacing:0px;text-anchor:middle;fill:#441b4d;fill-opacity:1;stroke:none;stroke-width:0.12550421"
       id="text2448">
      <path
         d="m 49.151127,217.80261 h 1.48095 q 0.557239,0 0.988973,0.22089 0.431734,0.22088 0.667682,0.6225 0.240968,0.39659 0.240968,0.91367 0,0.51708 -0.240968,0.91869 -0.235948,0.39659 -0.667682,0.61748 -0.431734,0.22089 -0.988973,0.22089 h -1.48095 z m 1.450829,3.07736 q 0.426714,0 0.748005,-0.16566 0.326311,-0.16567 0.502017,-0.46186 0.175706,-0.30121 0.175706,-0.69278 0,-0.39158 -0.175706,-0.68777 -0.175706,-0.30121 -0.502017,-0.46687 -0.321291,-0.16567 -0.748005,-0.16567 h -0.948812 v 2.64061 z"
         style="text-align:center;text-anchor:middle;fill:#441b4d;fill-opacity:1;stroke-width:0.12550421"
         id="path859" />
      <path
         d="m 54.367074,221.34685 q -0.396594,0 -0.712864,-0.17571 -0.316271,-0.1757 -0.496997,-0.48193 -0.175706,-0.31125 -0.175706,-0.70283 0,-0.39157 0.175706,-0.6978 0.180726,-0.31125 0.496997,-0.48194 0.31627,-0.1757 0.712864,-0.1757 0.396593,0 0.707843,0.1757 0.316271,0.17069 0.491977,0.48194 0.180726,0.30623 0.180726,0.6978 0,0.39158 -0.180726,0.70283 -0.175706,0.30623 -0.491977,0.48193 -0.31125,0.17571 -0.707843,0.17571 z m 0,-0.4217 q 0.256028,0 0.456835,-0.11546 0.205827,-0.12048 0.321291,-0.33133 0.115463,-0.21587 0.115463,-0.49198 0,-0.27611 -0.115463,-0.48695 -0.115464,-0.21587 -0.321291,-0.33134 -0.200807,-0.11546 -0.456835,-0.11546 -0.256029,0 -0.461856,0.11546 -0.200807,0.11547 -0.321291,0.33134 -0.115463,0.21084 -0.115463,0.48695 0,0.27611 0.115463,0.49198 0.120484,0.21085 0.321291,0.33133 0.205827,0.11546 0.461856,0.11546 z"
         style="text-align:center;text-anchor:middle;fill:#441b4d;fill-opacity:1;stroke-width:0.12550421"
         id="path861" />
      <path
         d="m 57.836001,218.63094 q 0.507037,0 0.803227,0.29619 0.30121,0.29117 0.30121,0.85845 v 1.53115 h -0.481936 v -1.47593 q 0,-0.38656 -0.185746,-0.58234 -0.185746,-0.19579 -0.532138,-0.19579 -0.391573,0 -0.61748,0.23093 -0.225908,0.22591 -0.225908,0.65262 v 1.37051 h -0.481936 v -2.66069 h 0.461855 v 0.40161 q 0.145585,-0.20583 0.391573,-0.31627 0.251009,-0.11044 0.567279,-0.11044 z"
         style="text-align:center;text-anchor:middle;fill:#441b4d;fill-opacity:1;stroke-width:0.12550421"
         id="path863" />
      <path
         d="m 59.693462,217.80261 h 0.421694 l -0.03514,1.35544 h -0.356432 z"
         style="text-align:center;text-anchor:middle;fill:#441b4d;fill-opacity:1;stroke-width:0.12550421"
         id="path865" />
      <path
         d="m 62.384267,221.1611 q -0.105423,0.0904 -0.261048,0.14057 -0.155626,0.0452 -0.321291,0.0452 -0.401614,0 -0.622501,-0.21587 -0.220887,-0.21587 -0.220887,-0.61748 v -1.46087 h -0.451815 v -0.39659 h 0.451815 v -0.58234 h 0.481936 v 0.58234 h 0.763065 v 0.39659 h -0.763065 v 1.44079 q 0,0.21587 0.105423,0.33133 0.110444,0.11546 0.311251,0.11546 0.220887,0 0.376512,-0.1255 z"
         style="text-align:center;text-anchor:middle;fill:#441b4d;fill-opacity:1;stroke-width:0.12550421"
         id="path867" />
      <path
         d="m 65.476684,221.34685 q -0.406633,0 -0.727924,-0.17571 -0.316271,-0.1757 -0.496997,-0.48193 -0.180726,-0.31125 -0.180726,-0.70283 0,-0.39157 0.180726,-0.6978 0.180726,-0.31125 0.496997,-0.48194 0.321291,-0.1757 0.727924,-0.1757 0.361452,0 0.642582,0.14558 0.286149,0.14559 0.441774,0.4217 l -0.366472,0.23594 q -0.125504,-0.19076 -0.31125,-0.28615 -0.185746,-0.0954 -0.411654,-0.0954 -0.261049,0 -0.471896,0.11546 -0.205827,0.11547 -0.326311,0.33134 -0.115464,0.21084 -0.115464,0.48695 0,0.28113 0.115464,0.497 0.120484,0.21085 0.326311,0.32631 0.210847,0.11546 0.471896,0.11546 0.225908,0 0.411654,-0.0954 0.185746,-0.0954 0.31125,-0.28615 l 0.366472,0.23093 q -0.155625,0.27611 -0.441774,0.42671 -0.28113,0.14559 -0.642582,0.14559 z"
         style="text-align:center;text-anchor:middle;fill:#441b4d;fill-opacity:1;stroke-width:0.12550421"
         id="path869" />
      <path
         d="m 68.282946,221.34685 q -0.396593,0 -0.712864,-0.17571 -0.31627,-0.1757 -0.496996,-0.48193 -0.175706,-0.31125 -0.175706,-0.70283 0,-0.39157 0.175706,-0.6978 0.180726,-0.31125 0.496996,-0.48194 0.316271,-0.1757 0.712864,-0.1757 0.396593,0 0.707844,0.1757 0.31627,0.17069 0.491976,0.48194 0.180726,0.30623 0.180726,0.6978 0,0.39158 -0.180726,0.70283 -0.175706,0.30623 -0.491976,0.48193 -0.311251,0.17571 -0.707844,0.17571 z m 0,-0.4217 q 0.256029,0 0.456835,-0.11546 0.205827,-0.12048 0.321291,-0.33133 0.115464,-0.21587 0.115464,-0.49198 0,-0.27611 -0.115464,-0.48695 -0.115464,-0.21587 -0.321291,-0.33134 -0.200806,-0.11546 -0.456835,-0.11546 -0.256028,0 -0.461855,0.11546 -0.200807,0.11547 -0.321291,0.33134 -0.115464,0.21084 -0.115464,0.48695 0,0.27611 0.115464,0.49198 0.120484,0.21085 0.321291,0.33133 0.205827,0.11546 0.461855,0.11546 z"
         style="text-align:center;text-anchor:middle;fill:#441b4d;fill-opacity:1;stroke-width:0.12550421"
         id="path871" />
      <path
         d="m 72.81113,218.65604 v 2.66069 h -0.456835 v -0.40162 q -0.145585,0.20583 -0.386553,0.32129 -0.235948,0.11045 -0.517077,0.11045 -0.532138,0 -0.838368,-0.29117 -0.30623,-0.29619 -0.30623,-0.86849 v -1.53115 h 0.481936 v 1.47593 q 0,0.38655 0.185746,0.58736 0.185746,0.19578 0.532138,0.19578 0.381532,0 0.60242,-0.23092 0.220887,-0.23093 0.220887,-0.65263 v -1.37552 z"
         style="text-align:center;text-anchor:middle;fill:#441b4d;fill-opacity:1;stroke-width:0.12550421"
         id="path873" />
      <path
         d="m 75.150518,218.63094 q 0.507037,0 0.803227,0.29619 0.30121,0.29117 0.30121,0.85845 v 1.53115 h -0.481936 v -1.47593 q 0,-0.38656 -0.185746,-0.58234 -0.185746,-0.19579 -0.532138,-0.19579 -0.391573,0 -0.61748,0.23093 -0.225908,0.22591 -0.225908,0.65262 v 1.37051 h -0.481936 v -2.66069 h 0.461855 v 0.40161 q 0.145585,-0.20583 0.391573,-0.31627 0.251009,-0.11044 0.567279,-0.11044 z"
         style="text-align:center;text-anchor:middle;fill:#441b4d;fill-opacity:1;stroke-width:0.12550421"
         id="path875" />
      <path
         d="m 78.644555,221.1611 q -0.105424,0.0904 -0.261049,0.14057 -0.155625,0.0452 -0.321291,0.0452 -0.401613,0 -0.622501,-0.21587 -0.220887,-0.21587 -0.220887,-0.61748 v -1.46087 h -0.451815 v -0.39659 h 0.451815 v -0.58234 h 0.481936 v 0.58234 h 0.763066 v 0.39659 h -0.763066 v 1.44079 q 0,0.21587 0.105424,0.33133 0.110443,0.11546 0.31125,0.11546 0.220887,0 0.376513,-0.1255 z"
         style="text-align:center;text-anchor:middle;fill:#441b4d;fill-opacity:1;stroke-width:0.12550421"
         id="path877" />
    </g>
    <g
       aria-label="on it"
       transform="scale(0.98413002,1.0161259)"
       style="font-style:normal;font-variant:normal;font-weight:normal;font-stretch:normal;font-size:5.02016735px;line-height:1.25;font-family:Montserrat;-inkscape-font-specification:Montserrat;text-align:center;letter-spacing:0px;word-spacing:0px;text-anchor:middle;fill:#d7abe0;fill-opacity:1;stroke:none;stroke-width:0.12550421"
       id="text2448-3-3">
      <path
         d="m 60.113186,227.21416 q -0.396593,0 -0.712864,-0.17571 -0.31627,-0.1757 -0.496996,-0.48193 -0.175706,-0.31126 -0.175706,-0.70283 0,-0.39157 0.175706,-0.6978 0.180726,-0.31125 0.496996,-0.48194 0.316271,-0.1757 0.712864,-0.1757 0.396593,0 0.707844,0.1757 0.31627,0.17069 0.491976,0.48194 0.180726,0.30623 0.180726,0.6978 0,0.39157 -0.180726,0.70283 -0.175706,0.30623 -0.491976,0.48193 -0.311251,0.17571 -0.707844,0.17571 z m 0,-0.4217 q 0.256029,0 0.456835,-0.11546 0.205827,-0.12048 0.321291,-0.33133 0.115464,-0.21587 0.115464,-0.49198 0,-0.27611 -0.115464,-0.48695 -0.115464,-0.21587 -0.321291,-0.33134 -0.200806,-0.11546 -0.456835,-0.11546 -0.256028,0 -0.461855,0.11546 -0.200807,0.11547 -0.321291,0.33134 -0.115464,0.21084 -0.115464,0.48695 0,0.27611 0.115464,0.49198 0.120484,0.21085 0.321291,0.33133 0.205827,0.11546 0.461855,0.11546 z"
         style="text-align:center;text-anchor:middle;fill:#d7abe0;fill-opacity:1;stroke-width:0.12550421"
         id="path850" />
      <path
         d="m 63.582113,224.49825 q 0.507037,0 0.803227,0.29619 0.30121,0.29117 0.30121,0.85845 v 1.53115 h -0.481936 v -1.47593 q 0,-0.38656 -0.185746,-0.58234 -0.185746,-0.19579 -0.532138,-0.19579 -0.391573,0 -0.617481,0.23093 -0.225907,0.22591 -0.225907,0.65262 v 1.37051 h -0.481936 v -2.66069 h 0.461855 v 0.40161 q 0.145585,-0.20583 0.391573,-0.31627 0.251009,-0.11044 0.567279,-0.11044 z"
         style="text-align:center;text-anchor:middle;fill:#d7abe0;fill-opacity:1;stroke-width:0.12550421"
         id="path852" />
      <path
         d="m 66.930559,224.52335 h 0.481936 v 2.66069 h -0.481936 z m 0.240968,-0.51206 q -0.140564,0 -0.235948,-0.0904 -0.09036,-0.0904 -0.09036,-0.22089 0,-0.13052 0.09036,-0.22089 0.09538,-0.0954 0.235948,-0.0954 0.140565,0 0.230928,0.0904 0.09538,0.0854 0.09538,0.21587 0,0.13554 -0.09538,0.23093 -0.09036,0.0904 -0.230928,0.0904 z"
         style="text-align:center;text-anchor:middle;fill:#d7abe0;fill-opacity:1;stroke-width:0.12550421"
         id="path854" />
      <path
         d="m 69.827192,227.02841 q -0.105423,0.0904 -0.261048,0.14057 -0.155625,0.0452 -0.321291,0.0452 -0.401613,0 -0.622501,-0.21587 -0.220887,-0.21587 -0.220887,-0.61748 v -1.46087 H 67.94965 v -0.39659 h 0.451815 v -0.58234 h 0.481936 v 0.58234 h 0.763065 v 0.39659 h -0.763065 v 1.44079 q 0,0.21587 0.105423,0.33133 0.110444,0.11546 0.311251,0.11546 0.220887,0 0.376512,-0.1255 z"
         style="text-align:center;text-anchor:middle;fill:#d7abe0;fill-opacity:1;stroke-width:0.12550421"
         id="path856" />
    </g>
    <g
       aria-label="on it"
       transform="scale(0.98413002,1.0161259)"
       style="font-style:normal;font-variant:normal;font-weight:normal;font-stretch:normal;font-size:5.02016783px;line-height:1.25;font-family:Montserrat;-inkscape-font-specification:Montserrat;text-align:center;letter-spacing:0px;word-spacing:0px;text-anchor:middle;fill:#441b4d;fill-opacity:1;stroke:none;stroke-width:0.12550421"
       id="text2448-3">
      <path
         d="m 59.575485,227.21416 q -0.396593,0 -0.712864,-0.17571 -0.31627,-0.1757 -0.496996,-0.48193 -0.175706,-0.31126 -0.175706,-0.70283 0,-0.39157 0.175706,-0.6978 0.180726,-0.31125 0.496996,-0.48194 0.316271,-0.1757 0.712864,-0.1757 0.396593,0 0.707844,0.1757 0.31627,0.17069 0.491976,0.48194 0.180726,0.30623 0.180726,0.6978 0,0.39157 -0.180726,0.70283 -0.175706,0.30623 -0.491976,0.48193 -0.311251,0.17571 -0.707844,0.17571 z m 0,-0.4217 q 0.256029,0 0.456835,-0.11546 0.205827,-0.12048 0.321291,-0.33133 0.115464,-0.21587 0.115464,-0.49198 0,-0.27611 -0.115464,-0.48695 -0.115464,-0.21587 -0.321291,-0.33134 -0.200806,-0.11546 -0.456835,-0.11546 -0.256029,0 -0.461855,0.11546 -0.200807,0.11547 -0.321291,0.33134 -0.115464,0.21084 -0.115464,0.48695 0,0.27611 0.115464,0.49198 0.120484,0.21085 0.321291,0.33133 0.205826,0.11546 0.461855,0.11546 z"
         style="text-align:center;text-anchor:middle;fill:#441b4d;fill-opacity:1;stroke-width:0.12550421"
         id="path841" />
      <path
         d="m 63.044413,224.49825 q 0.507037,0 0.803227,0.29619 0.30121,0.29117 0.30121,0.85845 v 1.53115 h -0.481937 v -1.47593 q 0,-0.38656 -0.185746,-0.58234 -0.185746,-0.19579 -0.532138,-0.19579 -0.391573,0 -0.61748,0.23093 -0.225908,0.22591 -0.225908,0.65262 v 1.37051 h -0.481936 v -2.66069 h 0.461856 v 0.40161 q 0.145584,-0.20583 0.391573,-0.31627 0.251008,-0.11044 0.567279,-0.11044 z"
         style="text-align:center;text-anchor:middle;fill:#441b4d;fill-opacity:1;stroke-width:0.12550421"
         id="path843" />
      <path
         d="m 66.392859,224.52335 h 0.481936 v 2.66069 h -0.481936 z m 0.240968,-0.51206 q -0.140565,0 -0.235948,-0.0904 -0.09036,-0.0904 -0.09036,-0.22089 0,-0.13052 0.09036,-0.22089 0.09538,-0.0954 0.235948,-0.0954 0.140565,0 0.230928,0.0904 0.09538,0.0854 0.09538,0.21587 0,0.13554 -0.09538,0.23093 -0.09036,0.0904 -0.230928,0.0904 z"
         style="text-align:center;text-anchor:middle;fill:#441b4d;fill-opacity:1;stroke-width:0.12550421"
         id="path845" />
      <path
         d="m 69.289492,227.02841 q -0.105423,0.0904 -0.261048,0.14057 -0.155626,0.0452 -0.321291,0.0452 -0.401614,0 -0.622501,-0.21587 -0.220887,-0.21587 -0.220887,-0.61748 v -1.46087 H 67.41195 v -0.39659 h 0.451815 v -0.58234 h 0.481936 v 0.58234 h 0.763065 v 0.39659 h -0.763065 v 1.44079 q 0,0.21587 0.105423,0.33133 0.110444,0.11546 0.311251,0.11546 0.220887,0 0.376512,-0.1255 z"
         style="text-align:center;text-anchor:middle;fill:#441b4d;fill-opacity:1;stroke-width:0.12550421"
         id="path847" />
    </g>
  </g>
</svg>
