<?xml version="1.0" encoding="UTF-8" standalone="no"?>
<!-- Created with Inkscape (http://www.inkscape.org/) -->

<svg
   xmlns:dc="http://purl.org/dc/elements/1.1/"
   xmlns:cc="http://creativecommons.org/ns#"
   xmlns:rdf="http://www.w3.org/1999/02/22-rdf-syntax-ns#"
   xmlns:svg="http://www.w3.org/2000/svg"
   xmlns="http://www.w3.org/2000/svg"
   xmlns:sodipodi="http://sodipodi.sourceforge.net/DTD/sodipodi-0.dtd"
   xmlns:inkscape="http://www.inkscape.org/namespaces/inkscape"
   width="500"
   height="500"
   viewBox="0 0 132.29166 132.29167"
   version="1.1"
   id="svg885"
   inkscape:version="0.92.5 (2060ec1f9f, 2020-04-08)"
   sodipodi:docname="front.svg">
  <defs
     id="defs879" />
  <sodipodi:namedview
     id="base"
     pagecolor="#ffffff"
     bordercolor="#666666"
     borderopacity="1.0"
     inkscape:pageopacity="0.0"
     inkscape:pageshadow="2"
     inkscape:zoom="0.98994949"
     inkscape:cx="245.49294"
     inkscape:cy="212.72952"
     inkscape:document-units="mm"
     inkscape:current-layer="layer1"
     showgrid="false"
     units="px"
     inkscape:window-width="1848"
     inkscape:window-height="1016"
     inkscape:window-x="1992"
     inkscape:window-y="27"
     inkscape:window-maximized="1"
     inkscape:lockguides="true" />
  <metadata
     id="metadata882">
    <rdf:RDF>
      <cc:Work
         rdf:about="">
        <dc:format>image/svg+xml</dc:format>
        <dc:type
           rdf:resource="http://purl.org/dc/dcmitype/StillImage" />
        <dc:title></dc:title>
      </cc:Work>
    </rdf:RDF>
  </metadata>
  <g
     inkscape:label="Layer 1"
     inkscape:groupmode="layer"
     id="layer1"
     transform="translate(0,-164.70832)">
    <g
       id="g1655"
       transform="matrix(1.7029271,0,0,1.7029271,-16.298946,-198.56627)">
      <ellipse
         ry="5.6460686"
         rx="25.123335"
         cy="282.54214"
         cx="59.765198"
         id="path1534"
         style="opacity:0.26199999;vector-effect:none;fill:#754f75;fill-opacity:1;stroke:none;stroke-width:0.68799996;stroke-linecap:round;stroke-linejoin:round;stroke-miterlimit:4;stroke-dasharray:none;stroke-dashoffset:0;stroke-opacity:1" />
      <ellipse
         ry="3.7083645"
         rx="16.501125"
         cy="282.74258"
         cx="51.546661"
         id="path1534-9"
         style="opacity:0.26199999;vector-effect:none;fill:#754f75;fill-opacity:1;stroke:none;stroke-width:0.45188162;stroke-linecap:round;stroke-linejoin:round;stroke-miterlimit:4;stroke-dasharray:none;stroke-dashoffset:0;stroke-opacity:1" />
      <circle
         r="34.076866"
         cy="251.16325"
         cx="46.237629"
         id="path1449"
         style="opacity:1;vector-effect:none;fill:#9957af;fill-opacity:1;stroke:none;stroke-width:0.66961831;stroke-linecap:round;stroke-linejoin:round;stroke-miterlimit:4;stroke-dasharray:none;stroke-dashoffset:0;stroke-opacity:1" />
      <circle
         r="33.275059"
         cy="251.16325"
         cx="46.237629"
         id="path1449-3"
         style="opacity:1;vector-effect:none;fill:#82326f;fill-opacity:1;stroke:none;stroke-width:0.65386254;stroke-linecap:round;stroke-linejoin:round;stroke-miterlimit:4;stroke-dasharray:none;stroke-dashoffset:0;stroke-opacity:1" />
      <circle
         r="16.704348"
         cy="251.16325"
         cx="46.237629"
         id="path1449-3-3"
         style="opacity:1;vector-effect:none;fill:#613e6d;fill-opacity:1;stroke:none;stroke-width:0.32824427;stroke-linecap:round;stroke-linejoin:round;stroke-miterlimit:4;stroke-dasharray:none;stroke-dashoffset:0;stroke-opacity:1" />
      <circle
         r="14.967095"
         cy="251.16325"
         cx="46.237629"
         id="path1449-3-3-0"
         style="opacity:1;vector-effect:none;fill:#ece7ed;fill-opacity:1;stroke:none;stroke-width:0.29410687;stroke-linecap:round;stroke-linejoin:round;stroke-miterlimit:4;stroke-dasharray:none;stroke-dashoffset:0;stroke-opacity:1" />
      <path
         sodipodi:nodetypes="cscsc"
         inkscape:connector-curvature="0"
         id="path1496"
         d="m 16.904797,238.33433 c 0,0 2.719917,-8.33141 11.826677,-14.03166 9.346733,-5.85045 16.971614,-5.54584 16.971614,-5.54584 0,0 -10.097373,3.21476 -16.303439,7.21628 -7.149272,4.60967 -12.494852,12.36122 -12.494852,12.36122 z"
         style="fill:#c12688;fill-opacity:1;stroke:none;stroke-width:0.26458332px;stroke-linecap:butt;stroke-linejoin:miter;stroke-opacity:1" />
      <path
         sodipodi:nodetypes="csccc"
         inkscape:connector-curvature="0"
         id="path1502"
         d="m 49.122421,283.26593 c 0,0 10.132625,-1.65463 18.921397,-9.76196 8.529137,-7.86782 10.291747,-19.64052 10.291747,-19.64052 0,0 -1.037617,11.81911 -8.457218,19.37128 -7.62931,9.3088 -20.755926,10.0312 -20.755926,10.0312 z"
         style="fill:#c12688;fill-opacity:1;stroke:none;stroke-width:0.26458332px;stroke-linecap:butt;stroke-linejoin:miter;stroke-opacity:1" />
      <path
         sodipodi:nodetypes="cscsc"
         inkscape:connector-curvature="0"
         id="path1498"
         d="m 14.432554,249.49283 c 0,0 -2.272966,10.14645 7.617182,22.38382 9.152111,11.32417 24.989701,11.96031 24.989701,11.96031 0,0 -15.338392,-4.49578 -22.784729,-13.96483 -7.992661,-10.16378 -9.822154,-20.3793 -9.822154,-20.3793 z"
         style="fill:#441b4d;fill-opacity:1;stroke:none;stroke-width:0.26458332px;stroke-linecap:butt;stroke-linejoin:miter;stroke-opacity:1" />
      <path
         sodipodi:nodetypes="cscsc"
         inkscape:connector-curvature="0"
         id="path1500"
         d="m 49.798364,269.6912 c 0,0 6.307639,-1.07191 10.488839,-6.3311 3.981633,-5.00817 4.819195,-10.67782 4.819195,-10.67782 0,0 0.867962,6.1138 -2.598585,10.72508 -5.542628,7.37292 -12.709449,6.28384 -12.709449,6.28384 z"
         style="fill:#441b4d;fill-opacity:1;stroke:none;stroke-width:0.26458332px;stroke-linecap:butt;stroke-linejoin:miter;stroke-opacity:1" />
      <path
         sodipodi:nodetypes="cscsc"
         inkscape:connector-curvature="0"
         id="path1504"
         d="m 27.497767,247.95758 c 0,0 1.852402,-8.51315 7.227406,-12.06282 6.758915,-4.46361 13.372295,-3.5287 13.372295,-3.5287 0,0 -8.967208,-3.27101 -16.027219,3.47098 -5.981334,5.7119 -4.572482,12.12054 -4.572482,12.12054 z"
         style="fill:#c12688;fill-opacity:1;stroke:none;stroke-width:0.26458332px;stroke-linecap:butt;stroke-linejoin:miter;stroke-opacity:1" />
      <path
         sodipodi:nodetypes="cscscscsc"
         inkscape:connector-curvature="0"
         id="path1506"
         d="m 36.986517,233.80687 c 0,0 -2.395494,-2.10737 -2.583968,-4.48755 -0.246553,-3.11364 2.961741,-10.76479 2.961741,-10.76479 0,0 -2.569,0.73758 -5.369252,1.96788 -1.932706,0.84914 -4.170593,2.35256 -4.170593,2.35256 0,0 -0.221863,6.293 0.847377,8.40777 2.088981,4.13165 5.254467,4.43574 5.254467,4.43574 0,0 0.943752,-0.76024 1.486398,-1.09479 0.44149,-0.27217 1.57383,-0.81682 1.57383,-0.81682 z"
         style="opacity:0.497;fill:#c8afcd;fill-opacity:1;stroke:none;stroke-width:0.26458332px;stroke-linecap:butt;stroke-linejoin:miter;stroke-opacity:1" />
      <path
         sodipodi:nodetypes="cscscsc"
         inkscape:connector-curvature="0"
         id="path1516"
         d="m 39.455664,220.05978 c 0,0 -2.342466,3.52867 -2.438834,5.54584 -0.2337,4.89178 1.637025,5.21175 1.637025,5.21175 0,0 -0.643979,-3.58249 -0.205201,-5.38048 0.49972,-2.04771 3.111757,-5.91165 3.111757,-5.91165 0,0 -0.842492,0.12386 -1.252826,0.23386 -0.290871,0.078 -0.851921,0.30068 -0.851921,0.30068 z"
         style="opacity:0.497;fill:#c8afcd;fill-opacity:1;stroke:none;stroke-width:0.26458332px;stroke-linecap:butt;stroke-linejoin:miter;stroke-opacity:1" />
      <path
         sodipodi:nodetypes="cscscsc"
         inkscape:connector-curvature="0"
         id="path1520"
         d="m 29.266012,224.26927 c 0,0 -0.295291,2.9501 0.100227,4.34313 0.408983,1.44046 2.271792,3.8754 2.271792,3.8754 0,0 -1.036293,-2.80495 -1.202714,-4.27631 -0.179193,-1.58429 0.23386,-4.77744 0.23386,-4.77744 0,0 -0.640968,0.28112 -0.935443,0.46772 -0.167482,0.10613 -0.467722,0.3675 -0.467722,0.3675 z"
         style="fill:#fefcff;fill-opacity:1;stroke:none;stroke-width:0.26458332px;stroke-linecap:butt;stroke-linejoin:miter;stroke-opacity:1" />
      <path
         sodipodi:nodetypes="cscscscsc"
         inkscape:connector-curvature="0"
         id="path1522"
         d="m 59.43574,265.62279 c 0,0 4.317185,3.30242 5.377119,5.51887 0.811759,1.69748 1.369758,6.24743 1.369758,6.24743 0,0 -2.388869,1.80957 -3.708365,2.50565 -1.419352,0.74874 -4.242904,2.10474 -4.242904,2.10474 0,0 1.955349,-6.17934 1.637025,-8.68625 -0.277375,-2.18443 -2.806329,-5.98016 -2.806329,-5.98016 0,0 1.008113,-0.42316 1.442306,-0.74646 0.358339,-0.26683 0.93139,-0.96382 0.93139,-0.96382 z"
         style="opacity:0.63999999;fill:#5a224c;fill-opacity:1;stroke:none;stroke-width:0.26458332px;stroke-linecap:butt;stroke-linejoin:miter;stroke-opacity:1" />
      <path
         sodipodi:nodetypes="cscscccsc"
         inkscape:connector-curvature="0"
         id="path1530"
         d="m 17.386905,250.88689 c 0,0 2.720824,1.25561 4.44122,1.22842 1.605889,-0.0254 5.338913,-1.08668 5.338913,-1.08668 0,0 0.326731,8.27386 6.000371,13.84338 5.429957,5.33031 14.882814,5.62239 14.882814,5.62239 0,0 -1.273798,3.62486 -1.464658,5.24443 -0.19086,1.61957 0.661459,5.19717 0.661459,5.19717 0,0 -12.456193,-2.85365 -20.127232,-10.39435 -8.533856,-8.38886 -9.732887,-19.65476 -9.732887,-19.65476 z"
         style="fill:#754f75;fill-opacity:1;stroke:none;stroke-width:0.26458332px;stroke-linecap:butt;stroke-linejoin:miter;stroke-opacity:1" />
      <path
         sodipodi:nodetypes="cscscscsc"
         inkscape:connector-curvature="0"
         id="path1532"
         d="m 50.837798,232.36606 c 0,0 6.940859,1.8465 10.961308,7.41778 3.691656,5.11566 4.063245,9.73288 4.063245,9.73288 0,0 3.171306,-0.89769 4.91369,-0.89769 2.032782,0 5.953125,1.32292 5.953125,1.32292 0,0 -0.155634,-11.13762 -8.315477,-20.12724 -7.684598,-8.46604 -18.898808,-8.50446 -18.898808,-8.50446 0,0 1.324931,3.45497 1.559152,4.96094 0.255282,1.6414 -0.236235,6.09487 -0.236235,6.09487 z"
         style="fill:#754f75;fill-opacity:1;stroke:none;stroke-width:0.26458332px;stroke-linecap:butt;stroke-linejoin:miter;stroke-opacity:1" />
      <rect
         transform="rotate(45)"
         y="136.10376"
         x="201.44086"
         height="9.7774649"
         width="9.7774649"
         id="rect1553"
         style="opacity:1;vector-effect:none;fill:#441b4d;fill-opacity:1;stroke:none;stroke-width:0.54126793;stroke-linecap:round;stroke-linejoin:round;stroke-miterlimit:4;stroke-dasharray:none;stroke-dashoffset:0;stroke-opacity:1" />
      <rect
         transform="rotate(45)"
         y="138.30403"
         x="203.64113"
         height="5.3769169"
         width="5.3769169"
         id="rect1553-6"
         style="opacity:1;vector-effect:none;fill:#ece7ed;fill-opacity:1;stroke:none;stroke-width:0.29765925;stroke-linecap:round;stroke-linejoin:round;stroke-miterlimit:4;stroke-dasharray:none;stroke-dashoffset:0;stroke-opacity:1" />
      <rect
         transform="rotate(45)"
         y="144.33563"
         x="209.67273"
         height="9.7774649"
         width="9.7774649"
         id="rect1553-1"
         style="opacity:1;vector-effect:none;fill:#441b4d;fill-opacity:1;stroke:none;stroke-width:0.54126793;stroke-linecap:round;stroke-linejoin:round;stroke-miterlimit:4;stroke-dasharray:none;stroke-dashoffset:0;stroke-opacity:1" />
      <rect
         transform="rotate(45)"
         y="146.5359"
         x="211.873"
         height="5.3769174"
         width="5.3769174"
         id="rect1553-6-1"
         style="opacity:1;vector-effect:none;fill:#ece7ed;fill-opacity:1;stroke:none;stroke-width:0.29765925;stroke-linecap:round;stroke-linejoin:round;stroke-miterlimit:4;stroke-dasharray:none;stroke-dashoffset:0;stroke-opacity:1" />
    </g>
  </g>
</svg>
